<?xml version="1.0" standalone="yes"?>

<svg version="1.1" viewBox="0.0 0.0 904.2650918635171 503.9763779527559" fill="none" stroke="none" stroke-linecap="square" stroke-miterlimit="10" xmlns="http://www.w3.org/2000/svg" xmlns:xlink="http://www.w3.org/1999/xlink"><clipPath id="p.0"><path d="m0 0l904.2651 0l0 503.97638l-904.2651 0l0 -503.97638z" clip-rule="nonzero"></path></clipPath><g clip-path="url(#p.0)"><path fill="#000000" fill-opacity="0.0" d="m0 0l904.2651 0l0 503.97638l-904.2651 0z" fill-rule="evenodd"></path><path fill="#efefef" d="m193.78477 41.24672l636.18896 0l0 435.55908l-636.18896 0z" fill-rule="evenodd"></path><path stroke="#000000" stroke-width="1.0" stroke-linejoin="round" stroke-linecap="butt" d="m193.78477 41.24672l636.18896 0l0 435.55908l-636.18896 0z" fill-rule="evenodd"></path><path fill="#cfe2f3" d="m231.3727 267.65878l0 0c0 -104.98628 85.1082 -190.09448 190.0945 -190.09448l0 0c50.4162 0 98.76749 20.027748 134.41708 55.677376c35.64966 35.649643 55.67743 84.000916 55.67743 134.4171l0 0c0 104.9863 -85.108215 190.09451 -190.09451 190.09451l0 0c-104.9863 0 -190.0945 -85.108215 -190.0945 -190.09451z" fill-rule="evenodd"></path><path stroke="#000000" stroke-width="1.0" stroke-linejoin="round" stroke-linecap="butt" d="m231.3727 267.65878l0 0c0 -104.98628 85.1082 -190.09448 190.0945 -190.09448l0 0c50.4162 0 98.76749 20.027748 134.41708 55.677376c35.64966 35.649643 55.67743 84.000916 55.67743 134.4171l0 0c0 104.9863 -85.108215 190.09451 -190.09451 190.09451l0 0c-104.9863 0 -190.0945 -85.108215 -190.0945 -190.09451z" fill-rule="evenodd"></path><path fill="#000000" d="m307.22195 269.81317l1.796875 0.453125q-0.5625 2.21875 -2.03125 3.390625q-1.46875 1.15625 -3.59375 1.15625q-2.203125 0 -3.578125 -0.890625q-1.375 -0.90625 -2.09375 -2.59375q-0.71875 -1.703125 -0.71875 -3.65625q0 -2.125 0.796875 -3.703125q0.8125 -1.578125 2.3125 -2.390625q1.5 -0.828125 3.296875 -0.828125q2.046875 0 3.4375 1.046875q1.390625 1.03125 1.9375 2.90625l-1.765625 0.421875q-0.46875 -1.484375 -1.375 -2.15625q-0.90625 -0.6875 -2.265625 -0.6875q-1.5625 0 -2.625 0.75q-1.046875 0.75 -1.484375 2.03125q-0.421875 1.265625 -0.421875 2.609375q0 1.734375 0.5 3.03125q0.515625 1.28125 1.578125 1.921875q1.078125 0.640625 2.3125 0.640625q1.515625 0 2.5625 -0.859375q1.046875 -0.875 1.421875 -2.59375zm2.9260864 -0.15625q0 -2.734375 1.53125 -4.0625q1.265625 -1.09375 3.09375 -1.09375q2.03125 0 3.3125 1.34375q1.296875 1.328125 1.296875 3.671875q0 1.90625 -0.578125 3.0q-0.5625 1.078125 -1.65625 1.6875q-1.078125 0.59375 -2.375 0.59375q-2.0625 0 -3.34375 -1.328125q-1.28125 -1.328125 -1.28125 -3.8125zm1.71875 0q0 1.890625 0.828125 2.828125q0.828125 0.9375 2.078125 0.9375q1.25 0 2.0625 -0.9375q0.828125 -0.953125 0.828125 -2.890625q0 -1.828125 -0.828125 -2.765625q-0.828125 -0.9375 -2.0625 -0.9375q-1.25 0 -2.078125 0.9375q-0.828125 0.9375 -0.828125 2.828125zm9.281952 4.921875l0 -9.859375l1.5 0l0 1.390625q0.453125 -0.71875 1.21875 -1.15625q0.78125 -0.453125 1.765625 -0.453125q1.09375 0 1.796875 0.453125q0.703125 0.453125 0.984375 1.28125q1.171875 -1.734375 3.046875 -1.734375q1.46875 0 2.25 0.8125q0.796875 0.8125 0.796875 2.5l0 6.765625l-1.671875 0l0 -6.203125q0 -1.0 -0.15625 -1.4375q-0.15625 -0.453125 -0.59375 -0.71875q-0.421875 -0.265625 -1.0 -0.265625q-1.03125 0 -1.71875 0.6875q-0.6875 0.6875 -0.6875 2.21875l0 5.71875l-1.671875 0l0 -6.40625q0 -1.109375 -0.40625 -1.65625q-0.40625 -0.5625 -1.34375 -0.5625q-0.703125 0 -1.3125 0.375q-0.59375 0.359375 -0.859375 1.078125q-0.265625 0.71875 -0.265625 2.0625l0 5.109375l-1.671875 0zm15.540802 3.78125l0 -13.640625l1.53125 0l0 1.28125q0.53125 -0.75 1.203125 -1.125q0.6875 -0.375 1.640625 -0.375q1.265625 0 2.234375 0.65625q0.96875 0.640625 1.453125 1.828125q0.5 1.1875 0.5 2.59375q0 1.515625 -0.546875 2.734375q-0.546875 1.203125 -1.578125 1.84375q-1.03125 0.640625 -2.171875 0.640625q-0.84375 0 -1.515625 -0.34375q-0.65625 -0.359375 -1.078125 -0.890625l0 4.796875l-1.671875 0zm1.515625 -8.65625q0 1.90625 0.765625 2.8125q0.78125 0.90625 1.875 0.90625q1.109375 0 1.890625 -0.9375q0.796875 -0.9375 0.796875 -2.921875q0 -1.875 -0.78125 -2.8125q-0.765625 -0.9375 -1.84375 -0.9375q-1.0625 0 -1.890625 1.0q-0.8125 1.0 -0.8125 2.890625zm8.235107 -0.046875q0 -2.734375 1.53125 -4.0625q1.265625 -1.09375 3.09375 -1.09375q2.03125 0 3.3125 1.34375q1.296875 1.328125 1.296875 3.671875q0 1.90625 -0.578125 3.0q-0.5625 1.078125 -1.65625 1.6875q-1.078125 0.59375 -2.375 0.59375q-2.0625 0 -3.34375 -1.328125q-1.28125 -1.328125 -1.28125 -3.8125zm1.71875 0q0 1.890625 0.828125 2.828125q0.828125 0.9375 2.078125 0.9375q1.25 0 2.0625 -0.9375q0.828125 -0.953125 0.828125 -2.890625q0 -1.828125 -0.828125 -2.765625q-0.828125 -0.9375 -2.0625 -0.9375q-1.25 0 -2.078125 0.9375q-0.828125 0.9375 -0.828125 2.828125zm9.281952 4.921875l0 -9.859375l1.5 0l0 1.40625q1.09375 -1.625 3.140625 -1.625q0.890625 0 1.640625 0.328125q0.75 0.3125 1.109375 0.84375q0.375 0.515625 0.53125 1.21875q0.09375 0.46875 0.09375 1.625l0 6.0625l-1.671875 0l0 -6.0q0 -1.015625 -0.203125 -1.515625q-0.1875 -0.515625 -0.6875 -0.8125q-0.5 -0.296875 -1.171875 -0.296875q-1.0625 0 -1.84375 0.671875q-0.765625 0.671875 -0.765625 2.578125l0 5.375l-1.671875 0zm17.125732 -3.171875l1.71875 0.21875q-0.40625 1.5 -1.515625 2.34375q-1.09375 0.828125 -2.8125 0.828125q-2.15625 0 -3.421875 -1.328125q-1.265625 -1.328125 -1.265625 -3.734375q0 -2.484375 1.265625 -3.859375q1.28125 -1.375 3.328125 -1.375q1.984375 0 3.234375 1.34375q1.25 1.34375 1.25 3.796875q0 0.140625 -0.015625 0.4375l-7.34375 0q0.09375 1.625 0.921875 2.484375q0.828125 0.859375 2.0625 0.859375q0.90625 0 1.546875 -0.46875q0.65625 -0.484375 1.046875 -1.546875zm-5.484375 -2.703125l5.5 0q-0.109375 -1.234375 -0.625 -1.859375q-0.796875 -0.96875 -2.078125 -0.96875q-1.140625 0 -1.9375 0.78125q-0.78125 0.765625 -0.859375 2.046875zm9.110077 5.875l0 -9.859375l1.5 0l0 1.40625q1.09375 -1.625 3.140625 -1.625q0.890625 0 1.640625 0.328125q0.75 0.3125 1.109375 0.84375q0.375 0.515625 0.53125 1.21875q0.09375 0.46875 0.09375 1.625l0 6.0625l-1.671875 0l0 -6.0q0 -1.015625 -0.203125 -1.515625q-0.1875 -0.515625 -0.6875 -0.8125q-0.5 -0.296875 -1.171875 -0.296875q-1.0625 0 -1.84375 0.671875q-0.765625 0.671875 -0.765625 2.578125l0 5.375l-1.671875 0zm14.031982 -1.5l0.234375 1.484375q-0.703125 0.140625 -1.265625 0.140625q-0.90625 0 -1.40625 -0.28125q-0.5 -0.296875 -0.703125 -0.75q-0.203125 -0.46875 -0.203125 -1.984375l0 -5.65625l-1.234375 0l0 -1.3125l1.234375 0l0 -2.4375l1.65625 -1.0l0 3.4375l1.6875 0l0 1.3125l-1.6875 0l0 5.75q0 0.71875 0.078125 0.921875q0.09375 0.203125 0.296875 0.328125q0.203125 0.125 0.578125 0.125q0.265625 0 0.734375 -0.078125z" fill-rule="nonzero"></path><path fill="#fff2cc" d="m409.65616 234.89502l0 0c0 -46.635452 37.80551 -84.44095 84.44095 -84.44095l0 0c22.395142 0 43.873047 8.896423 59.70874 24.732178c15.835754 15.835754 24.732239 37.31363 24.732239 59.70877l0 0c0 46.635437 -37.805542 84.44095 -84.44098 84.44095l0 0c-46.635437 0 -84.44095 -37.80551 -84.44095 -84.44095z" fill-rule="evenodd"></path><path stroke="#000000" stroke-width="1.0" stroke-linejoin="round" stroke-linecap="butt" d="m409.65616 234.89502l0 0c0 -46.635452 37.80551 -84.44095 84.44095 -84.44095l0 0c22.395142 0 43.873047 8.896423 59.70874 24.732178c15.835754 15.835754 24.732239 37.31363 24.732239 59.70877l0 0c0 46.635437 -37.805542 84.44095 -84.44098 84.44095l0 0c-46.635437 0 -84.44095 -37.80551 -84.44095 -84.44095z" fill-rule="evenodd"></path><path fill="#000000" d="m454.5602 197.34062l1.796875 0.453125q-0.5625 2.21875 -2.03125 3.390625q-1.46875 1.15625 -3.59375 1.15625q-2.203125 0 -3.578125 -0.890625q-1.375 -0.90625 -2.09375 -2.59375q-0.71875 -1.703125 -0.71875 -3.65625q0 -2.125 0.796875 -3.703125q0.8125 -1.578125 2.3125 -2.390625q1.5 -0.828125 3.296875 -0.828125q2.046875 0 3.4375 1.046875q1.390625 1.03125 1.9375 2.90625l-1.765625 0.421875q-0.46875 -1.484375 -1.375 -2.15625q-0.90625 -0.6875 -2.265625 -0.6875q-1.5625 0 -2.625 0.75q-1.046875 0.75 -1.484375 2.03125q-0.421875 1.265625 -0.421875 2.609375q0 1.734375 0.5 3.03125q0.515625 1.28125 1.578125 1.921875q1.078125 0.640625 2.3125 0.640625q1.515625 0 2.5625 -0.859375q1.046875 -0.875 1.421875 -2.59375zm2.9260864 -0.15625q0 -2.734375 1.53125 -4.0625q1.265625 -1.09375 3.09375 -1.09375q2.03125 0 3.3125 1.34375q1.296875 1.328125 1.296875 3.671875q0 1.90625 -0.578125 3.0q-0.5625 1.078125 -1.65625 1.6875q-1.078125 0.59375 -2.375 0.59375q-2.0625 0 -3.34375 -1.328125q-1.28125 -1.328125 -1.28125 -3.8125zm1.71875 0q0 1.890625 0.828125 2.828125q0.828125 0.9375 2.078125 0.9375q1.25 0 2.0625 -0.9375q0.828125 -0.953125 0.828125 -2.890625q0 -1.828125 -0.828125 -2.765625q-0.828125 -0.9375 -2.0625 -0.9375q-1.25 0 -2.078125 0.9375q-0.828125 0.9375 -0.828125 2.828125zm9.281952 4.921875l0 -9.859375l1.5 0l0 1.390625q0.453125 -0.71875 1.21875 -1.15625q0.78125 -0.453125 1.765625 -0.453125q1.09375 0 1.796875 0.453125q0.703125 0.453125 0.984375 1.28125q1.171875 -1.734375 3.046875 -1.734375q1.46875 0 2.25 0.8125q0.796875 0.8125 0.796875 2.5l0 6.765625l-1.671875 0l0 -6.203125q0 -1.0 -0.15625 -1.4375q-0.15625 -0.453125 -0.59375 -0.71875q-0.421875 -0.265625 -1.0 -0.265625q-1.03125 0 -1.71875 0.6875q-0.6875 0.6875 -0.6875 2.21875l0 5.71875l-1.671875 0l0 -6.40625q0 -1.109375 -0.40625 -1.65625q-0.40625 -0.5625 -1.34375 -0.5625q-0.703125 0 -1.3125 0.375q-0.59375 0.359375 -0.859375 1.078125q-0.265625 0.71875 -0.265625 2.0625l0 5.109375l-1.671875 0zm15.540802 3.78125l0 -13.640625l1.53125 0l0 1.28125q0.53125 -0.75 1.203125 -1.125q0.6875 -0.375 1.640625 -0.375q1.265625 0 2.234375 0.65625q0.96875 0.640625 1.453125 1.828125q0.5 1.1875 0.5 2.59375q0 1.515625 -0.546875 2.734375q-0.546875 1.203125 -1.578125 1.84375q-1.03125 0.640625 -2.171875 0.640625q-0.84375 0 -1.515625 -0.34375q-0.65625 -0.359375 -1.078125 -0.890625l0 4.796875l-1.671875 0zm1.515625 -8.65625q0 1.90625 0.765625 2.8125q0.78125 0.90625 1.875 0.90625q1.109375 0 1.890625 -0.9375q0.796875 -0.9375 0.796875 -2.921875q0 -1.875 -0.78125 -2.8125q-0.765625 -0.9375 -1.84375 -0.9375q-1.0625 0 -1.890625 1.0q-0.8125 1.0 -0.8125 2.890625zm8.235107 -0.046875q0 -2.734375 1.53125 -4.0625q1.265625 -1.09375 3.09375 -1.09375q2.03125 0 3.3125 1.34375q1.296875 1.328125 1.296875 3.671875q0 1.90625 -0.578125 3.0q-0.5625 1.078125 -1.65625 1.6875q-1.078125 0.59375 -2.375 0.59375q-2.0625 0 -3.34375 -1.328125q-1.28125 -1.328125 -1.28125 -3.8125zm1.71875 0q0 1.890625 0.828125 2.828125q0.828125 0.9375 2.078125 0.9375q1.25 0 2.0625 -0.9375q0.828125 -0.953125 0.828125 -2.890625q0 -1.828125 -0.828125 -2.765625q-0.828125 -0.9375 -2.0625 -0.9375q-1.25 0 -2.078125 0.9375q-0.828125 0.9375 -0.828125 2.828125zm9.281952 4.921875l0 -9.859375l1.5 0l0 1.40625q1.09375 -1.625 3.140625 -1.625q0.890625 0 1.640625 0.328125q0.75 0.3125 1.109375 0.84375q0.375 0.515625 0.53125 1.21875q0.09375 0.46875 0.09375 1.625l0 6.0625l-1.671875 0l0 -6.0q0 -1.015625 -0.203125 -1.515625q-0.1875 -0.515625 -0.6875 -0.8125q-0.5 -0.296875 -1.171875 -0.296875q-1.0625 0 -1.84375 0.671875q-0.765625 0.671875 -0.765625 2.578125l0 5.375l-1.671875 0zm17.125732 -3.171875l1.71875 0.21875q-0.40625 1.5 -1.515625 2.34375q-1.09375 0.828125 -2.8125 0.828125q-2.15625 0 -3.421875 -1.328125q-1.265625 -1.328125 -1.265625 -3.734375q0 -2.484375 1.265625 -3.859375q1.28125 -1.375 3.328125 -1.375q1.984375 0 3.234375 1.34375q1.25 1.34375 1.25 3.796875q0 0.140625 -0.015625 0.4375l-7.34375 0q0.09375 1.625 0.921875 2.484375q0.828125 0.859375 2.0625 0.859375q0.90625 0 1.546875 -0.46875q0.65625 -0.484375 1.046875 -1.546875zm-5.484375 -2.703125l5.5 0q-0.109375 -1.234375 -0.625 -1.859375q-0.796875 -0.96875 -2.078125 -0.96875q-1.140625 0 -1.9375 0.78125q-0.78125 0.765625 -0.859375 2.046875zm9.110107 5.875l0 -9.859375l1.5 0l0 1.40625q1.09375 -1.625 3.140625 -1.625q0.890625 0 1.640625 0.328125q0.75 0.3125 1.109375 0.84375q0.375 0.515625 0.53125 1.21875q0.09375 0.46875 0.09375 1.625l0 6.0625l-1.671875 0l0 -6.0q0 -1.015625 -0.203125 -1.515625q-0.1875 -0.515625 -0.6875 -0.8125q-0.5 -0.296875 -1.171875 -0.296875q-1.0625 0 -1.84375 0.671875q-0.765625 0.671875 -0.765625 2.578125l0 5.375l-1.671875 0zm14.031921 -1.5l0.234375 1.484375q-0.703125 0.140625 -1.265625 0.140625q-0.90625 0 -1.40625 -0.28125q-0.5 -0.296875 -0.703125 -0.75q-0.203125 -0.46875 -0.203125 -1.984375l0 -5.65625l-1.234375 0l0 -1.3125l1.234375 0l0 -2.4375l1.65625 -1.0l0 3.4375l1.6875 0l0 1.3125l-1.6875 0l0 5.75q0 0.71875 0.078125 0.921875q0.09375 0.203125 0.296875 0.328125q0.203125 0.125 0.578125 0.125q0.265625 0 0.734375 -0.078125z" fill-rule="nonzero"></path><path fill="#4a86e8" d="m658.55383 187.90814l138.42517 0l0 63.496063l-138.42517 0z" fill-rule="evenodd"></path><path stroke="#4a86e8" stroke-width="1.0" stroke-linejoin="round" stroke-linecap="butt" d="m658.55383 187.90814l138.42517 0l0 63.496063l-138.42517 0z" fill-rule="evenodd"></path><path fill="#ffffff" d="m697.5214 222.20117l1.6875 -0.140625q0.125 1.015625 0.5625 1.671875q0.4375 0.65625 1.359375 1.0625q0.9375 0.40625 2.09375 0.40625q1.03125 0 1.8125 -0.3125q0.796875 -0.3125 1.1875 -0.84375q0.390625 -0.53125 0.390625 -1.15625q0 -0.640625 -0.375 -1.109375q-0.375 -0.484375 -1.234375 -0.8125q-0.546875 -0.21875 -2.421875 -0.65625q-1.875 -0.453125 -2.625 -0.859375q-0.96875 -0.515625 -1.453125 -1.265625q-0.46875 -0.75 -0.46875 -1.6875q0 -1.03125 0.578125 -1.921875q0.59375 -0.90625 1.703125 -1.359375q1.125 -0.46875 2.5 -0.46875q1.515625 0 2.671875 0.484375q1.15625 0.484375 1.765625 1.4375q0.625 0.9375 0.671875 2.140625l-1.71875 0.125q-0.140625 -1.28125 -0.953125 -1.9375q-0.796875 -0.671875 -2.359375 -0.671875q-1.625 0 -2.375 0.609375q-0.75 0.59375 -0.75 1.4375q0 0.734375 0.53125 1.203125q0.515625 0.46875 2.703125 0.96875q2.203125 0.5 3.015625 0.875q1.1875 0.546875 1.75 1.390625q0.578125 0.828125 0.578125 1.921875q0 1.09375 -0.625 2.0625q-0.625 0.953125 -1.796875 1.484375q-1.15625 0.53125 -2.609375 0.53125q-1.84375 0 -3.09375 -0.53125q-1.25 -0.546875 -1.96875 -1.625q-0.703125 -1.078125 -0.734375 -2.453125zm19.584167 1.203125l1.71875 0.21875q-0.40625 1.5 -1.515625 2.34375q-1.09375 0.828125 -2.8125 0.828125q-2.15625 0 -3.421875 -1.328125q-1.265625 -1.328125 -1.265625 -3.734375q0 -2.484375 1.265625 -3.859375q1.28125 -1.375 3.328125 -1.375q1.984375 0 3.234375 1.34375q1.25 1.34375 1.25 3.796875q0 0.140625 -0.015625 0.4375l-7.34375 0q0.09375 1.625 0.921875 2.484375q0.828125 0.859375 2.0625 0.859375q0.90625 0 1.546875 -0.46875q0.65625 -0.484375 1.046875 -1.546875zm-5.484375 -2.703125l5.5 0q-0.109375 -1.234375 -0.625 -1.859375q-0.796875 -0.96875 -2.078125 -0.96875q-1.140625 0 -1.9375 0.78125q-0.78125 0.765625 -0.859375 2.046875zm9.094482 5.875l0 -9.859375l1.5 0l0 1.5q0.578125 -1.046875 1.0625 -1.375q0.484375 -0.34375 1.078125 -0.34375q0.84375 0 1.71875 0.546875l-0.578125 1.546875q-0.609375 -0.359375 -1.234375 -0.359375q-0.546875 0 -0.984375 0.328125q-0.421875 0.328125 -0.609375 0.90625q-0.28125 0.890625 -0.28125 1.953125l0 5.15625l-1.671875 0zm8.9626465 0l-3.75 -9.859375l1.765625 0l2.125 5.90625q0.34375 0.953125 0.625 1.984375q0.21875 -0.78125 0.625 -1.875l2.1875 -6.015625l1.71875 0l-3.734375 9.859375l-1.5625 0zm6.609375 -11.6875l0 -1.90625l1.671875 0l0 1.90625l-1.671875 0zm0 11.6875l0 -9.859375l1.671875 0l0 9.859375l-1.671875 0zm10.566711 -3.609375l1.640625 0.21875q-0.265625 1.6875 -1.375 2.65625q-1.109375 0.953125 -2.734375 0.953125q-2.015625 0 -3.25 -1.3125q-1.21875 -1.328125 -1.21875 -3.796875q0 -1.59375 0.515625 -2.78125q0.53125 -1.203125 1.609375 -1.796875q1.09375 -0.609375 2.359375 -0.609375q1.609375 0 2.625 0.8125q1.015625 0.8125 1.3125 2.3125l-1.625 0.25q-0.234375 -1.0 -0.828125 -1.5q-0.59375 -0.5 -1.421875 -0.5q-1.265625 0 -2.0625 0.90625q-0.78125 0.90625 -0.78125 2.859375q0 1.984375 0.765625 2.890625q0.765625 0.890625 1.984375 0.890625q0.984375 0 1.640625 -0.59375q0.65625 -0.609375 0.84375 -1.859375zm9.640625 0.4375l1.71875 0.21875q-0.40625 1.5 -1.515625 2.34375q-1.09375 0.828125 -2.8125 0.828125q-2.15625 0 -3.421875 -1.328125q-1.265625 -1.328125 -1.265625 -3.734375q0 -2.484375 1.265625 -3.859375q1.28125 -1.375 3.328125 -1.375q1.984375 0 3.234375 1.34375q1.25 1.34375 1.25 3.796875q0 0.140625 -0.015625 0.4375l-7.34375 0q0.09375 1.625 0.921875 2.484375q0.828125 0.859375 2.0625 0.859375q0.90625 0 1.546875 -0.46875q0.65625 -0.484375 1.046875 -1.546875zm-5.484375 -2.703125l5.5 0q-0.109375 -1.234375 -0.625 -1.859375q-0.796875 -0.96875 -2.078125 -0.96875q-1.140625 0 -1.9375 0.78125q-0.78125 0.765625 -0.859375 2.046875z" fill-rule="nonzero"></path><path fill="#d9ead3" d="m372.83203 222.83727l21.590546 -21.590546l0 10.795273l27.937012 0l0 -10.795273l21.590546 21.590546l-21.590546 21.59056l0 -10.795273l-27.937012 0l0 10.795273z" fill-rule="evenodd"></path><path stroke="#000000" stroke-width="1.0" stroke-linejoin="round" stroke-linecap="butt" d="m372.83203 222.83727l21.590546 -21.590546l0 10.795273l27.937012 0l0 -10.795273l21.590546 21.590546l-21.590546 21.59056l0 -10.795273l-27.937012 0l0 10.795273z" fill-rule="evenodd"></path><path fill="#cfe2f3" d="m549.3412 219.65617l18.409485 -18.409454l0 9.204727l72.409424 0l0 -9.204727l18.409485 18.409454l-18.409485 18.40944l0 -9.204727l-72.409424 0l0 9.204727z" fill-rule="evenodd"></path><path stroke="#000000" stroke-width="1.0" stroke-linejoin="round" stroke-linecap="butt" d="m549.3412 219.65617l18.409485 -18.409454l0 9.204727l72.409424 0l0 -9.204727l18.409485 18.409454l-18.409485 18.40944l0 -9.204727l-72.409424 0l0 9.204727z" fill-rule="evenodd"></path><path fill="#000000" fill-opacity="0.0" d="m59.17323 240.61679l99.055115 0l0 36.81891l-99.055115 0z" fill-rule="evenodd"></path><path fill="#000000" d="m72.62635 263.67743q0.296875 0.96875 0.375 3.046875l-0.8125 0.0625q0 -1.84375 -0.296875 -3.03125l0.734375 -0.078125zm-1.1875 0.078125q0.375 1.40625 0.21875 3.265625l-0.8125 0q0 -1.78125 -0.140625 -3.265625l0.734375 0zm2.53125 -0.296875q0.296875 1.03125 0.4375 2.734375l-0.8125 0.234375q-0.21875 -2.015625 -0.453125 -2.828125l0.828125 -0.140625zm1.625 -6.46875q3.265625 -2.2968903 4.609375 -4.8906403l1.1875 0.140625q0.734375 0.078125 0.0625 0.453125q2.453125 2.453125 5.28125 3.8593903l-0.890625 1.40625q-0.890625 -0.515625 -2.015625 -1.328125l0 0.953125l-5.5625 0l0 -0.890625q-0.8125 0.75 -1.921875 1.484375l-0.75 -1.1875zm4.3125 7.0625q0.515625 0.21875 -0.15625 0.4375l-0.59375 1.265625q0.59375 0.296875 1.5625 0.96875l-0.75 1.1875q-0.890625 -0.671875 -1.40625 -0.96875q-1.328125 1.9375 -2.078125 2.453125l-0.8125 -1.109375q1.921875 -2.015625 2.96875 -4.609375l1.265625 0.375zm4.21875 0.0625q0.53125 0.375 -0.140625 0.453125l-0.59375 1.1875q1.5625 0.8125 2.96875 1.9375l-0.671875 1.328125q-1.484375 -1.1875 -2.8125 -2.078125q-1.1875 1.78125 -1.859375 2.296875l-1.109375 -0.953125q1.84375 -1.796875 2.890625 -4.46875l1.328125 0.296875zm-10.390625 3.71875q0.671875 0 0.75 -0.890625l0.21875 -4.234375l-5.046875 0l0 -9.875015l6.453125 0l0 1.1875l-2.59375 0l0 1.71875l1.9375 0l0 1.1875153l-1.9375 0l0 1.625l1.9375 0l0 1.1875l-1.9375 0l0 1.78125l2.453125 0l-0.296875 5.5q-0.078125 2.0 -1.640625 2.0l-1.328125 0l-0.21875 -1.1875l1.25 0zm-1.484375 -10.90625l-1.328125 0l0 1.625l1.328125 0l0 -1.625zm0 -2.9062653l-1.328125 0l0 1.71875l1.328125 0l0 -1.71875zm-1.328125 5.7187653l0 1.78125l1.328125 0l0 -1.78125l-1.328125 0zm-0.671875 4.015625q0.078125 1.546875 -0.375 4.15625l-1.109375 -0.296875q0.375 -2.3125 0.453125 -4.09375l1.03125 0.234375zm15.21875 -4.828125l0 4.296875l-3.9375 0l0 -4.296875l3.9375 0zm-1.265625 1.1875l-1.40625 0l0 1.921875l1.40625 0l0 -1.921875zm-3.5625 -1.1875l0 4.296875l-3.9375 0l0 -4.296875l3.9375 0zm-1.265625 1.1875l-1.40625 0l0 1.921875l1.40625 0l0 -1.921875zm4.234375 -3.71875q-1.265625 -0.95314026 -2.8125 -2.7343903q-1.1875 1.78125 -2.3125 2.7343903l5.125 0zm9.5 12.328125l0 -4.671875l-3.703125 1.328125q-0.234375 0.75 -0.53125 0.15625l-0.734375 -1.484375l1.484375 -0.453125l0 -9.20314l1.40625 0q0.59375 0.078125 0.078125 0.453125l0 8.312515l2.0 -0.671875l0 -9.875015l1.40625 0q0.59375 0.078125 0.078125 0.453125l0 15.656265l-1.484375 0zm6.984375 -5.71875q1.25 -2.15625 1.625 -4.96875l-3.265625 0q0.375 2.96875 1.640625 4.96875zm-5.125 -2.21875q2.453125 -2.828125 3.40625 -8.312515l1.1875 0.21875q0.890625 0.21875 0.078125 0.515625q-0.296875 1.34375 -0.890625 3.4218903l6.15625 0l0 1.40625l-1.78125 0q-0.59375 3.703125 -2.140625 6.15625q1.625 1.640625 4.0 2.671875l-0.8125 1.484375q-2.296875 -1.109375 -4.078125 -2.890625q-1.78125 2.078125 -4.234375 3.125l-0.8125 -1.34375q2.8125 -1.1875 4.15625 -2.96875q-1.1875 -1.859375 -1.859375 -4.375q-0.8125 1.328125 -1.34375 1.84375l-1.03125 -0.953125zm12.25 6.75q1.40625 -2.0 2.734375 -5.421875l1.1875 0.890625q-0.953125 2.890625 -2.375 5.34375q0.078125 0.828125 -0.4375 0.296875l-1.109375 -1.109375zm10.53125 -2.75l-5.484375 0l0 -11.718765l5.484375 0l0 11.718765zm-1.265625 -8.3125l0 -2.0000153l-2.96875 0l0 2.0000153l2.96875 0zm0 3.34375l0 -1.9375l-2.96875 0l0 1.9375l2.96875 0zm0 3.5625l0 -2.15625l-2.96875 0l0 2.15625l2.96875 0zm-0.0625 1.5625q1.546875 1.25 2.515625 2.59375l-1.1875 1.046875q-0.890625 -1.34375 -2.296875 -2.6875l0.96875 -0.953125zm-1.5625 1.109375q0.21875 0.21875 -0.375 0.296875q-1.265625 1.484375 -2.96875 2.671875l-0.8125 -1.328125q1.859375 -1.265625 3.046875 -2.75l1.109375 1.109375zm5.71875 -1.5625l-1.484375 0l0 -9.937515l1.40625 0q0.59375 0.0625 0.078125 0.4375l0 9.500015zm0.359375 4.390625l-0.296875 -1.421875l0.96875 0q0.296875 0 0.296875 -0.296875l0 -14.32814l1.40625 0q0.59375 0.078125 0.078125 0.453125l0 14.406265q0 1.1875 -1.1875 1.1875l-1.265625 0zm-11.796875 -15.812515q1.34375 0.65625 2.453125 1.703125l-0.96875 1.4062653q-1.109375 -1.0312653 -2.375 -1.7812653l0.890625 -1.328125zm-0.671875 4.3750153q1.5625 0.8125 2.671875 1.703125l-0.953125 1.40625q-0.96875 -0.8125 -2.609375 -1.78125l0.890625 -1.328125zm34.968758 8.3125q-0.078125 1.265625 -0.453125 2.15625q-0.296875 0.734375 -1.03125 0.734375q-1.046875 0 -2.078125 -2.375q-1.34375 -3.046875 -1.640625 -8.984375l-5.34375 0l0 -1.4062653l5.265625 0l0 -3.40625l1.421875 0q0.65625 0.140625 0.0625 0.4375l0 2.96875l3.265625 0l0 1.4062653l-3.1875 0q0.375 5.28125 1.109375 7.359375q0.671875 1.921875 0.890625 1.921875q0.296875 0 0.453125 -1.703125l1.265625 0.890625zm-5.640625 -4.453125l-1.484375 0l0 3.859375l2.140625 -0.671875l0.296875 1.34375l-4.890625 1.546875q-0.21875 0.75 -0.453125 0.078125l-0.515625 -1.5625l1.9375 -0.4375l0 -4.15625l-1.5625 0l0 -1.40625l4.53125 0l0 1.40625zm-10.765633 -8.60939l4.8281326 0l0 1.40625l-4.8281326 0l0 -1.40625zm-0.96875 2.59375l6.2343826 0l0 1.4062653l-6.2343826 0l0 -1.4062653zm0.96875 2.5937653l4.8281326 0l0 1.421875l-4.8281326 0l0 -1.421875zm0 2.609375l4.8281326 0l0 1.40625l-4.8281326 0l0 -1.40625zm3.5625076 7.9375l-2.453125 0l0 0.75l-1.4843826 0l0 -5.953125l5.4218826 0l0 5.65625l-1.484375 0l0 -0.453125zm-2.453125 -4.015625l0 2.828125l2.453125 0l0 -2.828125l-2.453125 0zm12.984375 -11.343765q0.671875 0.59375 1.421875 1.546875l-1.1875 0.890625q-0.75 -1.109375 -1.34375 -1.703125l1.109375 -0.734375z" fill-rule="nonzero"></path><path fill="#000000" fill-opacity="0.0" d="m305.0105 269.4357l99.055115 0l0 36.81891l-99.055115 0z" fill-rule="evenodd"></path><path fill="#ff0000" d="m331.97925 294.8713l-7.71875 0l0 3.046875l-1.484375 0l0 -3.046875l-7.796875 0l0 -1.40625l7.796875 0l0 -1.1875l-2.671875 0l-2.671875 0l0 -6.015625l11.9375 0l0 6.015625l-5.109375 0l0 1.1875l7.71875 0l0 1.40625zm-4.09375 -3.78125l0 -1.265625l-3.625 0l0 1.265625l3.625 0zm-5.109375 -3.640625l-3.859375 0l0 1.1875l3.859375 0l0 -1.1875zm5.109375 1.1875l0 -1.1875l-3.625 0l0 1.1875l3.625 0zm-5.109375 2.453125l0 -1.265625l-3.859375 0l0 1.265625l3.859375 0zm-1.640625 -6.90625l0 -1.40625l-3.1875 0l0 1.40625l3.1875 0zm1.484375 -2.59375l0 3.78125l-6.15625 0l0 -3.78125l6.15625 0zm1.484375 0l6.15625 0l0 3.78125l-6.15625 0l0 -3.78125zm4.671875 2.59375l0 -1.40625l-3.1875 0l0 1.40625l3.1875 0zm22.203125 9.203125l-0.296875 1.5625q-0.375 2.0 -2.078125 2.0l-3.5 0q-1.40625 0 -1.40625 -1.703125l0 -6.6875l-2.515625 0l0 1.703125q0 5.796875 -6.09375 7.359375l-0.734375 -1.78125q5.109375 -1.265625 5.109375 -5.5l0 -1.78125l-4.890625 0l0 -1.40625l15.953125 0l0 1.40625l-5.125 0l0 6.15625q0 0.59375 0.53125 0.59375l2.0 0q0.890625 0 1.03125 -0.734375l0.296875 -1.703125l1.71875 0.515625zm-2.3125 -9.578125l-12.171875 0l0 -1.40625l12.171875 0l0 1.40625zm4.390625 12.546875q1.40625 -2.0 2.734375 -5.421875l1.1875 0.890625q-0.953125 2.890625 -2.375 5.34375q0.078125 0.828125 -0.4375 0.296875l-1.109375 -1.109375zm10.53125 -2.75l-5.484375 0l0 -11.71875l5.484375 0l0 11.71875zm-1.265625 -8.3125l0 -2.0l-2.96875 0l0 2.0l2.96875 0zm0 3.34375l0 -1.9375l-2.96875 0l0 1.9375l2.96875 0zm0 3.5625l0 -2.15625l-2.96875 0l0 2.15625l2.96875 0zm-0.0625 1.5625q1.546875 1.25 2.515625 2.59375l-1.1875 1.046875q-0.890625 -1.34375 -2.296875 -2.6875l0.96875 -0.953125zm-1.5625 1.109375q0.21875 0.21875 -0.375 0.296875q-1.265625 1.484375 -2.96875 2.671875l-0.8125 -1.328125q1.859375 -1.265625 3.046875 -2.75l1.109375 1.109375zm5.71875 -1.5625l-1.484375 0l0 -9.9375l1.40625 0q0.59375 0.0625 0.078125 0.4375l0 9.5zm0.359375 4.390625l-0.296875 -1.421875l0.96875 0q0.296875 0 0.296875 -0.296875l0 -14.328125l1.40625 0q0.59375 0.078125 0.078125 0.453125l0 14.40625q0 1.1875 -1.1875 1.1875l-1.265625 0zm-11.796875 -15.8125q1.34375 0.65625 2.453125 1.703125l-0.96875 1.40625q-1.109375 -1.03125 -2.375 -1.78125l0.890625 -1.328125zm-0.671875 4.375q1.5625 0.8125 2.671875 1.703125l-0.953125 1.40625q-0.96875 -0.8125 -2.609375 -1.78125l0.890625 -1.328125zm34.96875 8.3125q-0.078125 1.265625 -0.453125 2.15625q-0.296875 0.734375 -1.03125 0.734375q-1.046875 0 -2.078125 -2.375q-1.34375 -3.046875 -1.640625 -8.984375l-5.34375 0l0 -1.40625l5.265625 0l0 -3.40625l1.421875 0q0.65625 0.140625 0.0625 0.4375l0 2.96875l3.265625 0l0 1.40625l-3.1875 0q0.375 5.28125 1.109375 7.359375q0.671875 1.921875 0.890625 1.921875q0.296875 0 0.453125 -1.703125l1.265625 0.890625zm-5.640625 -4.453125l-1.484375 0l0 3.859375l2.140625 -0.671875l0.296875 1.34375l-4.890625 1.546875q-0.21875 0.75 -0.453125 0.078125l-0.515625 -1.5625l1.9375 -0.4375l0 -4.15625l-1.5625 0l0 -1.40625l4.53125 0l0 1.40625zm-10.765625 -8.609375l4.828125 0l0 1.40625l-4.828125 0l0 -1.40625zm-0.96875 2.59375l6.234375 0l0 1.40625l-6.234375 0l0 -1.40625zm0.96875 2.59375l4.828125 0l0 1.421875l-4.828125 0l0 -1.421875zm0 2.609375l4.828125 0l0 1.40625l-4.828125 0l0 -1.40625zm3.5625 7.9375l-2.453125 0l0 0.75l-1.484375 0l0 -5.953125l5.421875 0l0 5.65625l-1.484375 0l0 -0.453125zm-2.453125 -4.015625l0 2.828125l2.453125 0l0 -2.828125l-2.453125 0zm12.984375 -11.34375q0.671875 0.59375 1.421875 1.546875l-1.1875 0.890625q-0.75 -1.109375 -1.34375 -1.703125l1.109375 -0.734375z" fill-rule="nonzero"></path><path fill="#000000" fill-opacity="0.0" d="m447.1181 281.57742l99.055115 0l0 36.81891l-99.055115 0z" fill-rule="evenodd"></path><path fill="#ff0000" d="m474.08685 307.01306l-7.71875 0l0 3.046875l-1.484375 0l0 -3.046875l-7.796875 0l0 -1.40625l7.796875 0l0 -1.1875l-2.671875 0l-2.671875 0l0 -6.015625l11.9375 0l0 6.015625l-5.109375 0l0 1.1875l7.71875 0l0 1.40625zm-4.09375 -3.78125l0 -1.265625l-3.625 0l0 1.265625l3.625 0zm-5.109375 -3.640625l-3.859375 0l0 1.1875l3.859375 0l0 -1.1875zm5.109375 1.1875l0 -1.1875l-3.625 0l0 1.1875l3.625 0zm-5.109375 2.453125l0 -1.265625l-3.859375 0l0 1.265625l3.859375 0zm-1.640625 -6.90625l0 -1.40625l-3.1875 0l0 1.40625l3.1875 0zm1.484375 -2.59375l0 3.78125l-6.15625 0l0 -3.78125l6.15625 0zm1.484375 0l6.15625 0l0 3.78125l-6.15625 0l0 -3.78125zm4.671875 2.59375l0 -1.40625l-3.1875 0l0 1.40625l3.1875 0zm22.203125 9.203125l-0.296875 1.5625q-0.375 2.0 -2.078125 2.0l-3.5 0q-1.40625 0 -1.40625 -1.703125l0 -6.6875l-2.515625 0l0 1.703125q0 5.796875 -6.09375 7.359375l-0.734375 -1.78125q5.109375 -1.265625 5.109375 -5.5l0 -1.78125l-4.890625 0l0 -1.40625l15.953125 0l0 1.40625l-5.125 0l0 6.15625q0 0.59375 0.53125 0.59375l2.0 0q0.890625 0 1.03125 -0.734375l0.296875 -1.703125l1.71875 0.515625zm-2.3125 -9.578125l-12.171875 0l0 -1.40625l12.171875 0l0 1.40625zm4.390625 12.546875q1.40625 -2.0 2.734375 -5.421875l1.1875 0.890625q-0.953125 2.890625 -2.375 5.34375q0.078125 0.828125 -0.4375 0.296875l-1.109375 -1.109375zm10.53125 -2.75l-5.484375 0l0 -11.71875l5.484375 0l0 11.71875zm-1.265625 -8.3125l0 -2.0l-2.96875 0l0 2.0l2.96875 0zm0 3.34375l0 -1.9375l-2.96875 0l0 1.9375l2.96875 0zm0 3.5625l0 -2.15625l-2.96875 0l0 2.15625l2.96875 0zm-0.0625 1.5625q1.546875 1.25 2.515625 2.59375l-1.1875 1.046875q-0.890625 -1.34375 -2.296875 -2.6875l0.96875 -0.953125zm-1.5625 1.109375q0.21875 0.21875 -0.375 0.296875q-1.265625 1.484375 -2.96875 2.671875l-0.8125 -1.328125q1.859375 -1.265625 3.046875 -2.75l1.109375 1.109375zm5.71875 -1.5625l-1.484375 0l0 -9.9375l1.40625 0q0.59375 0.0625 0.078125 0.4375l0 9.5zm0.359375 4.390625l-0.296875 -1.421875l0.96875 0q0.296875 0 0.296875 -0.296875l0 -14.328125l1.40625 0q0.59375 0.078125 0.078125 0.453125l0 14.40625q0 1.1875 -1.1875 1.1875l-1.265625 0zm-11.796875 -15.8125q1.34375 0.65625 2.453125 1.703125l-0.96875 1.40625q-1.109375 -1.03125 -2.375 -1.78125l0.890625 -1.328125zm-0.671875 4.375q1.5625 0.8125 2.671875 1.703125l-0.953125 1.40625q-0.96875 -0.8125 -2.609375 -1.78125l0.890625 -1.328125zm34.96875 8.3125q-0.078125 1.265625 -0.453125 2.15625q-0.296875 0.734375 -1.03125 0.734375q-1.046875 0 -2.078125 -2.375q-1.34375 -3.046875 -1.640625 -8.984375l-5.34375 0l0 -1.40625l5.265625 0l0 -3.40625l1.421875 0q0.65625 0.140625 0.0625 0.4375l0 2.96875l3.265625 0l0 1.40625l-3.1875 0q0.375 5.28125 1.109375 7.359375q0.671875 1.921875 0.890625 1.921875q0.296875 0 0.453125 -1.703125l1.265625 0.890625zm-5.640625 -4.453125l-1.484375 0l0 3.859375l2.140625 -0.671875l0.296875 1.34375l-4.890625 1.546875q-0.21875 0.75 -0.453125 0.078125l-0.515625 -1.5625l1.9375 -0.4375l0 -4.15625l-1.5625 0l0 -1.40625l4.53125 0l0 1.40625zm-10.765625 -8.609375l4.828125 0l0 1.40625l-4.828125 0l0 -1.40625zm-0.96875 2.59375l6.234375 0l0 1.40625l-6.234375 0l0 -1.40625zm0.96875 2.59375l4.828125 0l0 1.421875l-4.828125 0l0 -1.421875zm0 2.609375l4.828125 0l0 1.40625l-4.828125 0l0 -1.40625zm3.5625 7.9375l-2.453125 0l0 0.75l-1.484375 0l0 -5.953125l5.421875 0l0 5.65625l-1.484375 0l0 -0.453125zm-2.453125 -4.015625l0 2.828125l2.453125 0l0 -2.828125l-2.453125 0zm12.984375 -11.34375q0.671875 0.59375 1.421875 1.546875l-1.1875 0.890625q-0.75 -1.109375 -1.34375 -1.703125l1.109375 -0.734375z" fill-rule="nonzero"></path><path fill="#000000" fill-opacity="0.0" d="m678.23883 248.6378l99.055115 0l0 36.818893l-99.055115 0z" fill-rule="evenodd"></path><path fill="#ff0000" d="m705.2076 274.07343l-7.71875 0l0 3.046875l-1.484375 0l0 -3.046875l-7.796875 0l0 -1.40625l7.796875 0l0 -1.1875l-2.671875 0l-2.671875 0l0 -6.015625l11.9375 0l0 6.015625l-5.109375 0l0 1.1875l7.71875 0l0 1.40625zm-4.09375 -3.78125l0 -1.265625l-3.625 0l0 1.265625l3.625 0zm-5.109375 -3.640625l-3.859375 0l0 1.1875l3.859375 0l0 -1.1875zm5.109375 1.1875l0 -1.1875l-3.625 0l0 1.1875l3.625 0zm-5.109375 2.453125l0 -1.265625l-3.859375 0l0 1.265625l3.859375 0zm-1.640625 -6.90625l0 -1.40625l-3.1875 0l0 1.40625l3.1875 0zm1.484375 -2.59375l0 3.78125l-6.15625 0l0 -3.78125l6.15625 0zm1.484375 0l6.15625 0l0 3.78125l-6.15625 0l0 -3.78125zm4.671875 2.59375l0 -1.40625l-3.1875 0l0 1.40625l3.1875 0zm22.203125 9.203125l-0.296875 1.5625q-0.375 2.0 -2.078125 2.0l-3.5 0q-1.40625 0 -1.40625 -1.703125l0 -6.6875l-2.515625 0l0 1.703125q0 5.796875 -6.09375 7.359375l-0.734375 -1.78125q5.109375 -1.265625 5.109375 -5.5l0 -1.78125l-4.890625 0l0 -1.40625l15.953125 0l0 1.40625l-5.125 0l0 6.15625q0 0.59375 0.53125 0.59375l2.0 0q0.890625 0 1.03125 -0.734375l0.296875 -1.703125l1.71875 0.515625zm-2.3125 -9.578125l-12.171875 0l0 -1.40625l12.171875 0l0 1.40625zm4.390625 12.546875q1.40625 -2.0 2.734375 -5.421875l1.1875 0.890625q-0.953125 2.890625 -2.375 5.34375q0.078125 0.828125 -0.4375 0.296875l-1.109375 -1.109375zm10.53125 -2.75l-5.484375 0l0 -11.71875l5.484375 0l0 11.71875zm-1.265625 -8.3125l0 -2.0l-2.96875 0l0 2.0l2.96875 0zm0 3.34375l0 -1.9375l-2.96875 0l0 1.9375l2.96875 0zm0 3.5625l0 -2.15625l-2.96875 0l0 2.15625l2.96875 0zm-0.0625 1.5625q1.546875 1.25 2.515625 2.59375l-1.1875 1.046875q-0.890625 -1.34375 -2.296875 -2.6875l0.96875 -0.953125zm-1.5625 1.109375q0.21875 0.21875 -0.375 0.296875q-1.265625 1.484375 -2.96875 2.671875l-0.8125 -1.328125q1.859375 -1.265625 3.046875 -2.75l1.109375 1.109375zm5.71875 -1.5625l-1.484375 0l0 -9.9375l1.40625 0q0.59375 0.0625 0.078125 0.4375l0 9.5zm0.359375 4.390625l-0.296875 -1.421875l0.96875 0q0.296875 0 0.296875 -0.296875l0 -14.328125l1.40625 0q0.59375 0.078125 0.078125 0.453125l0 14.40625q0 1.1875 -1.1875 1.1875l-1.265625 0zm-11.796875 -15.8125q1.34375 0.65625 2.453125 1.703125l-0.96875 1.40625q-1.109375 -1.03125 -2.375 -1.78125l0.890625 -1.328125zm-0.671875 4.375q1.5625 0.8125 2.671875 1.703125l-0.953125 1.40625q-0.96875 -0.8125 -2.609375 -1.78125l0.890625 -1.328125zm34.96875 8.3125q-0.078125 1.265625 -0.453125 2.15625q-0.296875 0.734375 -1.03125 0.734375q-1.046875 0 -2.078125 -2.375q-1.34375 -3.046875 -1.640625 -8.984375l-5.34375 0l0 -1.40625l5.265625 0l0 -3.40625l1.421875 0q0.65625 0.140625 0.0625 0.4375l0 2.96875l3.265625 0l0 1.40625l-3.1875 0q0.375 5.28125 1.109375 7.359375q0.671875 1.921875 0.890625 1.921875q0.296875 0 0.453125 -1.703125l1.265625 0.890625zm-5.640625 -4.453125l-1.484375 0l0 3.859375l2.140625 -0.671875l0.296875 1.34375l-4.890625 1.546875q-0.21875 0.75 -0.453125 0.078125l-0.515625 -1.5625l1.9375 -0.4375l0 -4.15625l-1.5625 0l0 -1.40625l4.53125 0l0 1.40625zm-10.765625 -8.609375l4.828125 0l0 1.40625l-4.828125 0l0 -1.40625zm-0.96875 2.59375l6.234375 0l0 1.40625l-6.234375 0l0 -1.40625zm0.96875 2.59375l4.828125 0l0 1.421875l-4.828125 0l0 -1.421875zm0 2.609375l4.828125 0l0 1.40625l-4.828125 0l0 -1.40625zm3.5625 7.9375l-2.453125 0l0 0.75l-1.484375 0l0 -5.953125l5.421875 0l0 5.65625l-1.484375 0l0 -0.453125zm-2.453125 -4.015625l0 2.828125l2.453125 0l0 -2.828125l-2.453125 0zm12.984375 -11.34375q0.671875 0.59375 1.421875 1.546875l-1.1875 0.890625q-0.75 -1.109375 -1.34375 -1.703125l1.109375 -0.734375z" fill-rule="nonzero"></path><path fill="#000000" fill-opacity="0.0" d="m358.86353 158.83989l99.055115 0l0 36.81891l-99.055115 0z" fill-rule="evenodd"></path><path fill="#a64d79" d="m380.0354 173.80676q0.515625 1.5625 1.5625 2.75q0.734375 -0.890625 1.1875 -2.75l-2.75 0zm0.453125 -1.1875l4.890625 0l0 1.1875l-1.265625 0q-0.359375 2.296875 -1.40625 3.640625q1.046875 0.890625 3.265625 1.328125l-0.4375 1.484375q-2.375 -0.65625 -3.796875 -1.84375q-1.78125 1.328125 -4.21875 1.921875l-0.59375 -1.328125q2.375 -0.59375 3.703125 -1.5625q-1.03125 -1.484375 -1.484375 -2.75q-0.375 0.890625 -1.109375 1.703125l-0.75 -1.03125q1.78125 -2.0 2.375 -5.046875l1.484375 0.4375q0.296875 0.296875 -0.21875 0.375l-0.4375 1.484375zm-3.9375 6.609375q-1.5625 -1.046875 -2.078125 -1.265625l0 2.296875l-1.265625 0l0 -2.296875q-1.265625 1.34375 -3.5625 2.375l-0.671875 -1.40625q2.234375 -0.8125 3.9375 -2.15625l-2.59375 0l0 -3.1875l2.890625 0l0 -0.890625l-3.859375 0l0 -1.1875l3.859375 0l0 -1.1875l1.1875 0q0.59375 0.078125 0.078125 0.4375l0 0.75l3.703125 0l0 1.1875l-3.703125 0l0 0.890625l2.75 0l0 3.1875l-2.75 0q1.328125 0.375 2.8125 1.265625l-0.734375 1.1875zm-3.34375 -3.34375l0 -1.40625l-1.859375 0l0 1.40625l1.859375 0zm2.96875 0l0 -1.40625l-1.703125 0l0 1.40625l1.703125 0zm2.078125 7.34375l4.671875 0l0 1.1875l-4.671875 0l0 1.421875l7.046875 0l0 1.1875l-16.03125 0l0 -1.1875l3.34375 0l0 -2.96875l1.1875 0q0.59375 0.0625 0.078125 0.4375l0 2.53125l3.109375 0l0 -3.796875l-6.671875 0l0 -1.1875l14.03125 0l0 1.1875l-6.09375 0l0 1.1875zm18.703125 -11.875q2.890625 3.640625 7.640625 5.125l-0.734375 1.703125q-5.046875 -1.84375 -7.9375 -5.859375q-1.34375 2.75 -3.71875 4.375l8.234375 0l0 1.421875l-8.3125 0l0 -1.34375q-1.328125 1.109375 -3.109375 1.9375l-1.046875 -1.421875q5.421875 -2.515625 7.125 -6.75l1.9375 0.375q0.515625 0.078125 -0.078125 0.4375zm-4.671875 15.890625l-1.484375 0l0 -7.34375l11.0625 0l0 7.125l-1.484375 0l0 -0.8125l-8.09375 0l0 1.03125zm0 -2.453125l8.09375 0l0 -3.484375l-8.09375 0l0 3.484375zm14.625 0.96875q1.40625 -2.0 2.734375 -5.421875l1.1875 0.890625q-0.953125 2.890625 -2.375 5.34375q0.078125 0.828125 -0.4375 0.296875l-1.109375 -1.109375zm10.53125 -2.75l-5.484375 0l0 -11.71875l5.484375 0l0 11.71875zm-1.265625 -8.3125l0 -2.0l-2.96875 0l0 2.0l2.96875 0zm0 3.34375l0 -1.9375l-2.96875 0l0 1.9375l2.96875 0zm0 3.5625l0 -2.15625l-2.96875 0l0 2.15625l2.96875 0zm-0.0625 1.5625q1.546875 1.25 2.515625 2.59375l-1.1875 1.046875q-0.890625 -1.34375 -2.296875 -2.6875l0.96875 -0.953125zm-1.5625 1.109375q0.21875 0.21875 -0.375 0.296875q-1.265625 1.484375 -2.96875 2.671875l-0.8125 -1.328125q1.859375 -1.265625 3.046875 -2.75l1.109375 1.109375zm5.71875 -1.5625l-1.484375 0l0 -9.9375l1.40625 0q0.59375 0.0625 0.078125 0.4375l0 9.5zm0.359375 4.390625l-0.296875 -1.421875l0.96875 0q0.296875 0 0.296875 -0.296875l0 -14.328125l1.40625 0q0.59375 0.078125 0.078125 0.453125l0 14.40625q0 1.1875 -1.1875 1.1875l-1.265625 0zm-11.796875 -15.8125q1.34375 0.65625 2.453125 1.703125l-0.96875 1.40625q-1.109375 -1.03125 -2.375 -1.78125l0.890625 -1.328125zm-0.671875 4.375q1.5625 0.8125 2.671875 1.703125l-0.953125 1.40625q-0.96875 -0.8125 -2.609375 -1.78125l0.890625 -1.328125zm34.96875 8.3125q-0.078125 1.265625 -0.453125 2.15625q-0.296875 0.734375 -1.03125 0.734375q-1.046875 0 -2.078125 -2.375q-1.34375 -3.046875 -1.640625 -8.984375l-5.34375 0l0 -1.40625l5.265625 0l0 -3.40625l1.421875 0q0.65625 0.140625 0.0625 0.4375l0 2.96875l3.265625 0l0 1.40625l-3.1875 0q0.375 5.28125 1.109375 7.359375q0.671875 1.921875 0.890625 1.921875q0.296875 0 0.453125 -1.703125l1.265625 0.890625zm-5.640625 -4.453125l-1.484375 0l0 3.859375l2.140625 -0.671875l0.296875 1.34375l-4.890625 1.546875q-0.21875 0.75 -0.453125 0.078125l-0.515625 -1.5625l1.9375 -0.4375l0 -4.15625l-1.5625 0l0 -1.40625l4.53125 0l0 1.40625zm-10.765625 -8.609375l4.828125 0l0 1.40625l-4.828125 0l0 -1.40625zm-0.96875 2.59375l6.234375 0l0 1.40625l-6.234375 0l0 -1.40625zm0.96875 2.59375l4.828125 0l0 1.421875l-4.828125 0l0 -1.421875zm0 2.609375l4.828125 0l0 1.40625l-4.828125 0l0 -1.40625zm3.5625 7.9375l-2.453125 0l0 0.75l-1.484375 0l0 -5.953125l5.421875 0l0 5.65625l-1.484375 0l0 -0.453125zm-2.453125 -4.015625l0 2.828125l2.453125 0l0 -2.828125l-2.453125 0zm12.984375 -11.34375q0.671875 0.59375 1.421875 1.546875l-1.1875 0.890625q-0.75 -1.109375 -1.34375 -1.703125l1.109375 -0.734375z" fill-rule="nonzero"></path><path fill="#000000" fill-opacity="0.0" d="m554.4278 158.83989l99.055115 0l0 36.81891l-99.055115 0z" fill-rule="evenodd"></path><path fill="#a64d79" d="m575.5997 173.80676q0.515625 1.5625 1.5625 2.75q0.734375 -0.890625 1.1875 -2.75l-2.75 0zm0.453125 -1.1875l4.890625 0l0 1.1875l-1.265625 0q-0.359375 2.296875 -1.40625 3.640625q1.046875 0.890625 3.265625 1.328125l-0.4375 1.484375q-2.375 -0.65625 -3.796875 -1.84375q-1.78125 1.328125 -4.21875 1.921875l-0.59375 -1.328125q2.375 -0.59375 3.703125 -1.5625q-1.03125 -1.484375 -1.484375 -2.75q-0.375 0.890625 -1.109375 1.703125l-0.75 -1.03125q1.78125 -2.0 2.375 -5.046875l1.484375 0.4375q0.296875 0.296875 -0.21875 0.375l-0.4375 1.484375zm-3.9375 6.609375q-1.5625 -1.046875 -2.078125 -1.265625l0 2.296875l-1.265625 0l0 -2.296875q-1.265625 1.34375 -3.5625 2.375l-0.671875 -1.40625q2.234375 -0.8125 3.9375 -2.15625l-2.59375 0l0 -3.1875l2.890625 0l0 -0.890625l-3.859375 0l0 -1.1875l3.859375 0l0 -1.1875l1.1875 0q0.59375 0.078125 0.078125 0.4375l0 0.75l3.703125 0l0 1.1875l-3.703125 0l0 0.890625l2.75 0l0 3.1875l-2.75 0q1.328125 0.375 2.8125 1.265625l-0.734375 1.1875zm-3.34375 -3.34375l0 -1.40625l-1.859375 0l0 1.40625l1.859375 0zm2.96875 0l0 -1.40625l-1.703125 0l0 1.40625l1.703125 0zm2.078125 7.34375l4.671875 0l0 1.1875l-4.671875 0l0 1.421875l7.046875 0l0 1.1875l-16.03125 0l0 -1.1875l3.34375 0l0 -2.96875l1.1875 0q0.59375 0.0625 0.078125 0.4375l0 2.53125l3.109375 0l0 -3.796875l-6.671875 0l0 -1.1875l14.03125 0l0 1.1875l-6.09375 0l0 1.1875zm18.703125 -11.875q2.890625 3.640625 7.640625 5.125l-0.734375 1.703125q-5.046875 -1.84375 -7.9375 -5.859375q-1.34375 2.75 -3.71875 4.375l8.234375 0l0 1.421875l-8.3125 0l0 -1.34375q-1.328125 1.109375 -3.109375 1.9375l-1.046875 -1.421875q5.421875 -2.515625 7.125 -6.75l1.9375 0.375q0.515625 0.078125 -0.078125 0.4375zm-4.671875 15.890625l-1.484375 0l0 -7.34375l11.0625 0l0 7.125l-1.484375 0l0 -0.8125l-8.09375 0l0 1.03125zm0 -2.453125l8.09375 0l0 -3.484375l-8.09375 0l0 3.484375zm14.625 0.96875q1.40625 -2.0 2.734375 -5.421875l1.1875 0.890625q-0.953125 2.890625 -2.375 5.34375q0.078125 0.828125 -0.4375 0.296875l-1.109375 -1.109375zm10.53125 -2.75l-5.484375 0l0 -11.71875l5.484375 0l0 11.71875zm-1.265625 -8.3125l0 -2.0l-2.96875 0l0 2.0l2.96875 0zm0 3.34375l0 -1.9375l-2.96875 0l0 1.9375l2.96875 0zm0 3.5625l0 -2.15625l-2.96875 0l0 2.15625l2.96875 0zm-0.0625 1.5625q1.546875 1.25 2.515625 2.59375l-1.1875 1.046875q-0.890625 -1.34375 -2.296875 -2.6875l0.96875 -0.953125zm-1.5625 1.109375q0.21875 0.21875 -0.375 0.296875q-1.265625 1.484375 -2.96875 2.671875l-0.8125 -1.328125q1.859375 -1.265625 3.046875 -2.75l1.109375 1.109375zm5.71875 -1.5625l-1.484375 0l0 -9.9375l1.40625 0q0.59375 0.0625 0.078125 0.4375l0 9.5zm0.359375 4.390625l-0.296875 -1.421875l0.96875 0q0.296875 0 0.296875 -0.296875l0 -14.328125l1.40625 0q0.59375 0.078125 0.078125 0.453125l0 14.40625q0 1.1875 -1.1875 1.1875l-1.265625 0zm-11.796875 -15.8125q1.34375 0.65625 2.453125 1.703125l-0.96875 1.40625q-1.109375 -1.03125 -2.375 -1.78125l0.890625 -1.328125zm-0.671875 4.375q1.5625 0.8125 2.671875 1.703125l-0.953125 1.40625q-0.96875 -0.8125 -2.609375 -1.78125l0.890625 -1.328125zm34.96875 8.3125q-0.078125 1.265625 -0.453125 2.15625q-0.296875 0.734375 -1.03125 0.734375q-1.046875 0 -2.078125 -2.375q-1.34375 -3.046875 -1.640625 -8.984375l-5.34375 0l0 -1.40625l5.265625 0l0 -3.40625l1.421875 0q0.65625 0.140625 0.0625 0.4375l0 2.96875l3.265625 0l0 1.40625l-3.1875 0q0.375 5.28125 1.109375 7.359375q0.671875 1.921875 0.890625 1.921875q0.296875 0 0.453125 -1.703125l1.265625 0.890625zm-5.640625 -4.453125l-1.484375 0l0 3.859375l2.140625 -0.671875l0.296875 1.34375l-4.890625 1.546875q-0.21875 0.75 -0.453125 0.078125l-0.515625 -1.5625l1.9375 -0.4375l0 -4.15625l-1.5625 0l0 -1.40625l4.53125 0l0 1.40625zm-10.765625 -8.609375l4.828125 0l0 1.40625l-4.828125 0l0 -1.40625zm-0.96875 2.59375l6.234375 0l0 1.40625l-6.234375 0l0 -1.40625zm0.96875 2.59375l4.828125 0l0 1.421875l-4.828125 0l0 -1.421875zm0 2.609375l4.828125 0l0 1.40625l-4.828125 0l0 -1.40625zm3.5625 7.9375l-2.453125 0l0 0.75l-1.484375 0l0 -5.953125l5.421875 0l0 5.65625l-1.484375 0l0 -0.453125zm-2.453125 -4.015625l0 2.828125l2.453125 0l0 -2.828125l-2.453125 0zm12.984375 -11.34375q0.671875 0.59375 1.421875 1.546875l-1.1875 0.890625q-0.75 -1.109375 -1.34375 -1.703125l1.109375 -0.734375z" fill-rule="nonzero"></path><path fill="#cfe2f3" d="m445.52756 234.89502l0 0c0 -10.167267 22.886353 -18.409454 51.118103 -18.409454l0 0c28.231781 0 51.118134 8.2421875 51.118134 18.409454l0 0c0 10.167252 -22.886353 18.40944 -51.118134 18.40944l0 0c-28.23175 0 -51.118103 -8.2421875 -51.118103 -18.40944z" fill-rule="evenodd"></path><path stroke="#000000" stroke-width="1.0" stroke-linejoin="round" stroke-linecap="butt" d="m445.52756 234.89502l0 0c0 -10.167267 22.886353 -18.409454 51.118103 -18.409454l0 0c28.231781 0 51.118134 8.2421875 51.118134 18.409454l0 0c0 10.167252 -22.886353 18.40944 -51.118134 18.40944l0 0c-28.23175 0 -51.118103 -8.2421875 -51.118103 -18.40944z" fill-rule="evenodd"></path><path fill="#cfe2f3" d="m445.52756 275.02362l0 0c0 -10.167267 22.886353 -18.409454 51.118103 -18.409454l0 0c28.231781 0 51.118134 8.2421875 51.118134 18.409454l0 0c0 10.167267 -22.886353 18.409454 -51.118134 18.409454l0 0c-28.23175 0 -51.118103 -8.2421875 -51.118103 -18.409454z" fill-rule="evenodd"></path><path stroke="#000000" stroke-width="1.0" stroke-linejoin="round" stroke-linecap="butt" d="m445.52756 275.02362l0 0c0 -10.167267 22.886353 -18.409454 51.118103 -18.409454l0 0c28.231781 0 51.118134 8.2421875 51.118134 18.409454l0 0c0 10.167267 -22.886353 18.409454 -51.118134 18.409454l0 0c-28.23175 0 -51.118103 -8.2421875 -51.118103 -18.409454z" fill-rule="evenodd"></path><path fill="#000000" fill-opacity="0.0" d="m468.2047 217.3202l56.881897 0l0 35.149612l-56.881897 0z" fill-rule="evenodd"></path><path fill="#000000" d="m478.2516 239.12021l0 -9.3125l1.21875 0l0 3.828125l4.84375 0l0 -3.828125l1.234375 0l0 9.3125l-1.234375 0l0 -4.390625l-4.84375 0l0 4.390625l-1.21875 0zm11.953278 0l0 -8.203125l-3.0625 0l0 -1.109375l7.375 0l0 1.109375l-3.078125 0l0 8.203125l-1.234375 0zm5.7351074 0l0 -9.3125l1.84375 0l2.203125 6.59375q0.3125 0.921875 0.453125 1.375q0.15625 -0.5 0.484375 -1.484375l2.234375 -6.484375l1.65625 0l0 9.3125l-1.1875 0l0 -7.78125l-2.703125 7.78125l-1.109375 0l-2.6875 -7.921875l0 7.921875l-1.1875 0zm11.0868225 0l0 -9.3125l1.234375 0l0 8.21875l4.578125 0l0 1.09375l-5.8125 0z" fill-rule="nonzero"></path><path fill="#000000" fill-opacity="0.0" d="m468.2047 257.44882l56.881897 0l0 35.149597l-56.881897 0z" fill-rule="evenodd"></path><path fill="#000000" d="m484.84534 275.9832l1.234375 0.3125q-0.390625 1.515625 -1.40625 2.3125q-1.0 0.796875 -2.453125 0.796875q-1.5 0 -2.453125 -0.609375q-0.9375 -0.609375 -1.4375 -1.765625q-0.484375 -1.171875 -0.484375 -2.5q0 -1.453125 0.5625 -2.53125q0.5625 -1.09375 1.578125 -1.65625q1.03125 -0.5625 2.265625 -0.5625q1.390625 0 2.34375 0.71875q0.953125 0.703125 1.328125 2.0l-1.21875 0.28125q-0.328125 -1.015625 -0.9375 -1.46875q-0.609375 -0.46875 -1.546875 -0.46875q-1.078125 0 -1.796875 0.515625q-0.71875 0.515625 -1.015625 1.375q-0.28125 0.859375 -0.28125 1.78125q0 1.1875 0.34375 2.078125q0.34375 0.890625 1.0625 1.328125q0.734375 0.4375 1.59375 0.4375q1.03125 0 1.75 -0.59375q0.71875 -0.609375 0.96875 -1.78125zm2.8126526 3.265625l0 -9.3125l1.140625 0l0 9.3125l-1.140625 0zm7.382965 -0.828125q-0.625 0.53125 -1.21875 0.765625q-0.578125 0.21875 -1.25 0.21875q-1.125 0 -1.71875 -0.546875q-0.59375 -0.546875 -0.59375 -1.390625q0 -0.484375 0.21875 -0.890625q0.234375 -0.421875 0.59375 -0.671875q0.375 -0.25 0.828125 -0.375q0.328125 -0.078125 1.015625 -0.171875q1.375 -0.15625 2.03125 -0.390625q0.015625 -0.234375 0.015625 -0.296875q0 -0.703125 -0.328125 -0.984375q-0.4375 -0.390625 -1.296875 -0.390625q-0.8125 0 -1.203125 0.28125q-0.375 0.28125 -0.5625 1.0l-1.109375 -0.140625q0.140625 -0.71875 0.484375 -1.15625q0.359375 -0.453125 1.015625 -0.6875q0.671875 -0.234375 1.53125 -0.234375q0.875 0 1.40625 0.203125q0.546875 0.203125 0.796875 0.515625q0.25 0.296875 0.359375 0.765625q0.046875 0.296875 0.046875 1.0625l0 1.515625q0 1.59375 0.078125 2.015625q0.078125 0.421875 0.28125 0.8125l-1.1875 0q-0.171875 -0.359375 -0.234375 -0.828125zm-0.09375 -2.5625q-0.625 0.265625 -1.859375 0.4375q-0.703125 0.109375 -1.0 0.234375q-0.296875 0.125 -0.453125 0.375q-0.15625 0.234375 -0.15625 0.53125q0 0.453125 0.34375 0.765625q0.34375 0.296875 1.015625 0.296875q0.65625 0 1.171875 -0.28125q0.515625 -0.296875 0.765625 -0.796875q0.171875 -0.375 0.171875 -1.140625l0 -0.421875zm2.6624756 1.375l1.125 -0.171875q0.09375 0.671875 0.53125 1.046875q0.4375 0.359375 1.21875 0.359375q0.78125 0 1.15625 -0.3125q0.390625 -0.328125 0.390625 -0.765625q0 -0.390625 -0.34375 -0.609375q-0.234375 -0.15625 -1.171875 -0.390625q-1.25 -0.3125 -1.734375 -0.546875q-0.484375 -0.234375 -0.734375 -0.640625q-0.25 -0.40625 -0.25 -0.90625q0 -0.453125 0.203125 -0.828125q0.203125 -0.390625 0.5625 -0.640625q0.265625 -0.203125 0.71875 -0.328125q0.46875 -0.140625 1.0 -0.140625q0.78125 0 1.375 0.234375q0.609375 0.21875 0.890625 0.609375q0.296875 0.390625 0.40625 1.046875l-1.125 0.15625q-0.078125 -0.53125 -0.4375 -0.8125q-0.359375 -0.296875 -1.03125 -0.296875q-0.78125 0 -1.125 0.265625q-0.34375 0.25 -0.34375 0.609375q0 0.21875 0.140625 0.390625q0.140625 0.1875 0.4375 0.3125q0.171875 0.0625 1.015625 0.28125q1.21875 0.328125 1.6875 0.53125q0.484375 0.203125 0.75 0.609375q0.28125 0.390625 0.28125 0.96875q0 0.578125 -0.34375 1.078125q-0.328125 0.5 -0.953125 0.78125q-0.625 0.28125 -1.421875 0.28125q-1.3125 0 -2.0 -0.546875q-0.6875 -0.546875 -0.875 -1.625zm6.6640625 0l1.125 -0.171875q0.09375 0.671875 0.53125 1.046875q0.4375 0.359375 1.21875 0.359375q0.78125 0 1.15625 -0.3125q0.390625 -0.328125 0.390625 -0.765625q0 -0.390625 -0.34375 -0.609375q-0.234375 -0.15625 -1.171875 -0.390625q-1.25 -0.3125 -1.734375 -0.546875q-0.484375 -0.234375 -0.734375 -0.640625q-0.25 -0.40625 -0.25 -0.90625q0 -0.453125 0.203125 -0.828125q0.203125 -0.390625 0.5625 -0.640625q0.265625 -0.203125 0.71875 -0.328125q0.46875 -0.140625 1.0 -0.140625q0.78125 0 1.375 0.234375q0.609375 0.21875 0.890625 0.609375q0.296875 0.390625 0.40625 1.046875l-1.125 0.15625q-0.078125 -0.53125 -0.4375 -0.8125q-0.359375 -0.296875 -1.03125 -0.296875q-0.78125 0 -1.125 0.265625q-0.34375 0.25 -0.34375 0.609375q0 0.21875 0.140625 0.390625q0.140625 0.1875 0.4375 0.3125q0.171875 0.0625 1.015625 0.28125q1.21875 0.328125 1.6875 0.53125q0.484375 0.203125 0.75 0.609375q0.28125 0.390625 0.28125 0.96875q0 0.578125 -0.34375 1.078125q-0.328125 0.5 -0.953125 0.78125q-0.625 0.28125 -1.421875 0.28125q-1.3125 0 -2.0 -0.546875q-0.6875 -0.546875 -0.875 -1.625z" fill-rule="nonzero"></path><path fill="#efefef" d="m518.8373 244.05133l13.464539 -13.464569l13.4646 13.464569l-6.7323 0l0 26.393707l6.7323 0l-13.4646 13.464569l-13.464539 -13.464569l6.7323 0l0 -26.393707z" fill-rule="evenodd"></path><path stroke="#000000" stroke-width="1.0" stroke-linejoin="round" stroke-linecap="butt" d="m518.8373 244.05133l13.464539 -13.464569l13.4646 13.464569l-6.7323 0l0 26.393707l6.7323 0l-13.4646 13.464569l-13.464539 -13.464569l6.7323 0l0 -26.393707z" fill-rule="evenodd"></path><path fill="#000000" fill-opacity="0.0" d="m534.29266 235.65355l99.055115 0l0 36.818893l-99.055115 0z" fill-rule="evenodd"></path><path fill="#a64d79" d="m555.46454 250.62042q0.515625 1.5625 1.5625 2.75q0.734375 -0.890625 1.1875 -2.75l-2.75 0zm0.453125 -1.1875l4.890625 0l0 1.1875l-1.265625 0q-0.359375 2.296875 -1.40625 3.640625q1.046875 0.890625 3.265625 1.328125l-0.4375 1.484375q-2.375 -0.65625 -3.796875 -1.84375q-1.78125 1.328125 -4.21875 1.921875l-0.59375 -1.328125q2.375 -0.59375 3.703125 -1.5625q-1.03125 -1.484375 -1.484375 -2.75q-0.375 0.890625 -1.109375 1.703125l-0.75 -1.03125q1.78125 -2.0 2.375 -5.046875l1.484375 0.4375q0.296875 0.296875 -0.21875 0.375l-0.4375 1.484375zm-3.9375 6.609375q-1.5625 -1.046875 -2.078125 -1.265625l0 2.296875l-1.265625 0l0 -2.296875q-1.265625 1.34375 -3.5625 2.375l-0.671875 -1.40625q2.234375 -0.8125 3.9375 -2.15625l-2.59375 0l0 -3.1875l2.890625 0l0 -0.890625l-3.859375 0l0 -1.1875l3.859375 0l0 -1.1875l1.1875 0q0.59375 0.078125 0.078125 0.4375l0 0.75l3.703125 0l0 1.1875l-3.703125 0l0 0.890625l2.75 0l0 3.1875l-2.75 0q1.328125 0.375 2.8125 1.265625l-0.734375 1.1875zm-3.34375 -3.34375l0 -1.40625l-1.859375 0l0 1.40625l1.859375 0zm2.96875 0l0 -1.40625l-1.703125 0l0 1.40625l1.703125 0zm2.078125 7.34375l4.671875 0l0 1.1875l-4.671875 0l0 1.421875l7.046875 0l0 1.1875l-16.03125 0l0 -1.1875l3.34375 0l0 -2.96875l1.1875 0q0.59375 0.0625 0.078125 0.4375l0 2.53125l3.109375 0l0 -3.796875l-6.671875 0l0 -1.1875l14.03125 0l0 1.1875l-6.09375 0l0 1.1875zm18.703125 -11.875q2.890625 3.640625 7.640625 5.125l-0.734375 1.703125q-5.046875 -1.84375 -7.9375 -5.859375q-1.34375 2.75 -3.71875 4.375l8.234375 0l0 1.421875l-8.3125 0l0 -1.34375q-1.328125 1.109375 -3.109375 1.9375l-1.046875 -1.421875q5.421875 -2.515625 7.125 -6.75l1.9375 0.375q0.515625 0.078125 -0.078125 0.4375zm-4.671875 15.890625l-1.484375 0l0 -7.34375l11.0625 0l0 7.125l-1.484375 0l0 -0.8125l-8.09375 0l0 1.03125zm0 -2.453125l8.09375 0l0 -3.484375l-8.09375 0l0 3.484375zm14.625 0.96875q1.40625 -2.0 2.734375 -5.421875l1.1875 0.890625q-0.953125 2.890625 -2.375 5.34375q0.078125 0.828125 -0.4375 0.296875l-1.109375 -1.109375zm10.53125 -2.75l-5.484375 0l0 -11.71875l5.484375 0l0 11.71875zm-1.265625 -8.3125l0 -2.0l-2.96875 0l0 2.0l2.96875 0zm0 3.34375l0 -1.9375l-2.96875 0l0 1.9375l2.96875 0zm0 3.5625l0 -2.15625l-2.96875 0l0 2.15625l2.96875 0zm-0.0625 1.5625q1.546875 1.25 2.515625 2.59375l-1.1875 1.046875q-0.890625 -1.34375 -2.296875 -2.6875l0.96875 -0.953125zm-1.5625 1.109375q0.21875 0.21875 -0.375 0.296875q-1.265625 1.484375 -2.96875 2.671875l-0.8125 -1.328125q1.859375 -1.265625 3.046875 -2.75l1.109375 1.109375zm5.71875 -1.5625l-1.484375 0l0 -9.9375l1.40625 0q0.59375 0.0625 0.078125 0.4375l0 9.5zm0.359375 4.390625l-0.296875 -1.421875l0.96875 0q0.296875 0 0.296875 -0.296875l0 -14.328125l1.40625 0q0.59375 0.078125 0.078125 0.453125l0 14.40625q0 1.1875 -1.1875 1.1875l-1.265625 0zm-11.796875 -15.8125q1.34375 0.65625 2.453125 1.703125l-0.96875 1.40625q-1.109375 -1.03125 -2.375 -1.78125l0.890625 -1.328125zm-0.671875 4.375q1.5625 0.8125 2.671875 1.703125l-0.953125 1.40625q-0.96875 -0.8125 -2.609375 -1.78125l0.890625 -1.328125zm34.96875 8.3125q-0.078125 1.265625 -0.453125 2.15625q-0.296875 0.734375 -1.03125 0.734375q-1.046875 0 -2.078125 -2.375q-1.34375 -3.046875 -1.640625 -8.984375l-5.34375 0l0 -1.40625l5.265625 0l0 -3.40625l1.421875 0q0.65625 0.140625 0.0625 0.4375l0 2.96875l3.265625 0l0 1.40625l-3.1875 0q0.375 5.28125 1.109375 7.359375q0.671875 1.921875 0.890625 1.921875q0.296875 0 0.453125 -1.703125l1.265625 0.890625zm-5.640625 -4.453125l-1.484375 0l0 3.859375l2.140625 -0.671875l0.296875 1.34375l-4.890625 1.546875q-0.21875 0.75 -0.453125 0.078125l-0.515625 -1.5625l1.9375 -0.4375l0 -4.15625l-1.5625 0l0 -1.40625l4.53125 0l0 1.40625zm-10.765625 -8.609375l4.828125 0l0 1.40625l-4.828125 0l0 -1.40625zm-0.96875 2.59375l6.234375 0l0 1.40625l-6.234375 0l0 -1.40625zm0.96875 2.59375l4.828125 0l0 1.421875l-4.828125 0l0 -1.421875zm0 2.609375l4.828125 0l0 1.40625l-4.828125 0l0 -1.40625zm3.5625 7.9375l-2.453125 0l0 0.75l-1.484375 0l0 -5.953125l5.421875 0l0 5.65625l-1.484375 0l0 -0.453125zm-2.453125 -4.015625l0 2.828125l2.453125 0l0 -2.828125l-2.453125 0zm12.984375 -11.34375q0.671875 0.59375 1.421875 1.546875l-1.1875 0.890625q-0.75 -1.109375 -1.34375 -1.703125l1.109375 -0.734375z" fill-rule="nonzero"></path></g></svg>

