<?xml version="1.0" standalone="yes"?>

<svg version="1.1" viewBox="0.0 0.0 807.0341207349081 338.254593175853" fill="none" stroke="none" stroke-linecap="square" stroke-miterlimit="10" xmlns="http://www.w3.org/2000/svg" xmlns:xlink="http://www.w3.org/1999/xlink"><clipPath id="p.0"><path d="m0 0l807.0341 0l0 338.2546l-807.0341 0l0 -338.2546z" clip-rule="nonzero"></path></clipPath><g clip-path="url(#p.0)"><path fill="#000000" fill-opacity="0.0" d="m0 0l807.0341 0l0 338.2546l-807.0341 0z" fill-rule="evenodd"></path><path fill="#cfe2f3" d="m97.25984 39.120735l184.22047 0l0 226.36221l-184.22047 0z" fill-rule="evenodd"></path><path stroke="#000000" stroke-width="1.0" stroke-linejoin="round" stroke-linecap="butt" d="m97.25984 39.120735l184.22047 0l0 226.36221l-184.22047 0z" fill-rule="evenodd"></path><path fill="#000000" d="m165.49298 66.04073l0 -13.59375l1.8125 0l0 5.578125l7.0625 0l0 -5.578125l1.796875 0l0 13.59375l-1.796875 0l0 -6.40625l-7.0625 0l0 6.40625l-1.8125 0zm16.879196 0l0 -12.0l-4.46875 0l0 -1.59375l10.765625 0l0 1.59375l-4.5 0l0 12.0l-1.796875 0zm7.880356 0l0 -13.59375l2.71875 0l3.21875 9.625q0.4375 1.34375 0.640625 2.015625q0.234375 -0.75 0.734375 -2.1875l3.25 -9.453125l2.421875 0l0 13.59375l-1.734375 0l0 -11.390625l-3.953125 11.390625l-1.625 0l-3.9375 -11.578125l0 11.578125l-1.734375 0zm15.525177 0l0 -13.59375l1.796875 0l0 11.984375l6.703125 0l0 1.609375l-8.5 0z" fill-rule="nonzero"></path><path fill="#cfe2f3" d="m486.15485 152.30183l0 0c0 -60.846992 48.247498 -110.173225 107.763794 -110.173225l0 0c28.58075 0 55.990845 11.607502 76.2005 32.26899c20.209595 20.661491 31.563293 48.68448 31.563293 77.904236l0 0c0 60.847 -48.247498 110.17323 -107.763794 110.17323l0 0c-59.516296 0 -107.763794 -49.326233 -107.763794 -110.17323z" fill-rule="evenodd"></path><path stroke="#000000" stroke-width="1.0" stroke-linejoin="round" stroke-linecap="butt" d="m486.15485 152.30183l0 0c0 -60.846992 48.247498 -110.173225 107.763794 -110.173225l0 0c28.58075 0 55.990845 11.607502 76.2005 32.26899c20.209595 20.661491 31.563293 48.68448 31.563293 77.904236l0 0c0 60.847 -48.247498 110.17323 -107.763794 110.17323l0 0c-59.516296 0 -107.763794 -49.326233 -107.763794 -110.17323z" fill-rule="evenodd"></path><path fill="#000000" d="m581.7656 96.55197l1.796875 0.453125q-0.5625 2.21875 -2.03125 3.390625q-1.46875 1.15625 -3.59375 1.15625q-2.203125 0 -3.578125 -0.890625q-1.375 -0.90625 -2.09375 -2.59375q-0.71875 -1.703125 -0.71875 -3.65625q0 -2.125 0.796875 -3.703125q0.8125 -1.578125 2.3125 -2.390625q1.5 -0.828125 3.296875 -0.828125q2.046875 0 3.4375 1.046875q1.390625 1.03125 1.9375 2.90625l-1.765625 0.421875q-0.46875 -1.484375 -1.375 -2.15625q-0.90625 -0.6875 -2.265625 -0.6875q-1.5625 0 -2.625 0.75q-1.046875 0.75 -1.484375 2.03125q-0.421875 1.265625 -0.421875 2.609375q0 1.734375 0.5 3.03125q0.515625 1.28125 1.578125 1.921875q1.078125 0.640625 2.3125 0.640625q1.515625 0 2.5625 -0.859375q1.046875 -0.875 1.421875 -2.59375zm3.5198364 4.765625l0 -13.59375l1.671875 0l0 13.59375l-1.671875 0zm10.613586 -1.21875q-0.9375 0.796875 -1.796875 1.125q-0.859375 0.3125 -1.84375 0.3125q-1.609375 0 -2.484375 -0.78125q-0.875 -0.796875 -0.875 -2.03125q0 -0.734375 0.328125 -1.328125q0.328125 -0.59375 0.859375 -0.953125q0.53125 -0.359375 1.203125 -0.546875q0.5 -0.140625 1.484375 -0.25q2.03125 -0.25 2.984375 -0.578125q0 -0.34375 0 -0.4375q0 -1.015625 -0.46875 -1.4375q-0.640625 -0.5625 -1.90625 -0.5625q-1.171875 0 -1.734375 0.40625q-0.5625 0.40625 -0.828125 1.46875l-1.640625 -0.234375q0.234375 -1.046875 0.734375 -1.6875q0.515625 -0.640625 1.46875 -0.984375q0.96875 -0.359375 2.25 -0.359375q1.265625 0 2.046875 0.296875q0.78125 0.296875 1.15625 0.75q0.375 0.453125 0.515625 1.140625q0.09375 0.421875 0.09375 1.53125l0 2.234375q0 2.328125 0.09375 2.953125q0.109375 0.609375 0.4375 1.171875l-1.75 0q-0.265625 -0.515625 -0.328125 -1.21875zm-0.140625 -3.71875q-0.90625 0.359375 -2.734375 0.625q-1.03125 0.140625 -1.453125 0.328125q-0.421875 0.1875 -0.65625 0.546875q-0.234375 0.359375 -0.234375 0.796875q0 0.671875 0.5 1.125q0.515625 0.4375 1.484375 0.4375q0.96875 0 1.71875 -0.421875q0.75 -0.4375 1.109375 -1.15625q0.265625 -0.578125 0.265625 -1.671875l0 -0.609375zm3.4069824 2.0l1.65625 -0.265625q0.140625 1.0 0.765625 1.53125q0.640625 0.515625 1.78125 0.515625q1.15625 0 1.703125 -0.46875q0.5625 -0.46875 0.5625 -1.09375q0 -0.5625 -0.484375 -0.890625q-0.34375 -0.21875 -1.703125 -0.5625q-1.84375 -0.46875 -2.5625 -0.796875q-0.703125 -0.34375 -1.078125 -0.9375q-0.359375 -0.609375 -0.359375 -1.328125q0 -0.65625 0.296875 -1.21875q0.3125 -0.5625 0.828125 -0.9375q0.390625 -0.28125 1.0625 -0.484375q0.671875 -0.203125 1.4375 -0.203125q1.171875 0 2.046875 0.34375q0.875 0.328125 1.28125 0.90625q0.421875 0.5625 0.578125 1.515625l-1.625 0.21875q-0.109375 -0.75 -0.65625 -1.171875q-0.53125 -0.4375 -1.5 -0.4375q-1.15625 0 -1.640625 0.390625q-0.484375 0.375 -0.484375 0.875q0 0.328125 0.203125 0.59375q0.203125 0.265625 0.640625 0.4375q0.25 0.09375 1.46875 0.4375q1.765625 0.46875 2.46875 0.765625q0.703125 0.296875 1.09375 0.875q0.40625 0.578125 0.40625 1.4375q0 0.828125 -0.484375 1.578125q-0.484375 0.734375 -1.40625 1.140625q-0.921875 0.390625 -2.078125 0.390625q-1.921875 0 -2.9375 -0.796875q-1.0 -0.796875 -1.28125 -2.359375zm9.328125 0l1.65625 -0.265625q0.140625 1.0 0.765625 1.53125q0.640625 0.515625 1.78125 0.515625q1.15625 0 1.703125 -0.46875q0.5625 -0.46875 0.5625 -1.09375q0 -0.5625 -0.484375 -0.890625q-0.34375 -0.21875 -1.703125 -0.5625q-1.84375 -0.46875 -2.5625 -0.796875q-0.703125 -0.34375 -1.078125 -0.9375q-0.359375 -0.609375 -0.359375 -1.328125q0 -0.65625 0.296875 -1.21875q0.3125 -0.5625 0.828125 -0.9375q0.390625 -0.28125 1.0625 -0.484375q0.671875 -0.203125 1.4375 -0.203125q1.171875 0 2.046875 0.34375q0.875 0.328125 1.28125 0.90625q0.421875 0.5625 0.578125 1.515625l-1.625 0.21875q-0.109375 -0.75 -0.65625 -1.171875q-0.53125 -0.4375 -1.5 -0.4375q-1.15625 0 -1.640625 0.390625q-0.484375 0.375 -0.484375 0.875q0 0.328125 0.203125 0.59375q0.203125 0.265625 0.640625 0.4375q0.25 0.09375 1.46875 0.4375q1.765625 0.46875 2.46875 0.765625q0.703125 0.296875 1.09375 0.875q0.40625 0.578125 0.40625 1.4375q0 0.828125 -0.484375 1.578125q-0.484375 0.734375 -1.40625 1.140625q-0.921875 0.390625 -2.078125 0.390625q-1.921875 0 -2.9375 -0.796875q-1.0 -0.796875 -1.28125 -2.359375z" fill-rule="nonzero"></path><path fill="#6fa8dc" d="m536.7244 125.81102l119.212585 0l0 32.503937l-119.212585 0z" fill-rule="evenodd"></path><path stroke="#000000" stroke-width="1.0" stroke-linejoin="round" stroke-linecap="butt" d="m536.7244 125.81102l119.212585 0l0 32.503937l-119.212585 0z" fill-rule="evenodd"></path><path fill="#ffffff" d="m577.6747 148.98299l0 -13.59375l9.171875 0l0 1.59375l-7.375 0l0 4.21875l6.375 0l0 1.609375l-6.375 0l0 6.171875l-1.796875 0zm11.099121 -11.6875l0 -1.90625l1.671875 0l0 1.90625l-1.671875 0zm0 11.6875l0 -9.859375l1.671875 0l0 9.859375l-1.671875 0zm10.87915 -3.171875l1.71875 0.21875q-0.40625 1.5 -1.515625 2.34375q-1.09375 0.828125 -2.8125 0.828125q-2.15625 0 -3.421875 -1.328125q-1.265625 -1.328125 -1.265625 -3.734375q0 -2.484375 1.265625 -3.859375q1.28125 -1.375 3.328125 -1.375q1.984375 0 3.234375 1.34375q1.25 1.34375 1.25 3.796875q0 0.140625 -0.015625 0.4375l-7.34375 0q0.09375 1.625 0.921875 2.484375q0.828125 0.859375 2.0625 0.859375q0.90625 0 1.546875 -0.46875q0.65625 -0.484375 1.046875 -1.546875zm-5.484375 -2.703125l5.5 0q-0.109375 -1.234375 -0.625 -1.859375q-0.796875 -0.96875 -2.078125 -0.96875q-1.140625 0 -1.9375 0.78125q-0.78125 0.765625 -0.859375 2.046875zm9.078857 5.875l0 -13.59375l1.671875 0l0 13.59375l-1.671875 0zm10.566711 0l0 -1.25q-0.9375 1.46875 -2.75 1.46875q-1.171875 0 -2.171875 -0.640625q-0.984375 -0.65625 -1.53125 -1.8125q-0.53125 -1.171875 -0.53125 -2.6875q0 -1.46875 0.484375 -2.671875q0.5 -1.203125 1.46875 -1.84375q0.984375 -0.640625 2.203125 -0.640625q0.890625 0 1.578125 0.375q0.703125 0.375 1.140625 0.984375l0 -4.875l1.65625 0l0 13.59375l-1.546875 0zm-5.28125 -4.921875q0 1.890625 0.796875 2.828125q0.8125 0.9375 1.890625 0.9375q1.09375 0 1.859375 -0.890625q0.765625 -0.890625 0.765625 -2.734375q0 -2.015625 -0.78125 -2.953125q-0.78125 -0.953125 -1.921875 -0.953125q-1.109375 0 -1.859375 0.90625q-0.75 0.90625 -0.75 2.859375z" fill-rule="nonzero"></path><path fill="#6fa8dc" d="m129.76378 112.144356l119.2126 0l0 96.314964l-119.2126 0z" fill-rule="evenodd"></path><path stroke="#000000" stroke-width="1.0" stroke-linejoin="round" stroke-linecap="butt" d="m129.76378 112.144356l119.2126 0l0 96.314964l-119.2126 0z" fill-rule="evenodd"></path><path fill="#ffffff" d="m149.93565 162.4562l1.796875 0.453125q-0.5625 2.21875 -2.03125 3.390625q-1.46875 1.15625 -3.59375 1.15625q-2.203125 0 -3.578125 -0.890625q-1.375 -0.90625 -2.09375 -2.59375q-0.71875 -1.703125 -0.71875 -3.65625q0 -2.125 0.796875 -3.703125q0.8125 -1.578125 2.3125 -2.390625q1.5 -0.828125 3.296875 -0.828125q2.046875 0 3.4375 1.046875q1.390625 1.03125 1.9375 2.90625l-1.765625 0.421875q-0.46875 -1.484375 -1.375 -2.15625q-0.90625 -0.6875 -2.265625 -0.6875q-1.5625 0 -2.625 0.75q-1.046875 0.75 -1.484375 2.03125q-0.421875 1.265625 -0.421875 2.609375q0 1.734375 0.5 3.03125q0.515625 1.28125 1.578125 1.921875q1.078125 0.640625 2.3125 0.640625q1.515625 0 2.5625 -0.859375q1.046875 -0.875 1.421875 -2.59375zm2.9260712 -0.15625q0 -2.734375 1.53125 -4.0625q1.265625 -1.09375 3.09375 -1.09375q2.03125 0 3.3125 1.34375q1.296875 1.328125 1.296875 3.671875q0 1.90625 -0.578125 3.0q-0.5625 1.078125 -1.65625 1.6875q-1.078125 0.59375 -2.375 0.59375q-2.0625 0 -3.34375 -1.328125q-1.28125 -1.328125 -1.28125 -3.8125zm1.71875 0q0 1.890625 0.828125 2.828125q0.828125 0.9375 2.078125 0.9375q1.25 0 2.0625 -0.9375q0.828125 -0.953125 0.828125 -2.890625q0 -1.828125 -0.828125 -2.765625q-0.828125 -0.9375 -2.0625 -0.9375q-1.25 0 -2.078125 0.9375q-0.828125 0.9375 -0.828125 2.828125zm9.281967 4.921875l0 -9.859375l1.5 0l0 1.390625q0.453125 -0.71875 1.21875 -1.15625q0.78125 -0.453125 1.765625 -0.453125q1.09375 0 1.796875 0.453125q0.703125 0.453125 0.984375 1.28125q1.171875 -1.734375 3.046875 -1.734375q1.46875 0 2.25 0.8125q0.796875 0.8125 0.796875 2.5l0 6.765625l-1.671875 0l0 -6.203125q0 -1.0 -0.15625 -1.4375q-0.15625 -0.453125 -0.59375 -0.71875q-0.421875 -0.265625 -1.0 -0.265625q-1.03125 0 -1.71875 0.6875q-0.6875 0.6875 -0.6875 2.21875l0 5.71875l-1.671875 0l0 -6.40625q0 -1.109375 -0.40625 -1.65625q-0.40625 -0.5625 -1.34375 -0.5625q-0.703125 0 -1.3125 0.375q-0.59375 0.359375 -0.859375 1.078125q-0.265625 0.71875 -0.265625 2.0625l0 5.109375l-1.671875 0zm15.540802 3.78125l0 -13.640625l1.53125 0l0 1.28125q0.53125 -0.75 1.203125 -1.125q0.6875 -0.375 1.640625 -0.375q1.265625 0 2.234375 0.65625q0.96875 0.640625 1.453125 1.828125q0.5 1.1875 0.5 2.59375q0 1.515625 -0.546875 2.734375q-0.546875 1.203125 -1.578125 1.84375q-1.03125 0.640625 -2.171875 0.640625q-0.84375 0 -1.515625 -0.34375q-0.65625 -0.359375 -1.078125 -0.890625l0 4.796875l-1.671875 0zm1.515625 -8.65625q0 1.90625 0.765625 2.8125q0.78125 0.90625 1.875 0.90625q1.109375 0 1.890625 -0.9375q0.796875 -0.9375 0.796875 -2.921875q0 -1.875 -0.78125 -2.8125q-0.765625 -0.9375 -1.84375 -0.9375q-1.0625 0 -1.890625 1.0q-0.8125 1.0 -0.8125 2.890625zm8.235092 -0.046875q0 -2.734375 1.53125 -4.0625q1.265625 -1.09375 3.09375 -1.09375q2.03125 0 3.3125 1.34375q1.296875 1.328125 1.296875 3.671875q0 1.90625 -0.578125 3.0q-0.5625 1.078125 -1.65625 1.6875q-1.078125 0.59375 -2.375 0.59375q-2.0625 0 -3.34375 -1.328125q-1.28125 -1.328125 -1.28125 -3.8125zm1.71875 0q0 1.890625 0.828125 2.828125q0.828125 0.9375 2.078125 0.9375q1.25 0 2.0625 -0.9375q0.828125 -0.953125 0.828125 -2.890625q0 -1.828125 -0.828125 -2.765625q-0.828125 -0.9375 -2.0625 -0.9375q-1.25 0 -2.078125 0.9375q-0.828125 0.9375 -0.828125 2.828125zm9.281967 4.921875l0 -9.859375l1.5 0l0 1.40625q1.09375 -1.625 3.140625 -1.625q0.890625 0 1.640625 0.328125q0.75 0.3125 1.109375 0.84375q0.375 0.515625 0.53125 1.21875q0.09375 0.46875 0.09375 1.625l0 6.0625l-1.671875 0l0 -6.0q0 -1.015625 -0.203125 -1.515625q-0.1875 -0.515625 -0.6875 -0.8125q-0.5 -0.296875 -1.171875 -0.296875q-1.0625 0 -1.84375 0.671875q-0.765625 0.671875 -0.765625 2.578125l0 5.375l-1.671875 0zm17.125717 -3.171875l1.71875 0.21875q-0.40625 1.5 -1.515625 2.34375q-1.09375 0.828125 -2.8125 0.828125q-2.15625 0 -3.421875 -1.328125q-1.265625 -1.328125 -1.265625 -3.734375q0 -2.484375 1.265625 -3.859375q1.28125 -1.375 3.328125 -1.375q1.984375 0 3.234375 1.34375q1.25 1.34375 1.25 3.796875q0 0.140625 -0.015625 0.4375l-7.34375 0q0.09375 1.625 0.921875 2.484375q0.828125 0.859375 2.0625 0.859375q0.90625 0 1.546875 -0.46875q0.65625 -0.484375 1.046875 -1.546875zm-5.484375 -2.703125l5.5 0q-0.109375 -1.234375 -0.625 -1.859375q-0.796875 -0.96875 -2.078125 -0.96875q-1.140625 0 -1.9375 0.78125q-0.78125 0.765625 -0.859375 2.046875zm9.110092 5.875l0 -9.859375l1.5 0l0 1.40625q1.09375 -1.625 3.140625 -1.625q0.890625 0 1.640625 0.328125q0.75 0.3125 1.109375 0.84375q0.375 0.515625 0.53125 1.21875q0.09375 0.46875 0.09375 1.625l0 6.0625l-1.671875 0l0 -6.0q0 -1.015625 -0.203125 -1.515625q-0.1875 -0.515625 -0.6875 -0.8125q-0.5 -0.296875 -1.171875 -0.296875q-1.0625 0 -1.84375 0.671875q-0.765625 0.671875 -0.765625 2.578125l0 5.375l-1.671875 0zm14.031967 -1.5l0.234375 1.484375q-0.703125 0.140625 -1.265625 0.140625q-0.90625 0 -1.40625 -0.28125q-0.5 -0.296875 -0.703125 -0.75q-0.203125 -0.46875 -0.203125 -1.984375l0 -5.65625l-1.234375 0l0 -1.3125l1.234375 0l0 -2.4375l1.65625 -1.0l0 3.4375l1.6875 0l0 1.3125l-1.6875 0l0 5.75q0 0.71875 0.078125 0.921875q0.09375 0.203125 0.296875 0.328125q0.203125 0.125 0.578125 0.125q0.265625 0 0.734375 -0.078125z" fill-rule="nonzero"></path><path fill="#000000" fill-opacity="0.0" d="m311.92126 102.93438l215.52753 0l0 32.503944l-215.52753 0z" fill-rule="evenodd"></path><path fill="#000000" d="m325.84314 129.85439l0 -12.000008l-4.46875 0l0 -1.59375l10.765625 0l0 1.59375l-4.5 0l0 12.000008l-1.796875 0zm9.552216 0l-3.015625 -9.859383l1.71875 0l1.5625 5.6875l0.59375 2.125q0.03125 -0.15625 0.5 -2.03125l1.578125 -5.78125l1.71875 0l1.46875 5.71875l0.484375 1.890625l0.578125 -1.90625l1.6875 -5.703125l1.625 0l-3.078125 9.859383l-1.734375 0l-1.578125 -5.9062576l-0.375 -1.671875l-2.0 7.5781326l-1.734375 0zm11.019836 -4.9218826q0 -2.734375 1.53125 -4.0625q1.265625 -1.09375 3.09375 -1.09375q2.03125 0 3.3125 1.34375q1.296875 1.328125 1.296875 3.671875q0 1.90625 -0.578125 3.0q-0.5625 1.0781326 -1.65625 1.6875076q-1.078125 0.59375 -2.375 0.59375q-2.0625 0 -3.34375 -1.328125q-1.28125 -1.3281326 -1.28125 -3.8125076zm1.71875 0q0 1.890625 0.828125 2.828125q0.828125 0.9375076 2.078125 0.9375076q1.25 0 2.0625 -0.9375076q0.828125 -0.953125 0.828125 -2.890625q0 -1.828125 -0.828125 -2.765625q-0.828125 -0.9375 -2.0625 -0.9375q-1.25 0 -2.078125 0.9375q-0.828125 0.9375 -0.828125 2.828125zm8.641327 0.84375l0 -1.6875l5.125 0l0 1.6875l-5.125 0zm9.447052 4.0781326l-3.609375 -13.593758l1.84375 0l2.0625 8.90625q0.34375 1.40625 0.578125 2.78125q0.515625 -2.171875 0.609375 -2.515625l2.59375 -9.171875l2.171875 0l1.953125 6.875q0.734375 2.5625 1.046875 4.8125q0.265625 -1.28125 0.6875 -2.953125l2.125 -8.734375l1.8125 0l-3.734375 13.593758l-1.734375 0l-2.859375 -10.359383q-0.359375 -1.296875 -0.421875 -1.59375q-0.21875 0.9375 -0.40625 1.59375l-2.890625 10.359383l-1.828125 0zm21.452423 -1.21875q-0.9375 0.796875 -1.796875 1.125q-0.859375 0.3125 -1.84375 0.3125q-1.609375 0 -2.484375 -0.78125q-0.875 -0.796875 -0.875 -2.0312576q0 -0.734375 0.328125 -1.328125q0.328125 -0.59375 0.859375 -0.953125q0.53125 -0.359375 1.203125 -0.546875q0.5 -0.140625 1.484375 -0.25q2.03125 -0.25 2.984375 -0.578125q0 -0.34375 0 -0.4375q0 -1.015625 -0.46875 -1.4375q-0.640625 -0.5625 -1.90625 -0.5625q-1.171875 0 -1.734375 0.40625q-0.5625 0.40625 -0.828125 1.46875l-1.640625 -0.234375q0.234375 -1.046875 0.734375 -1.6875q0.515625 -0.640625 1.46875 -0.984375q0.96875 -0.359375 2.25 -0.359375q1.265625 0 2.046875 0.296875q0.78125 0.296875 1.15625 0.75q0.375 0.453125 0.515625 1.140625q0.09375 0.421875 0.09375 1.53125l0 2.234375q0 2.3281326 0.09375 2.9531326q0.109375 0.609375 0.4375 1.171875l-1.75 0q-0.265625 -0.515625 -0.328125 -1.21875zm-0.140625 -3.7187576q-0.90625 0.359375 -2.734375 0.625q-1.03125 0.140625 -1.453125 0.328125q-0.421875 0.1875 -0.65625 0.546875q-0.234375 0.359375 -0.234375 0.796875q0 0.671875 0.5 1.1250076q0.515625 0.4375 1.484375 0.4375q0.96875 0 1.71875 -0.421875q0.75 -0.43750763 1.109375 -1.1562576q0.265625 -0.578125 0.265625 -1.671875l0 -0.609375zm4.000702 8.734383l-0.171875 -1.5625q0.546875 0.140625 0.953125 0.140625q0.546875 0 0.875 -0.1875q0.34375 -0.1875 0.5625 -0.515625q0.15625 -0.25 0.5 -1.25q0.046875 -0.140625 0.15625 -0.40625l-3.734375 -9.875008l1.796875 0l2.046875 5.71875q0.40625 1.078125 0.71875 2.28125q0.28125 -1.15625 0.6875 -2.25l2.09375 -5.75l1.671875 0l-3.75 10.031258q-0.59375 1.625 -0.9375 2.234375q-0.4375 0.828125 -1.015625 1.203125q-0.578125 0.390625 -1.375 0.390625q-0.484375 0 -1.078125 -0.203125zm14.730194 -3.796875l0 -13.593758l5.109375 0q1.546875 0 2.484375 0.40625q0.953125 0.40625 1.484375 1.265625q0.53125 0.859375 0.53125 1.796875q0 0.875 -0.46875 1.65625q-0.46875 0.765625 -1.4375 1.234375q1.234375 0.359375 1.890625 1.234375q0.671875 0.875 0.671875 2.0625q0 0.953125 -0.40625 1.78125q-0.390625 0.8125076 -0.984375 1.2656326q-0.59375 0.4375 -1.5 0.671875q-0.890625 0.21875 -2.1875 0.21875l-5.1875 0zm1.796875 -7.8906326l2.9375 0q1.203125 0 1.71875 -0.15625q0.6875 -0.203125 1.03125 -0.671875q0.359375 -0.46875 0.359375 -1.1875q0 -0.671875 -0.328125 -1.1875q-0.328125 -0.515625 -0.9375 -0.703125q-0.59375 -0.203125 -2.0625 -0.203125l-2.71875 0l0 4.109375zm0 6.2812576l3.390625 0q0.875 0 1.21875 -0.0625q0.625 -0.109375 1.046875 -0.35938263q0.421875 -0.265625 0.6875 -0.765625q0.265625 -0.5 0.265625 -1.140625q0 -0.765625 -0.390625 -1.328125q-0.390625 -0.5625 -1.078125 -0.78125q-0.6875 -0.234375 -1.984375 -0.234375l-3.15625 0l0 4.6718826zm10.521698 -10.078133l0 -1.90625l1.671875 0l0 1.90625l-1.671875 0zm0 11.687508l0 -9.859383l1.671875 0l0 9.859383l-1.671875 0zm4.129181 0l0 -9.859383l1.5 0l0 1.40625q1.09375 -1.625 3.140625 -1.625q0.890625 0 1.640625 0.328125q0.75 0.3125 1.109375 0.84375q0.375 0.515625 0.53125 1.21875q0.09375 0.46875 0.09375 1.625l0 6.0625076l-1.671875 0l0 -6.0000076q0 -1.015625 -0.203125 -1.515625q-0.1875 -0.515625 -0.6875 -0.8125q-0.5 -0.296875 -1.171875 -0.296875q-1.0625 0 -1.84375 0.671875q-0.765625 0.671875 -0.765625 2.578125l0 5.3750076l-1.671875 0zm16.766357 0l0 -1.25q-0.9375 1.46875 -2.75 1.46875q-1.171875 0 -2.171875 -0.640625q-0.984375 -0.65625 -1.53125 -1.8125076q-0.53125 -1.171875 -0.53125 -2.6875q0 -1.46875 0.484375 -2.671875q0.5 -1.203125 1.46875 -1.84375q0.984375 -0.640625 2.203125 -0.640625q0.890625 0 1.578125 0.375q0.703125 0.375 1.140625 0.984375l0 -4.875l1.65625 0l0 13.593758l-1.546875 0zm-5.28125 -4.9218826q0 1.890625 0.796875 2.828125q0.8125 0.9375076 1.890625 0.9375076q1.09375 0 1.859375 -0.8906326q0.765625 -0.890625 0.765625 -2.734375q0 -2.015625 -0.78125 -2.953125q-0.78125 -0.953125 -1.921875 -0.953125q-1.109375 0 -1.859375 0.90625q-0.75 0.90625 -0.75 2.859375zm9.281952 -6.765625l0 -1.90625l1.671875 0l0 1.90625l-1.671875 0zm0 11.687508l0 -9.859383l1.671875 0l0 9.859383l-1.671875 0zm4.1292114 0l0 -9.859383l1.5 0l0 1.40625q1.09375 -1.625 3.140625 -1.625q0.890625 0 1.640625 0.328125q0.75 0.3125 1.109375 0.84375q0.375 0.515625 0.53125 1.21875q0.09375 0.46875 0.09375 1.625l0 6.0625076l-1.671875 0l0 -6.0000076q0 -1.015625 -0.203125 -1.515625q-0.1875 -0.515625 -0.6875 -0.8125q-0.5 -0.296875 -1.171875 -0.296875q-1.0625 0 -1.84375 0.671875q-0.765625 0.671875 -0.765625 2.578125l0 5.3750076l-1.671875 0zm10.078827 0.8125l1.609375 0.25q0.109375 0.75 0.578125 1.09375q0.609375 0.453125 1.6875 0.453125q1.171875 0 1.796875 -0.46875q0.625 -0.453125 0.859375 -1.28125q0.125 -0.515625 0.109375 -2.15625q-1.09375 1.296875 -2.71875 1.296875q-2.03125 0 -3.15625 -1.46875q-1.109375 -1.4687576 -1.109375 -3.5156326q0 -1.40625 0.515625 -2.59375q0.515625 -1.203125 1.484375 -1.84375q0.96875 -0.65625 2.265625 -0.65625q1.75 0 2.875 1.40625l0 -1.1875l1.546875 0l0 8.515633q0 2.3125 -0.46875 3.265625q-0.46875 0.96875 -1.484375 1.515625q-1.015625 0.5625 -2.5 0.5625q-1.765625 0 -2.859375 -0.796875q-1.078125 -0.796875 -1.03125 -2.390625zm1.375 -5.9218826q0 1.953125 0.765625 2.84375q0.78125 0.8906326 1.9375 0.8906326q1.140625 0 1.921875 -0.8906326q0.78125 -0.890625 0.78125 -2.78125q0 -1.8125 -0.8125 -2.71875q-0.796875 -0.921875 -1.921875 -0.921875q-1.109375 0 -1.890625 0.90625q-0.78125 0.890625 -0.78125 2.671875z" fill-rule="nonzero"></path><path fill="#000000" fill-opacity="0.0" d="m34.72966 290.11548l756.31494 0l0 38.519684l-756.31494 0z" fill-rule="evenodd"></path><path fill="#000000" d="m45.29216 317.0355l0 -13.59375l9.171875 0l0 1.59375l-7.375 0l0 4.21875l6.375 0l0 1.609375l-6.375 0l0 6.171875l-1.796875 0zm11.099106 -11.6875l0 -1.90625l1.671875 0l0 1.90625l-1.671875 0zm0 11.6875l0 -9.859375l1.671875 0l0 9.859375l-1.671875 0zm10.879196 -3.171875l1.71875 0.21875q-0.40625 1.5 -1.515625 2.34375q-1.09375 0.828125 -2.8125 0.828125q-2.15625 0 -3.421875 -1.328125q-1.265625 -1.328125 -1.265625 -3.734375q0 -2.484375 1.265625 -3.859375q1.28125 -1.375 3.328125 -1.375q1.984375 0 3.234375 1.34375q1.25 1.34375 1.25 3.796875q0 0.140625 -0.015625 0.4375l-7.34375 0q0.09375 1.625 0.921875 2.484375q0.828125 0.859375 2.0625 0.859375q0.90625 0 1.546875 -0.46875q0.65625 -0.484375 1.046875 -1.546875zm-5.484375 -2.703125l5.5 0q-0.109375 -1.234375 -0.625 -1.859375q-0.796875 -0.96875 -2.078125 -0.96875q-1.140625 0 -1.9375 0.78125q-0.78125 0.765625 -0.859375 2.046875zm9.078842 5.875l0 -13.59375l1.671875 0l0 13.59375l-1.671875 0zm10.566696 0l0 -1.25q-0.9375 1.46875 -2.75 1.46875q-1.171875 0 -2.171875 -0.640625q-0.984375 -0.65625 -1.53125 -1.8125q-0.53125 -1.171875 -0.53125 -2.6875q0 -1.46875 0.484375 -2.671875q0.5 -1.203125 1.46875 -1.84375q0.984375 -0.640625 2.203125 -0.640625q0.890625 0 1.578125 0.375q0.703125 0.375 1.140625 0.984375l0 -4.875l1.65625 0l0 13.59375l-1.546875 0zm-5.28125 -4.921875q0 1.890625 0.796875 2.828125q0.8125 0.9375 1.890625 0.9375q1.09375 0 1.859375 -0.890625q0.765625 -0.890625 0.765625 -2.734375q0 -2.015625 -0.78125 -2.953125q-0.78125 -0.953125 -1.921875 -0.953125q-1.109375 0 -1.859375 0.90625q-0.75 0.90625 -0.75 2.859375z" fill-rule="nonzero"></path><path fill="#000000" d="m96.85002 312.50424q3.109375 -0.8125 5.125 -2.59375l1.03125 1.03125q0.21875 0.375 -0.375 0.296875q-2.296875 1.859375 -5.34375 2.53125l-0.4375 -1.265625zm-2.078125 -10.09375q-0.296875 1.78125 -1.1875 4.015625l0.21875 0.0625q0.296875 0.15625 -0.140625 0.453125l0 11.578125l-1.484375 0l0 -9.203125q-0.671875 1.03125 -1.34375 1.78125l-0.8125 -1.265625q2.671875 -3.109375 3.34375 -8.15625l1.625 0.359375q0.296875 0.296875 -0.21875 0.375zm1.40625 4.3125l0 8.96875l-1.484375 0l0 -11.34375l1.40625 0q0.59375 0.0625 0.078125 0.4375l0 1.78125q2.671875 -2.296875 3.484375 -5.046875l1.34375 0.453125q0.296875 0.296875 -0.21875 0.359375q-0.234375 0.75 -0.671875 1.421875l6.453125 0l0 1.40625l-1.78125 0q-0.890625 1.78125 -2.15625 2.8125q1.78125 1.125 5.046875 1.71875l-0.4375 1.484375q-3.71875 -0.828125 -5.5 -2.3125q-1.703125 1.421875 -4.75 2.375l-0.65625 -1.328125q2.96875 -0.890625 4.21875 -1.9375q-1.1875 -1.1875 -1.78125 -2.140625q-0.59375 0.8125 -1.78125 1.84375l-0.8125 -0.953125zm0.453125 10.53125q5.78125 -0.59375 9.125 -4.296875l1.109375 1.109375q0.375 0.375 -0.375 0.296875q-3.78125 3.71875 -9.5 4.234375l-0.359375 -1.34375zm8.15625 -4.59375q0.296875 0.4375 -0.296875 0.296875q-2.453125 2.078125 -6.53125 3.265625l-0.515625 -1.34375q3.78125 -0.96875 6.3125 -3.265625l1.03125 1.046875zm-3.1875 -5.421875q1.03125 -0.890625 1.625 -2.078125l-3.40625 0q0.4375 0.96875 1.78125 2.078125zm14.390625 3.34375q2.53125 -2.96875 2.90625 -8.765625l1.546875 0.296875q0.375 0.21875 -0.140625 0.515625q-0.21875 1.421875 -0.515625 2.90625l6.234375 0l0 1.40625l-1.421875 0q-0.296875 3.9375 -2.140625 7.203125q1.703125 1.703125 3.859375 2.59375l-0.75 1.640625q-2.21875 -1.125 -4.15625 -3.046875q-1.5625 1.921875 -5.421875 3.5625l-0.8125 -1.5625q3.9375 -1.484375 5.265625 -3.265625q-1.25 -1.9375 -1.921875 -4.671875q-0.375 0.953125 -1.5625 2.4375l-0.96875 -1.25zm-4.375 5.9375q-1.40625 0 -1.40625 -1.484375l0 -6.765625l4.828125 0l0 -3.328125l-5.421875 0l0 -1.421875l6.90625 0l0 6.171875l-4.828125 0l0 5.046875q0 0.359375 0.296875 0.359375l2.890625 0q0.59375 0 0.75 -0.953125l0.21875 -1.421875l1.703125 0.453125l-0.4375 1.78125q-0.375 1.5625 -1.859375 1.5625l-3.640625 0zm9.796875 -3.71875q1.34375 -2.078125 1.703125 -5.859375l-3.625 0q0.21875 3.265625 1.921875 5.859375zm7.796875 2.296875l1.703125 0l0 1.640625l-0.890625 2.0l-0.8125 0l0.734375 -2.0l-0.734375 0l0 -1.640625z" fill-rule="nonzero"></path><path fill="#000000" d="m141.48283 317.0355l0 -13.59375l1.8125 0l0 5.578125l7.0625 0l0 -5.578125l1.796875 0l0 13.59375l-1.796875 0l0 -6.40625l-7.0625 0l0 6.40625l-1.8125 0zm16.879196 0l0 -12.0l-4.46875 0l0 -1.59375l10.765625 0l0 1.59375l-4.5 0l0 12.0l-1.796875 0zm7.880356 0l0 -13.59375l2.71875 0l3.21875 9.625q0.4375 1.34375 0.640625 2.015625q0.234375 -0.75 0.734375 -2.1875l3.25 -9.453125l2.421875 0l0 13.59375l-1.734375 0l0 -11.390625l-3.953125 11.390625l-1.625 0l-3.9375 -11.578125l0 11.578125l-1.734375 0zm15.525177 0l0 -13.59375l1.796875 0l0 11.984375l6.703125 0l0 1.609375l-8.5 0z" fill-rule="nonzero"></path><path fill="#000000" d="m208.77971 306.19174l-6.609375 0l0 -1.109375q-2.078125 1.34375 -4.828125 2.234375l-0.65625 -1.1875q5.265625 -1.9375 8.078125 -4.6875l1.34375 0.234375q0.671875 0.140625 0 0.4375q3.265625 2.234375 7.9375 3.421875l-0.4375 1.40625q-2.078125 -0.453125 -4.828125 -1.78125l0 1.03125zm-9.953125 0.75l13.359375 0l0 4.53125l-13.359375 0l0 -4.53125zm6.53125 -4.15625q-1.625 1.328125 -2.96875 2.21875l6.09375 0q-1.5625 -0.734375 -3.125 -2.21875zm2.078125 6.96875q0.53125 -0.8125 0.96875 -1.625l-2.21875 0l0 2.15625l2.078125 0l-0.828125 -0.53125zm-5.109375 -1.625q0.8125 0.671875 1.328125 1.5625l-0.8125 0.59375l1.859375 0l0 -2.15625l-2.375 0zm7.34375 6.453125l0 -1.1875l-8.390625 0l0 1.1875l8.390625 0zm1.484375 4.15625l-1.484375 0l0 -0.515625l-8.390625 0l0 0.59375l-1.484375 0l0 -6.609375l11.359375 0l0 6.53125zm-1.484375 -1.703125l0 -1.265625l-8.390625 0l0 1.265625l8.390625 0zm-7.28125 -6.75q-0.4375 -0.671875 -1.109375 -1.421875l0.890625 -0.734375l-1.859375 0l0 2.15625l2.078125 0zm8.3125 0l0 -2.15625l-2.078125 0l0.828125 0.375q0.515625 0.296875 -0.078125 0.4375q-0.453125 0.671875 -0.890625 1.34375l2.21875 0zm15.375 5.5625q2.671875 0.890625 6.453125 1.109375l-0.75 1.484375q-4.21875 -0.359375 -7.046875 -1.703125q-3.640625 1.703125 -7.5 2.0l-0.890625 -1.25q4.015625 -0.375 6.90625 -1.5625q-1.5625 -1.125 -2.453125 -2.234375q-0.953125 0.671875 -3.109375 1.40625l-0.59375 -1.1875q3.046875 -0.953125 4.828125 -3.03125l1.40625 0.21875q0.59375 0.140625 -0.15625 0.375l-0.515625 0.515625l9.28125 0l0 1.1875l-2.828125 0q-1.25 1.5625 -3.03125 2.671875zm-5.875 -9.796875q-0.140625 -0.375 -0.359375 -0.75l0.8125 -0.4375q0.671875 1.03125 1.109375 2.15625l-0.96875 0.4375l-0.140625 -0.4375l-1.109375 0.140625l0 3.78125l-1.265625 0l0 -3.703125l-1.78125 0.140625q-0.375 0.59375 -0.453125 0l-0.140625 -1.109375l1.484375 -0.078125l0.59375 -0.65625l-1.9375 -1.265625l0.59375 -0.890625l0.53125 0.296875l1.328125 -2.234375l0.8125 0.53125q0.234375 0.296875 -0.140625 0.296875l-1.265625 1.921875l0.671875 0.453125l1.40625 -1.78125l0.890625 0.515625q0.296875 0.296875 -0.21875 0.296875l-2.15625 2.515625l1.703125 -0.140625zm-2.515625 2.078125q0.515625 0.140625 0 0.375q-0.078125 1.03125 -0.59375 2.140625l-0.96875 -0.21875q0.59375 -1.1875 0.59375 -2.453125l0.96875 0.15625zm3.109375 -0.296875q0.671875 0.890625 0.890625 2.0l-0.890625 0.375q-0.296875 -1.265625 -0.890625 -2.0l0.890625 -0.375zm6.6875 -3.640625l1.78125 -2.8125l0.8125 0.515625q0.21875 0.296875 -0.140625 0.296875l-1.1875 1.78125l0.734375 0.59375l1.40625 -2.15625l0.890625 0.515625q0.296875 0.296875 -0.21875 0.296875l-2.078125 2.96875l1.859375 -0.0625q-0.15625 -0.453125 -0.453125 -0.890625l0.828125 -0.453125q0.65625 0.96875 1.25 2.234375l-0.953125 0.515625l-0.234375 -0.515625l-1.25 0.0625l0 3.859375l-1.265625 0l0 -3.703125l-1.40625 0.078125q-0.375 0.59375 -0.453125 0l-0.140625 -1.125l1.109375 0l0.59375 -0.8125l-1.484375 -1.1875zm4.296875 3.640625q0.671875 0.96875 0.890625 2.0l-0.890625 0.375q-0.296875 -1.109375 -0.890625 -2.0l0.890625 -0.375zm-4.671875 2.453125q0.515625 -1.265625 0.59375 -2.375l0.96875 0.140625q0.515625 0.15625 0 0.453125q-0.15625 0.953125 -0.59375 2.0l-0.96875 -0.21875zm-2.515625 4.890625q1.40625 -0.8125 2.515625 -2.0l-4.96875 0q1.03125 1.1875 2.453125 2.0zm-1.484375 -6.375l0 0.890625l2.59375 0l0 -0.890625l-2.59375 0zm3.625 1.78125l-4.671875 0l0 -2.671875l4.671875 0l0 2.671875zm-0.0625 -8.765625l0 0.890625l-4.609375 0l0 -0.890625l4.609375 0zm-5.046875 2.375l0 -0.890625l5.484375 0l0 0.890625l-5.484375 0zm5.109375 0.671875l0 0.890625l-4.671875 0l0 -0.890625l4.671875 0zm0 1.484375l0 0.890625l-4.671875 0l0 -0.890625l4.671875 0zm15.96875 11.0625q0.734375 -0.375 1.546875 -1.125l-8.3125 1.5625q-0.0625 0.53125 -0.359375 0.234375l-0.453125 -1.640625l4.3125 -0.515625l0 -1.34375l-3.5 0l0 -1.1875l3.5 0l0 -1.109375l-1.71875 0l-1.625 0l0 -5.265625l3.34375 0l0 -1.046875l-4.3125 0l0 -1.1875l4.3125 0l0 -0.890625q-1.859375 0.078125 -3.71875 0.15625l-0.21875 -1.265625q3.640625 0 7.796875 -0.8125l0.65625 1.25q0.234375 0.453125 -0.4375 0.15625q-1.5625 0.21875 -2.828125 0.375l0 1.03125l4.09375 0l0 1.1875l-4.09375 0l0 1.046875l3.421875 0l0 5.265625l-3.421875 0l0 1.109375l3.71875 0l0 1.1875l-3.71875 0l0 1.109375l3.71875 -0.59375l0 1.046875q2.15625 -1.9375 2.21875 -5.859375l0.078125 -2.90625l-1.78125 0l0 -1.40625l1.78125 0l0 -3.78125l1.40625 0q0.59375 0.078125 0.078125 0.4375l0 3.34375l3.265625 0l-0.140625 9.796875q-0.078125 2.671875 -1.9375 2.671875l-2.0 0l-0.21875 -1.40625l1.703125 0q0.890625 0 0.96875 -1.5625l0.21875 -8.09375l-1.859375 0l-0.078125 3.5q-0.0625 5.109375 -4.515625 7.9375l-0.890625 -1.40625zm-2.015625 -7.359375l0 1.34375l2.15625 0l0 -1.34375l-2.15625 0zm0 -2.140625l0 1.25l2.15625 0l0 -1.25l-2.15625 0zm-3.328125 2.140625l0 1.34375l2.078125 0l0 -1.34375l-2.078125 0zm0 -2.140625l0 1.25l2.078125 0l0 -1.25l-2.078125 0zm17.4375 7.1875l1.7031097 0l0 1.640625l-0.89060974 2.0l-0.8125 0l0.734375 -2.0l-0.734375 0l0 -1.640625z" fill-rule="nonzero"></path><path fill="#000000" d="m267.06876 317.0355l0 -13.59375l1.8125 0l0 5.578125l7.0625 0l0 -5.578125l1.796875 0l0 13.59375l-1.796875 0l0 -6.40625l-7.0625 0l0 6.40625l-1.8125 0zm16.879211 0l0 -12.0l-4.46875 0l0 -1.59375l10.765625 0l0 1.59375l-4.5 0l0 12.0l-1.796875 0zm7.8803406 0l0 -13.59375l2.71875 0l3.21875 9.625q0.4375 1.34375 0.640625 2.015625q0.234375 -0.75 0.734375 -2.1875l3.25 -9.453125l2.421875 0l0 13.59375l-1.734375 0l0 -11.390625l-3.953125 11.390625l-1.625 0l-3.9375 -11.578125l0 11.578125l-1.734375 0zm15.525177 0l0 -13.59375l1.796875 0l0 11.984375l6.703125 0l0 1.609375l-8.5 0z" fill-rule="nonzero"></path><path fill="#000000" d="m329.02188 312.50424q3.109375 -0.8125 5.125 -2.59375l1.03125 1.03125q0.21875 0.375 -0.375 0.296875q-2.296875 1.859375 -5.34375 2.53125l-0.4375 -1.265625zm-2.078125 -10.09375q-0.296875 1.78125 -1.1875 4.015625l0.21875 0.0625q0.296875 0.15625 -0.140625 0.453125l0 11.578125l-1.484375 0l0 -9.203125q-0.671875 1.03125 -1.34375 1.78125l-0.8125 -1.265625q2.671875 -3.109375 3.34375 -8.15625l1.625 0.359375q0.296875 0.296875 -0.21875 0.375zm1.40625 4.3125l0 8.96875l-1.484375 0l0 -11.34375l1.40625 0q0.59375 0.0625 0.078125 0.4375l0 1.78125q2.671875 -2.296875 3.484375 -5.046875l1.34375 0.453125q0.296875 0.296875 -0.21875 0.359375q-0.234375 0.75 -0.671875 1.421875l6.453125 0l0 1.40625l-1.78125 0q-0.890625 1.78125 -2.15625 2.8125q1.78125 1.125 5.046875 1.71875l-0.4375 1.484375q-3.71875 -0.828125 -5.5 -2.3125q-1.703125 1.421875 -4.75 2.375l-0.65625 -1.328125q2.96875 -0.890625 4.21875 -1.9375q-1.1875 -1.1875 -1.78125 -2.140625q-0.59375 0.8125 -1.78125 1.84375l-0.8125 -0.953125zm0.453125 10.53125q5.78125 -0.59375 9.125 -4.296875l1.109375 1.109375q0.375 0.375 -0.375 0.296875q-3.78125 3.71875 -9.5 4.234375l-0.359375 -1.34375zm8.15625 -4.59375q0.296875 0.4375 -0.296875 0.296875q-2.453125 2.078125 -6.53125 3.265625l-0.515625 -1.34375q3.78125 -0.96875 6.3125 -3.265625l1.03125 1.046875zm-3.1875 -5.421875q1.03125 -0.890625 1.625 -2.078125l-3.40625 0q0.4375 0.96875 1.78125 2.078125zm14.390625 3.34375q2.53125 -2.96875 2.90625 -8.765625l1.546875 0.296875q0.375 0.21875 -0.140625 0.515625q-0.21875 1.421875 -0.515625 2.90625l6.234375 0l0 1.40625l-1.421875 0q-0.296875 3.9375 -2.140625 7.203125q1.703125 1.703125 3.859375 2.59375l-0.75 1.640625q-2.21875 -1.125 -4.15625 -3.046875q-1.5625 1.921875 -5.421875 3.5625l-0.8125 -1.5625q3.9375 -1.484375 5.265625 -3.265625q-1.25 -1.9375 -1.921875 -4.671875q-0.375 0.953125 -1.5625 2.4375l-0.96875 -1.25zm-4.375 5.9375q-1.40625 0 -1.40625 -1.484375l0 -6.765625l4.828125 0l0 -3.328125l-5.421875 0l0 -1.421875l6.90625 0l0 6.171875l-4.828125 0l0 5.046875q0 0.359375 0.296875 0.359375l2.890625 0q0.59375 0 0.75 -0.953125l0.21875 -1.421875l1.703125 0.453125l-0.4375 1.78125q-0.375 1.5625 -1.859375 1.5625l-3.640625 0zm9.796875 -3.71875q1.34375 -2.078125 1.703125 -5.859375l-3.625 0q0.21875 3.265625 1.921875 5.859375zm7.796875 2.296875l1.703125 0l0 1.640625l-0.890625 2.0l-0.8125 0l0.734375 -2.0l-0.734375 0l0 -1.640625z" fill-rule="nonzero"></path><path fill="#000000" d="m373.70157 317.0355l0 -13.59375l9.171875 0l0 1.59375l-7.375 0l0 4.21875l6.375 0l0 1.609375l-6.375 0l0 6.171875l-1.796875 0zm11.099121 -11.6875l0 -1.90625l1.671875 0l0 1.90625l-1.671875 0zm0 11.6875l0 -9.859375l1.671875 0l0 9.859375l-1.671875 0zm10.879181 -3.171875l1.71875 0.21875q-0.40625 1.5 -1.515625 2.34375q-1.09375 0.828125 -2.8125 0.828125q-2.15625 0 -3.421875 -1.328125q-1.265625 -1.328125 -1.265625 -3.734375q0 -2.484375 1.265625 -3.859375q1.28125 -1.375 3.328125 -1.375q1.984375 0 3.234375 1.34375q1.25 1.34375 1.25 3.796875q0 0.140625 -0.015625 0.4375l-7.34375 0q0.09375 1.625 0.921875 2.484375q0.828125 0.859375 2.0625 0.859375q0.90625 0 1.546875 -0.46875q0.65625 -0.484375 1.046875 -1.546875zm-5.484375 -2.703125l5.5 0q-0.109375 -1.234375 -0.625 -1.859375q-0.796875 -0.96875 -2.078125 -0.96875q-1.140625 0 -1.9375 0.78125q-0.78125 0.765625 -0.859375 2.046875zm9.078827 5.875l0 -13.59375l1.671875 0l0 13.59375l-1.671875 0zm10.566711 0l0 -1.25q-0.9375 1.46875 -2.75 1.46875q-1.171875 0 -2.171875 -0.640625q-0.984375 -0.65625 -1.53125 -1.8125q-0.53125 -1.171875 -0.53125 -2.6875q0 -1.46875 0.484375 -2.671875q0.5 -1.203125 1.46875 -1.84375q0.984375 -0.640625 2.203125 -0.640625q0.890625 0 1.578125 0.375q0.703125 0.375 1.140625 0.984375l0 -4.875l1.65625 0l0 13.59375l-1.546875 0zm-5.28125 -4.921875q0 1.890625 0.796875 2.828125q0.8125 0.9375 1.890625 0.9375q1.09375 0 1.859375 -0.890625q0.765625 -0.890625 0.765625 -2.734375q0 -2.015625 -0.78125 -2.953125q-0.78125 -0.953125 -1.921875 -0.953125q-1.109375 0 -1.859375 0.90625q-0.75 0.90625 -0.75 2.859375z" fill-rule="nonzero"></path><path fill="#000000" d="m432.22818 304.86362l1.484375 1.109375q0.078125 0.296875 -0.359375 0.375l0 6.015625q0 1.1875 -1.1875 1.1875l-1.9375 0l-0.140625 -1.421875l1.546875 0q0.234375 0 0.234375 -0.21875l0 -5.046875l-3.640625 1.1875l0 6.09375l-1.484375 0l0 -5.640625l-3.265625 1.03125l0 6.609375q0 0.4375 0.4375 0.4375l8.546875 0q1.1875 0 1.484375 -1.328125l0.21875 -1.046875l1.625 0.453125l-0.65625 1.921875q-0.53125 1.421875 -1.859375 1.421875l-9.953125 0q-1.328125 0 -1.328125 -1.34375l0 -6.671875l-2.53125 0.8125l-0.515625 -1.484375l3.046875 -0.890625l0 -4.90625l1.40625 0q0.59375 0.078125 0.078125 0.453125l0 4.0l3.265625 -1.03125l0 -5.046875l1.40625 0q0.59375 0.078125 0.078125 0.4375l0 4.15625l3.703125 -1.1875l0.296875 -0.4375zm17.375 1.328125l-6.609375 0l0 -1.109375q-2.078125 1.34375 -4.828125 2.234375l-0.65625 -1.1875q5.265625 -1.9375 8.078125 -4.6875l1.34375 0.234375q0.671875 0.140625 0 0.4375q3.265625 2.234375 7.9375 3.421875l-0.4375 1.40625q-2.078125 -0.453125 -4.828125 -1.78125l0 1.03125zm-9.953125 0.75l13.359375 0l0 4.53125l-13.359375 0l0 -4.53125zm6.53125 -4.15625q-1.625 1.328125 -2.96875 2.21875l6.09375 0q-1.5625 -0.734375 -3.125 -2.21875zm2.078125 6.96875q0.53125 -0.8125 0.96875 -1.625l-2.21875 0l0 2.15625l2.078125 0l-0.828125 -0.53125zm-5.109375 -1.625q0.8125 0.671875 1.328125 1.5625l-0.8125 0.59375l1.859375 0l0 -2.15625l-2.375 0zm7.34375 6.453125l0 -1.1875l-8.390625 0l0 1.1875l8.390625 0zm1.484375 4.15625l-1.484375 0l0 -0.515625l-8.390625 0l0 0.59375l-1.484375 0l0 -6.609375l11.359375 0l0 6.53125zm-1.484375 -1.703125l0 -1.265625l-8.390625 0l0 1.265625l8.390625 0zm-7.28125 -6.75q-0.4375 -0.671875 -1.109375 -1.421875l0.890625 -0.734375l-1.859375 0l0 2.15625l2.078125 0zm8.3125 0l0 -2.15625l-2.078125 0l0.828125 0.375q0.515625 0.296875 -0.078125 0.4375q-0.453125 0.671875 -0.890625 1.34375l2.21875 0zm15.375 5.5625q2.671875 0.890625 6.453125 1.109375l-0.75 1.484375q-4.21875 -0.359375 -7.046875 -1.703125q-3.640625 1.703125 -7.5 2.0l-0.890625 -1.25q4.015625 -0.375 6.90625 -1.5625q-1.5625 -1.125 -2.453125 -2.234375q-0.953125 0.671875 -3.109375 1.40625l-0.59375 -1.1875q3.046875 -0.953125 4.828125 -3.03125l1.40625 0.21875q0.59375 0.140625 -0.15625 0.375l-0.515625 0.515625l9.28125 0l0 1.1875l-2.828125 0q-1.25 1.5625 -3.03125 2.671875zm-5.875 -9.796875q-0.140625 -0.375 -0.359375 -0.75l0.8125 -0.4375q0.671875 1.03125 1.109375 2.15625l-0.96875 0.4375l-0.140625 -0.4375l-1.109375 0.140625l0 3.78125l-1.265625 0l0 -3.703125l-1.78125 0.140625q-0.375 0.59375 -0.453125 0l-0.140625 -1.109375l1.484375 -0.078125l0.59375 -0.65625l-1.9375 -1.265625l0.59375 -0.890625l0.53125 0.296875l1.328125 -2.234375l0.8125 0.53125q0.234375 0.296875 -0.140625 0.296875l-1.265625 1.921875l0.671875 0.453125l1.40625 -1.78125l0.890625 0.515625q0.296875 0.296875 -0.21875 0.296875l-2.15625 2.515625l1.703125 -0.140625zm-2.515625 2.078125q0.515625 0.140625 0 0.375q-0.078125 1.03125 -0.59375 2.140625l-0.96875 -0.21875q0.59375 -1.1875 0.59375 -2.453125l0.96875 0.15625zm3.109375 -0.296875q0.671875 0.890625 0.890625 2.0l-0.890625 0.375q-0.296875 -1.265625 -0.890625 -2.0l0.890625 -0.375zm6.6875 -3.640625l1.78125 -2.8125l0.8125 0.515625q0.21875 0.296875 -0.140625 0.296875l-1.1875 1.78125l0.734375 0.59375l1.40625 -2.15625l0.890625 0.515625q0.296875 0.296875 -0.21875 0.296875l-2.078125 2.96875l1.859375 -0.0625q-0.15625 -0.453125 -0.453125 -0.890625l0.828125 -0.453125q0.65625 0.96875 1.25 2.234375l-0.953125 0.515625l-0.234375 -0.515625l-1.25 0.0625l0 3.859375l-1.265625 0l0 -3.703125l-1.40625 0.078125q-0.375 0.59375 -0.453125 0l-0.140625 -1.125l1.109375 0l0.59375 -0.8125l-1.484375 -1.1875zm4.296875 3.640625q0.671875 0.96875 0.890625 2.0l-0.890625 0.375q-0.296875 -1.109375 -0.890625 -2.0l0.890625 -0.375zm-4.671875 2.453125q0.515625 -1.265625 0.59375 -2.375l0.96875 0.140625q0.515625 0.15625 0 0.453125q-0.15625 0.953125 -0.59375 2.0l-0.96875 -0.21875zm-2.515625 4.890625q1.40625 -0.8125 2.515625 -2.0l-4.96875 0q1.03125 1.1875 2.453125 2.0zm-1.484375 -6.375l0 0.890625l2.59375 0l0 -0.890625l-2.59375 0zm3.625 1.78125l-4.671875 0l0 -2.671875l4.671875 0l0 2.671875zm-0.0625 -8.765625l0 0.890625l-4.609375 0l0 -0.890625l4.609375 0zm-5.046875 2.375l0 -0.890625l5.484375 0l0 0.890625l-5.484375 0zm5.109375 0.671875l0 0.890625l-4.671875 0l0 -0.890625l4.671875 0zm0 1.484375l0 0.890625l-4.671875 0l0 -0.890625l4.671875 0zm15.96875 11.0625q0.734375 -0.375 1.546875 -1.125l-8.3125 1.5625q-0.0625 0.53125 -0.359375 0.234375l-0.453125 -1.640625l4.3125 -0.515625l0 -1.34375l-3.5 0l0 -1.1875l3.5 0l0 -1.109375l-1.71875 0l-1.625 0l0 -5.265625l3.34375 0l0 -1.046875l-4.3125 0l0 -1.1875l4.3125 0l0 -0.890625q-1.859375 0.078125 -3.71875 0.15625l-0.21875 -1.265625q3.640625 0 7.796875 -0.8125l0.65625 1.25q0.234375 0.453125 -0.4375 0.15625q-1.5625 0.21875 -2.828125 0.375l0 1.03125l4.09375 0l0 1.1875l-4.09375 0l0 1.046875l3.421875 0l0 5.265625l-3.421875 0l0 1.109375l3.71875 0l0 1.1875l-3.71875 0l0 1.109375l3.71875 -0.59375l0 1.046875q2.15625 -1.9375 2.21875 -5.859375l0.078125 -2.90625l-1.78125 0l0 -1.40625l1.78125 0l0 -3.78125l1.40625 0q0.59375 0.078125 0.078125 0.4375l0 3.34375l3.265625 0l-0.140625 9.796875q-0.078125 2.671875 -1.9375 2.671875l-2.0 0l-0.21875 -1.40625l1.703125 0q0.890625 0 0.96875 -1.5625l0.21875 -8.09375l-1.859375 0l-0.078125 3.5q-0.0625 5.109375 -4.515625 7.9375l-0.890625 -1.40625zm-2.015625 -7.359375l0 1.34375l2.15625 0l0 -1.34375l-2.15625 0zm0 -2.140625l0 1.25l2.15625 0l0 -1.25l-2.15625 0zm-3.328125 2.140625l0 1.34375l2.078125 0l0 -1.34375l-2.078125 0zm0 -2.140625l0 1.25l2.078125 0l0 -1.25l-2.078125 0zm17.4375 7.1875l1.703125 0l0 1.640625l-0.890625 2.0l-0.8125 0l0.734375 -2.0l-0.734375 0l0 -1.640625zm22.117218 -11.796875q3.265625 -0.515625 4.890625 -1.265625l0.828125 1.421875q0.296875 0.65625 -0.453125 0.296875q-2.75 0.59375 -5.1875 0.8125l0 3.109375l6.53125 0l0 1.421875l-2.453125 0l0 9.34375l-1.484375 0l0 -9.34375l-2.59375 0l0 2.296875q0 4.890625 -3.5625 7.28125l-1.125 -1.34375q3.203125 -1.9375 3.203125 -6.09375l0 -8.453125l1.40625 0.515625zm-2.828125 2.671875l0 6.453125l-1.484375 0l0 -0.734375l-3.3281555 0l0 2.078125q0 2.8125 -1.1875 4.75l-1.34375 -1.03125q1.046875 -1.5 1.046875 -3.796875l0 -7.71875l6.2969055 0zm-1.484375 4.3125l0 -2.90625l-3.3281555 0l0 2.90625l3.3281555 0zm-5.4062805 -6.3125l0 -1.40625l7.4219055 0l0 1.40625l-7.4219055 0zm31.31253 -0.890625l1.40625 0.140625q0.59375 0.078125 0.078125 0.453125l0 5.34375q0 2.59375 -0.890625 4.296875l3.5625 2.90625l-1.109375 1.484375l-3.125 -3.125q-1.921875 2.671875 -6.96875 3.859375l-0.59375 -1.625q3.859375 -0.59375 5.71875 -2.453125q1.921875 -1.9375 1.921875 -5.859375l0 -5.421875zm-2.59375 8.453125q-2.375 1.9375 -8.3125 5.421875q-0.15625 0.59375 -0.515625 0.078125l-0.75 -1.5625q0.453125 -0.140625 1.859375 -0.890625l-0.453125 -11.0625l1.5625 0.15625q0.59375 0.078125 0.078125 0.4375l0.375 9.734375q3.328125 -1.9375 5.40625 -3.5625l0.75 1.25zm-3.125 -7.640625q1.484375 1.046875 2.75 2.75l-1.484375 1.109375q-1.328125 -1.859375 -2.515625 -2.671875l1.25 -1.1875zm20.484375 -1.109375q3.203125 -0.21875 5.578125 -1.046875l1.328125 1.046875q0.515625 0.4375 -0.375 0.375q-3.1875 0.515625 -6.15625 0.734375q-0.4375 2.078125 -2.0 3.71875l-0.890625 -0.890625l0 1.109375l-2.078125 0l0 1.1875q1.109375 0.671875 2.15625 1.5625l-0.890625 1.40625q-0.53125 -0.75 -1.265625 -1.40625l0 8.15625l-1.484375 0l0 -7.421875q-0.75 1.9375 -2.296875 3.421875l-0.75 -1.421875q2.53125 -2.59375 2.890625 -5.484375l-2.4375 0l0 -1.40625l2.59375 0l0 -2.375l-2.15625 0.296875l-0.4375 -1.265625q3.5625 -0.453125 5.484375 -1.1875l0.75 1.109375q0.59375 0.75 -0.296875 0.453125l-1.859375 0.359375l0 2.609375l1.921875 0q1.5625 -1.640625 1.9375 -3.9375l0.734375 0.296875zm6.609375 11.0625l1.78125 0l0 1.40625l-1.78125 0l0 2.234375q0 1.1875 -1.03125 1.1875l-1.265625 0l-0.375 -1.421875l1.109375 0q0.296875 0 0.296875 -0.296875l0 -1.703125l-5.40625 0l0 3.421875l-1.265625 0l0 -3.421875l-1.703125 0l0 -1.40625l1.703125 0l0 -5.34375l3.34375 0l0 -1.265625l1.1875 0q0.59375 0.078125 0.0625 0.4375l0 0.828125l3.34375 0l0 5.34375zm-1.265625 0l0 -1.484375l-2.078125 0l0 1.484375l2.078125 0zm-3.328125 0l0 -1.484375l-2.078125 0l0 1.484375l2.078125 0zm3.328125 -2.671875l0 -1.484375l-2.078125 0l0 1.484375l2.078125 0zm-3.328125 -1.484375l-2.078125 0l0 1.484375l2.078125 0l0 -1.484375zm4.296875 -5.71875q1.046875 1.1875 1.78125 2.671875l-1.625 0.59375q-0.671875 -1.5625 -1.640625 -2.828125l1.484375 -0.4375zm-3.5625 0.296875q0.453125 1.109375 0.59375 2.296875l-1.484375 0.296875q-0.078125 -1.265625 -0.4375 -2.296875l1.328125 -0.296875zm12.84375 8.53125q-1.9375 2.671875 -4.234375 4.234375l-0.890625 -1.484375q4.453125 -2.96875 6.828125 -8.828125l-5.125 0l0 -1.421875l2.609375 0q-0.453125 -1.109375 -1.1875 -2.21875l1.484375 -0.671875q0.8125 1.109375 1.25 2.15625l-1.25 0.734375l2.734375 0q0.671875 -1.546875 1.125 -3.328125l1.25 0.296875q0.59375 0.0625 0 0.4375q-0.359375 1.40625 -0.8125 2.59375l4.3125 0l-0.53125 2.96875l2.015625 0l-0.59375 3.125l2.21875 0l-0.671875 5.796875q-0.140625 1.328125 -1.78125 1.328125l-2.0 0l0 -1.40625l1.5625 0q0.8125 0 0.890625 -0.59375l0.4375 -3.71875l-9.640625 0zm3.1875 -6.078125q-0.21875 0.65625 -0.671875 1.546875l3.640625 0l0.296875 -1.546875l-3.265625 0zm3.9375 9.5625q-0.078125 -0.515625 -0.59375 -2.21875l1.265625 -0.296875q0.734375 1.40625 0.734375 2.078125l-1.40625 0.4375zm-5.5 1.34375q0 -1.5625 -0.296875 -3.125l1.34375 -0.0625q0.59375 1.328125 0.515625 3.046875l-1.5625 0.140625zm2.828125 -0.59375q-0.15625 -1.34375 -0.453125 -2.59375l1.421875 -0.296875q0.296875 1.03125 0.59375 2.515625l-1.5625 0.375zm3.109375 -5.640625l0.375 -1.703125l-6.078125 0q-0.296875 0.734375 -0.96875 1.703125l6.671875 0zm-9.265625 6.3125q0.59375 -1.859375 0.734375 -3.34375l1.40625 0.21875q-0.0625 1.640625 -0.515625 3.640625l-1.625 -0.515625z" fill-rule="nonzero"></path><path fill="#000000" d="m592.4818 317.0355l0 -12.0l-4.46875 0l0 -1.59375l10.765625 0l0 1.59375l-4.5 0l0 12.0l-1.796875 0zm9.552246 0l-3.015625 -9.859375l1.71875 0l1.5625 5.6875l0.59375 2.125q0.03125 -0.15625 0.5 -2.03125l1.578125 -5.78125l1.71875 0l1.46875 5.71875l0.484375 1.890625l0.578125 -1.90625l1.6875 -5.703125l1.625 0l-3.078125 9.859375l-1.734375 0l-1.578125 -5.90625l-0.375 -1.671875l-2.0 7.578125l-1.734375 0zm11.019836 -4.921875q0 -2.734375 1.53125 -4.0625q1.265625 -1.09375 3.09375 -1.09375q2.03125 0 3.3125 1.34375q1.296875 1.328125 1.296875 3.671875q0 1.90625 -0.578125 3.0q-0.5625 1.078125 -1.65625 1.6875q-1.078125 0.59375 -2.375 0.59375q-2.0625 0 -3.34375 -1.328125q-1.28125 -1.328125 -1.28125 -3.8125zm1.71875 0q0 1.890625 0.828125 2.828125q0.828125 0.9375 2.078125 0.9375q1.25 0 2.0625 -0.9375q0.828125 -0.953125 0.828125 -2.890625q0 -1.828125 -0.828125 -2.765625q-0.828125 -0.9375 -2.0625 -0.9375q-1.25 0 -2.078125 0.9375q-0.828125 0.9375 -0.828125 2.828125zm8.641357 0.84375l0 -1.6875l5.125 0l0 1.6875l-5.125 0zm9.4470215 4.078125l-3.609375 -13.59375l1.84375 0l2.0625 8.90625q0.34375 1.40625 0.578125 2.78125q0.515625 -2.171875 0.609375 -2.515625l2.59375 -9.171875l2.171875 0l1.953125 6.875q0.734375 2.5625 1.046875 4.8125q0.265625 -1.28125 0.6875 -2.953125l2.125 -8.734375l1.8125 0l-3.734375 13.59375l-1.734375 0l-2.859375 -10.359375q-0.359375 -1.296875 -0.421875 -1.59375q-0.21875 0.9375 -0.40625 1.59375l-2.890625 10.359375l-1.828125 0zm21.452393 -1.21875q-0.9375 0.796875 -1.796875 1.125q-0.859375 0.3125 -1.84375 0.3125q-1.609375 0 -2.484375 -0.78125q-0.875 -0.796875 -0.875 -2.03125q0 -0.734375 0.328125 -1.328125q0.328125 -0.59375 0.859375 -0.953125q0.53125 -0.359375 1.203125 -0.546875q0.5 -0.140625 1.484375 -0.25q2.03125 -0.25 2.984375 -0.578125q0 -0.34375 0 -0.4375q0 -1.015625 -0.46875 -1.4375q-0.640625 -0.5625 -1.90625 -0.5625q-1.171875 0 -1.734375 0.40625q-0.5625 0.40625 -0.828125 1.46875l-1.640625 -0.234375q0.234375 -1.046875 0.734375 -1.6875q0.515625 -0.640625 1.46875 -0.984375q0.96875 -0.359375 2.25 -0.359375q1.265625 0 2.046875 0.296875q0.78125 0.296875 1.15625 0.75q0.375 0.453125 0.515625 1.140625q0.09375 0.421875 0.09375 1.53125l0 2.234375q0 2.328125 0.09375 2.953125q0.109375 0.609375 0.4375 1.171875l-1.75 0q-0.265625 -0.515625 -0.328125 -1.21875zm-0.140625 -3.71875q-0.90625 0.359375 -2.734375 0.625q-1.03125 0.140625 -1.453125 0.328125q-0.421875 0.1875 -0.65625 0.546875q-0.234375 0.359375 -0.234375 0.796875q0 0.671875 0.5 1.125q0.515625 0.4375 1.484375 0.4375q0.96875 0 1.71875 -0.421875q0.75 -0.4375 1.109375 -1.15625q0.265625 -0.578125 0.265625 -1.671875l0 -0.609375zm4.0007324 8.734375l-0.171875 -1.5625q0.546875 0.140625 0.953125 0.140625q0.546875 0 0.875 -0.1875q0.34375 -0.1875 0.5625 -0.515625q0.15625 -0.25 0.5 -1.25q0.046875 -0.140625 0.15625 -0.40625l-3.734375 -9.875l1.796875 0l2.046875 5.71875q0.40625 1.078125 0.71875 2.28125q0.28125 -1.15625 0.6875 -2.25l2.09375 -5.75l1.671875 0l-3.75 10.03125q-0.59375 1.625 -0.9375 2.234375q-0.4375 0.828125 -1.015625 1.203125q-0.578125 0.390625 -1.375 0.390625q-0.484375 0 -1.078125 -0.203125zm14.730164 -3.796875l0 -13.59375l5.109375 0q1.546875 0 2.484375 0.40625q0.953125 0.40625 1.484375 1.265625q0.53125 0.859375 0.53125 1.796875q0 0.875 -0.46875 1.65625q-0.46875 0.765625 -1.4375 1.234375q1.234375 0.359375 1.890625 1.234375q0.671875 0.875 0.671875 2.0625q0 0.953125 -0.40625 1.78125q-0.390625 0.8125 -0.984375 1.265625q-0.59375 0.4375 -1.5 0.671875q-0.890625 0.21875 -2.1875 0.21875l-5.1875 0zm1.796875 -7.890625l2.9375 0q1.203125 0 1.71875 -0.15625q0.6875 -0.203125 1.03125 -0.671875q0.359375 -0.46875 0.359375 -1.1875q0 -0.671875 -0.328125 -1.1875q-0.328125 -0.515625 -0.9375 -0.703125q-0.59375 -0.203125 -2.0625 -0.203125l-2.71875 0l0 4.109375zm0 6.28125l3.390625 0q0.875 0 1.21875 -0.0625q0.625 -0.109375 1.046875 -0.359375q0.421875 -0.265625 0.6875 -0.765625q0.265625 -0.5 0.265625 -1.140625q0 -0.765625 -0.390625 -1.328125q-0.390625 -0.5625 -1.078125 -0.78125q-0.6875 -0.234375 -1.984375 -0.234375l-3.15625 0l0 4.671875zm10.5217285 -10.078125l0 -1.90625l1.671875 0l0 1.90625l-1.671875 0zm0 11.6875l0 -9.859375l1.671875 0l0 9.859375l-1.671875 0zm4.1292114 0l0 -9.859375l1.5 0l0 1.40625q1.09375 -1.625 3.140625 -1.625q0.890625 0 1.640625 0.328125q0.75 0.3125 1.109375 0.84375q0.375 0.515625 0.53125 1.21875q0.09375 0.46875 0.09375 1.625l0 6.0625l-1.671875 0l0 -6.0q0 -1.015625 -0.203125 -1.515625q-0.1875 -0.515625 -0.6875 -0.8125q-0.5 -0.296875 -1.171875 -0.296875q-1.0625 0 -1.84375 0.671875q-0.765625 0.671875 -0.765625 2.578125l0 5.375l-1.671875 0zm16.766296 0l0 -1.25q-0.9375 1.46875 -2.75 1.46875q-1.171875 0 -2.171875 -0.640625q-0.984375 -0.65625 -1.53125 -1.8125q-0.53125 -1.171875 -0.53125 -2.6875q0 -1.46875 0.484375 -2.671875q0.5 -1.203125 1.46875 -1.84375q0.984375 -0.640625 2.203125 -0.640625q0.890625 0 1.578125 0.375q0.703125 0.375 1.140625 0.984375l0 -4.875l1.65625 0l0 13.59375l-1.546875 0zm-5.28125 -4.921875q0 1.890625 0.796875 2.828125q0.8125 0.9375 1.890625 0.9375q1.09375 0 1.859375 -0.890625q0.765625 -0.890625 0.765625 -2.734375q0 -2.015625 -0.78125 -2.953125q-0.78125 -0.953125 -1.921875 -0.953125q-1.109375 0 -1.859375 0.90625q-0.75 0.90625 -0.75 2.859375zm9.281982 -6.765625l0 -1.90625l1.671875 0l0 1.90625l-1.671875 0zm0 11.6875l0 -9.859375l1.671875 0l0 9.859375l-1.671875 0zm4.1292114 0l0 -9.859375l1.5 0l0 1.40625q1.09375 -1.625 3.140625 -1.625q0.890625 0 1.640625 0.328125q0.75 0.3125 1.109375 0.84375q0.375 0.515625 0.53125 1.21875q0.09375 0.46875 0.09375 1.625l0 6.0625l-1.671875 0l0 -6.0q0 -1.015625 -0.203125 -1.515625q-0.1875 -0.515625 -0.6875 -0.8125q-0.5 -0.296875 -1.171875 -0.296875q-1.0625 0 -1.84375 0.671875q-0.765625 0.671875 -0.765625 2.578125l0 5.375l-1.671875 0zm10.078857 0.8125l1.609375 0.25q0.109375 0.75 0.578125 1.09375q0.609375 0.453125 1.6875 0.453125q1.171875 0 1.796875 -0.46875q0.625 -0.453125 0.859375 -1.28125q0.125 -0.515625 0.109375 -2.15625q-1.09375 1.296875 -2.71875 1.296875q-2.03125 0 -3.15625 -1.46875q-1.109375 -1.46875 -1.109375 -3.515625q0 -1.40625 0.515625 -2.59375q0.515625 -1.203125 1.484375 -1.84375q0.96875 -0.65625 2.265625 -0.65625q1.75 0 2.875 1.40625l0 -1.1875l1.546875 0l0 8.515625q0 2.3125 -0.46875 3.265625q-0.46875 0.96875 -1.484375 1.515625q-1.015625 0.5625 -2.5 0.5625q-1.765625 0 -2.859375 -0.796875q-1.078125 -0.796875 -1.03125 -2.390625zm1.375 -5.921875q0 1.953125 0.765625 2.84375q0.78125 0.890625 1.9375 0.890625q1.140625 0 1.921875 -0.890625q0.78125 -0.890625 0.78125 -2.78125q0 -1.8125 -0.8125 -2.71875q-0.796875 -0.921875 -1.921875 -0.921875q-1.109375 0 -1.890625 0.90625q-0.78125 0.890625 -0.78125 2.671875z" fill-rule="nonzero"></path><path fill="#cfe2f3" d="m239.51968 143.26651l10.8346405 -10.8346405l0 5.417328l280.53546 0l0 -5.417328l10.834656 10.8346405l-10.834656 10.834656l0 -5.417328l-280.53546 0l0 5.417328z" fill-rule="evenodd"></path><path stroke="#000000" stroke-width="1.0" stroke-linejoin="round" stroke-linecap="butt" d="m239.51968 143.26651l10.8346405 -10.8346405l0 5.417328l280.53546 0l0 -5.417328l10.834656 10.8346405l-10.834656 10.834656l0 -5.417328l-280.53546 0l0 5.417328z" fill-rule="evenodd"></path></g></svg>

