<?xml version="1.0" encoding="UTF-8"?>
<!DOCTYPE svg PUBLIC "-//W3C//DTD SVG 1.1//EN" "http://www.w3.org/Graphics/SVG/1.1/DTD/svg11.dtd">
<svg version="1.2" xmlns="http://www.w3.org/2000/svg" xmlns:xlink="http://www.w3.org/1999/xlink" x="0" y="0" width="448" height="345" viewBox="0 0 448 345">
<style type="text/css"><![CDATA[
text { font:12px Dialog; }
]]></style>
<rect x="-485" y="-485" width="1418" height="1315" style="fill:rgb(255,255,255);stroke:none" />
<clipPath id="clip1"><path d="M15,15 L433,15 L433,330 L15,330 Z M170,141 C165.5817261,141 162,144.5817261 162,149 L162,194 C162,198.4182739 165.5817261,202 170,202 L278,202 C282.4182739,202 286,198.4182739 286,194 L286,149 C286,144.5817261 282.4182739,141 278,141 Z M170,141" /></clipPath>
<path d="M238.4181824,141 C249.6585846,69.6666641 266.5191956,34 289,34" style="fill:none;stroke:rgb(85,142,213)" clip-path="url(#clip1)" />
<clipPath id="clip2"><path d="M15,15 L433,15 L433,330 L15,330 Z M170,141 C165.5817261,141 162,144.5817261 162,149 L162,194 C162,198.4182739 165.5817261,202 170,202 L278,202 C282.4182739,202 286,198.4182739 286,194 L286,149 C286,144.5817261 282.4182739,141 278,141 Z M170,141" /></clipPath>
<path d="M274.3138733,141 C288.2441101,115.6666718 309.1394958,103 337,103" style="fill:none;stroke:rgb(85,142,213)" clip-path="url(#clip2)" />
<clipPath id="clip3"><path d="M15,15 L433,15 L433,330 L15,330 Z M170,141 C165.5817261,141 162,144.5817261 162,149 L162,194 C162,198.4182739 165.5817261,202 170,202 L278,202 C282.4182739,202 286,198.4182739 286,194 L286,149 C286,144.5817261 282.4182739,141 278,141 Z M170,141" /></clipPath>
<path d="M286,171.7460327 C300.222229,171.9153442 321.555542,172 350,172" style="fill:none;stroke:rgb(85,142,213)" clip-path="url(#clip3)" />
<clipPath id="clip4"><path d="M15,15 L433,15 L433,330 L15,330 Z M170,141 C165.5817261,141 162,144.5817261 162,149 L162,194 C162,198.4182739 165.5817261,202 170,202 L278,202 C282.4182739,202 286,198.4182739 286,194 L286,149 C286,144.5817261 282.4182739,141 278,141 Z M170,141" /></clipPath>
<path d="M273.5899353,202 C287.6810608,228 308.817749,241 337,241" style="fill:none;stroke:rgb(85,142,213)" clip-path="url(#clip4)" />
<clipPath id="clip5"><path d="M15,15 L433,15 L433,330 L15,330 Z M170,141 C165.5817261,141 162,144.5817261 162,149 L162,194 C162,198.4182739 165.5817261,202 170,202 L278,202 C282.4182739,202 286,198.4182739 286,194 L286,149 C286,144.5817261 282.4182739,141 278,141 Z M170,141" /></clipPath>
<path d="M238.3140869,202 C249.5776215,274 266.4729309,310 289,310" style="fill:none;stroke:rgb(85,142,213)" clip-path="url(#clip5)" />
<clipPath id="clip6"><path d="M15,15 L433,15 L433,330 L15,330 Z M170,141 C165.5817261,141 162,144.5817261 162,149 L162,194 C162,198.4182739 165.5817261,202 170,202 L278,202 C282.4182739,202 286,198.4182739 286,194 L286,149 C286,144.5817261 282.4182739,141 278,141 Z M170,141" /></clipPath>
<path d="M209.4656982,202 C198.0288849,274 180.873642,310 158,310" style="fill:none;stroke:rgb(85,142,213)" clip-path="url(#clip6)" />
<clipPath id="clip7"><path d="M15,15 L433,15 L433,330 L15,330 Z M170,141 C165.5817261,141 162,144.5817261 162,149 L162,194 C162,198.4182739 165.5817261,202 170,202 L278,202 C282.4182739,202 286,198.4182739 286,194 L286,149 C286,144.5817261 282.4182739,141 278,141 Z M170,141" /></clipPath>
<path d="M173.9712219,202 C159.7554016,228 138.4316559,241 110,241" style="fill:none;stroke:rgb(85,142,213)" clip-path="url(#clip7)" />
<clipPath id="clip8"><path d="M15,15 L433,15 L433,330 L15,330 Z M170,141 C165.5817261,141 162,144.5817261 162,149 L162,194 C162,198.4182739 165.5817261,202 170,202 L278,202 C282.4182739,202 286,198.4182739 286,194 L286,149 C286,144.5817261 282.4182739,141 278,141 Z M170,141" /></clipPath>
<path d="M162,171.7440948 C147.5555573,171.9147034 125.8888931,172 97,172" style="fill:none;stroke:rgb(85,142,213)" clip-path="url(#clip8)" />
<clipPath id="clip9"><path d="M15,15 L433,15 L433,330 L15,330 Z M170,141 C165.5817261,141 162,144.5817261 162,149 L162,194 C162,198.4182739 165.5817261,202 170,202 L278,202 C282.4182739,202 286,198.4182739 286,194 L286,149 C286,144.5817261 282.4182739,141 278,141 Z M170,141" /></clipPath>
<path d="M173.2408752,141 C159.1873474,115.6666718 138.1070557,103 110,103" style="fill:none;stroke:rgb(85,142,213)" clip-path="url(#clip9)" />
<clipPath id="clip10"><path d="M15,15 L433,15 L433,330 L15,330 Z M170,141 C165.5817261,141 162,144.5817261 162,149 L162,194 C162,198.4182739 165.5817261,202 170,202 L278,202 C282.4182739,202 286,198.4182739 286,194 L286,149 C286,144.5817261 282.4182739,141 278,141 Z M170,141" /></clipPath>
<path d="M209.3600006,141 C197.9466705,69.6666641 180.8266602,34 158,34" style="fill:none;stroke:rgb(85,142,213)" clip-path="url(#clip10)" />
<clipPath id="clip11"><path d="M158,137 L291,137 L291,207 L158,207 L158,137 Z" /></clipPath>
<path d="M170,141 C165.5817261,141 162,144.5817261 162,149 L162,194 C162,198.4182739 165.5817261,202 170,202 L278,202 C282.4182739,202 286,198.4182739 286,194 L286,149 C286,144.5817261 282.4182739,141 278,141 Z M170,141" style="fill:rgb(220,230,242);stroke:none" clip-path="url(#clip11)" />
<clipPath id="clip12"><path d="M158,137 L291,137 L291,207 L158,207 L158,137 Z" /></clipPath>
<path d="M170,141 C165.5817261,141 162,144.5817261 162,149 L162,194 C162,198.4182739 165.5817261,202 170,202 L278,202 C282.4182739,202 286,198.4182739 286,194 L286,149 C286,144.5817261 282.4182739,141 278,141 Z M170,141" style="fill:none;stroke:rgb(85,142,213);stroke-width:5" clip-path="url(#clip12)" />
<clipPath id="clip13"><path d="M194,157 L255,157 L255,187 L194,187 L194,157 Z" /></clipPath>
<path d="M205.1139984,170.6860046 L205.1139984,175.5279999 L208.6419983,175.5279999 L208.6419983,177.9579926 C207.4360046,178.0659943 206.1040039,178.1560059 204.6640015,178.2279968 L204.9340057,180.0820007 C208.4980011,179.7400055 211.1439972,179.3619995 212.8540039,178.9299927 C212.9980011,179.397995 213.1419983,179.8659973 213.2680054,180.3699951 L214.9960022,179.7039948 C214.6539917,178.5700073 214.1679993,177.3099976 213.5379944,175.9420013 L211.9539948,176.3739929 C212.0979919,176.7160034 212.223999,177.076004 212.3500061,177.4360046 C211.7740021,177.5440063 211.1620026,177.6340027 210.4779968,177.7420044 L210.4779968,175.5279999 L213.9160004,175.5279999 L213.9160004,170.6860046 L210.4779968,170.6860046 L210.4779968,169.4080048 L208.6419983,169.4080048 L208.6419983,170.6860046 Z M212.223999,173.9080048 L210.4779968,173.9080048 L210.4779968,172.3059998 L212.223999,172.3059998 Z M208.6419983,173.9080048 L206.8059998,173.9080048 L206.8059998,172.3059998 L208.6419983,172.3059998 Z M200.8659973,170.0919952 L204.3040009,170.0919952 L204.3040009,164.3139954 L198.7960052,164.3139954 L198.7960052,166.0780029 L202.5039978,166.0780029 L202.5039978,168.345993 L199.2099915,168.345993 L198.5979919,174.1060028 L202.5039978,174.1060028 C202.5039978,175.9420013 202.4320068,177.147995 202.3059998,177.6880035 C202.1799927,178.2639923 201.6759949,178.552002 200.776001,178.552002 C200.2180023,178.552002 199.6779938,178.5160065 199.1560059,178.4799957 L199.6239929,180.2440033 C200.1640015,180.2799988 200.7039948,180.3159943 201.2079926,180.3159943 C202.8999939,180.2079926 203.8540039,179.6320038 204.052002,178.5879974 C204.2680054,177.5440063 204.3760071,175.4920044 204.3760071,172.3959961 L200.5599976,172.3959961 Z M212.4039917,164.9440002 L210.8379974,165.7180023 C211.1439972,166.1499939 211.4499969,166.6000061 211.7559967,167.1040039 C210.423996,167.2839966 209.0559998,167.4100037 207.6519928,167.5180054 C208.5159912,166.6000061 209.3619995,165.5379944 210.1900024,164.3139954 L208.2639923,163.6300049 C206.7519989,166.1860046 205.6179962,167.5180054 204.826004,167.6620026 L205.1499939,169.3179932 C207.9039917,169.173996 210.4060059,168.9579926 212.6560059,168.6880035 C212.8359985,169.0119934 212.9980011,169.371994 213.1779938,169.7319946 L214.8699951,168.8860016 C214.0780029,167.4459991 213.2680054,166.1320038 212.4039917,164.9440002 Z M217.2099915,164.3320007 L217.2099915,165.9880066 L218.8300018,165.9880066 L218.8300018,168.1660004 L216.7420044,168.1660004 L216.7420044,169.8939972 L218.7220001,169.8939972 C218.5059967,171.0820007 218.0019989,172 217.173996,172.6300049 L218.595993,173.871994 C219.6759949,172.9720001 220.3419952,171.6580048 220.5579987,169.8939972 L222.4299927,169.8939972 L222.4299927,173.6560059 L224.2299957,173.6560059 L224.2299957,169.8939972 L226.2819977,169.8939972 L226.2819977,168.1660004 L224.2299957,168.1660004 L224.2299957,165.9880066 L225.8860016,165.9880066 L225.8860016,164.3320007 Z M220.647995,165.9880066 L222.4299927,165.9880066 L222.4299927,168.1660004 L220.647995,168.1660004 Z M226.9660034,164.9259949 L226.9660034,171.0820007 L228.7480011,171.0820007 L228.7480011,164.9259949 Z M217.6779938,175.0599976 L217.6779938,176.7879944 L223.7799988,176.7879944 L223.7799988,178.2819977 L216.6699982,178.2819977 L216.6699982,179.9920044 L232.6179962,179.9920044 L232.6179962,178.2819977 L225.6519928,178.2819977 L225.6519928,176.7879944 L231.628006,176.7879944 L231.628006,175.0599976 L225.6519928,175.0599976 L225.6519928,173.8540039 L223.7799988,173.8540039 L223.7799988,175.0599976 Z M230.3139954,173.8899994 C231.447998,173.8899994 232.0240021,173.2059937 232.0240021,171.8379974 L232.0240021,163.9360046 L230.2059937,163.9360046 L230.2059937,171.3880005 C230.2059937,171.9640045 230.026001,172.2519989 229.6840057,172.2519989 C229,172.2519989 228.2619934,172.197998 227.4880066,172.1260071 L227.9019928,173.8899994 Z M235.3359985,164.2960052 L235.3359985,170.4880066 L236.8300018,170.4880066 C236.7400055,172.8099976 236.5419922,174.5019989 236.2180023,175.5820007 C235.8399963,176.7879944 235.2099915,177.8320007 234.3099976,178.7140045 L235.5339966,180.2980042 C236.6499939,179.1820068 237.423996,177.9039917 237.8919983,176.4279938 C238.0899963,175.7619934 238.2519989,174.897995 238.3959961,173.8540039 L241.6000061,173.8540039 C241.5639954,175.8699951 241.5099945,177.0399933 241.4199982,177.3999939 C241.2579956,178.1199951 240.7180023,178.4980011 239.8000031,178.4980011 C239.3320007,178.4980011 238.7919922,178.4620056 238.1620026,178.4259949 L238.576004,180.0279999 C239.2960052,180.1000061 239.8000031,180.1360016 240.0879974,180.1360016 C241.923996,180.1360016 242.9499969,179.4880066 243.1660004,178.2279968 C243.345993,177.4360046 243.4360046,175.4019928 243.4360046,172.0899963 L238.5579987,172.0899963 C238.5939941,171.5859985 238.6119995,171.0460052 238.647995,170.4880066 L242.9140015,170.4880066 L242.9140015,164.2960052 Z M241.0780029,168.723999 L237.1539917,168.723999 L237.1539917,166.0599976 L241.0780029,166.0599976 Z M244.821991,165.2859955 L244.821991,176.3560028 L246.6580048,176.3560028 L246.6580048,165.2859955 Z M248.4400024,180.1900024 C249.7359924,180.1900024 250.4019928,179.4880066 250.4019928,178.1199951 L250.4019928,163.7559967 L248.5299988,163.7559967 L248.5299988,177.6340027 C248.5299988,178.2100067 248.2779999,178.5160065 247.7919922,178.5160065 C247.0540009,178.5160065 246.2619934,178.4799957 245.4340057,178.4080048 L245.8479919,180.1900024 Z M251.6439972,178.4799957" style="fill:rgb(55,96,146);stroke:none" clip-path="url(#clip13)" />
<clipPath id="clip14"><path d="M287,14 L382,14 L382,55 L287,55 L287,14 Z" /></clipPath>
<path d="M294,16 C291.2385864,16 289,18.2385712 289,21 L289,47 C289,49.7614288 291.2385864,52 294,52 L374,52 C376.7614136,52 379,49.7614288 379,47 L379,21 C379,18.2385712 376.7614136,16 374,16 Z M294,16" style="fill:rgb(220,230,242);stroke:none" clip-path="url(#clip14)" />
<clipPath id="clip15"><path d="M287,14 L382,14 L382,55 L287,55 L287,14 Z" /></clipPath>
<path d="M294,16 C291.2385864,16 289,18.2385712 289,21 L289,47 C289,49.7614288 291.2385864,52 294,52 L374,52 C376.7614136,52 379,49.7614288 379,47 L379,21 C379,18.2385712 376.7614136,16 374,16 Z M294,16" style="fill:none;stroke:rgb(85,142,213);stroke-width:2" clip-path="url(#clip15)" />
<clipPath id="clip16"><path d="M301,23 L368,23 L368,46 L301,46 L301,23 Z" /></clipPath>
<path d="M304.3308105,39.375 L304.3308105,30.0947266 L305.4099121,30.0947266 L305.4099121,39.375 Z M312.9328613,39.375 L312.9328613,34.8745117 C312.9328613,34.3074493 312.8038025,33.8842773 312.5456543,33.6049805 C312.2875061,33.3256836 311.8833923,33.1860352 311.333252,33.1860352 C310.6053772,33.1860352 310.0722046,33.3828125 309.7336426,33.7763672 C309.3950806,34.1699219 309.2258301,34.8194885 309.2258301,35.7250977 L309.2258301,39.375 L308.1721191,39.375 L308.1721191,32.4179688 L309.0290527,32.4179688 L309.2004395,33.3701172 L309.2512207,33.3701172 C309.467041,33.0273438 309.7695923,32.761795 310.1589355,32.5734863 C310.5482788,32.3851776 310.9819946,32.2910156 311.4602051,32.2910156 C312.2980957,32.2910156 312.9286194,32.4930878 313.3518066,32.8972168 C313.7749939,33.3013458 313.9865723,33.9477539 313.9865723,34.8364258 L313.9865723,39.375 Z M318.4191895,38.6323242 C318.6053772,38.6323242 318.7852478,38.618576 318.9587402,38.5910645 C319.1322327,38.5635529 319.2697754,38.5349884 319.3713379,38.5053711 L319.3713379,39.3115234 C319.2570801,39.3665314 319.0888672,39.4120331 318.8666992,39.447998 C318.6445313,39.483963 318.4445801,39.5019531 318.2668457,39.5019531 C316.9211426,39.5019531 316.248291,38.7931366 316.248291,37.3754883 L316.248291,33.2368164 L315.251709,33.2368164 L315.251709,32.7290039 L316.248291,32.2910156 L316.692627,30.8056641 L317.302002,30.8056641 L317.302002,32.4179688 L319.3205566,32.4179688 L319.3205566,33.2368164 L317.302002,33.2368164 L317.302002,37.3310547 C317.302002,37.75 317.4014587,38.0716095 317.6003418,38.2958984 C317.7992249,38.5201874 318.0721741,38.6323242 318.4191895,38.6323242 Z M324.111084,39.5019531 C323.0827637,39.5019531 322.2713318,39.1888123 321.6767578,38.5625 C321.0821838,37.9361877 320.7849121,37.0665741 320.7849121,35.9536133 C320.7849121,34.8321838 321.0610352,33.9414063 321.6132813,33.28125 C322.1655273,32.6210938 322.907135,32.2910156 323.8381348,32.2910156 C324.7098999,32.2910156 325.3996582,32.577713 325.9074707,33.151123 C326.4152832,33.7245331 326.6691895,34.480957 326.6691895,35.4204102 L326.6691895,36.0869141 L321.876709,36.0869141 C321.8978577,36.903656 322.1041565,37.5236053 322.4956055,37.9467773 C322.8870544,38.3699493 323.4382324,38.581543 324.1491699,38.581543 C324.8981934,38.581543 325.6387329,38.4249725 326.3708496,38.1118164 L326.3708496,39.0512695 C325.9984436,39.2120819 325.6461792,39.3273926 325.3139648,39.3972168 C324.9817505,39.467041 324.5808105,39.5019531 324.111084,39.5019531 Z M323.8254395,33.1733398 C323.2668457,33.1733398 322.8214722,33.3553009 322.4892578,33.7192383 C322.1570435,34.0831757 321.9613342,34.5867462 321.9020996,35.2299805 L325.5393066,35.2299805 C325.5393066,34.5655823 325.3912048,34.0567169 325.0949707,33.7033691 C324.7987366,33.3500214 324.3755798,33.1733398 323.8254395,33.1733398 Z M329.2258301,39.375 L328.1721191,39.375 L328.1721191,29.4980469 L329.2258301,29.4980469 Z M332.2258301,39.375 L331.1721191,39.375 L331.1721191,29.4980469 L332.2258301,29.4980469 Z M335.2258301,39.375 L334.1721191,39.375 L334.1721191,32.4179688 L335.2258301,32.4179688 Z M334.083252,30.5327148 C334.083252,30.2915039 334.1424866,30.1148224 334.2609863,30.0026855 C334.3794861,29.8905487 334.5275879,29.8344727 334.7053223,29.8344727 C334.8746033,29.8344727 335.0205994,29.8916016 335.1433105,30.0058594 C335.2660217,30.1201172 335.3273926,30.2957306 335.3273926,30.5327148 C335.3273926,30.7696991 335.2660217,30.9463654 335.1433105,31.0627441 C335.0205994,31.1791229 334.8746033,31.2373047 334.7053223,31.2373047 C334.5275879,31.2373047 334.3794861,31.1791229 334.2609863,31.0627441 C334.1424866,30.9463654 334.083252,30.7696991 334.083252,30.5327148 Z M341.6599121,37.4770508 C341.6599121,38.1245117 341.4187012,38.6238556 340.9362793,38.9750977 C340.4538574,39.3263397 339.7767944,39.5019531 338.9050293,39.5019531 C337.9824829,39.5019531 337.2631226,39.355957 336.7468262,39.0639648 L336.7468262,38.0864258 C337.0811462,38.2556915 337.4397583,38.3889923 337.8227539,38.4863281 C338.2057495,38.5836639 338.5749512,38.6323242 338.9304199,38.6323242 C339.4805603,38.6323242 339.903717,38.5445099 340.1999512,38.3688965 C340.4961853,38.1932831 340.6442871,37.9256134 340.6442871,37.565918 C340.6442871,37.2950897 340.5268555,37.0634003 340.2919922,36.8708496 C340.0571289,36.678299 339.5990601,36.4508514 338.9177246,36.1884766 C338.2702637,35.9472656 337.8100586,35.7367401 337.5371094,35.5568848 C337.2641602,35.3770294 337.0610352,35.1728516 336.9277344,34.9443359 C336.7944336,34.7158203 336.7277832,34.4428711 336.7277832,34.1254883 C336.7277832,33.5584259 336.9584045,33.1109161 337.4196777,32.782959 C337.8809509,32.4550018 338.5135803,32.2910156 339.317627,32.2910156 C340.0666504,32.2910156 340.7987366,32.4433594 341.513916,32.7480469 L341.1394043,33.6049805 C340.4411621,33.317215 339.8085327,33.1733398 339.2414551,33.1733398 C338.7420959,33.1733398 338.3654785,33.2516327 338.1115723,33.4082031 C337.857666,33.5647736 337.7307129,33.7805939 337.7307129,34.0556641 C337.7307129,34.2418671 337.7783203,34.4005585 337.8735352,34.5317383 C337.96875,34.6629181 338.1221619,34.7877655 338.3337402,34.90625 C338.5453186,35.0247345 338.9515686,35.1961212 339.5524902,35.4204102 C340.3776855,35.720871 340.9352112,36.0234375 341.2250977,36.328125 C341.5149841,36.6328125 341.6599121,37.0157928 341.6599121,37.4770508 Z M346.111084,39.5019531 C345.0827637,39.5019531 344.2713318,39.1888123 343.6767578,38.5625 C343.0821838,37.9361877 342.7849121,37.0665741 342.7849121,35.9536133 C342.7849121,34.8321838 343.0610352,33.9414063 343.6132813,33.28125 C344.1655273,32.6210938 344.907135,32.2910156 345.8381348,32.2910156 C346.7098999,32.2910156 347.3996582,32.577713 347.9074707,33.151123 C348.4152832,33.7245331 348.6691895,34.480957 348.6691895,35.4204102 L348.6691895,36.0869141 L343.876709,36.0869141 C343.8978577,36.903656 344.1041565,37.5236053 344.4956055,37.9467773 C344.8870544,38.3699493 345.4382324,38.581543 346.1491699,38.581543 C346.8981934,38.581543 347.6387329,38.4249725 348.3708496,38.1118164 L348.3708496,39.0512695 C347.9984436,39.2120819 347.6461792,39.3273926 347.3139648,39.3972168 C346.9817505,39.467041 346.5808105,39.5019531 346.111084,39.5019531 Z M345.8254395,33.1733398 C345.2668457,33.1733398 344.8214722,33.3553009 344.4892578,33.7192383 C344.1570435,34.0831757 343.9613342,34.5867462 343.9020996,35.2299805 L347.5393066,35.2299805 C347.5393066,34.5655823 347.3912048,34.0567169 347.0949707,33.7033691 C346.7987366,33.3500214 346.3755798,33.1733398 345.8254395,33.1733398 Z M354.9328613,39.375 L354.9328613,34.8745117 C354.9328613,34.3074493 354.803772,33.8842773 354.5456543,33.6049805 C354.2875366,33.3256836 353.8833923,33.1860352 353.333252,33.1860352 C352.6053772,33.1860352 352.0722046,33.3828125 351.7336426,33.7763672 C351.3950806,34.1699219 351.2258301,34.8194885 351.2258301,35.7250977 L351.2258301,39.375 L350.1721191,39.375 L350.1721191,32.4179688 L351.0290527,32.4179688 L351.2004395,33.3701172 L351.2512207,33.3701172 C351.467041,33.0273438 351.7695923,32.761795 352.1589355,32.5734863 C352.5482788,32.3851776 352.9819946,32.2910156 353.4602051,32.2910156 C354.2980957,32.2910156 354.9286499,32.4930878 355.3518066,32.8972168 C355.7749634,33.3013458 355.9865723,33.9477539 355.9865723,34.8364258 L355.9865723,39.375 Z M361.111084,39.5019531 C360.0827637,39.5019531 359.2713318,39.1888123 358.6767578,38.5625 C358.0821838,37.9361877 357.7849121,37.0665741 357.7849121,35.9536133 C357.7849121,34.8321838 358.0610352,33.9414063 358.6132813,33.28125 C359.1655273,32.6210938 359.907135,32.2910156 360.8381348,32.2910156 C361.7098999,32.2910156 362.3996582,32.577713 362.9074707,33.151123 C363.4152832,33.7245331 363.6691895,34.480957 363.6691895,35.4204102 L363.6691895,36.0869141 L358.876709,36.0869141 C358.8978882,36.903656 359.104187,37.5236053 359.4956055,37.9467773 C359.8870239,38.3699493 360.4382324,38.581543 361.1491699,38.581543 C361.8981934,38.581543 362.6387329,38.4249725 363.3708496,38.1118164 L363.3708496,39.0512695 C362.9984741,39.2120819 362.6461792,39.3273926 362.3139648,39.3972168 C361.9817505,39.467041 361.5808105,39.5019531 361.111084,39.5019531 Z M360.8254395,33.1733398 C360.2668457,33.1733398 359.8214722,33.3553009 359.4892578,33.7192383 C359.1570435,34.0831757 358.9613647,34.5867462 358.9020996,35.2299805 L362.5393066,35.2299805 C362.5393066,34.5655823 362.3911743,34.0567169 362.0949707,33.7033691 C361.7987671,33.3500214 361.3755798,33.1733398 360.8254395,33.1733398 Z M364.3483887,39.375" style="fill:rgb(23,55,94);stroke:none" clip-path="url(#clip16)" />
<clipPath id="clip17"><path d="M335,83 L421,83 L421,124 L335,124 L335,83 Z" /></clipPath>
<path d="M342,85 C339.2385864,85 337,87.2385712 337,90 L337,116 C337,118.7614288 339.2385864,121 342,121 L413,121 C415.7614136,121 418,118.7614288 418,116 L418,90 C418,87.2385712 415.7614136,85 413,85 Z M342,85" style="fill:rgb(220,230,242);stroke:none" clip-path="url(#clip17)" />
<clipPath id="clip18"><path d="M335,83 L421,83 L421,124 L335,124 L335,83 Z" /></clipPath>
<path d="M342,85 C339.2385864,85 337,87.2385712 337,90 L337,116 C337,118.7614288 339.2385864,121 342,121 L413,121 C415.7614136,121 418,118.7614288 418,116 L418,90 C418,87.2385712 415.7614136,85 413,85 Z M342,85" style="fill:none;stroke:rgb(85,142,213);stroke-width:2" clip-path="url(#clip18)" />
<clipPath id="clip19"><path d="M349,92 L407,92 L407,115 L349,115 L349,92 Z" /></clipPath>
<path d="M352.6115112,98.1699982 L352.6115112,99.0019989 L353.9375,99.0019989 L353.9375,100.9520035 L352.2734985,100.9520035 L352.2734985,101.8099976 L353.885498,101.8099976 C353.7554932,102.8759995 353.3264771,103.6689987 352.5985107,104.215004 L353.3004761,104.826004 C354.1585083,104.1500015 354.6524963,103.1490021 354.7955017,101.8099976 L356.4984741,101.8099976 L356.4984741,104.6699982 L357.4085083,104.6699982 L357.4085083,101.8099976 L359.0075073,101.8099976 L359.0075073,100.9520035 L357.4085083,100.9520035 L357.4085083,99.0019989 L358.7214966,99.0019989 L358.7214966,98.1699982 Z M354.8345032,99.0019989 L356.4984741,99.0019989 L356.4984741,100.9520035 L354.8345032,100.9520035 Z M359.7744751,98.4690018 L359.7744751,102.9410019 L360.6715088,102.9410019 L360.6715088,98.4690018 Z M352.9234924,105.9440002 L352.9234924,106.802002 L357.4865112,106.802002 L357.4865112,108.322998 L352.1954956,108.322998 L352.1954956,109.1809998 L363.6094971,109.1809998 L363.6094971,108.322998 L358.4224854,108.322998 L358.4224854,106.802002 L362.8945007,106.802002 L362.8945007,105.9440002 L358.4224854,105.9440002 L358.4224854,104.8130035 L357.4865112,104.8130035 L357.4865112,105.9440002 Z M361.9844971,104.7870026 C362.6734924,104.7870026 363.0244751,104.3840027 363.0244751,103.5910034 L363.0244751,97.7539978 L362.1275024,97.7539978 L362.1275024,103.3700027 C362.1275024,103.7600021 361.9714966,103.9680023 361.6724854,103.9680023 C361.1524963,103.9680023 360.6195068,103.9420013 360.0474854,103.9029999 L360.2424927,104.7870026 Z M365.7545166,98.1050034 L365.7545166,102.2910004 L366.8984985,102.2910004 C366.8464966,104.1110001 366.6904907,105.4370041 366.430481,106.2819977 C366.1445007,107.1920013 365.6505127,107.9850006 364.9744873,108.6480026 L365.5725098,109.4150009 C366.3654785,108.6480026 366.9244995,107.737999 367.2625122,106.6849976 C367.4185181,106.1650009 367.5484924,105.5019989 367.6524963,104.6699982 L370.3825073,104.6699982 C370.3565063,106.3209991 370.3175049,107.3089981 370.239502,107.6470032 C370.1094971,108.2190018 369.6674805,108.5050049 368.8875122,108.5050049 C368.5494995,108.5050049 368.1594849,108.4920044 367.7174988,108.4660034 L367.9254761,109.2720032 C368.4324951,109.2980042 368.7965088,109.3240051 369.0045166,109.3240051 C370.2655029,109.3240051 370.9674988,108.8820038 371.1104736,107.9980011 C371.2404785,107.4520035 371.305481,106.0480042 371.305481,103.7860031 L367.7304993,103.7860031 C367.7565002,103.3310013 367.7825012,102.836998 367.8085022,102.2910004 L370.9674988,102.2910004 L370.9674988,98.1050034 Z M370.0574951,101.4069977 L366.6644897,101.4069977 L366.6644897,98.9889984 L370.0574951,98.9889984 Z M372.6705017,98.7290039 L372.6705017,106.8280029 L373.5805054,106.8280029 L373.5805054,98.7290039 Z M375.1535034,109.3889999 C375.9335022,109.3889999 376.3364868,108.9470062 376.3364868,108.0890045 L376.3364868,97.6240005 L375.4135132,97.6240005 L375.4135132,107.8550034 C375.4135132,108.322998 375.2185059,108.5570068 374.8284912,108.5570068 C374.2825012,108.5570068 373.6975098,108.5310059 373.0734863,108.4920044 L373.2814941,109.3889999 Z M378.1174927,100.1330032 L378.1174927,101.0299988 L379.7164917,101.0299988 C379.352478,102.7200012 378.7675171,104.2410049 377.9354858,105.5670013 L378.338501,106.5940018 C378.8974915,105.5930023 379.352478,104.5009995 379.7164917,103.3050003 L379.7164917,109.4410019 L380.6524963,109.4410019 L380.6524963,102.6809998 C380.9384766,103.1490021 381.2894897,103.7600021 381.6925049,104.5139999 L382.2254944,103.7210007 C381.6925049,102.9930038 381.1724854,102.3430023 380.6524963,101.7580032 L380.6524963,101.0299988 L381.9265137,101.0299988 L381.9265137,100.1330032 L380.6524963,100.1330032 L380.6524963,97.5979996 L379.7164917,97.5979996 L379.7164917,100.1330032 Z M383.694519,100.5880051 L383.694519,101.1600037 L387.9194946,101.1600037 L387.9194946,100.5100021 C388.3355103,100.7959976 388.7904968,101.0559998 389.3104858,101.3030014 L389.8045044,100.5490036 C388.114502,99.7170029 386.9185181,98.7679977 386.2164917,97.6760025 L385.4364929,97.6760025 C384.6304932,98.8460007 383.4735107,99.8079987 381.9655151,100.5490036 L382.4595032,101.3030014 C382.8884888,101.0950012 383.3045044,100.8479996 383.694519,100.5880051 Z M387.6594849,100.3280029 L384.0455017,100.3280029 C384.7214966,99.8209991 385.3065186,99.2099991 385.8264771,98.5080032 C386.2814941,99.1709976 386.8925171,99.7819977 387.6594849,100.3280029 Z M386.3594971,102.0830002 L386.3594971,105.3199997 L389.2194824,105.3199997 L389.2194824,102.0830002 Z M388.4395142,104.5790024 L387.1394958,104.5790024 L387.1394958,102.836998 L388.4395142,102.836998 Z M384.1104736,107.5299988 C384.5004883,107.8680038 384.838501,108.1930008 385.0985107,108.5050049 L385.6835022,107.9199982 C385.3454895,107.5820007 384.9295044,107.2570038 384.4614868,106.9189987 C384.6044922,106.6330032 384.7474976,106.3209991 384.8905029,105.9960022 L384.1234741,105.6839981 C383.6035156,106.9970016 382.8234863,108.0500031 381.8095093,108.8300018 L382.4465027,109.3889999 C383.0704956,108.9080048 383.6165161,108.2839966 384.1104736,107.5299988 Z M387.4124756,107.737999 C388.1405029,108.2969971 388.7384949,108.8300018 389.1934814,109.3500061 L389.7915039,108.7389984 C389.2454834,108.1930008 388.569519,107.6600037 387.7894897,107.1139984 C387.9714966,106.802002 388.1405029,106.451004 388.3095093,106.0739975 L387.5424805,105.762001 C387.0224915,107.0620041 386.2424927,108.0890045 385.2285156,108.8560028 L385.878479,109.4150009 C386.4505005,108.9729996 386.957489,108.4140015 387.4124756,107.737999 Z M382.65448,102.0830002 L382.65448,105.3199997 L385.4884949,105.3199997 L385.4884949,102.0830002 Z M384.7214966,104.5790024 L383.4215088,104.5790024 L383.4215088,102.836998 L384.7214966,102.836998 Z M393.0415039,102.4599991 L393.0415039,107.2440033 L400.8154907,107.2440033 L400.8154907,102.4599991 L397.3834839,102.4599991 L397.3834839,100.7180023 C399.0344849,101.237999 400.6464844,101.848999 402.2064819,102.5250015 L402.8045044,101.848999 C401.1925049,101.1989975 399.385498,100.6009979 397.3834839,100.0550003 L397.3834839,99.612999 L402.2714844,99.612999 L402.2714844,98.7550049 L397.3834839,98.7550049 L397.3834839,97.5589981 L396.4735107,97.5589981 L396.4735107,98.7550049 L391.5855103,98.7550049 L391.5855103,99.612999 L395.6674805,99.612999 C394.6535034,100.5230026 393.0935059,101.2900009 390.9874878,101.8880005 L391.4815063,102.7200012 C393.7695007,101.9140015 395.4335022,100.8740005 396.4475098,99.612999 L396.4735107,99.612999 L396.4735107,102.4599991 Z M399.9055176,106.4120026 L393.9514771,106.4120026 L393.9514771,105.2679977 L399.9055176,105.2679977 Z M393.9514771,104.4749985 L393.9514771,103.2919998 L399.9055176,103.2919998 L399.9055176,104.4749985 Z M391.3255005,108.2579956 L391.3255005,109.1289978 L402.4924927,109.1289978 L402.4924927,108.2579956 Z M403.4024963,108.2060013" style="fill:rgb(23,55,94);stroke:none" clip-path="url(#clip19)" />
<clipPath id="clip20"><path d="M348,152 L434,152 L434,193 L348,193 L348,152 Z" /></clipPath>
<path d="M355,154 C352.2385864,154 350,156.2385712 350,159 L350,185 C350,187.7614288 352.2385864,190 355,190 L426,190 C428.7614136,190 431,187.7614288 431,185 L431,159 C431,156.2385712 428.7614136,154 426,154 Z M355,154" style="fill:rgb(220,230,242);stroke:none" clip-path="url(#clip20)" />
<clipPath id="clip21"><path d="M348,152 L434,152 L434,193 L348,193 L348,152 Z" /></clipPath>
<path d="M355,154 C352.2385864,154 350,156.2385712 350,159 L350,185 C350,187.7614288 352.2385864,190 355,190 L426,190 C428.7614136,190 431,187.7614288 431,185 L431,159 C431,156.2385712 428.7614136,154 426,154 Z M355,154" style="fill:none;stroke:rgb(85,142,213);stroke-width:2" clip-path="url(#clip21)" />
<clipPath id="clip22"><path d="M362,161 L420,161 L420,184 L362,184 L362,161 Z" /></clipPath>
<path d="M366.1315002,166.864502 L365.5075073,167.4624939 C366.2874756,168.0865021 366.911499,168.684494 367.3535156,169.2304993 L367.9904785,168.5935059 C367.4964905,168.0214996 366.8724976,167.4364929 366.1315002,166.864502 Z M365.9624939,170.0625 L365.338501,170.6605072 C366.0664978,171.2975006 366.6514893,171.8955078 367.0805054,172.4674988 L367.7174988,171.8435059 C367.2495117,171.2454987 366.6644897,170.6475067 365.9624939,170.0625 Z M367.0675049,173.585495 C366.5994873,175.0675049 366.0534973,176.5234985 365.4295044,177.9535065 L366.2744751,178.3045044 C366.8464966,176.9264984 367.3794861,175.4575043 367.8604736,173.8845062 Z M368.4324951,167.059494 L368.4324951,175.0025024 L372.5404968,175.0025024 L372.5404968,167.059494 Z M371.6304932,174.1445007 L369.3424988,174.1445007 L369.3424988,172.4934998 L371.6304932,172.4934998 Z M369.3424988,171.6744995 L369.3424988,170.1535034 L371.6304932,170.1535034 L371.6304932,171.6744995 Z M369.3424988,169.3215027 L369.3424988,167.9174957 L371.6304932,167.9174957 L371.6304932,169.3215027 Z M371.5914917,175.4315033 L370.9024963,175.8605042 C371.4744873,176.7445068 371.9425049,177.5505066 372.2804871,178.2785034 L373.0084839,177.7714996 C372.6704712,177.0955048 372.2025146,176.315506 371.5914917,175.4315033 Z M369.2514954,175.4705048 C368.8745117,176.3285065 368.3674927,177.1864929 367.7174988,178.0574951 L368.510498,178.4734955 C369.134491,177.6154938 369.6414795,176.7445068 370.0314941,175.8345032 Z M373.6455078,167.7225037 L373.6455078,175.8085022 L374.52948,175.8085022 L374.52948,167.7225037 Z M375.6994934,178.3045044 C376.4014893,178.3045044 376.7525024,177.914505 376.7525024,177.1475067 L376.7525024,166.6045074 L375.8684998,166.6045074 L375.8684998,176.9134979 C375.8684998,177.2774963 375.6994934,177.4725037 375.3745117,177.4725037 C374.9584961,177.4725037 374.52948,177.4465027 374.0874939,177.4205017 L374.2954712,178.3045044 Z M380.4444885,166.5265045 L379.5344849,166.7734985 C379.7684937,167.2415009 379.9765015,167.7485046 380.1585083,168.2684937 L378.4425049,168.2684937 L378.4425049,169.1394958 L382.5244751,169.1394958 L382.5244751,168.2684937 L380.5484924,168.2684937 L380.9904785,168.0995026 C380.8604736,167.6315002 380.6784973,167.0984955 380.4444885,166.5265045 Z M378.806488,170.1925049 L378.806488,171.0115051 L382.082489,171.0115051 L382.082489,170.1925049 Z M378.806488,171.9474945 L378.806488,172.7794952 L382.082489,172.7794952 L382.082489,171.9474945 Z M382.1864929,173.9105072 L378.6895142,173.9105072 L378.6895142,178.4734955 L379.5604858,178.4734955 L379.5604858,177.6674957 L381.3154907,177.6674957 L381.3154907,178.2915039 L382.1864929,178.2915039 Z M379.5604858,176.809494 L379.5604858,174.7425079 L381.3154907,174.7425079 L381.3154907,176.809494 Z M382.9014893,168.9705048 L382.9014893,169.8545074 L386.6195068,169.8545074 C386.6715088,171.4925079 386.7885132,172.9225006 386.957489,174.1445007 C387.3734741,176.9004974 387.9844971,178.3045044 388.8034973,178.3435059 C389.3754883,178.3305054 389.8305054,177.3164978 390.181488,175.2884979 L389.4534912,174.8724976 C389.2064819,176.4454956 388.9854736,177.2514954 388.8034973,177.3034973 C388.5434875,177.3034973 388.2835083,176.614502 388.010498,175.2494965 C387.7504883,173.9235077 387.5684814,172.1165009 387.4904785,169.8545074 L389.8825073,169.8545074 L389.8825073,168.9705048 L387.4644775,168.9705048 C387.4384766,168.2425079 387.4384766,167.4494934 387.4384766,166.6175079 L386.5675049,166.6175079 C386.5675049,167.4364929 386.5675049,168.216507 386.5935059,168.9705048 Z M382.8234863,171.8045044 L382.8234863,172.6495056 L384.0584717,172.6495056 L384.0584717,175.9774933 C383.5645142,176.0554962 383.0834961,176.1204987 382.5894775,176.1725006 L382.7974854,177.0175018 C384.0844727,176.835495 385.2934875,176.614502 386.411499,176.3545074 L386.411499,175.5095062 C385.930481,175.6264954 385.4364929,175.7304993 384.9295044,175.8215027 L384.9295044,172.6495056 L386.1124878,172.6495056 L386.1124878,171.8045044 Z M388.634491,166.6564941 L387.9974976,167.059494 C388.4655151,167.6184998 388.8424988,168.138504 389.128479,168.6065063 L389.7655029,168.1515045 C389.5054932,167.7225037 389.128479,167.2285004 388.634491,166.6564941 Z M392.5344849,169.7375031 L393.7044983,169.7375031 L393.7044983,170.8164978 L392.5344849,170.8164978 Z M392.5344849,171.5704956 L393.7044983,171.5704956 L393.7044983,172.7274933 L392.5344849,172.7274933 Z M394.510498,172.7274933 L394.510498,171.5704956 L395.8624878,171.5704956 L395.8624878,170.8164978 L394.510498,170.8164978 L394.510498,169.7375031 L395.8624878,169.7375031 L395.8624878,168.9835052 L394.510498,168.9835052 L394.510498,167.8395081 L395.8884888,167.8395081 L395.8884888,167.0464935 L391.7155151,167.0464935 L391.7155151,173.5075073 L395.3815002,173.5075073 C395.3815002,175.184494 395.3424988,176.3025055 395.2644958,176.8484955 C395.1864929,177.4075012 394.9265137,177.6934967 394.4714966,177.6934967 C394.2634888,177.6934967 394.02948,177.6674957 393.7694702,177.6414948 L393.977478,178.4214935 C394.1854858,178.434494 394.4064941,178.4474945 394.614502,178.4474945 C395.2124939,178.4474945 395.628479,178.2005005 395.8364868,177.7324982 C396.0444946,177.2644958 396.161499,175.5874939 396.161499,172.7274933 Z M393.7044983,167.8395081 L393.7044983,168.9835052 L392.5344849,168.9835052 L392.5344849,167.8395081 Z M391.7544861,174.1705017 C391.6115112,175.6134949 391.4425049,176.809494 391.260498,177.7454987 L391.85849,177.966507 C392.0274963,176.9264984 392.1704712,175.7044983 392.2874756,174.3135071 Z M393.1455078,174.2095032 L392.6384888,174.2745056 C392.6774902,175.0545044 392.7034912,176.1595001 392.7294922,177.5895081 L393.3015137,177.5245056 C393.2755127,176.1204987 393.2235107,175.0155029 393.1455078,174.2095032 Z M393.977478,174.0924988 L393.48349,174.1445007 C393.6524963,174.7944946 393.7565002,175.7044983 393.8084717,176.8744965 L394.3284912,176.809494 C394.2504883,175.6654968 394.1334839,174.7554932 393.977478,174.0924988 Z M394.8355103,173.9235077 L394.3674927,174.0534973 C394.536499,174.7814941 394.6795044,175.5225067 394.7965088,176.289505 L395.2774963,176.0944977 C395.1734924,175.4315033 395.0304871,174.7035065 394.8355103,173.9235077 Z M398.5534973,168.7754974 L398.5534973,171.6094971 L402.3234863,171.6094971 L402.3234863,168.7754974 Z M401.5044861,170.8554993 L399.3724976,170.8554993 L399.3724976,169.5164948 L401.5044861,169.5164948 Z M398.1895142,172.3504944 L398.1895142,176.3675079 L400.2044983,176.3675079 L400.2044983,172.3504944 Z M399.6195068,175.6784973 L398.8134766,175.6784973 L398.8134766,173.039505 L399.6195068,173.039505 Z M400.7634888,172.3504944 L400.7634888,176.3675079 L402.7915039,176.3675079 L402.7915039,172.3504944 Z M402.1674805,175.6784973 L401.3615112,175.6784973 L401.3615112,173.039505 L402.1674805,173.039505 Z M396.2655029,167.059494 L396.2655029,167.8914948 L396.7204895,167.8914948 L396.7204895,176.9654999 C396.7204895,177.7324982 397.0714722,178.1224976 397.7734985,178.1224976 L403.0385132,178.1224976 L403.0385132,177.2904968 L398.0205078,177.2904968 C397.7084961,177.2904968 397.5524902,177.1345062 397.5524902,176.8484955 L397.5524902,167.8914948 L402.9085083,167.8914948 L402.9085083,167.059494 Z M412.1644897,166.6045074 L412.1644897,169.0744934 L410.8775024,169.0744934 L410.8775024,169.9194946 L412.1644897,169.9194946 L412.1644897,170.5435028 C412.1384888,173.6634979 411.5014954,175.9904938 410.253479,177.5505066 L410.253479,176.861496 C409.5255127,176.9654999 408.7324829,177.0565033 407.8875122,177.1345062 L407.8875122,176.0554962 L410.2404785,176.0554962 L410.2404785,175.2754974 L407.8875122,175.2754974 L407.8875122,174.3784943 L410.227478,174.3784943 L410.227478,170.4134979 L407.8875122,170.4134979 L407.8875122,169.5814972 L410.4744873,169.5814972 L410.4744873,168.8014984 L407.8875122,168.8014984 L407.8875122,167.8265076 C408.8104858,167.7225037 409.6294861,167.5794983 410.3314819,167.3975067 L409.9154968,166.6824951 C408.4594727,167.0335083 406.6264954,167.2154999 404.4165039,167.2154999 L404.6765137,167.9694977 C405.4954834,167.9694977 406.2755127,167.9434967 407.003479,167.8914948 L407.003479,168.8014984 L404.3515015,168.8014984 L404.3515015,169.5814972 L407.003479,169.5814972 L407.003479,170.4134979 L404.6765137,170.4134979 L404.6765137,174.3784943 L407.003479,174.3784943 L407.003479,175.2754974 L404.6635132,175.2754974 L404.6635132,176.0554962 L407.003479,176.0554962 L407.003479,177.2124939 C406.1325073,177.2774963 405.2094727,177.3424988 404.2474976,177.3945007 L404.364502,178.2265015 C406.509491,178.0834961 408.4334717,177.914505 410.1234741,177.7064972 C410.0844727,177.7584991 410.0454712,177.7975006 410.0065002,177.8495026 L410.6824951,178.434494 C412.2164917,176.7705078 413.009491,174.1315002 413.0354919,170.5435028 L413.0354919,169.9194946 L414.7774963,169.9194946 C414.7514954,173.6634979 414.6994934,175.9125061 414.60849,176.6405029 C414.5304871,177.2384949 414.2445068,177.5375061 413.7504883,177.5375061 C413.3604736,177.5375061 412.8924866,177.5115051 412.3724976,177.4855042 L412.5935059,178.3175049 C413.1914978,178.3435059 413.6204834,178.3565063 413.8674927,178.3565063 C414.8294983,178.3565063 415.3624878,177.9015045 415.4794922,177.0045013 C415.5964966,175.9904938 415.661499,173.3515015 415.661499,169.0744934 L413.0354919,169.0744934 L413.0354919,166.6045074 Z M409.3825073,173.6764984 L407.8355103,173.6764984 L407.8355103,172.7145081 L409.3825073,172.7145081 Z M407.055481,173.6764984 L405.5214844,173.6764984 L405.5214844,172.7145081 L407.055481,172.7145081 Z M405.5214844,172.0644989 L405.5214844,171.1024933 L407.055481,171.1024933 L407.055481,172.0644989 Z M407.8355103,171.1024933 L409.3825073,171.1024933 L409.3825073,172.0644989 L407.8355103,172.0644989 Z M416.7144775,177.1864929" style="fill:rgb(23,55,94);stroke:none" clip-path="url(#clip22)" />
<clipPath id="clip23"><path d="M335,221 L421,221 L421,262 L335,262 L335,221 Z" /></clipPath>
<path d="M342,223 C339.2385864,223 337,225.2385712 337,228 L337,254 C337,256.7614136 339.2385864,259 342,259 L413,259 C415.7614136,259 418,256.7614136 418,254 L418,228 C418,225.2385712 415.7614136,223 413,223 Z M342,223" style="fill:rgb(220,230,242);stroke:none" clip-path="url(#clip23)" />
<clipPath id="clip24"><path d="M335,221 L421,221 L421,262 L335,262 L335,221 Z" /></clipPath>
<path d="M342,223 C339.2385864,223 337,225.2385712 337,228 L337,254 C337,256.7614136 339.2385864,259 342,259 L413,259 C415.7614136,259 418,256.7614136 418,254 L418,228 C418,225.2385712 415.7614136,223 413,223 Z M342,223" style="fill:none;stroke:rgb(85,142,213);stroke-width:2" clip-path="url(#clip24)" />
<clipPath id="clip25"><path d="M349,230 L407,230 L407,253 L349,253 L349,230 Z" /></clipPath>
<path d="M352.7805176,235.9685059 L352.7805176,238.6725006 L357.3045044,238.6725006 L357.3045044,235.9685059 Z M356.3945007,237.98349 L353.6904907,237.98349 L353.6904907,236.6705017 L356.3945007,236.6705017 Z M358.3184814,235.9685059 L358.3184814,238.6725006 L362.8294983,238.6725006 L362.8294983,235.9685059 Z M361.9324951,238.009491 L359.2415161,238.009491 L359.2415161,236.6445007 L361.9324951,236.6445007 Z M353.2745056,239.4654999 L353.2745056,243.7814941 L357.3435059,243.7814941 L357.3435059,244.8345032 L352.2084961,244.8345032 L352.2084961,245.6405029 L357.3435059,245.6405029 L357.3435059,247.4475098 L358.305481,247.4475098 L358.305481,245.6405029 L363.4274902,245.6405029 L363.4274902,244.8345032 L358.305481,244.8345032 L358.305481,243.7814941 L362.3745117,243.7814941 L362.3745117,239.4654999 Z M361.4515076,243.0274963 L358.305481,243.0274963 L358.305481,241.9615021 L361.4515076,241.9615021 Z M357.3435059,243.0274963 L354.1975098,243.0274963 L354.1975098,241.9615021 L357.3435059,241.9615021 Z M354.1975098,241.2724915 L354.1975098,240.2194977 L357.3435059,240.2194977 L357.3435059,241.2724915 Z M358.305481,240.2194977 L361.4515076,240.2194977 L361.4515076,241.2724915 L358.305481,241.2724915 Z M366.2745056,236.2675018 L366.2745056,237.1774902 L375.2575073,237.1774902 L375.2575073,236.2675018 Z M365.2734985,240.0895081 L365.2734985,240.9994965 L368.6405029,240.9994965 L368.6405029,241.1944885 C368.614502,242.611496 368.3284912,243.7684937 367.8085022,244.6524963 C367.2495117,245.510498 366.2745056,246.1864929 364.8704834,246.7064972 L365.3775024,247.4994965 C366.8204956,246.9664917 367.8605042,246.2254944 368.510498,245.2764893 C369.1605225,244.2494965 369.5115051,242.884491 369.5505066,241.1944885 L369.5505066,240.9994965 L371.8905029,240.9994965 L371.8905029,246.0435028 C371.8905029,246.8495026 372.2935181,247.2525024 373.1124878,247.2525024 L374.9974976,247.2525024 C375.4655151,247.2525024 375.8164978,247.1094971 376.0375061,246.8495026 C376.2974854,246.5505066 376.4664917,245.6925049 376.5574951,244.2754974 L375.6994934,244.0025024 C375.647522,245.1725006 375.5565186,245.8744965 375.4005127,246.10849 C375.2965088,246.3034973 375.1015015,246.4075012 374.8154907,246.4075012 L373.3724976,246.4075012 C372.9824829,246.4075012 372.8005066,246.2124939 372.8005066,245.8485107 L372.8005066,240.9994965 L376.3884888,240.9994965 L376.3884888,240.0895081 Z M378.7415161,235.838501 L378.1174927,236.4364929 C378.897522,237.0605011 379.5214844,237.6585083 379.963501,238.2044983 L380.6004944,237.5675049 C380.1065063,236.9954987 379.4824829,236.4104919 378.7415161,235.838501 Z M378.5725098,239.036499 L377.9484863,239.634491 C378.6765137,240.2714996 379.2615051,240.8695068 379.6904907,241.4414978 L380.3275146,240.8175049 C379.8594971,240.2194977 379.2745056,239.6214905 378.5725098,239.036499 Z M379.6774902,242.5595093 C379.2095032,244.0415039 378.6635132,245.4974976 378.0394897,246.9274902 L378.8845215,247.2785034 C379.4564819,245.9004974 379.989502,244.4315033 380.47052,242.85849 Z M381.0424805,236.0335083 L381.0424805,243.9765015 L385.1505127,243.9765015 L385.1505127,236.0335083 Z M384.2404785,243.1184998 L381.9525146,243.1184998 L381.9525146,241.4674988 L384.2404785,241.4674988 Z M381.9525146,240.6484985 L381.9525146,239.1275024 L384.2404785,239.1275024 L384.2404785,240.6484985 Z M381.9525146,238.2955017 L381.9525146,236.89151 L384.2404785,236.89151 L384.2404785,238.2955017 Z M384.2015076,244.4055023 L383.5125122,244.8345032 C384.0845032,245.7185059 384.5524902,246.5245056 384.8905029,247.2525024 L385.6184998,246.7454987 C385.2805176,246.0694885 384.8125,245.2894897 384.2015076,244.4055023 Z M381.8615112,244.4444885 C381.4844971,245.3024902 380.9775085,246.1604919 380.3275146,247.0314941 L381.1204834,247.4475098 C381.7445068,246.5895081 382.2514954,245.7185059 382.6414795,244.8085022 Z M386.2554932,236.6965027 L386.2554932,244.7825012 L387.1394958,244.7825012 L387.1394958,236.6965027 Z M388.3095093,247.2785034 C389.0115051,247.2785034 389.3624878,246.8884888 389.3624878,246.1214905 L389.3624878,235.5784912 L388.4785156,235.5784912 L388.4785156,245.8874969 C388.4785156,246.2514954 388.3095093,246.4465027 387.9844971,246.4465027 C387.5684814,246.4465027 387.1394958,246.4205017 386.6975098,246.3945007 L386.9055176,247.2785034 Z M393.0545044,235.5005035 L392.1445007,235.7474976 C392.378479,236.2154999 392.5864868,236.7225037 392.7684937,237.2424927 L391.0524902,237.2424927 L391.0524902,238.1134949 L395.1345215,238.1134949 L395.1345215,237.2424927 L393.1585083,237.2424927 L393.6004944,237.0735016 C393.47052,236.6054993 393.2885132,236.0725098 393.0545044,235.5005035 Z M391.4165039,239.1665039 L391.4165039,239.9855042 L394.6925049,239.9855042 L394.6925049,239.1665039 Z M391.4165039,240.9215088 L391.4165039,241.7535095 L394.6925049,241.7535095 L394.6925049,240.9215088 Z M394.7965088,242.884491 L391.2994995,242.884491 L391.2994995,247.4475098 L392.1705017,247.4475098 L392.1705017,246.64151 L393.9255066,246.64151 L393.9255066,247.2655029 L394.7965088,247.2655029 Z M392.1705017,245.7835083 L392.1705017,243.7164917 L393.9255066,243.7164917 L393.9255066,245.7835083 Z M395.5115051,237.9444885 L395.5115051,238.8284912 L399.2294922,238.8284912 C399.2814941,240.4664917 399.3984985,241.8964996 399.5675049,243.1184998 C399.9835205,245.8744965 400.5944824,247.2785034 401.4135132,247.3175049 C401.9855042,247.3045044 402.4404907,246.2904968 402.7915039,244.2624969 L402.0635071,243.8464966 C401.8164978,245.4194946 401.59552,246.2254944 401.4135132,246.2774963 C401.1535034,246.2774963 400.8934937,245.588501 400.6204834,244.2235107 C400.3605042,242.8974915 400.1784973,241.0904999 400.1004944,238.8284912 L402.4924927,238.8284912 L402.4924927,237.9444885 L400.0744934,237.9444885 C400.0485229,237.2164917 400.0485229,236.4234924 400.0485229,235.5914917 L399.1774902,235.5914917 C399.1774902,236.4104919 399.1774902,237.1904907 399.2034912,237.9444885 Z M395.4335022,240.7785034 L395.4335022,241.6235046 L396.6685181,241.6235046 L396.6685181,244.9515076 C396.1744995,245.0295105 395.6934814,245.0944977 395.1994934,245.1464996 L395.4075012,245.9915009 C396.694519,245.8095093 397.9035034,245.588501 399.0214844,245.3284912 L399.0214844,244.48349 C398.5404968,244.6004944 398.0465088,244.7044983 397.5394897,244.7955017 L397.5394897,241.6235046 L398.7225037,241.6235046 L398.7225037,240.7785034 Z M401.2445068,235.6304932 L400.6074829,236.0335083 C401.0755005,236.5924988 401.4525146,237.1125031 401.7384949,237.5805054 L402.3754883,237.1254883 C402.1154785,236.6965027 401.7384949,236.2024994 401.2445068,235.6304932 Z M403.3244934,246.1604919" style="fill:rgb(23,55,94);stroke:none" clip-path="url(#clip25)" />
<clipPath id="clip26"><path d="M287,290 L349,290 L349,331 L287,331 L287,290 Z" /></clipPath>
<path d="M294,292 C291.2385864,292 289,294.2385864 289,297 L289,323 C289,325.7614136 291.2385864,328 294,328 L341,328 C343.7614136,328 346,325.7614136 346,323 L346,297 C346,294.2385864 343.7614136,292 341,292 Z M294,292" style="fill:rgb(220,230,242);stroke:none" clip-path="url(#clip26)" />
<clipPath id="clip27"><path d="M287,290 L349,290 L349,331 L287,331 L287,290 Z" /></clipPath>
<path d="M294,292 C291.2385864,292 289,294.2385864 289,297 L289,323 C289,325.7614136 291.2385864,328 294,328 L341,328 C343.7614136,328 346,325.7614136 346,323 L346,297 C346,294.2385864 343.7614136,292 341,292 Z M294,292" style="fill:none;stroke:rgb(85,142,213);stroke-width:2" clip-path="url(#clip27)" />
<clipPath id="clip28"><path d="M301,299 L335,299 L335,322 L301,322 L301,299 Z" /></clipPath>
<path d="M306.3850098,308.4005127 L306.3850098,312.7164917 L310.4020081,312.7164917 L310.4020081,313.6134949 L305.7869873,313.6134949 L305.7869873,314.3674927 L310.4020081,314.3674927 L310.4020081,315.3424988 L305.1369934,315.3424988 L305.1369934,316.161499 L316.6289978,316.161499 L316.6289978,315.3424988 L311.3380127,315.3424988 L311.3380127,314.3674927 L315.9920044,314.3674927 L315.9920044,313.6134949 L311.3380127,313.6134949 L311.3380127,312.7164917 L315.3680115,312.7164917 L315.3680115,308.4005127 L311.3380127,308.4005127 L311.3380127,307.5684814 L316.4470215,307.5684814 L316.4470215,306.7625122 L311.3380127,306.7625122 L311.3380127,305.7744751 C312.7810059,305.6834717 314.1329956,305.5794983 315.381012,305.4494934 L315.0950012,304.6694946 C312.5079956,304.9555054 309.5180054,305.1505127 306.1380005,305.2544861 L306.2940063,306.0214844 C307.723999,305.9694824 309.0889893,305.90448 310.4020081,305.8264771 L310.4020081,306.7625122 L305.3190002,306.7625122 L305.3190002,307.5684814 L310.4020081,307.5684814 L310.4020081,308.4005127 Z M314.4580078,311.9624939 L311.3380127,311.9624939 L311.3380127,310.9094849 L314.4580078,310.9094849 Z M310.4020081,311.9624939 L307.2820129,311.9624939 L307.2820129,310.9094849 L310.4020081,310.9094849 Z M307.2820129,310.181488 L307.2820129,309.15448 L310.4020081,309.15448 L310.4020081,310.181488 Z M311.3380127,309.15448 L314.4580078,309.15448 L314.4580078,310.181488 L311.3380127,310.181488 Z M323.9219971,304.5394897 L323.9219971,305.5274963 L322.3359985,305.5274963 L322.3359985,306.2684937 L323.9219971,306.2684937 L323.9219971,307.1654968 L322.5700073,307.1654968 L322.5700073,307.8804932 L323.9219971,307.8804932 L323.9219971,308.7774963 L322.0239868,308.7774963 L322.0239868,309.5184937 L325.4559937,309.5184937 L325.4559937,310.3504944 L322.7520142,310.3504944 L322.7520142,313.6264954 L321.9070129,313.6264954 L321.9070129,314.3934937 L322.7520142,314.3934937 L322.7520142,316.4605103 L323.5969849,316.4605103 L323.5969849,314.3934937 L328.2120056,314.3934937 L328.2120056,315.3294983 C328.2120056,315.5764771 328.0429993,315.7064819 327.7310181,315.7064819 L326.678009,315.680481 L326.8859863,316.4475098 L328.0039978,316.4475098 C328.7059937,316.4475098 329.0570068,316.135498 329.0570068,315.5244751 L329.0570068,314.3934937 L329.8630066,314.3934937 L329.8630066,313.6264954 L329.0570068,313.6264954 L329.0570068,310.3504944 L326.3139954,310.3504944 L326.3139954,309.5184937 L329.7980042,309.5184937 L329.7980042,308.7774963 L327.9129944,308.7774963 L327.9129944,307.8804932 L329.2650146,307.8804932 L329.2650146,307.1654968 L327.9129944,307.1654968 L327.9129944,306.2684937 L329.4989929,306.2684937 L329.4989929,305.5274963 L327.9129944,305.5274963 L327.9129944,304.5394897 L327.0549927,304.5394897 L327.0549927,305.5274963 L324.7929993,305.5274963 L324.7929993,304.5394897 Z M323.5969849,313.6264954 L323.5969849,312.6514893 L325.4559937,312.6514893 L325.4559937,313.6264954 Z M326.3139954,313.6264954 L326.3139954,312.6514893 L328.2120056,312.6514893 L328.2120056,313.6264954 Z M324.7929993,308.7774963 L324.7929993,307.8804932 L327.0549927,307.8804932 L327.0549927,308.7774963 Z M324.7929993,307.1654968 L324.7929993,306.2684937 L327.0549927,306.2684937 L327.0549927,307.1654968 Z M328.2120056,312.0014954 L326.3139954,312.0014954 L326.3139954,311.0524902 L328.2120056,311.0524902 Z M325.4559937,311.0524902 L325.4559937,312.0014954 L323.5969849,312.0014954 L323.5969849,311.0524902 Z M320.5419922,309.8565063 C320.8280029,310.3504944 321.1790161,311.0004883 321.5690002,311.7934875 L322.0759888,311.0394897 C321.5559998,310.23349 321.0360107,309.5184937 320.5419922,308.8815002 L320.5419922,308.0234985 L321.82901,308.0234985 L321.82901,307.1264954 L320.5419922,307.1264954 L320.5419922,304.5784912 L319.632019,304.5784912 L319.632019,307.1264954 L318.0720215,307.1264954 L318.0720215,308.0234985 L319.5670166,308.0234985 C319.2160034,309.6744995 318.631012,311.1434937 317.8250122,312.4174805 L318.1889954,313.3535156 C318.7739868,312.352478 319.2550049,311.2474976 319.632019,310.0255127 L319.632019,316.4605103 L320.5419922,316.4605103 Z M330.3829956,315.1994934" style="fill:rgb(23,55,94);stroke:none" clip-path="url(#clip28)" />
<clipPath id="clip29"><path d="M101,290 L161,290 L161,331 L101,331 L101,290 Z" /></clipPath>
<path d="M108,292 C105.2385712,292 103,294.2385864 103,297 L103,323 C103,325.7614136 105.2385712,328 108,328 L153,328 C155.7614288,328 158,325.7614136 158,323 L158,297 C158,294.2385864 155.7614288,292 153,292 Z M108,292" style="fill:rgb(220,230,242);stroke:none" clip-path="url(#clip29)" />
<clipPath id="clip30"><path d="M101,290 L161,290 L161,331 L101,331 L101,290 Z" /></clipPath>
<path d="M108,292 C105.2385712,292 103,294.2385864 103,297 L103,323 C103,325.7614136 105.2385712,328 108,328 L153,328 C155.7614288,328 158,325.7614136 158,323 L158,297 C158,294.2385864 155.7614288,292 153,292 Z M108,292" style="fill:none;stroke:rgb(85,142,213);stroke-width:2" clip-path="url(#clip30)" />
<clipPath id="clip31"><path d="M115,299 L147,299 L147,322 L115,322 L115,299 Z" /></clipPath>
<path d="M129.0635071,304.6370239 C127.126503,305.2089844 124.6825027,305.4949951 121.7444992,305.4949951 L122.0305023,306.3400269 C125.1505051,306.3400269 127.6464996,306.0410156 129.5314941,305.4429932 Z M125.7225037,306.730011 L124.7085037,306.8859863 C124.9425049,307.3930054 125.1505051,307.9650269 125.3455048,308.6019897 L122.2385025,308.6019897 L122.2385025,309.4990234 L128.088501,309.4990234 C127.0224991,311.2410278 125.5405045,312.65802 123.6425018,313.7369995 C123.5904999,313.6849976 123.5514984,313.6329956 123.5125046,313.6069946 C123.3955002,313.5029907 123.2655029,313.4509888 123.1095047,313.4509888 C122.5115051,313.4509888 121.8875046,314.2050171 121.263504,315.7390137 L121.9915009,316.3630066 C122.4595032,315.1019897 122.8365021,314.4780273 123.0965042,314.4780273 C123.2005005,314.4780273 123.3045044,314.5429993 123.4215012,314.6860046 C123.6555023,315.0759888 123.9155045,315.375 124.2145004,315.5830078 C124.5914993,315.8690186 125.1245041,316.0380249 125.8134995,316.0900269 C126.1775055,316.1030273 126.6194992,316.1160278 127.126503,316.1160278 L129.8435059,316.1160278 L130.0385132,315.1929932 C128.9595032,315.2189941 127.9455032,315.2449951 126.9835052,315.2449951 C126.489502,315.2449951 126.0475006,315.2319946 125.6835022,315.2319946 C125.1115036,315.2059937 124.6175003,314.9459839 124.175499,314.4390259 C126.3075027,313.2170105 127.9715042,311.5400085 129.1545105,309.4210205 L129.1545105,308.6019897 L126.2945023,308.6019897 C126.1125031,307.9000244 125.9175034,307.276001 125.7225037,306.730011 Z M119.2225037,304.6890259 L118.5595016,305.3389893 C119.4565048,306.0280151 120.1715012,306.678009 120.6915054,307.302002 L121.3544998,306.6260071 C120.7695007,305.9760132 120.0545044,305.3389893 119.2225037,304.6890259 Z M118.8974991,307.757019 L118.2345047,308.3940125 C119.0665054,309.0960083 119.7164993,309.7590027 120.1845016,310.3699951 L120.8605042,309.7070007 C120.3274994,309.0570068 119.6775055,308.4070129 118.8974991,307.757019 Z M120.4315033,311.3710022 C119.8595047,312.9049988 119.1965027,314.4130249 118.4165039,315.882019 L119.3525009,316.2850037 C120.0545044,314.855011 120.7045059,313.3339844 121.289505,311.7089844 Z M131.7675018,305.07901 L131.7675018,305.9110107 L133.0935059,305.9110107 L133.0935059,307.8610229 L131.4295044,307.8610229 L131.4295044,308.7189941 L133.0415039,308.7189941 C132.911499,309.7850037 132.4825134,310.5780029 131.7545013,311.1240234 L132.4565125,311.7349854 C133.3144989,311.059021 133.8085022,310.0579834 133.9515076,308.7189941 L135.6545105,308.7189941 L135.6545105,311.57901 L136.5644989,311.57901 L136.5644989,308.7189941 L138.1635132,308.7189941 L138.1635132,307.8610229 L136.5644989,307.8610229 L136.5644989,305.9110107 L137.8775024,305.9110107 L137.8775024,305.07901 Z M133.990509,305.9110107 L135.6545105,305.9110107 L135.6545105,307.8610229 L133.990509,307.8610229 Z M138.9305115,305.3779907 L138.9305115,309.8500061 L139.8274994,309.8500061 L139.8274994,305.3779907 Z M132.0794983,312.8530273 L132.0794983,313.7109985 L136.6425018,313.7109985 L136.6425018,315.2319946 L131.3515015,315.2319946 L131.3515015,316.0900269 L142.7655029,316.0900269 L142.7655029,315.2319946 L137.5784912,315.2319946 L137.5784912,313.7109985 L142.0505066,313.7109985 L142.0505066,312.8530273 L137.5784912,312.8530273 L137.5784912,311.7219849 L136.6425018,311.7219849 L136.6425018,312.8530273 Z M141.1405029,311.6959839 C141.8294983,311.6959839 142.1805115,311.2929993 142.1805115,310.5 L142.1805115,304.6630249 L141.2835083,304.6630249 L141.2835083,310.2789917 C141.2835083,310.6690063 141.1275024,310.8770142 140.8284912,310.8770142 C140.3085022,310.8770142 139.7755127,310.8510132 139.2034912,310.8120117 L139.3984985,311.6959839 Z M143.5585022,315.1149902" style="fill:rgb(23,55,94);stroke:none" clip-path="url(#clip31)" />
<clipPath id="clip32"><path d="M23,221 L113,221 L113,262 L23,262 L23,221 Z" /></clipPath>
<path d="M30,223 C27.2385712,223 25,225.2385712 25,228 L25,254 C25,256.7614136 27.2385712,259 30,259 L105,259 C107.7614288,259 110,256.7614136 110,254 L110,228 C110,225.2385712 107.7614288,223 105,223 Z M30,223" style="fill:rgb(220,230,242);stroke:none" clip-path="url(#clip32)" />
<clipPath id="clip33"><path d="M23,221 L113,221 L113,262 L23,262 L23,221 Z" /></clipPath>
<path d="M30,223 C27.2385712,223 25,225.2385712 25,228 L25,254 C25,256.7614136 27.2385712,259 30,259 L105,259 C107.7614288,259 110,256.7614136 110,254 L110,228 C110,225.2385712 107.7614288,223 105,223 Z M30,223" style="fill:none;stroke:rgb(85,142,213);stroke-width:2" clip-path="url(#clip33)" />
<clipPath id="clip34"><path d="M37,230 L99,230 L99,253 L37,253 L37,230 Z" /></clipPath>
<path d="M44.9450073,235.5005035 C44.3470001,237.5155029 43.3720093,239.3095093 42.0460052,240.8695068 L42.3320007,241.8444977 C42.852005,241.2854919 43.3200073,240.7005005 43.7620087,240.0765076 L43.7620087,247.4215088 L44.723999,247.4215088 L44.723999,238.51651 C45.1529999,237.6975098 45.5169983,236.8265076 45.8160095,235.9035034 Z M49.651001,235.5265045 L48.6500092,235.6824951 C48.8840027,236.2545013 49.07901,236.865509 49.2480011,237.5415039 L45.7380066,237.5415039 L45.7380066,238.4385071 L48.5070038,238.4385071 C47.8050079,240.4404907 46.673996,242.0784912 45.1009979,243.3525085 L45.5820007,244.1455078 C46.2060089,243.6254883 46.7779999,243.0404968 47.2980042,242.4165039 L47.2980042,246.1474915 C47.2980042,246.3034973 47.2070007,246.4075012 47.0250092,246.4855042 L47.2330017,247.3045044 C48.5980072,246.8884888 49.7680054,246.4595032 50.7429962,246.0175018 L50.5870056,245.1204987 C49.8460083,245.4844971 49.053009,245.8095093 48.1950073,246.082489 L48.1950073,241.1295013 C48.6889954,240.3105011 49.1049957,239.4134979 49.4170074,238.4385071 L53.6289978,238.4385071 L53.6289978,237.5415039 L50.1970062,237.5415039 C50.0149994,236.7875061 49.8330078,236.111496 49.651001,235.5265045 Z M53.2389984,240.0895081 C52.7190094,240.713501 52.0690002,241.2984924 51.2890015,241.8444977 C51.0550079,240.9735107 50.9120026,240.0375061 50.8600006,239.0234985 L50.0800018,239.2575073 C50.2230072,242.6504974 51.3410034,245.3024902 53.4470062,247.2265015 L54.0839996,246.4985046 C52.927002,245.4584961 52.0820007,244.1715088 51.5359955,242.6374969 C52.4720001,242.0524902 53.2259979,241.4414978 53.8110046,240.8175049 Z M55.2929993,236.9045105 L55.2929993,237.736496 L57.6849976,237.736496 L57.6849976,238.8544922 L55.7350006,238.8544922 L55.7350006,242.5985107 L57.5680084,242.5985107 C56.9440002,243.9765015 56.098999,245.0684967 55.0330048,245.8744965 L55.5270081,246.667511 C56.3850098,245.9134979 57.1130066,244.9515076 57.7109985,243.7814941 L57.7109985,247.4605103 L58.5820007,247.4605103 L58.5820007,244.0545044 C59.0500031,244.4704895 59.6220093,245.0295105 60.2850037,245.7315063 L60.7920074,244.9515076 C60.0380096,244.3014984 59.3099976,243.7164917 58.5820007,243.1965027 L58.5820007,242.5985107 L60.5059967,242.5985107 L60.5059967,238.8544922 L58.5559998,238.8544922 L58.5559998,237.736496 L60.753006,237.736496 L60.753006,236.9045105 L58.5559998,236.9045105 L58.5559998,235.539505 L57.6849976,235.539505 L57.6849976,236.9045105 Z M59.673996,241.8184967 L58.5039978,241.8184967 L58.5039978,239.634491 L59.673996,239.634491 Z M57.7369995,241.8184967 L56.5670013,241.8184967 L56.5670013,239.634491 L57.7369995,239.634491 Z M62.9109955,236.8395081 C62.7680054,237.2294922 62.572998,237.5545044 62.326004,237.8144989 C62.0010071,238.1264954 61.5200043,238.4125061 60.8700104,238.6855011 L61.4160004,239.3744965 C62.1699982,239.036499 62.7290039,238.6464996 63.1190033,238.2174988 C63.3919983,237.8665009 63.6130066,237.411499 63.7819977,236.8395081 L65.654007,236.8395081 C65.628006,237.489502 65.576004,237.8925018 65.4720001,238.0484924 C65.3679962,238.2044983 65.1080017,238.2825012 64.7050018,238.2955017 L63.8209991,238.2304993 L64.0420074,239.010498 C64.3800049,239.036499 64.6790009,239.0625 64.9130096,239.0625 C65.4980011,239.0625 65.9140015,238.9194946 66.1480103,238.6334991 C66.3820038,238.3475037 66.5120087,237.4765015 66.5380096,236.0465088 L61.1820068,236.0465088 L61.1820068,236.8395081 Z M61.3769989,239.5305023 L61.3769989,245.4974976 L66.4080048,245.4974976 L66.4080048,239.5305023 Z M65.5500031,244.7044983 L62.2220001,244.7044983 L62.2220001,243.7554932 L65.5500031,243.7554932 Z M62.2220001,243.0014954 L62.2220001,242.0524902 L65.5500031,242.0524902 L65.5500031,243.0014954 Z M62.2220001,241.2984924 L62.2220001,240.3235016 L65.5500031,240.3235016 L65.5500031,241.2984924 Z M64.6920013,245.510498 L64.2369995,246.1734924 C65.0690002,246.4855042 65.8619995,246.9274902 66.6419983,247.486496 L67.1100006,246.7845001 C66.3820038,246.2904968 65.576004,245.861496 64.6920013,245.510498 Z M62.7810059,245.5234985 C62.1049957,246.0305023 61.2600098,246.4465027 60.2460022,246.7584991 L60.6100006,247.5254974 C61.6889954,247.1484985 62.5859985,246.6804962 63.3139954,246.1214905 Z M69.2810059,235.7344971 L68.6049957,236.384491 C69.5670013,237.0605011 70.3339996,237.7105103 70.8800049,238.3215027 L71.5429993,237.6585083 C70.9320068,237.0214996 70.178009,236.384491 69.2810059,235.7344971 Z M68.9560089,238.8024902 L68.2929993,239.4394989 C69.2030029,240.14151 69.9179993,240.7915039 70.4380035,241.3894958 L71.1009979,240.7265015 C70.529007,240.0765076 69.8139954,239.4394989 68.9560089,238.8024902 Z M70.5940094,242.3905029 C70.0090027,243.9505005 69.3200073,245.4714966 68.5400085,246.9534912 L69.4759979,247.3565063 C70.1910095,245.9134979 70.8410034,244.3665009 71.4260101,242.7285004 Z M72.0500031,237.736496 L72.0500031,238.6595001 L75.4300079,238.6595001 L75.4300079,241.7795105 L72.4140015,241.7795105 L72.4140015,242.6764984 L75.4300079,242.6764984 L75.4300079,246.0954895 L71.7250061,246.0954895 L71.7250061,247.0184937 L79.9799957,247.0184937 L79.9799957,246.0954895 L76.3789978,246.0954895 L76.3789978,242.6764984 L79.3820038,242.6764984 L79.3820038,241.7795105 L76.3789978,241.7795105 L76.3789978,238.6595001 L79.7330017,238.6595001 L79.7330017,237.736496 L75.8590088,237.736496 L76.3919983,237.5285034 C76.1970062,236.9045105 75.9109955,236.2285004 75.5469971,235.4745026 L74.6630096,235.7214966 C75.0010071,236.3714905 75.2870026,237.0345001 75.5469971,237.736496 Z M86.779007,236.9824982 C85.9470062,241.1425018 84.0619965,244.3144989 81.1240082,246.4855042 L81.6829987,247.2785034 C84.3870087,245.2764893 86.2070007,242.4295044 87.1300049,238.7375031 C87.8970032,241.9875031 89.6650085,244.8475037 92.4210052,247.3175049 L92.95401,246.5115051 C89.678009,243.5214996 87.8580017,240.0375061 87.4940033,236.0725098 L84.8420105,236.0725098 L84.8420105,236.9824982 Z M93.5780029,246.1604919" style="fill:rgb(23,55,94);stroke:none" clip-path="url(#clip34)" />
<clipPath id="clip35"><path d="M14,152 L100,152 L100,193 L14,193 L14,152 Z" /></clipPath>
<path d="M21,154 C18.2385712,154 16,156.2385712 16,159 L16,185 C16,187.7614288 18.2385712,190 21,190 L92,190 C94.7614288,190 97,187.7614288 97,185 L97,159 C97,156.2385712 94.7614288,154 92,154 Z M21,154" style="fill:rgb(220,230,242);stroke:none" clip-path="url(#clip35)" />
<clipPath id="clip36"><path d="M14,152 L100,152 L100,193 L14,193 L14,152 Z" /></clipPath>
<path d="M21,154 C18.2385712,154 16,156.2385712 16,159 L16,185 C16,187.7614288 18.2385712,190 21,190 L92,190 C94.7614288,190 97,187.7614288 97,185 L97,159 C97,156.2385712 94.7614288,154 92,154 Z M21,154" style="fill:none;stroke:rgb(85,142,213);stroke-width:2" clip-path="url(#clip36)" />
<clipPath id="clip37"><path d="M28,161 L86,161 L86,184 L28,184 L28,161 Z" /></clipPath>
<path d="M35.5180054,173.8715057 L31.5919952,173.8715057 L31.5919952,178.2525024 L32.4759979,178.2525024 L32.4759979,177.6154938 L35.5180054,177.6154938 Z M32.4759979,176.7705078 L32.4759979,174.690506 L34.6600037,174.690506 L34.6600037,176.7705078 Z M31.1499939,168.2424927 L31.1499939,169.1004944 L35.9989929,169.1004944 L35.9989929,168.2424927 L33.7109985,168.2424927 L34.2180023,168.0605011 C34.0359955,167.5794983 33.802002,167.059494 33.4900055,166.4875031 L32.5930023,166.7344971 C32.9049988,167.2154999 33.1649933,167.7225037 33.3860016,168.2424927 Z M31.6959991,170.1405029 L31.6959991,170.9595032 L35.427002,170.9595032 L35.427002,170.1405029 Z M31.6959991,171.934494 L31.6959991,172.7534943 L35.427002,172.7534943 L35.427002,171.934494 Z M36.4149933,172.0904999 L36.4149933,173.0005035 L37.2339935,173.0005035 C37.5330048,174.0924988 38.0919952,175.0935059 38.9109955,175.9774933 C38.0270081,176.6795044 36.9349976,177.2514954 35.6089935,177.6934967 L36.1159973,178.486496 C37.4940033,178.0184937 38.6640015,177.4075012 39.6000061,176.6275024 C40.4060059,177.3164978 41.4069977,177.940506 42.6029968,178.486496 L43.1100006,177.6804962 C41.9660034,177.2124939 41.0169983,176.6535034 40.2369995,176.0294952 C41.0690002,175.1714935 41.654007,174.1445007 42.0180054,172.9485016 L42.0180054,172.0904999 Z M38.1309967,173.0005035 L41.1080017,173.0005035 C40.7570038,173.8845062 40.2369995,174.690506 39.5610046,175.3925018 C38.8849945,174.690506 38.404007,173.8845062 38.1309967,173.0005035 Z M37.3899994,167.033493 L37.3899994,168.5935059 C37.3899994,169.5554962 36.8829956,170.2964935 35.8820038,170.8164978 L36.5059967,171.5054932 C37.7019958,170.8034973 38.3130035,169.8025055 38.3130035,168.5025024 L38.3130035,167.9174957 L40.3410034,167.9174957 L40.3410034,170.036499 C40.3410034,170.8034973 40.7440033,171.1934967 41.576004,171.1934967 L42.7330017,171.1934967 L42.7330017,170.335495 L41.8099976,170.335495 C41.4459991,170.335495 41.2770081,170.1665039 41.2770081,169.841507 L41.2770081,167.033493 Z M45.397995,177.6544952 L47.5690002,177.6544952 L47.5690002,178.2525024 L48.4660034,178.2525024 L48.4660034,173.8585052 L44.5010071,173.8585052 L44.5010071,178.434494 L45.397995,178.434494 Z M47.5690002,176.7964935 L45.397995,176.7964935 L45.397995,174.7035065 L47.5690002,174.7035065 Z M44.0330048,168.2295074 L44.0330048,169.1004944 L48.9470062,169.1004944 L48.9470062,168.2295074 L46.6719971,168.2295074 L47.1269989,168.0605011 C46.970993,167.5924988 46.75,167.059494 46.4640045,166.4875031 L45.5670013,166.7344971 C45.8399963,167.2024994 46.0740051,167.7095032 46.2689972,168.2295074 Z M44.5399933,170.1535034 L44.5399933,170.9725037 L48.427002,170.9725037 L48.427002,170.1535034 Z M44.5399933,171.934494 L44.5399933,172.7664948 L48.427002,172.7664948 L48.427002,171.934494 Z M52.0540009,166.5525055 L52.0540009,170.8164978 L49.1679993,170.8164978 L49.1679993,171.7265015 L52.0540009,171.7265015 L52.0540009,178.434494 L52.977005,178.434494 L52.977005,171.7265015 L55.9539948,171.7265015 L55.9539948,170.8164978 L52.977005,170.8164978 L52.977005,166.5525055 Z M59.7890015,171.7915039 C60.1269989,172.3114929 60.5299988,173.0005035 60.9980011,173.8585052 L61.4920044,173.1174927 C60.9199982,172.2595062 60.3480072,171.4795074 59.7890015,170.8034973 L59.7890015,169.9454956 L61.2059937,169.9454956 L61.2059937,169.1004944 L59.7890015,169.1004944 L59.7890015,166.5785065 L58.9049988,166.5785065 L58.9049988,169.1004944 L57.3970032,169.1004944 L57.3970032,169.9454956 L58.8659973,169.9454956 C58.4759979,171.5574951 57.8390045,172.9875031 56.9290009,174.2615051 L57.3320007,175.2754974 C57.9819946,174.2485046 58.5019989,173.1045074 58.9049988,171.8435059 L58.9049988,178.408493 L59.7890015,178.408493 Z M61.7389984,169.815506 L61.7389984,173.7545013 L64.4819946,173.7545013 C64.4300079,174.0924988 64.352005,174.4304962 64.2480011,174.7424927 L60.8029938,174.7424927 L60.8029938,175.6004944 L63.8580017,175.6004944 C63.7539978,175.7825012 63.6239929,175.9515076 63.4810028,176.1204987 C62.9089966,176.7705078 61.9730072,177.2644958 60.6730042,177.6284943 L60.9980011,178.3955078 C62.5059967,177.9794922 63.5460052,177.3945007 64.1439972,176.6535034 C64.404007,176.341507 64.6119995,175.9904938 64.7940063,175.6004944 L68.8370056,175.6004944 L68.8370056,174.7424927 L65.1060028,174.7424927 C65.1840057,174.4304962 65.2489929,174.1054993 65.3009949,173.7545013 L67.9660034,173.7545013 L67.9660034,169.815506 Z M67.1210022,173.0265045 L62.5839996,173.0265045 L62.5839996,172.1425018 L67.1210022,172.1425018 Z M62.5839996,171.440506 L62.5839996,170.5695038 L67.1210022,170.5695038 L67.1210022,171.440506 Z M60.9329987,167.6054993 L60.9329987,168.3724976 L62.8050079,168.3724976 L62.8050079,169.3865051 L63.6499939,169.3865051 L63.6499939,168.3724976 L64.677002,168.3724976 L64.677002,167.6054993 L63.6499939,167.6054993 L63.6499939,166.539505 L62.8050079,166.539505 L62.8050079,167.6054993 Z M66.0550079,166.539505 L66.0550079,167.6054993 L65.0279999,167.6054993 L65.0279999,168.3724976 L66.0550079,168.3724976 L66.0550079,169.3865051 L66.8999939,169.3865051 L66.8999939,168.3724976 L68.7850037,168.3724976 L68.7850037,167.6054993 L66.8999939,167.6054993 L66.8999939,166.539505 Z M65.6260071,176.0944977 L65.1710052,176.7705078 C66.3280029,177.1864929 67.4589996,177.7714996 68.5509949,178.5124969 L69.0189972,177.7975006 C67.9920044,177.1345062 66.8610077,176.5625 65.6260071,176.0944977 Z M70.3580017,168.8535004 L70.3580017,169.763504 L76.7669983,169.763504 C76.8710022,171.4015045 77.0659943,172.8314972 77.3650055,174.0664978 C78.1450043,176.9004974 79.1069946,178.3565063 80.2640076,178.408493 C80.927002,178.3955078 81.4600067,177.4465027 81.8500061,175.5744934 L81.0050049,175.1325073 C80.7319946,176.588501 80.4589996,177.3294983 80.1990051,177.3684998 C79.7700043,177.3684998 79.276001,176.6405029 78.7299957,175.210495 C78.2230072,173.7545013 77.8849945,171.9474945 77.7290039,169.763504 L81.6940002,169.763504 L81.6940002,168.8535004 L77.677002,168.8535004 C77.6380005,168.1255035 77.625,167.3585052 77.625,166.5525055 L76.6629944,166.5525055 C76.6629944,167.3455048 76.6759949,168.1125031 76.7149963,168.8535004 Z M70.5529938,171.9214935 L70.5529938,172.8054962 L72.8410034,172.8054962 L72.8410034,176.3544922 C72.0090027,176.4844971 71.151001,176.614502 70.2929993,176.7185059 L70.5140076,177.6024933 C72.6719971,177.2904968 74.6999969,176.9134979 76.5720062,176.4584961 L76.5720062,175.5484924 C75.6620026,175.7825012 74.7389984,176.0034943 73.7770081,176.1855011 L73.7770081,172.8054962 L76.0650024,172.8054962 L76.0650024,171.9214935 Z M79.5879974,166.6174927 L78.8079987,166.9945068 C79.25,167.5014954 79.6529999,168.0735016 80.0299988,168.7234955 L80.8099976,168.3334961 C80.4199982,167.7095032 80.0169983,167.1374969 79.5879974,166.6174927 Z M82.5130005,177.1475067" style="fill:rgb(23,55,94);stroke:none" clip-path="url(#clip37)" />
<clipPath id="clip38"><path d="M53,83 L113,83 L113,124 L53,124 L53,83 Z" /></clipPath>
<path d="M60,85 C57.2385712,85 55,87.2385712 55,90 L55,116 C55,118.7614288 57.2385712,121 60,121 L105,121 C107.7614288,121 110,118.7614288 110,116 L110,90 C110,87.2385712 107.7614288,85 105,85 Z M60,85" style="fill:rgb(220,230,242);stroke:none" clip-path="url(#clip38)" />
<clipPath id="clip39"><path d="M53,83 L113,83 L113,124 L53,124 L53,83 Z" /></clipPath>
<path d="M60,85 C57.2385712,85 55,87.2385712 55,90 L55,116 C55,118.7614288 57.2385712,121 60,121 L105,121 C107.7614288,121 110,118.7614288 110,116 L110,90 C110,87.2385712 107.7614288,85 105,85 Z M60,85" style="fill:none;stroke:rgb(85,142,213);stroke-width:2" clip-path="url(#clip39)" />
<clipPath id="clip40"><path d="M67,92 L99,92 L99,115 L67,115 L67,92 Z" /></clipPath>
<path d="M75.7205048,97.6239929 C74.5765076,98.871994 72.8475037,99.7039948 70.5335083,100.1459961 L71.0795135,101.0039978 C72.4705048,100.6919937 73.6665039,100.2369995 74.6805115,99.6389999 L78.4765015,99.6389999 C77.7485046,100.7049942 76.6955109,101.5239944 75.3435059,102.0699997 C74.9275055,101.5499954 74.4855042,101.0819931 74.0175018,100.6399994 L73.1985016,101.0299988 C73.6405029,101.4329987 74.0695038,101.8879929 74.4725037,102.3819962 C73.5365143,102.6549988 72.4965057,102.8239975 71.3265076,102.9019928 L71.7295074,103.746994 C75.5255127,103.447998 78.138504,102.0439987 79.542511,99.5479965 L79.542511,98.8069992 L75.8115082,98.8069992 C76.0715027,98.572998 76.318512,98.3259964 76.5525055,98.0659943 Z M75.2265015,105.7489929 L74.3945007,106.1389999 C74.8755035,106.6069946 75.3305054,107.1399994 75.7725067,107.7249985 C74.3035126,108.2189941 72.5485077,108.4659958 70.5205078,108.4789963 L70.8975067,109.3759918 C75.9415131,109.2589951 79.3735046,107.6729965 81.2195129,104.6049957 L81.2195129,103.8639984 L77.6575012,103.8639984 C78.0214996,103.5909958 78.3465118,103.2919998 78.6585083,102.9799957 L77.8525085,102.5379944 C76.5005035,103.9679947 74.4075012,104.8389969 71.5735016,105.125 L72.1325073,105.9569931 C73.7055054,105.6839981 75.0575104,105.2679977 76.2015076,104.7220001 L80.0494995,104.7220001 C79.217514,105.8659973 78.0865021,106.7629929 76.6435089,107.3869934 C76.2015076,106.8019943 75.7205048,106.2559967 75.2265015,105.7489929 Z M83.4815063,98.2479935 L83.4815063,99.0799942 L84.8075104,99.0799942 L84.8075104,101.0299988 L83.1435089,101.0299988 L83.1435089,101.8879929 L84.7555084,101.8879929 C84.6255035,102.9539948 84.1965027,103.746994 83.4685059,104.2929993 L84.1705017,104.9039993 C85.0285034,104.2279968 85.5225067,103.2269974 85.6655121,101.8879929 L87.3684998,101.8879929 L87.3684998,104.7479935 L88.2785034,104.7479935 L88.2785034,101.8879929 L89.8775024,101.8879929 L89.8775024,101.0299988 L88.2785034,101.0299988 L88.2785034,99.0799942 L89.591507,99.0799942 L89.591507,98.2479935 Z M85.7045135,99.0799942 L87.3684998,99.0799942 L87.3684998,101.0299988 L85.7045135,101.0299988 Z M90.6445007,98.5469971 L90.6445007,103.0189972 L91.5415039,103.0189972 L91.5415039,98.5469971 Z M83.7935028,106.0219955 L83.7935028,106.8799973 L88.3565063,106.8799973 L88.3565063,108.401001 L83.065506,108.401001 L83.065506,109.2589951 L94.4795074,109.2589951 L94.4795074,108.401001 L89.292511,108.401001 L89.292511,106.8799973 L93.7645111,106.8799973 L93.7645111,106.0219955 L89.292511,106.0219955 L89.292511,104.8909988 L88.3565063,104.8909988 L88.3565063,106.0219955 Z M92.8545074,104.8649979 C93.5435028,104.8649979 93.8945007,104.461998 93.8945007,103.6689987 L93.8945007,97.8319931 L92.9975128,97.8319931 L92.9975128,103.447998 C92.9975128,103.8379974 92.841507,104.0459976 92.542511,104.0459976 C92.0225067,104.0459976 91.489502,104.0199966 90.917511,103.9809952 L91.1125031,104.8649979 Z M95.2725067,108.2839966" style="fill:rgb(23,55,94);stroke:none" clip-path="url(#clip40)" />
<clipPath id="clip41"><path d="M75,14 L161,14 L161,55 L75,55 L75,14 Z" /></clipPath>
<path d="M82,16 C79.2385712,16 77,18.2385712 77,21 L77,47 C77,49.7614288 79.2385712,52 82,52 L153,52 C155.7614288,52 158,49.7614288 158,47 L158,21 C158,18.2385712 155.7614288,16 153,16 Z M82,16" style="fill:rgb(220,230,242);stroke:none" clip-path="url(#clip41)" />
<clipPath id="clip42"><path d="M75,14 L161,14 L161,55 L75,55 L75,14 Z" /></clipPath>
<path d="M82,16 C79.2385712,16 77,18.2385712 77,21 L77,47 C77,49.7614288 79.2385712,52 82,52 L153,52 C155.7614288,52 158,49.7614288 158,47 L158,21 C158,18.2385712 155.7614288,16 153,16 Z M82,16" style="fill:none;stroke:rgb(85,142,213);stroke-width:2" clip-path="url(#clip42)" />
<clipPath id="clip43"><path d="M89,23 L147,23 L147,46 L89,46 L89,23 Z" /></clipPath>
<path d="M98.4355011,28.5589905 C98.0715027,30.5089874 97.4735031,32.0039978 96.6415024,33.0439911 L97.3304977,33.6289978 C97.7724991,33.0829926 98.1624985,32.4069977 98.5134964,31.5749969 L99.4104996,31.5749969 C98.9165039,34.0709991 98.0065002,35.9039917 96.6675034,37.0479889 L97.2785034,37.75 C98.7344971,36.4629974 99.7225037,34.4089966 100.2425003,31.5749969 L101.2565002,31.5749969 C101.0094986,33.5509949 100.6324997,35.1499939 100.1255035,36.3589935 C99.5794983,37.5549927 98.7734985,38.6469879 97.6815033,39.6349945 L98.2535019,40.3759918 C99.4365005,39.2969971 100.3205032,38.0749969 100.9185028,36.7229919 C101.425499,35.4619904 101.8154984,33.7459869 102.1015015,31.5749969 L102.9854965,31.5749969 C102.9595032,35.344986 102.9075012,37.6069946 102.8164978,38.3349915 C102.699501,39.1669922 102.2444992,39.5829926 101.4514999,39.5829926 C101.1524963,39.5829926 100.8014984,39.5569916 100.385498,39.5309906 L100.6064987,40.3759918 C101.074501,40.4019928 101.399498,40.4149933 101.5814972,40.4149933 C102.8424988,40.4149933 103.5445023,39.8429871 103.6875,38.6989899 C103.8174973,37.6849976 103.8824997,35.0069885 103.8824997,30.6649933 L98.838501,30.6649933 C99.0205002,30.0929871 99.1764984,29.4689941 99.3195038,28.7929993 Z M93.7295074,32.1989899 L94.7955017,32.1989899 L94.7955017,35.7089996 C94.0675049,35.9949951 93.3135071,36.2289886 92.533493,36.4109955 L92.7545013,37.3209991 C93.4564972,37.0999908 94.1325073,36.8529968 94.7955017,36.5929871 L94.7955017,40.4929962 L95.7055054,40.4929962 L95.7055054,36.2029877 C96.0565033,36.0339966 96.4075012,35.8649902 96.7454987,35.6829987 L96.7454987,34.798996 C96.4075012,34.9809875 96.0695038,35.1499939 95.7055054,35.3190002 L95.7055054,32.1989899 L96.7975006,32.1989899 L96.7975006,31.2889862 L95.7055054,31.2889862 L95.7055054,28.5849915 L94.7955017,28.5849915 L94.7955017,31.2889862 L93.885498,31.2889862 C93.963501,30.7299957 94.0155029,30.1579895 94.0415039,29.5859985 L93.2225037,29.5209961 C93.1575012,31.0419922 92.8845062,32.4850006 92.3905029,33.8629913 L93.2095032,34.0970001 C93.4174957,33.4859924 93.5865021,32.848999 93.7295074,32.1989899 Z M108.3154984,28.493988 C107.6914978,30.5219879 106.7034988,32.3289948 105.3255005,33.8889923 L105.6244965,34.8899994 C106.1184998,34.3699951 106.5735016,33.8239899 106.989502,33.2519989 L106.989502,40.5059967 L107.9124985,40.5059967 L107.9124985,31.821991 C108.4325027,30.8989868 108.8615036,29.923996 109.199501,28.8969879 Z M110.4994965,29.3519897 C110.213501,31.0809937 109.6805038,32.5499878 108.8874969,33.7459869 L109.4854965,34.5259857 C109.9664993,33.8499908 110.3694992,33.0829926 110.6945038,32.2249908 L112.9045029,32.2249908 L112.9045029,35.3579865 L109.0824966,35.3579865 L109.0824966,36.2549896 L112.9045029,36.2549896 L112.9045029,40.4409943 L113.8404999,40.4409943 L113.8404999,36.2549896 L117.3115005,36.2549896 L117.3115005,35.3579865 L113.8404999,35.3579865 L113.8404999,32.2249908 L116.8304977,32.2249908 L116.8304977,31.3149872 L113.8404999,31.3149872 L113.8404999,28.6109924 L112.9045029,28.6109924 L112.9045029,31.3149872 L110.9934998,31.3149872 C111.175499,30.7429962 111.3184967,30.118988 111.4225006,29.4689941 Z M125.475502,30.144989 L125.1764984,30.8209991 L122.9014969,30.8209991 L122.9014969,34.9809875 L129.2064972,34.9809875 L129.2064972,30.8209991 L126.0605011,30.8209991 L126.3594971,30.144989 L129.9865112,30.144989 L129.9865112,29.4429932 L128.0755005,29.4429932 C128.2055054,29.1829987 128.2965088,28.9099884 128.3744965,28.6109924 L127.5295029,28.493988 C127.4514999,28.8190002 127.3475037,29.1309967 127.1914978,29.4429932 L124.9294968,29.4429932 C124.7734985,29.1049957 124.6305008,28.7929993 124.4745026,28.519989 L123.6035004,28.6759949 C123.7594986,28.8969879 123.9024963,29.1569977 124.0455017,29.4429932 L122.0695038,29.4429932 L122.0695038,30.144989 Z M128.3225098,34.4349976 L123.7854996,34.4349976 L123.7854996,33.719986 L128.3225098,33.719986 Z M123.7854996,33.2259979 L123.7854996,32.5499878 L128.3225098,32.5499878 L128.3225098,33.2259979 Z M123.7854996,32.0559998 L123.7854996,31.3539886 L128.3225098,31.3539886 L128.3225098,32.0559998 Z M119.8464966,28.6109924 L119.274498,29.1699982 C119.989502,29.6380005 120.5485001,30.0799866 120.9514999,30.4959869 L121.5234985,29.923996 C121.0684967,29.4819946 120.5094986,29.0529938 119.8464966,28.6109924 Z M126.5674973,40.4539948 C127.2565002,40.4539948 127.6074982,40.1029968 127.6074982,39.4269867 L127.6074982,37.996994 L130.1685028,37.996994 L130.1685028,37.1909943 L127.6074982,37.1909943 L127.6074982,36.4369965 L130.1165009,36.4369965 L130.2984924,35.6309967 C128.5954895,35.6829987 127.1654968,35.7089996 125.9954987,35.7089996 C125.4104996,35.7089996 124.7214966,35.6959991 123.9284973,35.6959991 C123.1224976,35.6959991 122.498497,35.6049957 122.0824966,35.4489899 C121.8615036,35.344986 121.6405029,35.2279968 121.4195023,35.0979919 C121.3675003,35.0589905 121.3024979,35.0329895 121.2375031,35.0069885 C121.4585037,34.6169891 121.6535034,34.1229858 121.8095016,33.5249939 L121.8095016,32.9789886 L120.2494965,32.9789886 C120.8215027,32.4979858 121.3284988,32.0169983 121.7705002,31.522995 L121.7705002,30.8600006 L118.8454971,30.8600006 L118.8454971,31.6399994 L120.7174988,31.6399994 C120.3014984,32.0820007 119.7685013,32.5499878 119.1315002,33.0439911 L119.1315002,33.6549988 L120.9905014,33.6549988 C120.8604965,34.1359863 120.6524963,34.5649872 120.3925018,34.9419861 C119.9505005,35.04599 119.4175034,35.4749908 118.8065033,36.2159882 L119.3655014,36.7879944 C119.9765015,36.0079956 120.4055023,35.6179962 120.6654968,35.6179962 C120.7825012,35.6179962 120.8864975,35.6439972 120.9905014,35.7220001 C121.2505035,35.8909912 121.510498,36.0339966 121.7835007,36.1380005 C122.3164978,36.3199921 123.0055008,36.4109955 123.850502,36.423996 C124.6825027,36.423996 125.4235001,36.4369965 126.0995026,36.4369965 L126.6975021,36.4369965 L126.6975021,37.1909943 L118.6504974,37.1909943 L118.6504974,37.996994 L126.6975021,37.996994 L126.6975021,39.2059937 C126.6975021,39.4919891 126.5415039,39.647995 126.2555008,39.647995 C125.8134995,39.647995 125.3584976,39.621994 124.8905029,39.5829926 L125.0855026,40.4539948 Z M121.4714966,38.0359955 L120.899498,38.594986 C121.7314987,39.1539917 122.3945007,39.6869965 122.8755035,40.1809998 L123.4865036,39.5699921 C122.9404984,39.0499878 122.2774963,38.5429993 121.4714966,38.0359955 Z M135.0305023,33.1999969 L135.0305023,37.75 L139.8274994,37.75 L139.8274994,33.1999969 Z M138.917511,36.8659973 L135.9404907,36.8659973 L135.9404907,34.0839996 L138.917511,34.0839996 Z M136.5644989,28.5329895 C136.4215088,29.2089996 136.2005005,29.845993 135.8884888,30.469986 L132.3135071,30.469986 L132.3135071,40.4669952 L133.2494965,40.4669952 L133.2494965,31.3669891 L141.6734924,31.3669891 L141.6734924,38.9329987 C141.6734924,39.3099976 141.4785004,39.5049896 141.114502,39.5049896 L139.2164917,39.4659882 L139.4765015,40.4149933 L141.4264984,40.4149933 C142.2064972,40.4149933 142.6094971,39.9859924 142.6094971,39.1409912 L142.6094971,30.469986 L136.8764954,30.469986 C137.1625061,29.9109955 137.3834991,29.3129883 137.5394897,28.6629944 Z M143.9095001,39.1929932" style="fill:rgb(23,55,94);stroke:none" clip-path="url(#clip43)" />
</svg>
