<?xml version="1.0" encoding="UTF-8"?>
<!DOCTYPE svg PUBLIC "-//W3C//DTD SVG 1.1//EN" "http://www.w3.org/Graphics/SVG/1.1/DTD/svg11.dtd">
<svg version="1.2" xmlns="http://www.w3.org/2000/svg" xmlns:xlink="http://www.w3.org/1999/xlink" x="0" y="0" width="418" height="345" viewBox="0 0 418 345">
<style type="text/css"><![CDATA[
text { font:12px Dialog; }
]]></style>
<rect x="-485" y="-485" width="1388" height="1315" style="fill:rgb(255,255,255);stroke:none" />
<clipPath id="clip1"><path d="M15,15 L403,15 L403,330 L15,330 Z M170,141 C165.5817261,141 162,144.5817261 162,149 L162,194 C162,198.4182739 165.5817261,202 170,202 L260,202 C264.4182739,202 268,198.4182739 268,194 L268,149 C268,144.5817261 264.4182739,141 260,141 Z M170,141" /></clipPath>
<path d="M227.421814,141 C237.1058655,69.6666641 251.6319275,34 271,34" style="fill:none;stroke:rgb(85,142,213)" clip-path="url(#clip1)" />
<clipPath id="clip2"><path d="M15,15 L403,15 L403,330 L15,330 Z M170,141 C165.5817261,141 162,144.5817261 162,149 L162,194 C162,198.4182739 165.5817261,202 170,202 L260,202 C264.4182739,202 268,198.4182739 268,194 L268,149 C268,144.5817261 264.4182739,141 260,141 Z M170,141" /></clipPath>
<path d="M261.7518311,141 C274.6958618,115.6666718 294.1119385,103 320,103" style="fill:none;stroke:rgb(85,142,213)" clip-path="url(#clip2)" />
<clipPath id="clip3"><path d="M15,15 L403,15 L403,330 L15,330 Z M170,141 C165.5817261,141 162,144.5817261 162,149 L162,194 C162,198.4182739 165.5817261,202 170,202 L260,202 C264.4182739,202 268,198.4182739 268,194 L268,149 C268,144.5817261 264.4182739,141 260,141 Z M170,141" /></clipPath>
<path d="M268,171.7265015 C282.222229,171.9088287 303.555542,172 332,172" style="fill:none;stroke:rgb(85,142,213)" clip-path="url(#clip3)" />
<clipPath id="clip4"><path d="M15,15 L403,15 L403,330 L15,330 Z M170,141 C165.5817261,141 162,144.5817261 162,149 L162,194 C162,198.4182739 165.5817261,202 170,202 L260,202 C264.4182739,202 268,198.4182739 268,194 L268,149 C268,144.5817261 264.4182739,141 260,141 Z M170,141" /></clipPath>
<path d="M261.0791321,202 C274.1726685,228 293.8129578,241 320,241" style="fill:none;stroke:rgb(85,142,213)" clip-path="url(#clip4)" />
<clipPath id="clip5"><path d="M15,15 L403,15 L403,330 L15,330 Z M170,141 C165.5817261,141 162,144.5817261 162,149 L162,194 C162,198.4182739 165.5817261,202 170,202 L260,202 C264.4182739,202 268,198.4182739 268,194 L268,149 C268,144.5817261 264.4182739,141 260,141 Z M170,141" /></clipPath>
<path d="M227.3321228,202 C237.0361023,274 251.5920563,310 271,310" style="fill:none;stroke:rgb(85,142,213)" clip-path="url(#clip5)" />
<clipPath id="clip6"><path d="M15,15 L403,15 L403,330 L15,330 Z M170,141 C165.5817261,141 162,144.5817261 162,149 L162,194 C162,198.4182739 165.5817261,202 170,202 L260,202 C264.4182739,202 268,198.4182739 268,194 L268,149 C268,144.5817261 264.4182739,141 260,141 Z M170,141" /></clipPath>
<path d="M202.4476471,202 C192.5704041,274 177.7545166,310 158,310" style="fill:none;stroke:rgb(85,142,213)" clip-path="url(#clip6)" />
<clipPath id="clip7"><path d="M15,15 L403,15 L403,330 L15,330 Z M170,141 C165.5817261,141 162,144.5817261 162,149 L162,194 C162,198.4182739 165.5817261,202 170,202 L260,202 C264.4182739,202 268,198.4182739 268,194 L268,149 C268,144.5817261 264.4182739,141 260,141 Z M170,141" /></clipPath>
<path d="M168.4820099,202 C155.2637939,228 135.4364624,241 109,241" style="fill:none;stroke:rgb(85,142,213)" clip-path="url(#clip7)" />
<clipPath id="clip8"><path d="M15,15 L403,15 L403,330 L15,330 Z M170,141 C165.5817261,141 162,144.5817261 162,149 L162,194 C162,198.4182739 165.5817261,202 170,202 L260,202 C264.4182739,202 268,198.4182739 268,194 L268,149 C268,144.5817261 264.4182739,141 260,141 Z M170,141" /></clipPath>
<path d="M162,171.7245789 C147.5555573,171.9081879 125.8888931,172 97,172" style="fill:none;stroke:rgb(85,142,213)" clip-path="url(#clip8)" />
<clipPath id="clip9"><path d="M15,15 L403,15 L403,330 L15,330 Z M170,141 C165.5817261,141 162,144.5817261 162,149 L162,194 C162,198.4182739 165.5817261,202 170,202 L260,202 C264.4182739,202 268,198.4182739 268,194 L268,149 C268,144.5817261 264.4182739,141 260,141 Z M170,141" /></clipPath>
<path d="M167.8029175,141 C154.735611,115.6666718 135.1346436,103 109,103" style="fill:none;stroke:rgb(85,142,213)" clip-path="url(#clip9)" />
<clipPath id="clip10"><path d="M15,15 L403,15 L403,330 L15,330 Z M170,141 C165.5817261,141 162,144.5817261 162,149 L162,194 C162,198.4182739 165.5817261,202 170,202 L260,202 C264.4182739,202 268,198.4182739 268,194 L268,149 C268,144.5817261 264.4182739,141 260,141 Z M170,141" /></clipPath>
<path d="M202.356369,141 C192.4993896,69.6666641 177.7139435,34 158,34" style="fill:none;stroke:rgb(85,142,213)" clip-path="url(#clip10)" />
<clipPath id="clip11"><path d="M158,137 L273,137 L273,207 L158,207 L158,137 Z" /></clipPath>
<path d="M170,141 C165.5817261,141 162,144.5817261 162,149 L162,194 C162,198.4182739 165.5817261,202 170,202 L260,202 C264.4182739,202 268,198.4182739 268,194 L268,149 C268,144.5817261 264.4182739,141 260,141 Z M170,141" style="fill:rgb(220,230,242);stroke:none" clip-path="url(#clip11)" />
<clipPath id="clip12"><path d="M158,137 L273,137 L273,207 L158,207 L158,137 Z" /></clipPath>
<path d="M170,141 C165.5817261,141 162,144.5817261 162,149 L162,194 C162,198.4182739 165.5817261,202 170,202 L260,202 C264.4182739,202 268,198.4182739 268,194 L268,149 C268,144.5817261 264.4182739,141 260,141 Z M170,141" style="fill:none;stroke:rgb(85,142,213);stroke-width:5" clip-path="url(#clip12)" />
<clipPath id="clip13"><path d="M194,157 L237,157 L237,187 L194,187 L194,157 Z" /></clipPath>
<path d="M199.173996,164.3049927 L199.173996,165.9609985 L200.7940063,165.9609985 L200.7940063,168.1390076 L198.7059937,168.1390076 L198.7059937,169.8670044 L200.6860046,169.8670044 C200.4700012,171.0549927 199.9660034,171.9730072 199.1380005,172.6029968 L200.5599976,173.8450012 C201.6399994,172.9450073 202.3059998,171.6309967 202.5220032,169.8670044 L204.3939972,169.8670044 L204.3939972,173.6289978 L206.1940002,173.6289978 L206.1940002,169.8670044 L208.2460022,169.8670044 L208.2460022,168.1390076 L206.1940002,168.1390076 L206.1940002,165.9609985 L207.8500061,165.9609985 L207.8500061,164.3049927 Z M202.6119995,165.9609985 L204.3939972,165.9609985 L204.3939972,168.1390076 L202.6119995,168.1390076 Z M208.9300079,164.8990021 L208.9300079,171.0549927 L210.7120056,171.0549927 L210.7120056,164.8990021 Z M199.6419983,175.0330048 L199.6419983,176.7610016 L205.7440033,176.7610016 L205.7440033,178.2550049 L198.6340027,178.2550049 L198.6340027,179.9649963 L214.5820007,179.9649963 L214.5820007,178.2550049 L207.6159973,178.2550049 L207.6159973,176.7610016 L213.5919952,176.7610016 L213.5919952,175.0330048 L207.6159973,175.0330048 L207.6159973,173.8269958 L205.7440033,173.8269958 L205.7440033,175.0330048 Z M212.2779999,173.8630066 C213.4120026,173.8630066 213.9880066,173.1790009 213.9880066,171.8110046 L213.9880066,163.9089966 L212.1699982,163.9089966 L212.1699982,171.3609924 C212.1699982,171.9369965 211.9900055,172.2250061 211.647995,172.2250061 C210.9640045,172.2250061 210.2259979,172.1710052 209.4519958,172.098999 L209.8659973,173.8630066 Z M217.3000031,164.2689972 L217.3000031,170.4609985 L218.7940063,170.4609985 C218.7039948,172.7830048 218.5059967,174.4750061 218.1820068,175.5549927 C217.8040009,176.7610016 217.173996,177.8049927 216.2740021,178.6869965 L217.4980011,180.2709961 C218.6139984,179.1549988 219.3880005,177.8769989 219.8560028,176.401001 C220.0540009,175.7350006 220.2160034,174.8710022 220.3600006,173.8269958 L223.5639954,173.8269958 C223.5279999,175.8430023 223.473999,177.0130005 223.3840027,177.3730011 C223.2220001,178.0930023 222.6820068,178.470993 221.7640076,178.470993 C221.2960052,178.470993 220.7559967,178.4349976 220.1260071,178.3990021 L220.5400085,180.0010071 C221.2599945,180.072998 221.7640076,180.1089935 222.052002,180.1089935 C223.8880005,180.1089935 224.9140015,179.4609985 225.1300049,178.201004 C225.3099976,177.4089966 225.3999939,175.375 225.3999939,172.0630035 L220.5220032,172.0630035 C220.5579987,171.5590057 220.576004,171.0189972 220.6119995,170.4609985 L224.878006,170.4609985 L224.878006,164.2689972 Z M223.0420074,168.6970062 L219.1179962,168.6970062 L219.1179962,166.0330048 L223.0420074,166.0330048 Z M226.7859955,165.2590027 L226.7859955,176.3289948 L228.6220093,176.3289948 L228.6220093,165.2590027 Z M230.404007,180.1629944 C231.6999969,180.1629944 232.3659973,179.4609985 232.3659973,178.0930023 L232.3659973,163.7290039 L230.4940033,163.7290039 L230.4940033,177.6069946 C230.4940033,178.1829987 230.2420044,178.4889984 229.7559967,178.4889984 C229.0180054,178.4889984 228.2259979,178.4530029 227.397995,178.3809967 L227.8119965,180.1629944 Z M233.6080017,178.4530029" style="fill:rgb(55,96,146);stroke:none" clip-path="url(#clip13)" />
<clipPath id="clip14"><path d="M269,14 L364,14 L364,55 L269,55 L269,14 Z" /></clipPath>
<path d="M276,16 C273.2385864,16 271,18.2385712 271,21 L271,47 C271,49.7614288 273.2385864,52 276,52 L356,52 C358.7614136,52 361,49.7614288 361,47 L361,21 C361,18.2385712 358.7614136,16 356,16 Z M276,16" style="fill:rgb(220,230,242);stroke:none" clip-path="url(#clip14)" />
<clipPath id="clip15"><path d="M269,14 L364,14 L364,55 L269,55 L269,14 Z" /></clipPath>
<path d="M276,16 C273.2385864,16 271,18.2385712 271,21 L271,47 C271,49.7614288 273.2385864,52 276,52 L356,52 C358.7614136,52 361,49.7614288 361,47 L361,21 C361,18.2385712 358.7614136,16 356,16 Z M276,16" style="fill:none;stroke:rgb(85,142,213);stroke-width:2" clip-path="url(#clip15)" />
<clipPath id="clip16"><path d="M283,23 L350,23 L350,46 L283,46 L283,23 Z" /></clipPath>
<path d="M286.3308105,39.375 L286.3308105,30.0947266 L287.4099121,30.0947266 L287.4099121,39.375 Z M294.9328613,39.375 L294.9328613,34.8745117 C294.9328613,34.3074493 294.8038025,33.8842773 294.5456543,33.6049805 C294.2875061,33.3256836 293.8833923,33.1860352 293.333252,33.1860352 C292.6053772,33.1860352 292.0722046,33.3828125 291.7336426,33.7763672 C291.3950806,34.1699219 291.2258301,34.8194885 291.2258301,35.7250977 L291.2258301,39.375 L290.1721191,39.375 L290.1721191,32.4179688 L291.0290527,32.4179688 L291.2004395,33.3701172 L291.2512207,33.3701172 C291.467041,33.0273438 291.7695923,32.761795 292.1589355,32.5734863 C292.5482788,32.3851776 292.9819946,32.2910156 293.4602051,32.2910156 C294.2980957,32.2910156 294.9286194,32.4930878 295.3518066,32.8972168 C295.7749939,33.3013458 295.9865723,33.9477539 295.9865723,34.8364258 L295.9865723,39.375 Z M300.4191895,38.6323242 C300.6053772,38.6323242 300.7852478,38.618576 300.9587402,38.5910645 C301.1322327,38.5635529 301.2697754,38.5349884 301.3713379,38.5053711 L301.3713379,39.3115234 C301.2570801,39.3665314 301.0888672,39.4120331 300.8666992,39.447998 C300.6445313,39.483963 300.4445801,39.5019531 300.2668457,39.5019531 C298.9211426,39.5019531 298.248291,38.7931366 298.248291,37.3754883 L298.248291,33.2368164 L297.251709,33.2368164 L297.251709,32.7290039 L298.248291,32.2910156 L298.692627,30.8056641 L299.302002,30.8056641 L299.302002,32.4179688 L301.3205566,32.4179688 L301.3205566,33.2368164 L299.302002,33.2368164 L299.302002,37.3310547 C299.302002,37.75 299.4014587,38.0716095 299.6003418,38.2958984 C299.7992249,38.5201874 300.0721741,38.6323242 300.4191895,38.6323242 Z M306.111084,39.5019531 C305.0827637,39.5019531 304.2713318,39.1888123 303.6767578,38.5625 C303.0821838,37.9361877 302.7849121,37.0665741 302.7849121,35.9536133 C302.7849121,34.8321838 303.0610352,33.9414063 303.6132813,33.28125 C304.1655273,32.6210938 304.907135,32.2910156 305.8381348,32.2910156 C306.7098999,32.2910156 307.3996582,32.577713 307.9074707,33.151123 C308.4152832,33.7245331 308.6691895,34.480957 308.6691895,35.4204102 L308.6691895,36.0869141 L303.876709,36.0869141 C303.8978577,36.903656 304.1041565,37.5236053 304.4956055,37.9467773 C304.8870544,38.3699493 305.4382324,38.581543 306.1491699,38.581543 C306.8981934,38.581543 307.6387329,38.4249725 308.3708496,38.1118164 L308.3708496,39.0512695 C307.9984436,39.2120819 307.6461792,39.3273926 307.3139648,39.3972168 C306.9817505,39.467041 306.5808105,39.5019531 306.111084,39.5019531 Z M305.8254395,33.1733398 C305.2668457,33.1733398 304.8214722,33.3553009 304.4892578,33.7192383 C304.1570435,34.0831757 303.9613342,34.5867462 303.9020996,35.2299805 L307.5393066,35.2299805 C307.5393066,34.5655823 307.3912048,34.0567169 307.0949707,33.7033691 C306.7987366,33.3500214 306.3755798,33.1733398 305.8254395,33.1733398 Z M311.2258301,39.375 L310.1721191,39.375 L310.1721191,29.4980469 L311.2258301,29.4980469 Z M314.2258301,39.375 L313.1721191,39.375 L313.1721191,29.4980469 L314.2258301,29.4980469 Z M317.2258301,39.375 L316.1721191,39.375 L316.1721191,32.4179688 L317.2258301,32.4179688 Z M316.083252,30.5327148 C316.083252,30.2915039 316.1424866,30.1148224 316.2609863,30.0026855 C316.3794861,29.8905487 316.5275879,29.8344727 316.7053223,29.8344727 C316.8746033,29.8344727 317.0205994,29.8916016 317.1433105,30.0058594 C317.2660217,30.1201172 317.3273926,30.2957306 317.3273926,30.5327148 C317.3273926,30.7696991 317.2660217,30.9463654 317.1433105,31.0627441 C317.0205994,31.1791229 316.8746033,31.2373047 316.7053223,31.2373047 C316.5275879,31.2373047 316.3794861,31.1791229 316.2609863,31.0627441 C316.1424866,30.9463654 316.083252,30.7696991 316.083252,30.5327148 Z M323.6599121,37.4770508 C323.6599121,38.1245117 323.4187012,38.6238556 322.9362793,38.9750977 C322.4538574,39.3263397 321.7767944,39.5019531 320.9050293,39.5019531 C319.9824829,39.5019531 319.2631226,39.355957 318.7468262,39.0639648 L318.7468262,38.0864258 C319.0811462,38.2556915 319.4397583,38.3889923 319.8227539,38.4863281 C320.2057495,38.5836639 320.5749512,38.6323242 320.9304199,38.6323242 C321.4805603,38.6323242 321.903717,38.5445099 322.1999512,38.3688965 C322.4961853,38.1932831 322.6442871,37.9256134 322.6442871,37.565918 C322.6442871,37.2950897 322.5268555,37.0634003 322.2919922,36.8708496 C322.0571289,36.678299 321.5990601,36.4508514 320.9177246,36.1884766 C320.2702637,35.9472656 319.8100586,35.7367401 319.5371094,35.5568848 C319.2641602,35.3770294 319.0610352,35.1728516 318.9277344,34.9443359 C318.7944336,34.7158203 318.7277832,34.4428711 318.7277832,34.1254883 C318.7277832,33.5584259 318.9584045,33.1109161 319.4196777,32.782959 C319.8809509,32.4550018 320.5135803,32.2910156 321.317627,32.2910156 C322.0666504,32.2910156 322.7987366,32.4433594 323.513916,32.7480469 L323.1394043,33.6049805 C322.4411621,33.317215 321.8085327,33.1733398 321.2414551,33.1733398 C320.7420959,33.1733398 320.3654785,33.2516327 320.1115723,33.4082031 C319.857666,33.5647736 319.7307129,33.7805939 319.7307129,34.0556641 C319.7307129,34.2418671 319.7783203,34.4005585 319.8735352,34.5317383 C319.96875,34.6629181 320.1221619,34.7877655 320.3337402,34.90625 C320.5453186,35.0247345 320.9515686,35.1961212 321.5524902,35.4204102 C322.3776855,35.720871 322.9352112,36.0234375 323.2250977,36.328125 C323.5149841,36.6328125 323.6599121,37.0157928 323.6599121,37.4770508 Z M328.111084,39.5019531 C327.0827637,39.5019531 326.2713318,39.1888123 325.6767578,38.5625 C325.0821838,37.9361877 324.7849121,37.0665741 324.7849121,35.9536133 C324.7849121,34.8321838 325.0610352,33.9414063 325.6132813,33.28125 C326.1655273,32.6210938 326.907135,32.2910156 327.8381348,32.2910156 C328.7098999,32.2910156 329.3996582,32.577713 329.9074707,33.151123 C330.4152832,33.7245331 330.6691895,34.480957 330.6691895,35.4204102 L330.6691895,36.0869141 L325.876709,36.0869141 C325.8978577,36.903656 326.1041565,37.5236053 326.4956055,37.9467773 C326.8870544,38.3699493 327.4382324,38.581543 328.1491699,38.581543 C328.8981934,38.581543 329.6387329,38.4249725 330.3708496,38.1118164 L330.3708496,39.0512695 C329.9984436,39.2120819 329.6461792,39.3273926 329.3139648,39.3972168 C328.9817505,39.467041 328.5808105,39.5019531 328.111084,39.5019531 Z M327.8254395,33.1733398 C327.2668457,33.1733398 326.8214722,33.3553009 326.4892578,33.7192383 C326.1570435,34.0831757 325.9613342,34.5867462 325.9020996,35.2299805 L329.5393066,35.2299805 C329.5393066,34.5655823 329.3912048,34.0567169 329.0949707,33.7033691 C328.7987366,33.3500214 328.3755798,33.1733398 327.8254395,33.1733398 Z M336.9328613,39.375 L336.9328613,34.8745117 C336.9328613,34.3074493 336.8038025,33.8842773 336.5456543,33.6049805 C336.2875061,33.3256836 335.8833923,33.1860352 335.333252,33.1860352 C334.6053772,33.1860352 334.0722046,33.3828125 333.7336426,33.7763672 C333.3950806,34.1699219 333.2258301,34.8194885 333.2258301,35.7250977 L333.2258301,39.375 L332.1721191,39.375 L332.1721191,32.4179688 L333.0290527,32.4179688 L333.2004395,33.3701172 L333.2512207,33.3701172 C333.467041,33.0273438 333.7695923,32.761795 334.1589355,32.5734863 C334.5482788,32.3851776 334.9819946,32.2910156 335.4602051,32.2910156 C336.2980957,32.2910156 336.9286194,32.4930878 337.3518066,32.8972168 C337.7749939,33.3013458 337.9865723,33.9477539 337.9865723,34.8364258 L337.9865723,39.375 Z M343.111084,39.5019531 C342.0827637,39.5019531 341.2713318,39.1888123 340.6767578,38.5625 C340.0821838,37.9361877 339.7849121,37.0665741 339.7849121,35.9536133 C339.7849121,34.8321838 340.0610352,33.9414063 340.6132813,33.28125 C341.1655273,32.6210938 341.907135,32.2910156 342.8381348,32.2910156 C343.7098999,32.2910156 344.3996582,32.577713 344.9074707,33.151123 C345.4152832,33.7245331 345.6691895,34.480957 345.6691895,35.4204102 L345.6691895,36.0869141 L340.876709,36.0869141 C340.8978577,36.903656 341.1041565,37.5236053 341.4956055,37.9467773 C341.8870544,38.3699493 342.4382324,38.581543 343.1491699,38.581543 C343.8981934,38.581543 344.6387329,38.4249725 345.3708496,38.1118164 L345.3708496,39.0512695 C344.9984741,39.2120819 344.6461792,39.3273926 344.3139648,39.3972168 C343.9817505,39.467041 343.5808105,39.5019531 343.111084,39.5019531 Z M342.8254395,33.1733398 C342.2668457,33.1733398 341.8214722,33.3553009 341.4892578,33.7192383 C341.1570435,34.0831757 340.9613342,34.5867462 340.9020996,35.2299805 L344.5393066,35.2299805 C344.5393066,34.5655823 344.3911743,34.0567169 344.0949707,33.7033691 C343.7987671,33.3500214 343.3755798,33.1733398 342.8254395,33.1733398 Z M346.3483887,39.375" style="fill:rgb(23,55,94);stroke:none" clip-path="url(#clip16)" />
<clipPath id="clip17"><path d="M318,83 L404,83 L404,124 L318,124 L318,83 Z" /></clipPath>
<path d="M325,85 C322.2385864,85 320,87.2385712 320,90 L320,116 C320,118.7614288 322.2385864,121 325,121 L396,121 C398.7614136,121 401,118.7614288 401,116 L401,90 C401,87.2385712 398.7614136,85 396,85 Z M325,85" style="fill:rgb(220,230,242);stroke:none" clip-path="url(#clip17)" />
<clipPath id="clip18"><path d="M318,83 L404,83 L404,124 L318,124 L318,83 Z" /></clipPath>
<path d="M325,85 C322.2385864,85 320,87.2385712 320,90 L320,116 C320,118.7614288 322.2385864,121 325,121 L396,121 C398.7614136,121 401,118.7614288 401,116 L401,90 C401,87.2385712 398.7614136,85 396,85 Z M325,85" style="fill:none;stroke:rgb(85,142,213);stroke-width:2" clip-path="url(#clip18)" />
<clipPath id="clip19"><path d="M332,92 L390,92 L390,115 L332,115 L332,92 Z" /></clipPath>
<path d="M335.6115112,98.1699982 L335.6115112,99.0019989 L336.9375,99.0019989 L336.9375,100.9520035 L335.2734985,100.9520035 L335.2734985,101.8099976 L336.885498,101.8099976 C336.7554932,102.8759995 336.3265076,103.6689987 335.5985107,104.215004 L336.3005066,104.826004 C337.1585083,104.1500015 337.6524963,103.1490021 337.7955017,101.8099976 L339.4985046,101.8099976 L339.4985046,104.6699982 L340.4085083,104.6699982 L340.4085083,101.8099976 L342.0075073,101.8099976 L342.0075073,100.9520035 L340.4085083,100.9520035 L340.4085083,99.0019989 L341.7214966,99.0019989 L341.7214966,98.1699982 Z M337.8345032,99.0019989 L339.4985046,99.0019989 L339.4985046,100.9520035 L337.8345032,100.9520035 Z M342.7745056,98.4690018 L342.7745056,102.9410019 L343.6715088,102.9410019 L343.6715088,98.4690018 Z M335.9234924,105.9440002 L335.9234924,106.802002 L340.4865112,106.802002 L340.4865112,108.322998 L335.1954956,108.322998 L335.1954956,109.1809998 L346.6094971,109.1809998 L346.6094971,108.322998 L341.4224854,108.322998 L341.4224854,106.802002 L345.8945007,106.802002 L345.8945007,105.9440002 L341.4224854,105.9440002 L341.4224854,104.8130035 L340.4865112,104.8130035 L340.4865112,105.9440002 Z M344.9844971,104.7870026 C345.6734924,104.7870026 346.0244751,104.3840027 346.0244751,103.5910034 L346.0244751,97.7539978 L345.1275024,97.7539978 L345.1275024,103.3700027 C345.1275024,103.7600021 344.9714966,103.9680023 344.6724854,103.9680023 C344.1524963,103.9680023 343.6195068,103.9420013 343.0474854,103.9029999 L343.2424927,104.7870026 Z M348.7545166,98.1050034 L348.7545166,102.2910004 L349.8984985,102.2910004 C349.8464966,104.1110001 349.6904907,105.4370041 349.430481,106.2819977 C349.1445007,107.1920013 348.6505127,107.9850006 347.9744873,108.6480026 L348.5725098,109.4150009 C349.3654785,108.6480026 349.9244995,107.737999 350.2625122,106.6849976 C350.4185181,106.1650009 350.5484924,105.5019989 350.6524963,104.6699982 L353.3825073,104.6699982 C353.3565063,106.3209991 353.3175049,107.3089981 353.239502,107.6470032 C353.1094971,108.2190018 352.6674805,108.5050049 351.8875122,108.5050049 C351.5494995,108.5050049 351.1594849,108.4920044 350.7174988,108.4660034 L350.9254761,109.2720032 C351.4324951,109.2980042 351.7965088,109.3240051 352.0045166,109.3240051 C353.2655029,109.3240051 353.9674988,108.8820038 354.1104736,107.9980011 C354.2404785,107.4520035 354.305481,106.0480042 354.305481,103.7860031 L350.7304993,103.7860031 C350.7565002,103.3310013 350.7825012,102.836998 350.8085022,102.2910004 L353.9674988,102.2910004 L353.9674988,98.1050034 Z M353.0574951,101.4069977 L349.6644897,101.4069977 L349.6644897,98.9889984 L353.0574951,98.9889984 Z M355.6705017,98.7290039 L355.6705017,106.8280029 L356.5805054,106.8280029 L356.5805054,98.7290039 Z M358.1535034,109.3889999 C358.9335022,109.3889999 359.3364868,108.9470062 359.3364868,108.0890045 L359.3364868,97.6240005 L358.4135132,97.6240005 L358.4135132,107.8550034 C358.4135132,108.322998 358.2185059,108.5570068 357.8284912,108.5570068 C357.2825012,108.5570068 356.6975098,108.5310059 356.0734863,108.4920044 L356.2814941,109.3889999 Z M361.1174927,100.1330032 L361.1174927,101.0299988 L362.7164917,101.0299988 C362.352478,102.7200012 361.7675171,104.2410049 360.9354858,105.5670013 L361.338501,106.5940018 C361.8974915,105.5930023 362.352478,104.5009995 362.7164917,103.3050003 L362.7164917,109.4410019 L363.6524963,109.4410019 L363.6524963,102.6809998 C363.9384766,103.1490021 364.2894897,103.7600021 364.6925049,104.5139999 L365.2254944,103.7210007 C364.6925049,102.9930038 364.1724854,102.3430023 363.6524963,101.7580032 L363.6524963,101.0299988 L364.9265137,101.0299988 L364.9265137,100.1330032 L363.6524963,100.1330032 L363.6524963,97.5979996 L362.7164917,97.5979996 L362.7164917,100.1330032 Z M366.694519,100.5880051 L366.694519,101.1600037 L370.9194946,101.1600037 L370.9194946,100.5100021 C371.3355103,100.7959976 371.7904968,101.0559998 372.3104858,101.3030014 L372.8045044,100.5490036 C371.114502,99.7170029 369.9185181,98.7679977 369.2164917,97.6760025 L368.4364929,97.6760025 C367.6304932,98.8460007 366.4735107,99.8079987 364.9655151,100.5490036 L365.4595032,101.3030014 C365.8884888,101.0950012 366.3045044,100.8479996 366.694519,100.5880051 Z M370.6594849,100.3280029 L367.0455017,100.3280029 C367.7214966,99.8209991 368.3065186,99.2099991 368.8264771,98.5080032 C369.2814941,99.1709976 369.8925171,99.7819977 370.6594849,100.3280029 Z M369.3594971,102.0830002 L369.3594971,105.3199997 L372.2194824,105.3199997 L372.2194824,102.0830002 Z M371.4395142,104.5790024 L370.1394958,104.5790024 L370.1394958,102.836998 L371.4395142,102.836998 Z M367.1104736,107.5299988 C367.5004883,107.8680038 367.838501,108.1930008 368.0985107,108.5050049 L368.6835022,107.9199982 C368.3454895,107.5820007 367.9295044,107.2570038 367.4614868,106.9189987 C367.6044922,106.6330032 367.7474976,106.3209991 367.8905029,105.9960022 L367.1234741,105.6839981 C366.6035156,106.9970016 365.8234863,108.0500031 364.8095093,108.8300018 L365.4465027,109.3889999 C366.0704956,108.9080048 366.6165161,108.2839966 367.1104736,107.5299988 Z M370.4124756,107.737999 C371.1405029,108.2969971 371.7384949,108.8300018 372.1934814,109.3500061 L372.7915039,108.7389984 C372.2454834,108.1930008 371.569519,107.6600037 370.7894897,107.1139984 C370.9714966,106.802002 371.1405029,106.451004 371.3095093,106.0739975 L370.5424805,105.762001 C370.0224915,107.0620041 369.2424927,108.0890045 368.2285156,108.8560028 L368.878479,109.4150009 C369.4505005,108.9729996 369.957489,108.4140015 370.4124756,107.737999 Z M365.65448,102.0830002 L365.65448,105.3199997 L368.4884949,105.3199997 L368.4884949,102.0830002 Z M367.7214966,104.5790024 L366.4215088,104.5790024 L366.4215088,102.836998 L367.7214966,102.836998 Z M376.0415039,102.4599991 L376.0415039,107.2440033 L383.8154907,107.2440033 L383.8154907,102.4599991 L380.3834839,102.4599991 L380.3834839,100.7180023 C382.0344849,101.237999 383.6464844,101.848999 385.2064819,102.5250015 L385.8045044,101.848999 C384.1925049,101.1989975 382.385498,100.6009979 380.3834839,100.0550003 L380.3834839,99.612999 L385.2714844,99.612999 L385.2714844,98.7550049 L380.3834839,98.7550049 L380.3834839,97.5589981 L379.4735107,97.5589981 L379.4735107,98.7550049 L374.5855103,98.7550049 L374.5855103,99.612999 L378.6674805,99.612999 C377.6535034,100.5230026 376.0935059,101.2900009 373.9874878,101.8880005 L374.4815063,102.7200012 C376.7695007,101.9140015 378.4335022,100.8740005 379.4475098,99.612999 L379.4735107,99.612999 L379.4735107,102.4599991 Z M382.9055176,106.4120026 L376.9514771,106.4120026 L376.9514771,105.2679977 L382.9055176,105.2679977 Z M376.9514771,104.4749985 L376.9514771,103.2919998 L382.9055176,103.2919998 L382.9055176,104.4749985 Z M374.3255005,108.2579956 L374.3255005,109.1289978 L385.4924927,109.1289978 L385.4924927,108.2579956 Z M386.4024963,108.2060013" style="fill:rgb(23,55,94);stroke:none" clip-path="url(#clip19)" />
<clipPath id="clip20"><path d="M330,152 L389,152 L389,193 L330,193 L330,152 Z" /></clipPath>
<path d="M337,154 C334.2385864,154 332,156.2385712 332,159 L332,185 C332,187.7614288 334.2385864,190 337,190 L381,190 C383.7614136,190 386,187.7614288 386,185 L386,159 C386,156.2385712 383.7614136,154 381,154 Z M337,154" style="fill:rgb(220,230,242);stroke:none" clip-path="url(#clip20)" />
<clipPath id="clip21"><path d="M330,152 L389,152 L389,193 L330,193 L330,152 Z" /></clipPath>
<path d="M337,154 C334.2385864,154 332,156.2385712 332,159 L332,185 C332,187.7614288 334.2385864,190 337,190 L381,190 C383.7614136,190 386,187.7614288 386,185 L386,159 C386,156.2385712 383.7614136,154 381,154 Z M337,154" style="fill:none;stroke:rgb(85,142,213);stroke-width:2" clip-path="url(#clip21)" />
<clipPath id="clip22"><path d="M344,161 L375,161 L375,184 L344,184 L344,161 Z" /></clipPath>
<path d="M350.7333984,177.1401367 L349.6542969,177.1401367 L349.6542969,168.8183594 L346.715332,168.8183594 L346.715332,167.8598633 L353.6723633,167.8598633 L353.6723633,168.8183594 L350.7333984,168.8183594 Z M362.284668,172.4111328 C362.284668,173.9430389 361.8688965,175.1141663 361.0373535,175.9245605 C360.2058105,176.7349548 359.0092773,177.1401367 357.4477539,177.1401367 L354.8769531,177.1401367 L354.8769531,167.8598633 L357.7207031,167.8598633 C359.1637573,167.8598633 360.2851563,168.2597656 361.0849609,169.0595703 C361.8847656,169.859375 362.284668,170.9765625 362.284668,172.4111328 Z M361.1420898,172.4492188 C361.1420898,171.2389221 360.8384705,170.3269958 360.2312012,169.7133789 C359.6239319,169.099762 358.7215271,168.7929688 357.5239258,168.7929688 L355.9560547,168.7929688 L355.9560547,176.2070313 L357.2700195,176.2070313 C358.556488,176.2070313 359.5234375,175.8907166 360.1708984,175.2580566 C360.8183594,174.6253967 361.1420898,173.6891327 361.1420898,172.4492188 Z M371.284668,172.4111328 C371.284668,173.9430389 370.8688965,175.1141663 370.0373535,175.9245605 C369.2058105,176.7349548 368.0092773,177.1401367 366.4477539,177.1401367 L363.8769531,177.1401367 L363.8769531,167.8598633 L366.7207031,167.8598633 C368.1637573,167.8598633 369.2851563,168.2597656 370.0849609,169.0595703 C370.8847656,169.859375 371.284668,170.9765625 371.284668,172.4111328 Z M370.1420898,172.4492188 C370.1420898,171.2389221 369.8384705,170.3269958 369.2312012,169.7133789 C368.6239319,169.099762 367.7215271,168.7929688 366.5239258,168.7929688 L364.9560547,168.7929688 L364.9560547,176.2070313 L366.2700195,176.2070313 C367.556488,176.2070313 368.5234375,175.8907166 369.1708984,175.2580566 C369.8183594,174.6253967 370.1420898,173.6891327 370.1420898,172.4492188 Z M372.078125,177.1401367" style="fill:rgb(23,55,94);stroke:none" clip-path="url(#clip22)" />
<clipPath id="clip23"><path d="M318,221 L404,221 L404,262 L318,262 L318,221 Z" /></clipPath>
<path d="M325,223 C322.2385864,223 320,225.2385712 320,228 L320,254 C320,256.7614136 322.2385864,259 325,259 L396,259 C398.7614136,259 401,256.7614136 401,254 L401,228 C401,225.2385712 398.7614136,223 396,223 Z M325,223" style="fill:rgb(220,230,242);stroke:none" clip-path="url(#clip23)" />
<clipPath id="clip24"><path d="M318,221 L404,221 L404,262 L318,262 L318,221 Z" /></clipPath>
<path d="M325,223 C322.2385864,223 320,225.2385712 320,228 L320,254 C320,256.7614136 322.2385864,259 325,259 L396,259 C398.7614136,259 401,256.7614136 401,254 L401,228 C401,225.2385712 398.7614136,223 396,223 Z M325,223" style="fill:none;stroke:rgb(85,142,213);stroke-width:2" clip-path="url(#clip24)" />
<clipPath id="clip25"><path d="M332,230 L390,230 L390,253 L332,253 L332,230 Z" /></clipPath>
<path d="M335.7805176,235.9685059 L335.7805176,238.6725006 L340.3045044,238.6725006 L340.3045044,235.9685059 Z M339.3945007,237.98349 L336.6904907,237.98349 L336.6904907,236.6705017 L339.3945007,236.6705017 Z M341.318512,235.9685059 L341.318512,238.6725006 L345.8294983,238.6725006 L345.8294983,235.9685059 Z M344.9324951,238.009491 L342.2415161,238.009491 L342.2415161,236.6445007 L344.9324951,236.6445007 Z M336.2745056,239.4654999 L336.2745056,243.7814941 L340.3435059,243.7814941 L340.3435059,244.8345032 L335.2084961,244.8345032 L335.2084961,245.6405029 L340.3435059,245.6405029 L340.3435059,247.4475098 L341.3055115,247.4475098 L341.3055115,245.6405029 L346.4274902,245.6405029 L346.4274902,244.8345032 L341.3055115,244.8345032 L341.3055115,243.7814941 L345.3745117,243.7814941 L345.3745117,239.4654999 Z M344.4515076,243.0274963 L341.3055115,243.0274963 L341.3055115,241.9615021 L344.4515076,241.9615021 Z M340.3435059,243.0274963 L337.1975098,243.0274963 L337.1975098,241.9615021 L340.3435059,241.9615021 Z M337.1975098,241.2724915 L337.1975098,240.2194977 L340.3435059,240.2194977 L340.3435059,241.2724915 Z M341.3055115,240.2194977 L344.4515076,240.2194977 L344.4515076,241.2724915 L341.3055115,241.2724915 Z M349.2745056,236.2675018 L349.2745056,237.1774902 L358.2575073,237.1774902 L358.2575073,236.2675018 Z M348.2734985,240.0895081 L348.2734985,240.9994965 L351.6405029,240.9994965 L351.6405029,241.1944885 C351.614502,242.611496 351.3284912,243.7684937 350.8085022,244.6524963 C350.2495117,245.510498 349.2745056,246.1864929 347.8704834,246.7064972 L348.3775024,247.4994965 C349.8204956,246.9664917 350.8605042,246.2254944 351.510498,245.2764893 C352.1605225,244.2494965 352.5115051,242.884491 352.5505066,241.1944885 L352.5505066,240.9994965 L354.8905029,240.9994965 L354.8905029,246.0435028 C354.8905029,246.8495026 355.2935181,247.2525024 356.1124878,247.2525024 L357.9974976,247.2525024 C358.4655151,247.2525024 358.8164978,247.1094971 359.0375061,246.8495026 C359.2974854,246.5505066 359.4664917,245.6925049 359.5574951,244.2754974 L358.6994934,244.0025024 C358.647522,245.1725006 358.5565186,245.8744965 358.4005127,246.10849 C358.2965088,246.3034973 358.1015015,246.4075012 357.8154907,246.4075012 L356.3724976,246.4075012 C355.9824829,246.4075012 355.8005066,246.2124939 355.8005066,245.8485107 L355.8005066,240.9994965 L359.3884888,240.9994965 L359.3884888,240.0895081 Z M361.7415161,235.838501 L361.1174927,236.4364929 C361.897522,237.0605011 362.5214844,237.6585083 362.963501,238.2044983 L363.6004944,237.5675049 C363.1065063,236.9954987 362.4824829,236.4104919 361.7415161,235.838501 Z M361.5725098,239.036499 L360.9484863,239.634491 C361.6765137,240.2714996 362.2615051,240.8695068 362.6904907,241.4414978 L363.3275146,240.8175049 C362.8594971,240.2194977 362.2745056,239.6214905 361.5725098,239.036499 Z M362.6774902,242.5595093 C362.2095032,244.0415039 361.6635132,245.4974976 361.0394897,246.9274902 L361.8845215,247.2785034 C362.4564819,245.9004974 362.989502,244.4315033 363.47052,242.85849 Z M364.0424805,236.0335083 L364.0424805,243.9765015 L368.1505127,243.9765015 L368.1505127,236.0335083 Z M367.2404785,243.1184998 L364.9525146,243.1184998 L364.9525146,241.4674988 L367.2404785,241.4674988 Z M364.9525146,240.6484985 L364.9525146,239.1275024 L367.2404785,239.1275024 L367.2404785,240.6484985 Z M364.9525146,238.2955017 L364.9525146,236.89151 L367.2404785,236.89151 L367.2404785,238.2955017 Z M367.2015076,244.4055023 L366.5125122,244.8345032 C367.0845032,245.7185059 367.5524902,246.5245056 367.8905029,247.2525024 L368.6184998,246.7454987 C368.2805176,246.0694885 367.8125,245.2894897 367.2015076,244.4055023 Z M364.8615112,244.4444885 C364.4844971,245.3024902 363.9775085,246.1604919 363.3275146,247.0314941 L364.1204834,247.4475098 C364.7445068,246.5895081 365.2514954,245.7185059 365.6414795,244.8085022 Z M369.2554932,236.6965027 L369.2554932,244.7825012 L370.1394958,244.7825012 L370.1394958,236.6965027 Z M371.3095093,247.2785034 C372.0115051,247.2785034 372.3624878,246.8884888 372.3624878,246.1214905 L372.3624878,235.5784912 L371.4785156,235.5784912 L371.4785156,245.8874969 C371.4785156,246.2514954 371.3095093,246.4465027 370.9844971,246.4465027 C370.5684814,246.4465027 370.1394958,246.4205017 369.6975098,246.3945007 L369.9055176,247.2785034 Z M376.0545044,235.5005035 L375.1445007,235.7474976 C375.378479,236.2154999 375.5864868,236.7225037 375.7684937,237.2424927 L374.0524902,237.2424927 L374.0524902,238.1134949 L378.1345215,238.1134949 L378.1345215,237.2424927 L376.1585083,237.2424927 L376.6004944,237.0735016 C376.47052,236.6054993 376.2885132,236.0725098 376.0545044,235.5005035 Z M374.4165039,239.1665039 L374.4165039,239.9855042 L377.6925049,239.9855042 L377.6925049,239.1665039 Z M374.4165039,240.9215088 L374.4165039,241.7535095 L377.6925049,241.7535095 L377.6925049,240.9215088 Z M377.7965088,242.884491 L374.2994995,242.884491 L374.2994995,247.4475098 L375.1705017,247.4475098 L375.1705017,246.64151 L376.9255066,246.64151 L376.9255066,247.2655029 L377.7965088,247.2655029 Z M375.1705017,245.7835083 L375.1705017,243.7164917 L376.9255066,243.7164917 L376.9255066,245.7835083 Z M378.5115051,237.9444885 L378.5115051,238.8284912 L382.2294922,238.8284912 C382.2814941,240.4664917 382.3984985,241.8964996 382.5675049,243.1184998 C382.9835205,245.8744965 383.5944824,247.2785034 384.4135132,247.3175049 C384.9855042,247.3045044 385.4404907,246.2904968 385.7915039,244.2624969 L385.0635071,243.8464966 C384.8164978,245.4194946 384.59552,246.2254944 384.4135132,246.2774963 C384.1535034,246.2774963 383.8934937,245.588501 383.6204834,244.2235107 C383.3605042,242.8974915 383.1784973,241.0904999 383.1004944,238.8284912 L385.4924927,238.8284912 L385.4924927,237.9444885 L383.0744934,237.9444885 C383.0485229,237.2164917 383.0485229,236.4234924 383.0485229,235.5914917 L382.1774902,235.5914917 C382.1774902,236.4104919 382.1774902,237.1904907 382.2034912,237.9444885 Z M378.4335022,240.7785034 L378.4335022,241.6235046 L379.6685181,241.6235046 L379.6685181,244.9515076 C379.1744995,245.0295105 378.6934814,245.0944977 378.1994934,245.1464996 L378.4075012,245.9915009 C379.694519,245.8095093 380.9035034,245.588501 382.0214844,245.3284912 L382.0214844,244.48349 C381.5404968,244.6004944 381.0465088,244.7044983 380.5394897,244.7955017 L380.5394897,241.6235046 L381.7225037,241.6235046 L381.7225037,240.7785034 Z M384.2445068,235.6304932 L383.6074829,236.0335083 C384.0755005,236.5924988 384.4525146,237.1125031 384.7384949,237.5805054 L385.3754883,237.1254883 C385.1154785,236.6965027 384.7384949,236.2024994 384.2445068,235.6304932 Z M386.3244934,246.1604919" style="fill:rgb(23,55,94);stroke:none" clip-path="url(#clip25)" />
<clipPath id="clip26"><path d="M269,290 L331,290 L331,331 L269,331 L269,290 Z" /></clipPath>
<path d="M276,292 C273.2385864,292 271,294.2385864 271,297 L271,323 C271,325.7614136 273.2385864,328 276,328 L323,328 C325.7614136,328 328,325.7614136 328,323 L328,297 C328,294.2385864 325.7614136,292 323,292 Z M276,292" style="fill:rgb(220,230,242);stroke:none" clip-path="url(#clip26)" />
<clipPath id="clip27"><path d="M269,290 L331,290 L331,331 L269,331 L269,290 Z" /></clipPath>
<path d="M276,292 C273.2385864,292 271,294.2385864 271,297 L271,323 C271,325.7614136 273.2385864,328 276,328 L323,328 C325.7614136,328 328,325.7614136 328,323 L328,297 C328,294.2385864 325.7614136,292 323,292 Z M276,292" style="fill:none;stroke:rgb(85,142,213);stroke-width:2" clip-path="url(#clip27)" />
<clipPath id="clip28"><path d="M283,299 L317,299 L317,322 L283,322 L283,299 Z" /></clipPath>
<path d="M288.3850098,308.4005127 L288.3850098,312.7164917 L292.4020081,312.7164917 L292.4020081,313.6134949 L287.7869873,313.6134949 L287.7869873,314.3674927 L292.4020081,314.3674927 L292.4020081,315.3424988 L287.1369934,315.3424988 L287.1369934,316.161499 L298.6289978,316.161499 L298.6289978,315.3424988 L293.3380127,315.3424988 L293.3380127,314.3674927 L297.9920044,314.3674927 L297.9920044,313.6134949 L293.3380127,313.6134949 L293.3380127,312.7164917 L297.3680115,312.7164917 L297.3680115,308.4005127 L293.3380127,308.4005127 L293.3380127,307.5684814 L298.4470215,307.5684814 L298.4470215,306.7625122 L293.3380127,306.7625122 L293.3380127,305.7744751 C294.7810059,305.6834717 296.1329956,305.5794983 297.381012,305.4494934 L297.0950012,304.6694946 C294.5079956,304.9555054 291.5180054,305.1505127 288.1380005,305.2544861 L288.2940063,306.0214844 C289.723999,305.9694824 291.0889893,305.90448 292.4020081,305.8264771 L292.4020081,306.7625122 L287.3190002,306.7625122 L287.3190002,307.5684814 L292.4020081,307.5684814 L292.4020081,308.4005127 Z M296.4580078,311.9624939 L293.3380127,311.9624939 L293.3380127,310.9094849 L296.4580078,310.9094849 Z M292.4020081,311.9624939 L289.2820129,311.9624939 L289.2820129,310.9094849 L292.4020081,310.9094849 Z M289.2820129,310.181488 L289.2820129,309.15448 L292.4020081,309.15448 L292.4020081,310.181488 Z M293.3380127,309.15448 L296.4580078,309.15448 L296.4580078,310.181488 L293.3380127,310.181488 Z M305.9219971,304.5394897 L305.9219971,305.5274963 L304.3359985,305.5274963 L304.3359985,306.2684937 L305.9219971,306.2684937 L305.9219971,307.1654968 L304.5700073,307.1654968 L304.5700073,307.8804932 L305.9219971,307.8804932 L305.9219971,308.7774963 L304.0239868,308.7774963 L304.0239868,309.5184937 L307.4559937,309.5184937 L307.4559937,310.3504944 L304.7520142,310.3504944 L304.7520142,313.6264954 L303.9070129,313.6264954 L303.9070129,314.3934937 L304.7520142,314.3934937 L304.7520142,316.4605103 L305.5969849,316.4605103 L305.5969849,314.3934937 L310.2120056,314.3934937 L310.2120056,315.3294983 C310.2120056,315.5764771 310.0429993,315.7064819 309.7310181,315.7064819 L308.678009,315.680481 L308.8859863,316.4475098 L310.0039978,316.4475098 C310.7059937,316.4475098 311.0570068,316.135498 311.0570068,315.5244751 L311.0570068,314.3934937 L311.8630066,314.3934937 L311.8630066,313.6264954 L311.0570068,313.6264954 L311.0570068,310.3504944 L308.3139954,310.3504944 L308.3139954,309.5184937 L311.7980042,309.5184937 L311.7980042,308.7774963 L309.9129944,308.7774963 L309.9129944,307.8804932 L311.2650146,307.8804932 L311.2650146,307.1654968 L309.9129944,307.1654968 L309.9129944,306.2684937 L311.4989929,306.2684937 L311.4989929,305.5274963 L309.9129944,305.5274963 L309.9129944,304.5394897 L309.0549927,304.5394897 L309.0549927,305.5274963 L306.7929993,305.5274963 L306.7929993,304.5394897 Z M305.5969849,313.6264954 L305.5969849,312.6514893 L307.4559937,312.6514893 L307.4559937,313.6264954 Z M308.3139954,313.6264954 L308.3139954,312.6514893 L310.2120056,312.6514893 L310.2120056,313.6264954 Z M306.7929993,308.7774963 L306.7929993,307.8804932 L309.0549927,307.8804932 L309.0549927,308.7774963 Z M306.7929993,307.1654968 L306.7929993,306.2684937 L309.0549927,306.2684937 L309.0549927,307.1654968 Z M310.2120056,312.0014954 L308.3139954,312.0014954 L308.3139954,311.0524902 L310.2120056,311.0524902 Z M307.4559937,311.0524902 L307.4559937,312.0014954 L305.5969849,312.0014954 L305.5969849,311.0524902 Z M302.5419922,309.8565063 C302.8280029,310.3504944 303.1790161,311.0004883 303.5690002,311.7934875 L304.0759888,311.0394897 C303.5559998,310.23349 303.0360107,309.5184937 302.5419922,308.8815002 L302.5419922,308.0234985 L303.82901,308.0234985 L303.82901,307.1264954 L302.5419922,307.1264954 L302.5419922,304.5784912 L301.632019,304.5784912 L301.632019,307.1264954 L300.0720215,307.1264954 L300.0720215,308.0234985 L301.5670166,308.0234985 C301.2160034,309.6744995 300.631012,311.1434937 299.8250122,312.4174805 L300.1889954,313.3535156 C300.7739868,312.352478 301.2550049,311.2474976 301.632019,310.0255127 L301.632019,316.4605103 L302.5419922,316.4605103 Z M312.3829956,315.1994934" style="fill:rgb(23,55,94);stroke:none" clip-path="url(#clip28)" />
<clipPath id="clip29"><path d="M101,290 L161,290 L161,331 L101,331 L101,290 Z" /></clipPath>
<path d="M108,292 C105.2385712,292 103,294.2385864 103,297 L103,323 C103,325.7614136 105.2385712,328 108,328 L153,328 C155.7614288,328 158,325.7614136 158,323 L158,297 C158,294.2385864 155.7614288,292 153,292 Z M108,292" style="fill:rgb(220,230,242);stroke:none" clip-path="url(#clip29)" />
<clipPath id="clip30"><path d="M101,290 L161,290 L161,331 L101,331 L101,290 Z" /></clipPath>
<path d="M108,292 C105.2385712,292 103,294.2385864 103,297 L103,323 C103,325.7614136 105.2385712,328 108,328 L153,328 C155.7614288,328 158,325.7614136 158,323 L158,297 C158,294.2385864 155.7614288,292 153,292 Z M108,292" style="fill:none;stroke:rgb(85,142,213);stroke-width:2" clip-path="url(#clip30)" />
<clipPath id="clip31"><path d="M115,299 L147,299 L147,322 L115,322 L115,299 Z" /></clipPath>
<path d="M129.0635071,304.6370239 C127.126503,305.2089844 124.6825027,305.4949951 121.7444992,305.4949951 L122.0305023,306.3400269 C125.1505051,306.3400269 127.6464996,306.0410156 129.5314941,305.4429932 Z M125.7225037,306.730011 L124.7085037,306.8859863 C124.9425049,307.3930054 125.1505051,307.9650269 125.3455048,308.6019897 L122.2385025,308.6019897 L122.2385025,309.4990234 L128.088501,309.4990234 C127.0224991,311.2410278 125.5405045,312.65802 123.6425018,313.7369995 C123.5904999,313.6849976 123.5514984,313.6329956 123.5125046,313.6069946 C123.3955002,313.5029907 123.2655029,313.4509888 123.1095047,313.4509888 C122.5115051,313.4509888 121.8875046,314.2050171 121.263504,315.7390137 L121.9915009,316.3630066 C122.4595032,315.1019897 122.8365021,314.4780273 123.0965042,314.4780273 C123.2005005,314.4780273 123.3045044,314.5429993 123.4215012,314.6860046 C123.6555023,315.0759888 123.9155045,315.375 124.2145004,315.5830078 C124.5914993,315.8690186 125.1245041,316.0380249 125.8134995,316.0900269 C126.1775055,316.1030273 126.6194992,316.1160278 127.126503,316.1160278 L129.8435059,316.1160278 L130.0385132,315.1929932 C128.9595032,315.2189941 127.9455032,315.2449951 126.9835052,315.2449951 C126.489502,315.2449951 126.0475006,315.2319946 125.6835022,315.2319946 C125.1115036,315.2059937 124.6175003,314.9459839 124.175499,314.4390259 C126.3075027,313.2170105 127.9715042,311.5400085 129.1545105,309.4210205 L129.1545105,308.6019897 L126.2945023,308.6019897 C126.1125031,307.9000244 125.9175034,307.276001 125.7225037,306.730011 Z M119.2225037,304.6890259 L118.5595016,305.3389893 C119.4565048,306.0280151 120.1715012,306.678009 120.6915054,307.302002 L121.3544998,306.6260071 C120.7695007,305.9760132 120.0545044,305.3389893 119.2225037,304.6890259 Z M118.8974991,307.757019 L118.2345047,308.3940125 C119.0665054,309.0960083 119.7164993,309.7590027 120.1845016,310.3699951 L120.8605042,309.7070007 C120.3274994,309.0570068 119.6775055,308.4070129 118.8974991,307.757019 Z M120.4315033,311.3710022 C119.8595047,312.9049988 119.1965027,314.4130249 118.4165039,315.882019 L119.3525009,316.2850037 C120.0545044,314.855011 120.7045059,313.3339844 121.289505,311.7089844 Z M131.7675018,305.07901 L131.7675018,305.9110107 L133.0935059,305.9110107 L133.0935059,307.8610229 L131.4295044,307.8610229 L131.4295044,308.7189941 L133.0415039,308.7189941 C132.911499,309.7850037 132.4825134,310.5780029 131.7545013,311.1240234 L132.4565125,311.7349854 C133.3144989,311.059021 133.8085022,310.0579834 133.9515076,308.7189941 L135.6545105,308.7189941 L135.6545105,311.57901 L136.5644989,311.57901 L136.5644989,308.7189941 L138.1635132,308.7189941 L138.1635132,307.8610229 L136.5644989,307.8610229 L136.5644989,305.9110107 L137.8775024,305.9110107 L137.8775024,305.07901 Z M133.990509,305.9110107 L135.6545105,305.9110107 L135.6545105,307.8610229 L133.990509,307.8610229 Z M138.9305115,305.3779907 L138.9305115,309.8500061 L139.8274994,309.8500061 L139.8274994,305.3779907 Z M132.0794983,312.8530273 L132.0794983,313.7109985 L136.6425018,313.7109985 L136.6425018,315.2319946 L131.3515015,315.2319946 L131.3515015,316.0900269 L142.7655029,316.0900269 L142.7655029,315.2319946 L137.5784912,315.2319946 L137.5784912,313.7109985 L142.0505066,313.7109985 L142.0505066,312.8530273 L137.5784912,312.8530273 L137.5784912,311.7219849 L136.6425018,311.7219849 L136.6425018,312.8530273 Z M141.1405029,311.6959839 C141.8294983,311.6959839 142.1805115,311.2929993 142.1805115,310.5 L142.1805115,304.6630249 L141.2835083,304.6630249 L141.2835083,310.2789917 C141.2835083,310.6690063 141.1275024,310.8770142 140.8284912,310.8770142 C140.3085022,310.8770142 139.7755127,310.8510132 139.2034912,310.8120117 L139.3984985,311.6959839 Z M143.5585022,315.1149902" style="fill:rgb(23,55,94);stroke:none" clip-path="url(#clip31)" />
<clipPath id="clip32"><path d="M22,221 L112,221 L112,262 L22,262 L22,221 Z" /></clipPath>
<path d="M29,223 C26.2385712,223 24,225.2385712 24,228 L24,254 C24,256.7614136 26.2385712,259 29,259 L104,259 C106.7614288,259 109,256.7614136 109,254 L109,228 C109,225.2385712 106.7614288,223 104,223 Z M29,223" style="fill:rgb(220,230,242);stroke:none" clip-path="url(#clip32)" />
<clipPath id="clip33"><path d="M22,221 L112,221 L112,262 L22,262 L22,221 Z" /></clipPath>
<path d="M29,223 C26.2385712,223 24,225.2385712 24,228 L24,254 C24,256.7614136 26.2385712,259 29,259 L104,259 C106.7614288,259 109,256.7614136 109,254 L109,228 C109,225.2385712 106.7614288,223 104,223 Z M29,223" style="fill:none;stroke:rgb(85,142,213);stroke-width:2" clip-path="url(#clip33)" />
<clipPath id="clip34"><path d="M36,230 L98,230 L98,253 L36,253 L36,230 Z" /></clipPath>
<path d="M43.9450073,235.5005035 C43.3470001,237.5155029 42.3720093,239.3095093 41.0460052,240.8695068 L41.3320007,241.8444977 C41.852005,241.2854919 42.3200073,240.7005005 42.7620087,240.0765076 L42.7620087,247.4215088 L43.723999,247.4215088 L43.723999,238.51651 C44.1529999,237.6975098 44.5169983,236.8265076 44.8160095,235.9035034 Z M48.651001,235.5265045 L47.6500092,235.6824951 C47.8840027,236.2545013 48.07901,236.865509 48.2480011,237.5415039 L44.7380066,237.5415039 L44.7380066,238.4385071 L47.5070038,238.4385071 C46.8050079,240.4404907 45.673996,242.0784912 44.1009979,243.3525085 L44.5820007,244.1455078 C45.2060089,243.6254883 45.7779999,243.0404968 46.2980042,242.4165039 L46.2980042,246.1474915 C46.2980042,246.3034973 46.2070007,246.4075012 46.0250092,246.4855042 L46.2330017,247.3045044 C47.5980072,246.8884888 48.7680054,246.4595032 49.7429962,246.0175018 L49.5870056,245.1204987 C48.8460083,245.4844971 48.053009,245.8095093 47.1950073,246.082489 L47.1950073,241.1295013 C47.6889954,240.3105011 48.1049957,239.4134979 48.4170074,238.4385071 L52.6289978,238.4385071 L52.6289978,237.5415039 L49.1970062,237.5415039 C49.0149994,236.7875061 48.8330078,236.111496 48.651001,235.5265045 Z M52.2389984,240.0895081 C51.7190094,240.713501 51.0690002,241.2984924 50.2890015,241.8444977 C50.0550079,240.9735107 49.9120026,240.0375061 49.8600006,239.0234985 L49.0800018,239.2575073 C49.2230072,242.6504974 50.3410034,245.3024902 52.4470062,247.2265015 L53.0839996,246.4985046 C51.927002,245.4584961 51.0820007,244.1715088 50.5359955,242.6374969 C51.4720001,242.0524902 52.2259979,241.4414978 52.8110046,240.8175049 Z M54.2929993,236.9045105 L54.2929993,237.736496 L56.6849976,237.736496 L56.6849976,238.8544922 L54.7350006,238.8544922 L54.7350006,242.5985107 L56.5680084,242.5985107 C55.9440002,243.9765015 55.098999,245.0684967 54.0330048,245.8744965 L54.5270081,246.667511 C55.3850098,245.9134979 56.1130066,244.9515076 56.7109985,243.7814941 L56.7109985,247.4605103 L57.5820007,247.4605103 L57.5820007,244.0545044 C58.0500031,244.4704895 58.6220093,245.0295105 59.2850037,245.7315063 L59.7920074,244.9515076 C59.0380096,244.3014984 58.3099976,243.7164917 57.5820007,243.1965027 L57.5820007,242.5985107 L59.5059967,242.5985107 L59.5059967,238.8544922 L57.5559998,238.8544922 L57.5559998,237.736496 L59.753006,237.736496 L59.753006,236.9045105 L57.5559998,236.9045105 L57.5559998,235.539505 L56.6849976,235.539505 L56.6849976,236.9045105 Z M58.673996,241.8184967 L57.5039978,241.8184967 L57.5039978,239.634491 L58.673996,239.634491 Z M56.7369995,241.8184967 L55.5670013,241.8184967 L55.5670013,239.634491 L56.7369995,239.634491 Z M61.9109955,236.8395081 C61.7680054,237.2294922 61.572998,237.5545044 61.326004,237.8144989 C61.0010071,238.1264954 60.5200043,238.4125061 59.8700104,238.6855011 L60.4160004,239.3744965 C61.1699982,239.036499 61.7290039,238.6464996 62.1190033,238.2174988 C62.3919983,237.8665009 62.6130066,237.411499 62.7819977,236.8395081 L64.654007,236.8395081 C64.628006,237.489502 64.576004,237.8925018 64.4720001,238.0484924 C64.3679962,238.2044983 64.1080017,238.2825012 63.7050018,238.2955017 L62.8209991,238.2304993 L63.0420074,239.010498 C63.3800049,239.036499 63.6790009,239.0625 63.9130096,239.0625 C64.4980011,239.0625 64.9140015,238.9194946 65.1480103,238.6334991 C65.3820038,238.3475037 65.5120087,237.4765015 65.5380096,236.0465088 L60.1820068,236.0465088 L60.1820068,236.8395081 Z M60.3769989,239.5305023 L60.3769989,245.4974976 L65.4080048,245.4974976 L65.4080048,239.5305023 Z M64.5500031,244.7044983 L61.2220001,244.7044983 L61.2220001,243.7554932 L64.5500031,243.7554932 Z M61.2220001,243.0014954 L61.2220001,242.0524902 L64.5500031,242.0524902 L64.5500031,243.0014954 Z M61.2220001,241.2984924 L61.2220001,240.3235016 L64.5500031,240.3235016 L64.5500031,241.2984924 Z M63.6920013,245.510498 L63.2369995,246.1734924 C64.0690002,246.4855042 64.8619995,246.9274902 65.6419983,247.486496 L66.1100006,246.7845001 C65.3820038,246.2904968 64.576004,245.861496 63.6920013,245.510498 Z M61.7810059,245.5234985 C61.1049957,246.0305023 60.2600098,246.4465027 59.2460022,246.7584991 L59.6100006,247.5254974 C60.6889954,247.1484985 61.5859985,246.6804962 62.3139954,246.1214905 Z M68.2810059,235.7344971 L67.6049957,236.384491 C68.5670013,237.0605011 69.3339996,237.7105103 69.8800049,238.3215027 L70.5429993,237.6585083 C69.9320068,237.0214996 69.178009,236.384491 68.2810059,235.7344971 Z M67.9560089,238.8024902 L67.2929993,239.4394989 C68.2030029,240.14151 68.9179993,240.7915039 69.4380035,241.3894958 L70.1009979,240.7265015 C69.529007,240.0765076 68.8139954,239.4394989 67.9560089,238.8024902 Z M69.5940094,242.3905029 C69.0090027,243.9505005 68.3200073,245.4714966 67.5400085,246.9534912 L68.4759979,247.3565063 C69.1910095,245.9134979 69.8410034,244.3665009 70.4260101,242.7285004 Z M71.0500031,237.736496 L71.0500031,238.6595001 L74.4300079,238.6595001 L74.4300079,241.7795105 L71.4140015,241.7795105 L71.4140015,242.6764984 L74.4300079,242.6764984 L74.4300079,246.0954895 L70.7250061,246.0954895 L70.7250061,247.0184937 L78.9799957,247.0184937 L78.9799957,246.0954895 L75.3789978,246.0954895 L75.3789978,242.6764984 L78.3820038,242.6764984 L78.3820038,241.7795105 L75.3789978,241.7795105 L75.3789978,238.6595001 L78.7330017,238.6595001 L78.7330017,237.736496 L74.8590088,237.736496 L75.3919983,237.5285034 C75.1970062,236.9045105 74.9109955,236.2285004 74.5469971,235.4745026 L73.6630096,235.7214966 C74.0010071,236.3714905 74.2870026,237.0345001 74.5469971,237.736496 Z M85.779007,236.9824982 C84.9470062,241.1425018 83.0619965,244.3144989 80.1240082,246.4855042 L80.6829987,247.2785034 C83.3870087,245.2764893 85.2070007,242.4295044 86.1300049,238.7375031 C86.8970032,241.9875031 88.6650009,244.8475037 91.4210052,247.3175049 L91.9540024,246.5115051 C88.6780014,243.5214996 86.8580017,240.0375061 86.4940033,236.0725098 L83.8420105,236.0725098 L83.8420105,236.9824982 Z M92.5780029,246.1604919" style="fill:rgb(23,55,94);stroke:none" clip-path="url(#clip34)" />
<clipPath id="clip35"><path d="M14,152 L100,152 L100,193 L14,193 L14,152 Z" /></clipPath>
<path d="M21,154 C18.2385712,154 16,156.2385712 16,159 L16,185 C16,187.7614288 18.2385712,190 21,190 L92,190 C94.7614288,190 97,187.7614288 97,185 L97,159 C97,156.2385712 94.7614288,154 92,154 Z M21,154" style="fill:rgb(220,230,242);stroke:none" clip-path="url(#clip35)" />
<clipPath id="clip36"><path d="M14,152 L100,152 L100,193 L14,193 L14,152 Z" /></clipPath>
<path d="M21,154 C18.2385712,154 16,156.2385712 16,159 L16,185 C16,187.7614288 18.2385712,190 21,190 L92,190 C94.7614288,190 97,187.7614288 97,185 L97,159 C97,156.2385712 94.7614288,154 92,154 Z M21,154" style="fill:none;stroke:rgb(85,142,213);stroke-width:2" clip-path="url(#clip36)" />
<clipPath id="clip37"><path d="M28,161 L86,161 L86,184 L28,184 L28,161 Z" /></clipPath>
<path d="M35.5180054,173.8715057 L31.5919952,173.8715057 L31.5919952,178.2525024 L32.4759979,178.2525024 L32.4759979,177.6154938 L35.5180054,177.6154938 Z M32.4759979,176.7705078 L32.4759979,174.690506 L34.6600037,174.690506 L34.6600037,176.7705078 Z M31.1499939,168.2424927 L31.1499939,169.1004944 L35.9989929,169.1004944 L35.9989929,168.2424927 L33.7109985,168.2424927 L34.2180023,168.0605011 C34.0359955,167.5794983 33.802002,167.059494 33.4900055,166.4875031 L32.5930023,166.7344971 C32.9049988,167.2154999 33.1649933,167.7225037 33.3860016,168.2424927 Z M31.6959991,170.1405029 L31.6959991,170.9595032 L35.427002,170.9595032 L35.427002,170.1405029 Z M31.6959991,171.934494 L31.6959991,172.7534943 L35.427002,172.7534943 L35.427002,171.934494 Z M36.4149933,172.0904999 L36.4149933,173.0005035 L37.2339935,173.0005035 C37.5330048,174.0924988 38.0919952,175.0935059 38.9109955,175.9774933 C38.0270081,176.6795044 36.9349976,177.2514954 35.6089935,177.6934967 L36.1159973,178.486496 C37.4940033,178.0184937 38.6640015,177.4075012 39.6000061,176.6275024 C40.4060059,177.3164978 41.4069977,177.940506 42.6029968,178.486496 L43.1100006,177.6804962 C41.9660034,177.2124939 41.0169983,176.6535034 40.2369995,176.0294952 C41.0690002,175.1714935 41.654007,174.1445007 42.0180054,172.9485016 L42.0180054,172.0904999 Z M38.1309967,173.0005035 L41.1080017,173.0005035 C40.7570038,173.8845062 40.2369995,174.690506 39.5610046,175.3925018 C38.8849945,174.690506 38.404007,173.8845062 38.1309967,173.0005035 Z M37.3899994,167.033493 L37.3899994,168.5935059 C37.3899994,169.5554962 36.8829956,170.2964935 35.8820038,170.8164978 L36.5059967,171.5054932 C37.7019958,170.8034973 38.3130035,169.8025055 38.3130035,168.5025024 L38.3130035,167.9174957 L40.3410034,167.9174957 L40.3410034,170.036499 C40.3410034,170.8034973 40.7440033,171.1934967 41.576004,171.1934967 L42.7330017,171.1934967 L42.7330017,170.335495 L41.8099976,170.335495 C41.4459991,170.335495 41.2770081,170.1665039 41.2770081,169.841507 L41.2770081,167.033493 Z M45.397995,177.6544952 L47.5690002,177.6544952 L47.5690002,178.2525024 L48.4660034,178.2525024 L48.4660034,173.8585052 L44.5010071,173.8585052 L44.5010071,178.434494 L45.397995,178.434494 Z M47.5690002,176.7964935 L45.397995,176.7964935 L45.397995,174.7035065 L47.5690002,174.7035065 Z M44.0330048,168.2295074 L44.0330048,169.1004944 L48.9470062,169.1004944 L48.9470062,168.2295074 L46.6719971,168.2295074 L47.1269989,168.0605011 C46.970993,167.5924988 46.75,167.059494 46.4640045,166.4875031 L45.5670013,166.7344971 C45.8399963,167.2024994 46.0740051,167.7095032 46.2689972,168.2295074 Z M44.5399933,170.1535034 L44.5399933,170.9725037 L48.427002,170.9725037 L48.427002,170.1535034 Z M44.5399933,171.934494 L44.5399933,172.7664948 L48.427002,172.7664948 L48.427002,171.934494 Z M52.0540009,166.5525055 L52.0540009,170.8164978 L49.1679993,170.8164978 L49.1679993,171.7265015 L52.0540009,171.7265015 L52.0540009,178.434494 L52.977005,178.434494 L52.977005,171.7265015 L55.9539948,171.7265015 L55.9539948,170.8164978 L52.977005,170.8164978 L52.977005,166.5525055 Z M59.7890015,171.7915039 C60.1269989,172.3114929 60.5299988,173.0005035 60.9980011,173.8585052 L61.4920044,173.1174927 C60.9199982,172.2595062 60.3480072,171.4795074 59.7890015,170.8034973 L59.7890015,169.9454956 L61.2059937,169.9454956 L61.2059937,169.1004944 L59.7890015,169.1004944 L59.7890015,166.5785065 L58.9049988,166.5785065 L58.9049988,169.1004944 L57.3970032,169.1004944 L57.3970032,169.9454956 L58.8659973,169.9454956 C58.4759979,171.5574951 57.8390045,172.9875031 56.9290009,174.2615051 L57.3320007,175.2754974 C57.9819946,174.2485046 58.5019989,173.1045074 58.9049988,171.8435059 L58.9049988,178.408493 L59.7890015,178.408493 Z M61.7389984,169.815506 L61.7389984,173.7545013 L64.4819946,173.7545013 C64.4300079,174.0924988 64.352005,174.4304962 64.2480011,174.7424927 L60.8029938,174.7424927 L60.8029938,175.6004944 L63.8580017,175.6004944 C63.7539978,175.7825012 63.6239929,175.9515076 63.4810028,176.1204987 C62.9089966,176.7705078 61.9730072,177.2644958 60.6730042,177.6284943 L60.9980011,178.3955078 C62.5059967,177.9794922 63.5460052,177.3945007 64.1439972,176.6535034 C64.404007,176.341507 64.6119995,175.9904938 64.7940063,175.6004944 L68.8370056,175.6004944 L68.8370056,174.7424927 L65.1060028,174.7424927 C65.1840057,174.4304962 65.2489929,174.1054993 65.3009949,173.7545013 L67.9660034,173.7545013 L67.9660034,169.815506 Z M67.1210022,173.0265045 L62.5839996,173.0265045 L62.5839996,172.1425018 L67.1210022,172.1425018 Z M62.5839996,171.440506 L62.5839996,170.5695038 L67.1210022,170.5695038 L67.1210022,171.440506 Z M60.9329987,167.6054993 L60.9329987,168.3724976 L62.8050079,168.3724976 L62.8050079,169.3865051 L63.6499939,169.3865051 L63.6499939,168.3724976 L64.677002,168.3724976 L64.677002,167.6054993 L63.6499939,167.6054993 L63.6499939,166.539505 L62.8050079,166.539505 L62.8050079,167.6054993 Z M66.0550079,166.539505 L66.0550079,167.6054993 L65.0279999,167.6054993 L65.0279999,168.3724976 L66.0550079,168.3724976 L66.0550079,169.3865051 L66.8999939,169.3865051 L66.8999939,168.3724976 L68.7850037,168.3724976 L68.7850037,167.6054993 L66.8999939,167.6054993 L66.8999939,166.539505 Z M65.6260071,176.0944977 L65.1710052,176.7705078 C66.3280029,177.1864929 67.4589996,177.7714996 68.5509949,178.5124969 L69.0189972,177.7975006 C67.9920044,177.1345062 66.8610077,176.5625 65.6260071,176.0944977 Z M70.3580017,168.8535004 L70.3580017,169.763504 L76.7669983,169.763504 C76.8710022,171.4015045 77.0659943,172.8314972 77.3650055,174.0664978 C78.1450043,176.9004974 79.1069946,178.3565063 80.2640076,178.408493 C80.927002,178.3955078 81.4600067,177.4465027 81.8500061,175.5744934 L81.0050049,175.1325073 C80.7319946,176.588501 80.4589996,177.3294983 80.1990051,177.3684998 C79.7700043,177.3684998 79.276001,176.6405029 78.7299957,175.210495 C78.2230072,173.7545013 77.8849945,171.9474945 77.7290039,169.763504 L81.6940002,169.763504 L81.6940002,168.8535004 L77.677002,168.8535004 C77.6380005,168.1255035 77.625,167.3585052 77.625,166.5525055 L76.6629944,166.5525055 C76.6629944,167.3455048 76.6759949,168.1125031 76.7149963,168.8535004 Z M70.5529938,171.9214935 L70.5529938,172.8054962 L72.8410034,172.8054962 L72.8410034,176.3544922 C72.0090027,176.4844971 71.151001,176.614502 70.2929993,176.7185059 L70.5140076,177.6024933 C72.6719971,177.2904968 74.6999969,176.9134979 76.5720062,176.4584961 L76.5720062,175.5484924 C75.6620026,175.7825012 74.7389984,176.0034943 73.7770081,176.1855011 L73.7770081,172.8054962 L76.0650024,172.8054962 L76.0650024,171.9214935 Z M79.5879974,166.6174927 L78.8079987,166.9945068 C79.25,167.5014954 79.6529999,168.0735016 80.0299988,168.7234955 L80.8099976,168.3334961 C80.4199982,167.7095032 80.0169983,167.1374969 79.5879974,166.6174927 Z M82.5130005,177.1475067" style="fill:rgb(23,55,94);stroke:none" clip-path="url(#clip37)" />
<clipPath id="clip38"><path d="M52,83 L112,83 L112,124 L52,124 L52,83 Z" /></clipPath>
<path d="M59,85 C56.2385712,85 54,87.2385712 54,90 L54,116 C54,118.7614288 56.2385712,121 59,121 L104,121 C106.7614288,121 109,118.7614288 109,116 L109,90 C109,87.2385712 106.7614288,85 104,85 Z M59,85" style="fill:rgb(220,230,242);stroke:none" clip-path="url(#clip38)" />
<clipPath id="clip39"><path d="M52,83 L112,83 L112,124 L52,124 L52,83 Z" /></clipPath>
<path d="M59,85 C56.2385712,85 54,87.2385712 54,90 L54,116 C54,118.7614288 56.2385712,121 59,121 L104,121 C106.7614288,121 109,118.7614288 109,116 L109,90 C109,87.2385712 106.7614288,85 104,85 Z M59,85" style="fill:none;stroke:rgb(85,142,213);stroke-width:2" clip-path="url(#clip39)" />
<clipPath id="clip40"><path d="M66,92 L98,92 L98,115 L66,115 L66,92 Z" /></clipPath>
<path d="M74.7205048,97.6239929 C73.5765076,98.871994 71.8475037,99.7039948 69.5335083,100.1459961 L70.0795135,101.0039978 C71.4705048,100.6919937 72.6665039,100.2369995 73.6805115,99.6389999 L77.4765015,99.6389999 C76.7485046,100.7049942 75.6955109,101.5239944 74.3435059,102.0699997 C73.9275055,101.5499954 73.4855042,101.0819931 73.0175018,100.6399994 L72.1985016,101.0299988 C72.6405029,101.4329987 73.0695038,101.8879929 73.4725037,102.3819962 C72.5365143,102.6549988 71.4965057,102.8239975 70.3265076,102.9019928 L70.7295074,103.746994 C74.5255127,103.447998 77.138504,102.0439987 78.542511,99.5479965 L78.542511,98.8069992 L74.8115082,98.8069992 C75.0715027,98.572998 75.318512,98.3259964 75.5525055,98.0659943 Z M74.2265015,105.7489929 L73.3945007,106.1389999 C73.8755035,106.6069946 74.3305054,107.1399994 74.7725067,107.7249985 C73.3035126,108.2189941 71.5485077,108.4659958 69.5205078,108.4789963 L69.8975067,109.3759918 C74.9415131,109.2589951 78.3735046,107.6729965 80.2195129,104.6049957 L80.2195129,103.8639984 L76.6575012,103.8639984 C77.0214996,103.5909958 77.3465118,103.2919998 77.6585083,102.9799957 L76.8525085,102.5379944 C75.5005035,103.9679947 73.4075012,104.8389969 70.5735016,105.125 L71.1325073,105.9569931 C72.7055054,105.6839981 74.0575104,105.2679977 75.2015076,104.7220001 L79.0494995,104.7220001 C78.217514,105.8659973 77.0865021,106.7629929 75.6435089,107.3869934 C75.2015076,106.8019943 74.7205048,106.2559967 74.2265015,105.7489929 Z M82.4815063,98.2479935 L82.4815063,99.0799942 L83.8075104,99.0799942 L83.8075104,101.0299988 L82.1435089,101.0299988 L82.1435089,101.8879929 L83.7555084,101.8879929 C83.6255035,102.9539948 83.1965027,103.746994 82.4685059,104.2929993 L83.1705017,104.9039993 C84.0285034,104.2279968 84.5225067,103.2269974 84.6655121,101.8879929 L86.3684998,101.8879929 L86.3684998,104.7479935 L87.2785034,104.7479935 L87.2785034,101.8879929 L88.8775101,101.8879929 L88.8775101,101.0299988 L87.2785034,101.0299988 L87.2785034,99.0799942 L88.591507,99.0799942 L88.591507,98.2479935 Z M84.7045135,99.0799942 L86.3684998,99.0799942 L86.3684998,101.0299988 L84.7045135,101.0299988 Z M89.6445084,98.5469971 L89.6445084,103.0189972 L90.5415039,103.0189972 L90.5415039,98.5469971 Z M82.7935028,106.0219955 L82.7935028,106.8799973 L87.3565063,106.8799973 L87.3565063,108.401001 L82.065506,108.401001 L82.065506,109.2589951 L93.4795074,109.2589951 L93.4795074,108.401001 L88.2925034,108.401001 L88.2925034,106.8799973 L92.7645035,106.8799973 L92.7645035,106.0219955 L88.2925034,106.0219955 L88.2925034,104.8909988 L87.3565063,104.8909988 L87.3565063,106.0219955 Z M91.8545074,104.8649979 C92.5435104,104.8649979 92.8945084,104.461998 92.8945084,103.6689987 L92.8945084,97.8319931 L91.9975052,97.8319931 L91.9975052,103.447998 C91.9975052,103.8379974 91.841507,104.0459976 91.5425034,104.0459976 C91.0225067,104.0459976 90.4895096,104.0199966 89.9175034,103.9809952 L90.1125031,104.8649979 Z M94.2725067,108.2839966" style="fill:rgb(23,55,94);stroke:none" clip-path="url(#clip40)" />
<clipPath id="clip41"><path d="M75,14 L161,14 L161,55 L75,55 L75,14 Z" /></clipPath>
<path d="M82,16 C79.2385712,16 77,18.2385712 77,21 L77,47 C77,49.7614288 79.2385712,52 82,52 L153,52 C155.7614288,52 158,49.7614288 158,47 L158,21 C158,18.2385712 155.7614288,16 153,16 Z M82,16" style="fill:rgb(220,230,242);stroke:none" clip-path="url(#clip41)" />
<clipPath id="clip42"><path d="M75,14 L161,14 L161,55 L75,55 L75,14 Z" /></clipPath>
<path d="M82,16 C79.2385712,16 77,18.2385712 77,21 L77,47 C77,49.7614288 79.2385712,52 82,52 L153,52 C155.7614288,52 158,49.7614288 158,47 L158,21 C158,18.2385712 155.7614288,16 153,16 Z M82,16" style="fill:none;stroke:rgb(85,142,213);stroke-width:2" clip-path="url(#clip42)" />
<clipPath id="clip43"><path d="M89,23 L147,23 L147,46 L89,46 L89,23 Z" /></clipPath>
<path d="M98.4355011,28.5589905 C98.0715027,30.5089874 97.4735031,32.0039978 96.6415024,33.0439911 L97.3304977,33.6289978 C97.7724991,33.0829926 98.1624985,32.4069977 98.5134964,31.5749969 L99.4104996,31.5749969 C98.9165039,34.0709991 98.0065002,35.9039917 96.6675034,37.0479889 L97.2785034,37.75 C98.7344971,36.4629974 99.7225037,34.4089966 100.2425003,31.5749969 L101.2565002,31.5749969 C101.0094986,33.5509949 100.6324997,35.1499939 100.1255035,36.3589935 C99.5794983,37.5549927 98.7734985,38.6469879 97.6815033,39.6349945 L98.2535019,40.3759918 C99.4365005,39.2969971 100.3205032,38.0749969 100.9185028,36.7229919 C101.425499,35.4619904 101.8154984,33.7459869 102.1015015,31.5749969 L102.9854965,31.5749969 C102.9595032,35.344986 102.9075012,37.6069946 102.8164978,38.3349915 C102.699501,39.1669922 102.2444992,39.5829926 101.4514999,39.5829926 C101.1524963,39.5829926 100.8014984,39.5569916 100.385498,39.5309906 L100.6064987,40.3759918 C101.074501,40.4019928 101.399498,40.4149933 101.5814972,40.4149933 C102.8424988,40.4149933 103.5445023,39.8429871 103.6875,38.6989899 C103.8174973,37.6849976 103.8824997,35.0069885 103.8824997,30.6649933 L98.838501,30.6649933 C99.0205002,30.0929871 99.1764984,29.4689941 99.3195038,28.7929993 Z M93.7294998,32.1989899 L94.7955017,32.1989899 L94.7955017,35.7089996 C94.0674973,35.9949951 93.3134995,36.2289886 92.5335007,36.4109955 L92.7545013,37.3209991 C93.4564972,37.0999908 94.1324997,36.8529968 94.7955017,36.5929871 L94.7955017,40.4929962 L95.7054977,40.4929962 L95.7054977,36.2029877 C96.0565033,36.0339966 96.4075012,35.8649902 96.7454987,35.6829987 L96.7454987,34.798996 C96.4075012,34.9809875 96.0695038,35.1499939 95.7054977,35.3190002 L95.7054977,32.1989899 L96.7975006,32.1989899 L96.7975006,31.2889862 L95.7054977,31.2889862 L95.7054977,28.5849915 L94.7955017,28.5849915 L94.7955017,31.2889862 L93.885498,31.2889862 C93.963501,30.7299957 94.0155029,30.1579895 94.0415039,29.5859985 L93.2225037,29.5209961 C93.1575012,31.0419922 92.8844986,32.4850006 92.3905029,33.8629913 L93.2095032,34.0970001 C93.4175034,33.4859924 93.5865021,32.848999 93.7294998,32.1989899 Z M108.3154984,28.493988 C107.6914978,30.5219879 106.7034988,32.3289948 105.3255005,33.8889923 L105.6244965,34.8899994 C106.1184998,34.3699951 106.5735016,33.8239899 106.989502,33.2519989 L106.989502,40.5059967 L107.9124985,40.5059967 L107.9124985,31.821991 C108.4325027,30.8989868 108.8615036,29.923996 109.199501,28.8969879 Z M110.4994965,29.3519897 C110.213501,31.0809937 109.6805038,32.5499878 108.8874969,33.7459869 L109.4854965,34.5259857 C109.9664993,33.8499908 110.3694992,33.0829926 110.6945038,32.2249908 L112.9045029,32.2249908 L112.9045029,35.3579865 L109.0824966,35.3579865 L109.0824966,36.2549896 L112.9045029,36.2549896 L112.9045029,40.4409943 L113.8404999,40.4409943 L113.8404999,36.2549896 L117.3115005,36.2549896 L117.3115005,35.3579865 L113.8404999,35.3579865 L113.8404999,32.2249908 L116.8304977,32.2249908 L116.8304977,31.3149872 L113.8404999,31.3149872 L113.8404999,28.6109924 L112.9045029,28.6109924 L112.9045029,31.3149872 L110.9934998,31.3149872 C111.175499,30.7429962 111.3184967,30.118988 111.4225006,29.4689941 Z M125.475502,30.144989 L125.1764984,30.8209991 L122.9014969,30.8209991 L122.9014969,34.9809875 L129.2064972,34.9809875 L129.2064972,30.8209991 L126.0605011,30.8209991 L126.3594971,30.144989 L129.9865112,30.144989 L129.9865112,29.4429932 L128.0755005,29.4429932 C128.2055054,29.1829987 128.2965088,28.9099884 128.3744965,28.6109924 L127.5295029,28.493988 C127.4514999,28.8190002 127.3475037,29.1309967 127.1914978,29.4429932 L124.9294968,29.4429932 C124.7734985,29.1049957 124.6305008,28.7929993 124.4745026,28.519989 L123.6035004,28.6759949 C123.7594986,28.8969879 123.9024963,29.1569977 124.0455017,29.4429932 L122.0695038,29.4429932 L122.0695038,30.144989 Z M128.3225098,34.4349976 L123.7854996,34.4349976 L123.7854996,33.719986 L128.3225098,33.719986 Z M123.7854996,33.2259979 L123.7854996,32.5499878 L128.3225098,32.5499878 L128.3225098,33.2259979 Z M123.7854996,32.0559998 L123.7854996,31.3539886 L128.3225098,31.3539886 L128.3225098,32.0559998 Z M119.8464966,28.6109924 L119.274498,29.1699982 C119.989502,29.6380005 120.5485001,30.0799866 120.9514999,30.4959869 L121.5234985,29.923996 C121.0684967,29.4819946 120.5094986,29.0529938 119.8464966,28.6109924 Z M126.5674973,40.4539948 C127.2565002,40.4539948 127.6074982,40.1029968 127.6074982,39.4269867 L127.6074982,37.996994 L130.1685028,37.996994 L130.1685028,37.1909943 L127.6074982,37.1909943 L127.6074982,36.4369965 L130.1165009,36.4369965 L130.2984924,35.6309967 C128.5954895,35.6829987 127.1654968,35.7089996 125.9954987,35.7089996 C125.4104996,35.7089996 124.7214966,35.6959991 123.9284973,35.6959991 C123.1224976,35.6959991 122.498497,35.6049957 122.0824966,35.4489899 C121.8615036,35.344986 121.6405029,35.2279968 121.4195023,35.0979919 C121.3675003,35.0589905 121.3024979,35.0329895 121.2375031,35.0069885 C121.4585037,34.6169891 121.6535034,34.1229858 121.8095016,33.5249939 L121.8095016,32.9789886 L120.2494965,32.9789886 C120.8215027,32.4979858 121.3284988,32.0169983 121.7705002,31.522995 L121.7705002,30.8600006 L118.8454971,30.8600006 L118.8454971,31.6399994 L120.7174988,31.6399994 C120.3014984,32.0820007 119.7685013,32.5499878 119.1315002,33.0439911 L119.1315002,33.6549988 L120.9905014,33.6549988 C120.8604965,34.1359863 120.6524963,34.5649872 120.3925018,34.9419861 C119.9505005,35.04599 119.4175034,35.4749908 118.8065033,36.2159882 L119.3655014,36.7879944 C119.9765015,36.0079956 120.4055023,35.6179962 120.6654968,35.6179962 C120.7825012,35.6179962 120.8864975,35.6439972 120.9905014,35.7220001 C121.2505035,35.8909912 121.510498,36.0339966 121.7835007,36.1380005 C122.3164978,36.3199921 123.0055008,36.4109955 123.850502,36.423996 C124.6825027,36.423996 125.4235001,36.4369965 126.0995026,36.4369965 L126.6975021,36.4369965 L126.6975021,37.1909943 L118.6504974,37.1909943 L118.6504974,37.996994 L126.6975021,37.996994 L126.6975021,39.2059937 C126.6975021,39.4919891 126.5415039,39.647995 126.2555008,39.647995 C125.8134995,39.647995 125.3584976,39.621994 124.8905029,39.5829926 L125.0855026,40.4539948 Z M121.4714966,38.0359955 L120.899498,38.594986 C121.7314987,39.1539917 122.3945007,39.6869965 122.8755035,40.1809998 L123.4865036,39.5699921 C122.9404984,39.0499878 122.2774963,38.5429993 121.4714966,38.0359955 Z M135.0305023,33.1999969 L135.0305023,37.75 L139.8274994,37.75 L139.8274994,33.1999969 Z M138.917511,36.8659973 L135.9404907,36.8659973 L135.9404907,34.0839996 L138.917511,34.0839996 Z M136.5644989,28.5329895 C136.4215088,29.2089996 136.2005005,29.845993 135.8884888,30.469986 L132.3135071,30.469986 L132.3135071,40.4669952 L133.2494965,40.4669952 L133.2494965,31.3669891 L141.6734924,31.3669891 L141.6734924,38.9329987 C141.6734924,39.3099976 141.4785004,39.5049896 141.114502,39.5049896 L139.2164917,39.4659882 L139.4765015,40.4149933 L141.4264984,40.4149933 C142.2064972,40.4149933 142.6094971,39.9859924 142.6094971,39.1409912 L142.6094971,30.469986 L136.8764954,30.469986 C137.1625061,29.9109955 137.3834991,29.3129883 137.5394897,28.6629944 Z M143.9095001,39.1929932" style="fill:rgb(23,55,94);stroke:none" clip-path="url(#clip43)" />
</svg>
