<?xml version="1.0" standalone="yes"?>

<svg version="1.1" viewBox="0.0 0.0 870.9816272965879 241.71128608923885" fill="none" stroke="none" stroke-linecap="square" stroke-miterlimit="10" xmlns="http://www.w3.org/2000/svg" xmlns:xlink="http://www.w3.org/1999/xlink"><clipPath id="p.0"><path d="m0 0l870.9816 0l0 241.71129l-870.9816 0l0 -241.71129z" clip-rule="nonzero"></path></clipPath><g clip-path="url(#p.0)"><path fill="#000000" fill-opacity="0.0" d="m0 0l870.9816 0l0 241.71129l-870.9816 0z" fill-rule="evenodd"></path><path fill="#cfe2f3" d="m215.01065 158.09448l149.10236 0l0 70.61418l-149.10236 0z" fill-rule="evenodd"></path><path stroke="#000000" stroke-width="1.0" stroke-linejoin="round" stroke-linecap="butt" d="m215.01065 158.09448l149.10236 0l0 70.61418l-149.10236 0z" fill-rule="evenodd"></path><path fill="#000000" d="m252.50803 195.55595l1.796875 0.453125q-0.5625 2.21875 -2.03125 3.390625q-1.46875 1.15625 -3.59375 1.15625q-2.203125 0 -3.578125 -0.890625q-1.375 -0.90625 -2.09375 -2.59375q-0.71875 -1.703125 -0.71875 -3.65625q0 -2.125 0.796875 -3.703125q0.8125 -1.578125 2.3125 -2.390625q1.5 -0.828125 3.296875 -0.828125q2.046875 0 3.4375 1.046875q1.390625 1.03125 1.9375 2.90625l-1.765625 0.421875q-0.46875 -1.484375 -1.375 -2.15625q-0.90625 -0.6875 -2.265625 -0.6875q-1.5625 0 -2.625 0.75q-1.046875 0.75 -1.484375 2.03125q-0.421875 1.265625 -0.421875 2.609375q0 1.734375 0.5 3.03125q0.515625 1.28125 1.578125 1.921875q1.078125 0.640625 2.3125 0.640625q1.515625 0 2.5625 -0.859375q1.046875 -0.875 1.421875 -2.59375zm2.9260712 -0.15625q0 -2.734375 1.5312653 -4.0625q1.265625 -1.09375 3.09375 -1.09375q2.03125 0 3.3125 1.34375q1.296875 1.328125 1.296875 3.671875q0 1.90625 -0.578125 3.0q-0.5625 1.078125 -1.65625 1.6875q-1.078125 0.59375 -2.375 0.59375q-2.0625 0 -3.34375 -1.328125q-1.2812653 -1.328125 -1.2812653 -3.8125zm1.7187653 0q0 1.890625 0.828125 2.828125q0.828125 0.9375 2.078125 0.9375q1.25 0 2.0625 -0.9375q0.828125 -0.953125 0.828125 -2.890625q0 -1.828125 -0.828125 -2.765625q-0.828125 -0.9375 -2.0625 -0.9375q-1.25 0 -2.078125 0.9375q-0.828125 0.9375 -0.828125 2.828125zm9.281952 4.921875l0 -9.859375l1.5 0l0 1.390625q0.453125 -0.71875 1.21875 -1.15625q0.78125 -0.453125 1.765625 -0.453125q1.09375 0 1.796875 0.453125q0.703125 0.453125 0.984375 1.28125q1.171875 -1.734375 3.046875 -1.734375q1.46875 0 2.25 0.8125q0.796875 0.8125 0.796875 2.5l0 6.765625l-1.671875 0l0 -6.203125q0 -1.0 -0.15625 -1.4375q-0.15625 -0.453125 -0.59375 -0.71875q-0.421875 -0.265625 -1.0 -0.265625q-1.03125 0 -1.71875 0.6875q-0.6875 0.6875 -0.6875 2.21875l0 5.71875l-1.671875 0l0 -6.40625q0 -1.109375 -0.40625 -1.65625q-0.40625 -0.5625 -1.34375 -0.5625q-0.703125 0 -1.3125 0.375q-0.59375 0.359375 -0.859375 1.078125q-0.265625 0.71875 -0.265625 2.0625l0 5.109375l-1.671875 0zm15.540802 3.78125l0 -13.640625l1.53125 0l0 1.28125q0.53125 -0.75 1.203125 -1.125q0.6875 -0.375 1.640625 -0.375q1.265625 0 2.234375 0.65625q0.96875 0.640625 1.453125 1.828125q0.5 1.1875 0.5 2.59375q0 1.515625 -0.546875 2.734375q-0.546875 1.203125 -1.578125 1.84375q-1.03125 0.640625 -2.171875 0.640625q-0.84375 0 -1.515625 -0.34375q-0.65625 -0.359375 -1.078125 -0.890625l0 4.796875l-1.671875 0zm1.515625 -8.65625q0 1.90625 0.765625 2.8125q0.78125 0.90625 1.875 0.90625q1.109375 0 1.890625 -0.9375q0.796875 -0.9375 0.796875 -2.921875q0 -1.875 -0.78125 -2.8125q-0.765625 -0.9375 -1.84375 -0.9375q-1.0625 0 -1.890625 1.0q-0.8125 1.0 -0.8125 2.890625zm8.235107 -0.046875q0 -2.734375 1.53125 -4.0625q1.265625 -1.09375 3.09375 -1.09375q2.03125 0 3.3125 1.34375q1.296875 1.328125 1.296875 3.671875q0 1.90625 -0.578125 3.0q-0.5625 1.078125 -1.65625 1.6875q-1.078125 0.59375 -2.375 0.59375q-2.0625 0 -3.34375 -1.328125q-1.28125 -1.328125 -1.28125 -3.8125zm1.71875 0q0 1.890625 0.828125 2.828125q0.828125 0.9375 2.078125 0.9375q1.25 0 2.0625 -0.9375q0.828125 -0.953125 0.828125 -2.890625q0 -1.828125 -0.828125 -2.765625q-0.828125 -0.9375 -2.0625 -0.9375q-1.25 0 -2.078125 0.9375q-0.828125 0.9375 -0.828125 2.828125zm9.281952 4.921875l0 -9.859375l1.5 0l0 1.40625q1.09375 -1.625 3.140625 -1.625q0.890625 0 1.640625 0.328125q0.75 0.3125 1.109375 0.84375q0.375 0.515625 0.53125 1.21875q0.09375 0.46875 0.09375 1.625l0 6.0625l-1.671875 0l0 -6.0q0 -1.015625 -0.203125 -1.515625q-0.1875 -0.515625 -0.6875 -0.8125q-0.5 -0.296875 -1.171875 -0.296875q-1.0625 0 -1.84375 0.671875q-0.765625 0.671875 -0.765625 2.578125l0 5.375l-1.671875 0zm17.125732 -3.171875l1.71875 0.21875q-0.40625 1.5 -1.515625 2.34375q-1.09375 0.828125 -2.8125 0.828125q-2.15625 0 -3.421875 -1.328125q-1.265625 -1.328125 -1.265625 -3.734375q0 -2.484375 1.265625 -3.859375q1.28125 -1.375 3.328125 -1.375q1.984375 0 3.234375 1.34375q1.25 1.34375 1.25 3.796875q0 0.140625 -0.015625 0.4375l-7.34375 0q0.09375 1.625 0.921875 2.484375q0.828125 0.859375 2.0625 0.859375q0.90625 0 1.546875 -0.46875q0.65625 -0.484375 1.046875 -1.546875zm-5.484375 -2.703125l5.5 0q-0.109375 -1.234375 -0.625 -1.859375q-0.796875 -0.96875 -2.078125 -0.96875q-1.140625 0 -1.9375 0.78125q-0.78125 0.765625 -0.859375 2.046875zm9.110077 5.875l0 -9.859375l1.5 0l0 1.40625q1.09375 -1.625 3.140625 -1.625q0.890625 0 1.640625 0.328125q0.75 0.3125 1.109375 0.84375q0.375 0.515625 0.53125 1.21875q0.09375 0.46875 0.09375 1.625l0 6.0625l-1.671875 0l0 -6.0q0 -1.015625 -0.203125 -1.515625q-0.1875 -0.515625 -0.6875 -0.8125q-0.5 -0.296875 -1.171875 -0.296875q-1.0625 0 -1.84375 0.671875q-0.765625 0.671875 -0.765625 2.578125l0 5.375l-1.671875 0zm14.031982 -1.5l0.234375 1.484375q-0.703125 0.140625 -1.265625 0.140625q-0.90625 0 -1.40625 -0.28125q-0.5 -0.296875 -0.703125 -0.75q-0.203125 -0.46875 -0.203125 -1.984375l0 -5.65625l-1.234375 0l0 -1.3125l1.234375 0l0 -2.4375l1.65625 -1.0l0 3.4375l1.6875 0l0 1.3125l-1.6875 0l0 5.75q0 0.71875 0.078125 0.921875q0.09375 0.203125 0.296875 0.328125q0.203125 0.125 0.578125 0.125q0.265625 0 0.734375 -0.078125z" fill-rule="nonzero"></path><path fill="#cfe2f3" d="m364.88452 38.58005l149.10236 0l0 70.61418l-149.10236 0z" fill-rule="evenodd"></path><path stroke="#000000" stroke-width="1.0" stroke-linejoin="round" stroke-linecap="butt" d="m364.88452 38.58005l149.10236 0l0 70.61418l-149.10236 0z" fill-rule="evenodd"></path><path fill="#000000" d="m392.6557 63.182137q0 -3.390625 1.8125 -5.296875q1.828125 -1.921875 4.703125 -1.921875q1.875 0 3.390625 0.90625q1.515625 0.890625 2.296875 2.5q0.796875 1.609375 0.796875 3.65625q0 2.0625 -0.84375 3.703125q-0.828125 1.625 -2.359375 2.46875q-1.53125 0.84375 -3.296875 0.84375q-1.921875 0 -3.4375 -0.921875q-1.5 -0.9375 -2.28125 -2.53125q-0.78125 -1.609375 -0.78125 -3.40625zm1.859375 0.03125q0 2.453125 1.3125 3.875q1.328125 1.40625 3.3125 1.40625q2.03125 0 3.34375 -1.421875q1.3125 -1.4375 1.3125 -4.0625q0 -1.65625 -0.5625 -2.890625q-0.546875 -1.234375 -1.640625 -1.921875q-1.078125 -0.6875 -2.421875 -0.6875q-1.90625 0 -3.28125 1.3125q-1.375 1.3125 -1.375 4.390625zm14.527039 6.59375l-1.546875 0l0 -13.59375l1.65625 0l0 4.84375q1.0625 -1.328125 2.703125 -1.328125q0.90625 0 1.71875 0.375q0.8125 0.359375 1.328125 1.03125q0.53125 0.65625 0.828125 1.59375q0.296875 0.9375 0.296875 2.0q0 2.53125 -1.25 3.921875q-1.25 1.375 -3.0 1.375q-1.75 0 -2.734375 -1.453125l0 1.234375zm-0.015625 -5.0q0 1.765625 0.46875 2.5625q0.796875 1.28125 2.140625 1.28125q1.09375 0 1.890625 -0.9375q0.796875 -0.953125 0.796875 -2.84375q0 -1.921875 -0.765625 -2.84375q-0.765625 -0.921875 -1.84375 -0.921875q-1.09375 0 -1.890625 0.953125q-0.796875 0.953125 -0.796875 2.75zm8.172607 2.0625l1.65625 -0.265625q0.140625 1.0 0.765625 1.53125q0.640625 0.515625 1.78125 0.515625q1.15625 0 1.703125 -0.46875q0.5625 -0.46875 0.5625 -1.09375q0 -0.5625 -0.484375 -0.890625q-0.34375 -0.21875 -1.703125 -0.5625q-1.84375 -0.46875 -2.5625 -0.796875q-0.703125 -0.34375 -1.078125 -0.9375q-0.359375 -0.609375 -0.359375 -1.328125q0 -0.65625 0.296875 -1.21875q0.3125 -0.5625 0.828125 -0.9375q0.390625 -0.28125 1.0625 -0.484375q0.671875 -0.203125 1.4375 -0.203125q1.171875 0 2.046875 0.34375q0.875 0.328125 1.28125 0.90625q0.421875 0.5625 0.578125 1.515625l-1.625 0.21875q-0.109375 -0.75 -0.65625 -1.171875q-0.53125 -0.4375 -1.5 -0.4375q-1.15625 0 -1.640625 0.390625q-0.484375 0.375 -0.484375 0.875q0 0.328125 0.203125 0.59375q0.203125 0.265625 0.640625 0.4375q0.25 0.09375 1.46875 0.4375q1.765625 0.46875 2.46875 0.765625q0.703125 0.296875 1.09375 0.875q0.40625 0.578125 0.40625 1.4375q0 0.828125 -0.484375 1.578125q-0.484375 0.734375 -1.40625 1.140625q-0.921875 0.390625 -2.078125 0.390625q-1.921875 0 -2.9375 -0.796875q-1.0 -0.796875 -1.28125 -2.359375zm16.75 -0.234375l1.71875 0.21875q-0.40625 1.5 -1.515625 2.34375q-1.09375 0.828125 -2.8125 0.828125q-2.15625 0 -3.421875 -1.328125q-1.265625 -1.328125 -1.265625 -3.734375q0 -2.484375 1.265625 -3.859375q1.28125 -1.375 3.328125 -1.375q1.984375 0 3.234375 1.34375q1.25 1.34375 1.25 3.796875q0 0.140625 -0.015625 0.4375l-7.34375 0q0.09375 1.625 0.921875 2.484375q0.828125 0.859375 2.0625 0.859375q0.90625 0 1.546875 -0.46875q0.65625 -0.484375 1.046875 -1.546875zm-5.484375 -2.703125l5.5 0q-0.109375 -1.234375 -0.625 -1.859375q-0.796875 -0.96875 -2.078125 -0.96875q-1.140625 0 -1.9375 0.78125q-0.78125 0.765625 -0.859375 2.046875zm9.094452 5.875l0 -9.859375l1.5 0l0 1.5q0.578125 -1.046875 1.0625 -1.375q0.484375 -0.34375 1.078125 -0.34375q0.84375 0 1.71875 0.546875l-0.578125 1.546875q-0.609375 -0.359375 -1.234375 -0.359375q-0.546875 0 -0.984375 0.328125q-0.421875 0.328125 -0.609375 0.90625q-0.28125 0.890625 -0.28125 1.953125l0 5.15625l-1.671875 0zm8.962677 0l-3.75 -9.859375l1.765625 0l2.125 5.90625q0.34375 0.953125 0.625 1.984375q0.21875 -0.78125 0.625 -1.875l2.1875 -6.015625l1.71875 0l-3.734375 9.859375l-1.5625 0zm13.03125 -1.21875q-0.9375 0.796875 -1.796875 1.125q-0.859375 0.3125 -1.84375 0.3125q-1.609375 0 -2.484375 -0.78125q-0.875 -0.796875 -0.875 -2.03125q0 -0.734375 0.328125 -1.328125q0.328125 -0.59375 0.859375 -0.953125q0.53125 -0.359375 1.203125 -0.546875q0.5 -0.140625 1.484375 -0.25q2.03125 -0.25 2.984375 -0.578125q0 -0.34375 0 -0.4375q0 -1.015625 -0.46875 -1.4375q-0.640625 -0.5625 -1.90625 -0.5625q-1.171875 0 -1.734375 0.40625q-0.5625 0.40625 -0.828125 1.46875l-1.640625 -0.234375q0.234375 -1.046875 0.734375 -1.6875q0.515625 -0.640625 1.46875 -0.984375q0.96875 -0.359375 2.25 -0.359375q1.265625 0 2.046875 0.296875q0.78125 0.296875 1.15625 0.75q0.375 0.453125 0.515625 1.140625q0.09375 0.421875 0.09375 1.53125l0 2.234375q0 2.328125 0.09375 2.953125q0.109375 0.609375 0.4375 1.171875l-1.75 0q-0.265625 -0.515625 -0.328125 -1.21875zm-0.140625 -3.71875q-0.90625 0.359375 -2.734375 0.625q-1.03125 0.140625 -1.453125 0.328125q-0.421875 0.1875 -0.65625 0.546875q-0.234375 0.359375 -0.234375 0.796875q0 0.671875 0.5 1.125q0.515625 0.4375 1.484375 0.4375q0.96875 0 1.71875 -0.421875q0.75 -0.4375 1.109375 -1.15625q0.265625 -0.578125 0.265625 -1.671875l0 -0.609375zm5.6257324 4.9375l-1.546875 0l0 -13.59375l1.65625 0l0 4.84375q1.0625 -1.328125 2.703125 -1.328125q0.90625 0 1.71875 0.375q0.8125 0.359375 1.328125 1.03125q0.53125 0.65625 0.828125 1.59375q0.296875 0.9375 0.296875 2.0q0 2.53125 -1.25 3.921875q-1.25 1.375 -3.0 1.375q-1.75 0 -2.734375 -1.453125l0 1.234375zm-0.015625 -5.0q0 1.765625 0.46875 2.5625q0.796875 1.28125 2.140625 1.28125q1.09375 0 1.890625 -0.9375q0.796875 -0.953125 0.796875 -2.84375q0 -1.921875 -0.765625 -2.84375q-0.765625 -0.921875 -1.84375 -0.921875q-1.09375 0 -1.890625 0.953125q-0.796875 0.953125 -0.796875 2.75zm8.813202 5.0l0 -13.59375l1.671875 0l0 13.59375l-1.671875 0zm10.926086 -3.171875l1.71875 0.21875q-0.40625 1.5 -1.515625 2.34375q-1.09375 0.828125 -2.8125 0.828125q-2.15625 0 -3.421875 -1.328125q-1.265625 -1.328125 -1.265625 -3.734375q0 -2.484375 1.265625 -3.859375q1.28125 -1.375 3.328125 -1.375q1.984375 0 3.234375 1.34375q1.25 1.34375 1.25 3.796875q0 0.140625 -0.015625 0.4375l-7.34375 0q0.09375 1.625 0.921875 2.484375q0.828125 0.859375 2.0625 0.859375q0.90625 0 1.546875 -0.46875q0.65625 -0.484375 1.046875 -1.546875zm-5.484375 -2.703125l5.5 0q-0.109375 -1.234375 -0.625 -1.859375q-0.796875 -0.96875 -2.078125 -0.96875q-1.140625 0 -1.9375 0.78125q-0.78125 0.765625 -0.859375 2.046875z" fill-rule="nonzero"></path><path fill="#000000" d="m387.50458 91.80714l0 -13.59375l4.6875 0q1.578125 0 2.421875 0.1875q1.15625 0.265625 1.984375 0.96875q1.078125 0.921875 1.609375 2.34375q0.53125 1.40625 0.53125 3.21875q0 1.546875 -0.359375 2.75q-0.359375 1.1875 -0.921875 1.984375q-0.5625 0.78125 -1.234375 1.234375q-0.671875 0.4375 -1.625 0.671875q-0.953125 0.234375 -2.1875 0.234375l-4.90625 0zm1.796875 -1.609375l2.90625 0q1.34375 0 2.109375 -0.25q0.765625 -0.25 1.21875 -0.703125q0.640625 -0.640625 1.0 -1.71875q0.359375 -1.078125 0.359375 -2.625q0 -2.125 -0.703125 -3.265625q-0.703125 -1.15625 -1.703125 -1.546875q-0.71875 -0.28125 -2.328125 -0.28125l-2.859375 0l0 10.390625zm17.894806 0.390625q-0.9375 0.796875 -1.796875 1.125q-0.859375 0.3125 -1.84375 0.3125q-1.609375 0 -2.484375 -0.78125q-0.875 -0.796875 -0.875 -2.03125q0 -0.734375 0.328125 -1.328125q0.328125 -0.59375 0.859375 -0.953125q0.53125 -0.359375 1.203125 -0.546875q0.5 -0.140625 1.484375 -0.25q2.03125 -0.25 2.984375 -0.578125q0 -0.34375 0 -0.4375q0 -1.015625 -0.46875 -1.4375q-0.640625 -0.5625 -1.90625 -0.5625q-1.171875 0 -1.734375 0.40625q-0.5625 0.40625 -0.828125 1.46875l-1.640625 -0.234375q0.234375 -1.046875 0.734375 -1.6875q0.515625 -0.640625 1.46875 -0.984375q0.96875 -0.359375 2.25 -0.359375q1.265625 0 2.046875 0.296875q0.78125 0.296875 1.15625 0.75q0.375 0.453125 0.515625 1.140625q0.09375 0.421875 0.09375 1.53125l0 2.234375q0 2.328125 0.09375 2.953125q0.109375 0.609375 0.4375 1.171875l-1.75 0q-0.265625 -0.515625 -0.328125 -1.21875zm-0.140625 -3.71875q-0.90625 0.359375 -2.734375 0.625q-1.03125 0.140625 -1.453125 0.328125q-0.421875 0.1875 -0.65625 0.546875q-0.234375 0.359375 -0.234375 0.796875q0 0.671875 0.5 1.125q0.515625 0.4375 1.484375 0.4375q0.96875 0 1.71875 -0.421875q0.75 -0.4375 1.109375 -1.15625q0.265625 -0.578125 0.265625 -1.671875l0 -0.609375zm7.7351074 3.4375l0.234375 1.484375q-0.703125 0.140625 -1.265625 0.140625q-0.90625 0 -1.40625 -0.28125q-0.5 -0.296875 -0.703125 -0.75q-0.203125 -0.46875 -0.203125 -1.984375l0 -5.65625l-1.234375 0l0 -1.3125l1.234375 0l0 -2.4375l1.65625 -1.0l0 3.4375l1.6875 0l0 1.3125l-1.6875 0l0 5.75q0 0.71875 0.078125 0.921875q0.09375 0.203125 0.296875 0.328125q0.203125 0.125 0.578125 0.125q0.265625 0 0.734375 -0.078125zm7.9645386 0.28125q-0.9375 0.796875 -1.796875 1.125q-0.859375 0.3125 -1.84375 0.3125q-1.609375 0 -2.484375 -0.78125q-0.875 -0.796875 -0.875 -2.03125q0 -0.734375 0.328125 -1.328125q0.328125 -0.59375 0.859375 -0.953125q0.53125 -0.359375 1.203125 -0.546875q0.5 -0.140625 1.484375 -0.25q2.03125 -0.25 2.984375 -0.578125q0 -0.34375 0 -0.4375q0 -1.015625 -0.46875 -1.4375q-0.640625 -0.5625 -1.90625 -0.5625q-1.171875 0 -1.734375 0.40625q-0.5625 0.40625 -0.828125 1.46875l-1.640625 -0.234375q0.234375 -1.046875 0.734375 -1.6875q0.515625 -0.640625 1.46875 -0.984375q0.96875 -0.359375 2.25 -0.359375q1.265625 0 2.046875 0.296875q0.78125 0.296875 1.15625 0.75q0.375 0.453125 0.515625 1.140625q0.09375 0.421875 0.09375 1.53125l0 2.234375q0 2.328125 0.09375 2.953125q0.109375 0.609375 0.4375 1.171875l-1.75 0q-0.265625 -0.515625 -0.328125 -1.21875zm-0.140625 -3.71875q-0.90625 0.359375 -2.734375 0.625q-1.03125 0.140625 -1.453125 0.328125q-0.421875 0.1875 -0.65625 0.546875q-0.234375 0.359375 -0.234375 0.796875q0 0.671875 0.5 1.125q0.515625 0.4375 1.484375 0.4375q0.96875 0 1.71875 -0.421875q0.75 -0.4375 1.109375 -1.15625q0.265625 -0.578125 0.265625 -1.671875l0 -0.609375zm8.871521 0.5625l1.6875 -0.140625q0.125 1.015625 0.5625 1.671875q0.4375 0.65625 1.359375 1.0625q0.9375 0.40625 2.09375 0.40625q1.03125 0 1.8125 -0.3125q0.796875 -0.3125 1.1875 -0.84375q0.390625 -0.53125 0.390625 -1.15625q0 -0.640625 -0.375 -1.109375q-0.375 -0.484375 -1.234375 -0.8125q-0.546875 -0.21875 -2.421875 -0.65625q-1.875 -0.453125 -2.625 -0.859375q-0.96875 -0.515625 -1.453125 -1.265625q-0.46875 -0.75 -0.46875 -1.6875q0 -1.03125 0.578125 -1.921875q0.59375 -0.90625 1.703125 -1.359375q1.125 -0.46875 2.5 -0.46875q1.515625 0 2.671875 0.484375q1.15625 0.484375 1.765625 1.4375q0.625 0.9375 0.671875 2.140625l-1.71875 0.125q-0.140625 -1.28125 -0.953125 -1.9375q-0.796875 -0.671875 -2.359375 -0.671875q-1.625 0 -2.375 0.609375q-0.75 0.59375 -0.75 1.4375q0 0.734375 0.53125 1.203125q0.515625 0.46875 2.703125 0.96875q2.203125 0.5 3.015625 0.875q1.1875 0.546875 1.75 1.390625q0.578125 0.828125 0.578125 1.921875q0 1.09375 -0.625 2.0625q-0.625 0.953125 -1.796875 1.484375q-1.15625 0.53125 -2.609375 0.53125q-1.84375 0 -3.09375 -0.53125q-1.25 -0.546875 -1.96875 -1.625q-0.703125 -1.078125 -0.734375 -2.453125zm19.584198 1.203125l1.71875 0.21875q-0.40625 1.5 -1.515625 2.34375q-1.09375 0.828125 -2.8125 0.828125q-2.15625 0 -3.421875 -1.328125q-1.265625 -1.328125 -1.265625 -3.734375q0 -2.484375 1.265625 -3.859375q1.28125 -1.375 3.328125 -1.375q1.984375 0 3.234375 1.34375q1.25 1.34375 1.25 3.796875q0 0.140625 -0.015625 0.4375l-7.34375 0q0.09375 1.625 0.921875 2.484375q0.828125 0.859375 2.0625 0.859375q0.90625 0 1.546875 -0.46875q0.65625 -0.484375 1.046875 -1.546875zm-5.484375 -2.703125l5.5 0q-0.109375 -1.234375 -0.625 -1.859375q-0.796875 -0.96875 -2.078125 -0.96875q-1.140625 0 -1.9375 0.78125q-0.78125 0.765625 -0.859375 2.046875zm9.094482 5.875l0 -9.859375l1.5 0l0 1.5q0.578125 -1.046875 1.0625 -1.375q0.484375 -0.34375 1.078125 -0.34375q0.84375 0 1.71875 0.546875l-0.578125 1.546875q-0.609375 -0.359375 -1.234375 -0.359375q-0.546875 0 -0.984375 0.328125q-0.421875 0.328125 -0.609375 0.90625q-0.28125 0.890625 -0.28125 1.953125l0 5.15625l-1.671875 0zm8.962677 0l-3.75 -9.859375l1.765625 0l2.125 5.90625q0.34375 0.953125 0.625 1.984375q0.21875 -0.78125 0.625 -1.875l2.1875 -6.015625l1.71875 0l-3.734375 9.859375l-1.5625 0zm6.609375 -11.6875l0 -1.90625l1.671875 0l0 1.90625l-1.671875 0zm0 11.6875l0 -9.859375l1.671875 0l0 9.859375l-1.671875 0zm10.566681 -3.609375l1.640625 0.21875q-0.265625 1.6875 -1.375 2.65625q-1.109375 0.953125 -2.734375 0.953125q-2.015625 0 -3.25 -1.3125q-1.21875 -1.328125 -1.21875 -3.796875q0 -1.59375 0.515625 -2.78125q0.53125 -1.203125 1.609375 -1.796875q1.09375 -0.609375 2.359375 -0.609375q1.609375 0 2.625 0.8125q1.015625 0.8125 1.3125 2.3125l-1.625 0.25q-0.234375 -1.0 -0.828125 -1.5q-0.59375 -0.5 -1.421875 -0.5q-1.265625 0 -2.0625 0.90625q-0.78125 0.90625 -0.78125 2.859375q0 1.984375 0.765625 2.890625q0.765625 0.890625 1.984375 0.890625q0.984375 0 1.640625 -0.59375q0.65625 -0.609375 0.84375 -1.859375zm9.640625 0.4375l1.71875 0.21875q-0.40625 1.5 -1.515625 2.34375q-1.09375 0.828125 -2.8125 0.828125q-2.15625 0 -3.421875 -1.328125q-1.265625 -1.328125 -1.265625 -3.734375q0 -2.484375 1.265625 -3.859375q1.28125 -1.375 3.328125 -1.375q1.984375 0 3.234375 1.34375q1.25 1.34375 1.25 3.796875q0 0.140625 -0.015625 0.4375l-7.34375 0q0.09375 1.625 0.921875 2.484375q0.828125 0.859375 2.0625 0.859375q0.90625 0 1.546875 -0.46875q0.65625 -0.484375 1.046875 -1.546875zm-5.484375 -2.703125l5.5 0q-0.109375 -1.234375 -0.625 -1.859375q-0.796875 -0.96875 -2.078125 -0.96875q-1.140625 0 -1.9375 0.78125q-0.78125 0.765625 -0.859375 2.046875z" fill-rule="nonzero"></path><path fill="#cfe2f3" d="m513.9869 158.09448l149.10236 0l0 70.61418l-149.10236 0z" fill-rule="evenodd"></path><path stroke="#000000" stroke-width="1.0" stroke-linejoin="round" stroke-linecap="butt" d="m513.9869 158.09448l149.10236 0l0 70.61418l-149.10236 0z" fill-rule="evenodd"></path><path fill="#000000" d="m551.48425 195.55595l1.796875 0.453125q-0.5625 2.21875 -2.03125 3.390625q-1.46875 1.15625 -3.59375 1.15625q-2.203125 0 -3.578125 -0.890625q-1.375 -0.90625 -2.09375 -2.59375q-0.71875 -1.703125 -0.71875 -3.65625q0 -2.125 0.796875 -3.703125q0.8125 -1.578125 2.3125 -2.390625q1.5 -0.828125 3.296875 -0.828125q2.046875 0 3.4375 1.046875q1.390625 1.03125 1.9375 2.90625l-1.765625 0.421875q-0.46875 -1.484375 -1.375 -2.15625q-0.90625 -0.6875 -2.265625 -0.6875q-1.5625 0 -2.625 0.75q-1.046875 0.75 -1.484375 2.03125q-0.421875 1.265625 -0.421875 2.609375q0 1.734375 0.5 3.03125q0.515625 1.28125 1.578125 1.921875q1.078125 0.640625 2.3125 0.640625q1.515625 0 2.5625 -0.859375q1.046875 -0.875 1.421875 -2.59375zm2.9260864 -0.15625q0 -2.734375 1.53125 -4.0625q1.265625 -1.09375 3.09375 -1.09375q2.03125 0 3.3125 1.34375q1.296875 1.328125 1.296875 3.671875q0 1.90625 -0.578125 3.0q-0.5625 1.078125 -1.65625 1.6875q-1.078125 0.59375 -2.375 0.59375q-2.0625 0 -3.34375 -1.328125q-1.28125 -1.328125 -1.28125 -3.8125zm1.71875 0q0 1.890625 0.828125 2.828125q0.828125 0.9375 2.078125 0.9375q1.25 0 2.0625 -0.9375q0.828125 -0.953125 0.828125 -2.890625q0 -1.828125 -0.828125 -2.765625q-0.828125 -0.9375 -2.0625 -0.9375q-1.25 0 -2.078125 0.9375q-0.828125 0.9375 -0.828125 2.828125zm9.281921 4.921875l0 -9.859375l1.5 0l0 1.390625q0.453125 -0.71875 1.21875 -1.15625q0.78125 -0.453125 1.765625 -0.453125q1.09375 0 1.796875 0.453125q0.703125 0.453125 0.984375 1.28125q1.171875 -1.734375 3.046875 -1.734375q1.46875 0 2.25 0.8125q0.796875 0.8125 0.796875 2.5l0 6.765625l-1.671875 0l0 -6.203125q0 -1.0 -0.15625 -1.4375q-0.15625 -0.453125 -0.59375 -0.71875q-0.421875 -0.265625 -1.0 -0.265625q-1.03125 0 -1.71875 0.6875q-0.6875 0.6875 -0.6875 2.21875l0 5.71875l-1.671875 0l0 -6.40625q0 -1.109375 -0.40625 -1.65625q-0.40625 -0.5625 -1.34375 -0.5625q-0.703125 0 -1.3125 0.375q-0.59375 0.359375 -0.859375 1.078125q-0.265625 0.71875 -0.265625 2.0625l0 5.109375l-1.671875 0zm15.5408325 3.78125l0 -13.640625l1.53125 0l0 1.28125q0.53125 -0.75 1.203125 -1.125q0.6875 -0.375 1.640625 -0.375q1.265625 0 2.234375 0.65625q0.96875 0.640625 1.453125 1.828125q0.5 1.1875 0.5 2.59375q0 1.515625 -0.546875 2.734375q-0.546875 1.203125 -1.578125 1.84375q-1.03125 0.640625 -2.171875 0.640625q-0.84375 0 -1.515625 -0.34375q-0.65625 -0.359375 -1.078125 -0.890625l0 4.796875l-1.671875 0zm1.515625 -8.65625q0 1.90625 0.765625 2.8125q0.78125 0.90625 1.875 0.90625q1.109375 0 1.890625 -0.9375q0.796875 -0.9375 0.796875 -2.921875q0 -1.875 -0.78125 -2.8125q-0.765625 -0.9375 -1.84375 -0.9375q-1.0625 0 -1.890625 1.0q-0.8125 1.0 -0.8125 2.890625zm8.235107 -0.046875q0 -2.734375 1.53125 -4.0625q1.265625 -1.09375 3.09375 -1.09375q2.03125 0 3.3125 1.34375q1.296875 1.328125 1.296875 3.671875q0 1.90625 -0.578125 3.0q-0.5625 1.078125 -1.65625 1.6875q-1.078125 0.59375 -2.375 0.59375q-2.0625 0 -3.34375 -1.328125q-1.28125 -1.328125 -1.28125 -3.8125zm1.71875 0q0 1.890625 0.828125 2.828125q0.828125 0.9375 2.078125 0.9375q1.25 0 2.0625 -0.9375q0.828125 -0.953125 0.828125 -2.890625q0 -1.828125 -0.828125 -2.765625q-0.828125 -0.9375 -2.0625 -0.9375q-1.25 0 -2.078125 0.9375q-0.828125 0.9375 -0.828125 2.828125zm9.281921 4.921875l0 -9.859375l1.5 0l0 1.40625q1.09375 -1.625 3.140625 -1.625q0.890625 0 1.640625 0.328125q0.75 0.3125 1.109375 0.84375q0.375 0.515625 0.53125 1.21875q0.09375 0.46875 0.09375 1.625l0 6.0625l-1.671875 0l0 -6.0q0 -1.015625 -0.203125 -1.515625q-0.1875 -0.515625 -0.6875 -0.8125q-0.5 -0.296875 -1.171875 -0.296875q-1.0625 0 -1.84375 0.671875q-0.765625 0.671875 -0.765625 2.578125l0 5.375l-1.671875 0zm17.125732 -3.171875l1.71875 0.21875q-0.40625 1.5 -1.515625 2.34375q-1.09375 0.828125 -2.8125 0.828125q-2.15625 0 -3.421875 -1.328125q-1.265625 -1.328125 -1.265625 -3.734375q0 -2.484375 1.265625 -3.859375q1.28125 -1.375 3.328125 -1.375q1.984375 0 3.234375 1.34375q1.25 1.34375 1.25 3.796875q0 0.140625 -0.015625 0.4375l-7.34375 0q0.09375 1.625 0.921875 2.484375q0.828125 0.859375 2.0625 0.859375q0.90625 0 1.546875 -0.46875q0.65625 -0.484375 1.046875 -1.546875zm-5.484375 -2.703125l5.5 0q-0.109375 -1.234375 -0.625 -1.859375q-0.796875 -0.96875 -2.078125 -0.96875q-1.140625 0 -1.9375 0.78125q-0.78125 0.765625 -0.859375 2.046875zm9.110107 5.875l0 -9.859375l1.5 0l0 1.40625q1.09375 -1.625 3.140625 -1.625q0.890625 0 1.640625 0.328125q0.75 0.3125 1.109375 0.84375q0.375 0.515625 0.53125 1.21875q0.09375 0.46875 0.09375 1.625l0 6.0625l-1.671875 0l0 -6.0q0 -1.015625 -0.203125 -1.515625q-0.1875 -0.515625 -0.6875 -0.8125q-0.5 -0.296875 -1.171875 -0.296875q-1.0625 0 -1.84375 0.671875q-0.765625 0.671875 -0.765625 2.578125l0 5.375l-1.671875 0zm14.031982 -1.5l0.234375 1.484375q-0.703125 0.140625 -1.265625 0.140625q-0.90625 0 -1.40625 -0.28125q-0.5 -0.296875 -0.703125 -0.75q-0.203125 -0.46875 -0.203125 -1.984375l0 -5.65625l-1.234375 0l0 -1.3125l1.234375 0l0 -2.4375l1.65625 -1.0l0 3.4375l1.6875 0l0 1.3125l-1.6875 0l0 5.75q0 0.71875 0.078125 0.921875q0.09375 0.203125 0.296875 0.328125q0.203125 0.125 0.578125 0.125q0.265625 0 0.734375 -0.078125z" fill-rule="nonzero"></path><path fill="#000000" fill-opacity="0.0" d="m364.113 57.874016l-74.55118 100.22047" fill-rule="evenodd"></path><path stroke="#000000" stroke-width="1.0" stroke-linejoin="round" stroke-linecap="butt" d="m364.11304 57.874016l-70.97009 95.40635" fill-rule="evenodd"></path><path fill="#000000" stroke="#000000" stroke-width="1.0" stroke-linecap="butt" d="m291.81766 152.29453l-1.3832703 4.626999l4.0338135 -2.6553192z" fill-rule="evenodd"></path><path fill="#000000" fill-opacity="0.0" d="m322.3493 141.18942l31.62204 -45.98426l26.992126 18.58268l-31.62204 45.984253z" fill-rule="evenodd"></path><path fill="#000000" d="m344.34192 145.42256l-5.210388 -7.5897064l0.6905823 -1.0042267l9.070526 1.9763641l-0.7260132 1.0557251l-2.724762 -0.64282227l-2.0274353 2.948288l1.6092224 2.26503l-0.6817322 0.99134827zm-1.5009155 -4.0494995l1.646759 -2.3946838l-2.4608765 -0.6128998q-1.1270752 -0.26374817 -1.8124695 -0.5079651q0.5847168 0.61120605 1.0857544 1.3165588l1.5408325 2.1989899zm6.919403 -7.856018l0.7001648 -0.769989q0.777771 0.74412537 0.8812866 1.6690369q0.103515625 0.9249115 -0.47195435 1.7617645q-0.72598267 1.0557098 -1.850769 1.2298584q-1.1288147 0.15238953 -2.415802 -0.7336426q-0.82366943 -0.5670471 -1.2554932 -1.2627106q-0.43585205 -0.7174072 -0.3640442 -1.4836578q0.08068848 -0.779129 0.54104614 -1.4486084q0.5666504 -0.8239746 1.3543396 -1.0594482q0.7836914 -0.25720215 1.6749878 0.12878418l-0.45562744 0.938324q-0.5944824 -0.23854065 -1.0643616 -0.10675049q-0.48275757 0.122924805 -0.78378296 0.5606537q-0.45150757 0.65660095 -0.25863647 1.3964233q0.17999268 0.73095703 1.1967163 1.4309235q1.0424805 0.7176819 1.7802429 0.6375427q0.73779297 -0.08013916 1.1716003 -0.71099854q0.3541565 -0.51498413 0.27545166 -1.0623779q-0.06982422 -0.56025696 -0.655365 -1.1151276zm3.506134 -2.7270355l0.84783936 0.39401245q-0.1795044 0.42652893 -0.3742981 0.7097626q-0.32757568 0.47636414 -0.6462097 0.6363983q-0.33151245 0.15116882 -0.6557312 0.09869385q-0.31536865 -0.06535339 -1.1004333 -0.60583496l-2.9472046 -2.029007l-0.4338379 0.6308594l-0.66922 -0.46073914l0.43380737 -0.6308594l-1.2741089 -0.87716675l0.07836914 -1.2170105l1.7889404 1.2315826l0.60202026 -0.875473l0.6692505 0.46073914l-0.6020508 0.875473l2.9987183 2.0644379q0.37322998 0.256958 0.5027466 0.2892151q0.1383667 0.019378662 0.27355957 -0.03930664q0.13516235 -0.05870056 0.26797485 -0.2518158q0.10623169 -0.15449524 0.23986816 -0.40396118zm-4.7147827 -4.5049973l-1.0038452 -0.6911011l0.60202026 -0.87548065l1.0038757 0.6911087l-0.6020508 0.875473zm6.0746155 4.1820602l-5.122223 -3.5263977l0.60202026 -0.875473l5.1222534 3.5263977l-0.6020508 0.875473zm-1.2718201 -3.6380692q-1.4285583 -0.98349 -1.5706177 -2.2384415q-0.114746094 -1.0464554 0.5404053 -1.999176q0.7260132 -1.0557251 1.8813477 -1.2467499q1.1513672 -0.2127533 2.373993 0.6289749q0.9909973 0.6822357 1.3536377 1.3682098q0.36264038 0.6859665 0.28598022 1.4868317q-0.08065796 0.77913666 -0.54104614 1.448616q-0.73483276 1.0685883 -1.8773193 1.2684784q-1.1465149 0.17814636 -2.4463806 -0.71674347zm0.6109009 -0.88835144q0.9781189 0.6733856 1.7593384 0.5852127q0.7900696 -0.1010437 1.2327576 -0.74477386q0.45150757 -0.6566086 0.25460815 -1.4181595q-0.1968689 -0.76155853 -1.2007446 -1.4526596q-0.95236206 -0.65566254 -1.7424316 -0.55461884q-0.78125 0.08817291 -1.2239075 0.7319031q-0.442688 0.6437378 -0.25463867 1.4181595q0.184021 0.7527008 1.1750183 1.4349365zm5.953125 -3.1693878l-5.1222534 -3.5263977l0.5312195 -0.7724762l0.7207031 0.49617767q-0.44699097 -1.1424026 0.2878418 -2.2109985q0.3187256 -0.46348572 0.75164795 -0.73454285q0.44177246 -0.28392792 0.84484863 -0.2909851q0.40307617 -0.0070495605 0.81655884 0.16378784q0.27108765 0.1297226 0.87597656 0.54615784l3.1531372 2.1707687l-0.5932007 0.86260223l-3.1145325 -2.144188q-0.54052734 -0.37213898 -0.8687439 -0.44634247q-0.32824707 -0.07421112 -0.6597595 0.0769577q-0.34436035 0.1423111 -0.58340454 0.48992157q-0.3807068 0.55361176 -0.30368042 1.2136841q0.07305908 0.6383438 1.0511475 1.3117294l2.805664 1.9315414l-0.59317017 0.86260223z" fill-rule="nonzero"></path><path fill="#000000" fill-opacity="0.0" d="m364.113 89.580055l-49.763763 68.40945" fill-rule="evenodd"></path><path stroke="#000000" stroke-width="1.0" stroke-linejoin="round" stroke-linecap="butt" d="m360.58347 94.43208l-46.234222 63.55742" fill-rule="evenodd"></path><path fill="#000000" stroke="#000000" stroke-width="1.0" stroke-linecap="butt" d="m361.91916 95.40373l1.3338928 -4.6414795l-4.00531 2.6981812z" fill-rule="evenodd"></path><path fill="#000000" fill-opacity="0.0" d="m278.1406 124.038635l53.385834 -70.58268l26.141724 19.779526l-53.385803 70.58268z" fill-rule="evenodd"></path><path fill="#000000" d="m296.943 126.25416q-1.7070618 -1.2916031 -1.9784241 -2.9272537q-0.27441406 -1.6575394 0.8189697 -3.103119q0.72576904 -0.9595642 1.7617493 -1.3709106q1.023529 -0.42077637 2.1350708 -0.20674896q1.1115417 0.2140274 2.145752 0.9965286q1.0341797 0.7825012 1.5361023 1.8284378q0.5018921 1.0459366 0.341156 2.1391144q-0.15130615 1.080719 -0.82995605 1.9779739q-0.735199 0.972023 -1.7711792 1.3833694q-1.0484619 0.40192413 -2.1475525 0.19732666q-1.1021118 -0.2264862 -2.0116882 -0.9147186zm0.71936035 -0.92520905q1.2460327 0.94277954 2.455841 0.81967926q1.2192078 -0.13555908 1.9826965 -1.1449661q0.7728882 -1.0218735 0.56222534 -2.2197342q-0.22314453 -1.2072906 -1.5563965 -2.2160645q-0.83483887 -0.63165283 -1.6746521 -0.8164215q-0.8303528 -0.19722748 -1.5815125 0.09654236q-0.76361084 0.28434753 -1.2726135 0.95729065q-0.72576904 0.9595642 -0.5932007 2.1570969q0.13253784 1.1975327 1.6776123 2.3665771zm8.966949 -4.9396515l-0.59381104 0.7850952l-6.853119 -5.185272l0.6409302 -0.8474045l2.4421997 1.8478394q-0.25506592 -1.0355301 0.3670044 -1.8580093q0.34875488 -0.4610901 0.8372803 -0.71845245q0.48550415 -0.2792511 1.019867 -0.28639984q0.5437927 -0.019615173 1.1303711 0.18909454q0.5866089 0.20871735 1.122406 0.6141052q1.270935 0.9616318 1.4880066 2.125145q0.21707153 1.1635056 -0.4427185 2.035843q-0.66922 0.8847885 -1.7814026 0.82702637l0.62298584 0.47138977zm-2.5263977 -1.8919449q0.8847046 0.6693649 1.4719238 0.721817q0.94955444 0.09146881 1.4585571 -0.5814743q0.4147339 -0.5483246 0.24285889 -1.3053589q-0.16244507 -0.7694931 -1.1218872 -1.49543q-0.9718933 -0.7353668 -1.7251282 -0.697876q-0.75323486 0.037490845 -1.1679382 0.5858154q-0.4147339 0.54831696 -0.23983765 1.32724q0.171875 0.7570343 1.0814514 1.4452667zm4.2306824 -3.4436264l0.49749756 -0.9167633q0.55496216 0.30233765 1.0522766 0.18877411q0.50671387 -0.12602234 0.94973755 -0.71173096q0.43356323 -0.5732422 0.4166565 -1.0171051q-0.019958496 -0.46575165 -0.3439331 -0.71086884q-0.28659058 -0.21684265 -0.63708496 -0.090164185q-0.2441101 0.08961487 -0.9369507 0.64302826q-0.9342346 0.7430496 -1.3695679 0.9818802q-0.4383545 0.21694946 -0.8787842 0.1776123q-0.4404297 -0.039344788 -0.8142395 -0.32217407q-0.3239746 -0.24512482 -0.49743652 -0.6115036q-0.17349243 -0.36637878 -0.16244507 -0.7694931q0.01373291 -0.3031006 0.16854858 -0.7149887q0.15481567 -0.41189575 0.4564209 -0.8106766q0.43359375 -0.5732422 0.93792725 -0.8774185q0.50131226 -0.32606506 0.9481201 -0.32108307q0.44683838 0.004989624 0.9768677 0.28847504l-0.50994873 0.9073334q-0.41149902 -0.23298645 -0.8306885 -0.11909485q-0.4222412 0.09199524 -0.7992554 0.59046936q-0.43359375 0.5732498 -0.4227295 0.97332764q-0.0016174316 0.39065552 0.2600708 0.5886383q0.16195679 0.122558594 0.361969 0.11714172q0.22189331 -0.008453369 0.46936035 -0.1543045q0.144104 -0.08691406 0.77737427 -0.5874405q0.9278259 -0.7087021 1.3412781 -0.9445038q0.41345215 -0.23579407 0.8508301 -0.21834564q0.43740845 0.017448425 0.87350464 0.34741974q0.42364502 0.32054138 0.60894775 0.85261536q0.18225098 0.5101776 0.04534912 1.1315384q-0.14938354 0.61193085 -0.5924072 1.1976395q-0.735199 0.972023 -1.5203552 1.1812744q-0.7882385 0.18735504 -1.6769104 -0.26950836zm6.3255615 -8.596306l0.75949097 -0.7969055q0.6092529 0.7744827 0.60876465 1.6558151q-5.187988E-4 0.88132477 -0.6508789 1.7411957q-0.82003784 1.0841751 -1.9830322 1.2230988q-1.1535645 0.12644958 -2.3621826 -0.78804016q-1.2460327 -0.9427719 -1.4412231 -2.1093216q-0.2076416 -1.175972 0.5652771 -2.1978378q0.7540283 -0.9969559 1.8981628 -1.1109467q1.1535645 -0.12645721 2.387146 0.8068924q0.07476807 0.05656433 0.22427368 0.16970062l-2.799408 3.7011719q0.8600769 0.5723877 1.6072388 0.49111176q0.7346802 -0.09069061 1.2059631 -0.7137909q0.34875488 -0.46108246 0.35708618 -0.96421814q0.005279541 -0.52503204 -0.37667847 -1.1079254zm-3.4412231 1.726448l2.0924988 -2.766533q-0.67318726 -0.43096924 -1.1826172 -0.40496063q-0.7969971 0.043556213 -1.27771 0.6791153q-0.44302368 0.585701 -0.35836792 1.276741q0.09408569 0.67858124 0.7261963 1.2156372zm6.488861 -2.4403763l-4.9591675 -3.7522507l0.5749512 -0.76017l0.7476196 0.5656662q-0.30654907 -0.68258667 -0.2894287 -1.0419235q0.0140686035 -0.3812256 0.24029541 -0.6803131q0.3204651 -0.42370605 0.9120178 -0.6618881l0.5682068 0.8805771q-0.4225464 0.17012787 -0.6487427 0.4692154q-0.21679688 0.2866211 -0.21203613 0.64292145q0.0017700195 0.33441162 0.23483276 0.6479111q0.33544922 0.488945 0.85879517 0.8849106l2.604187 1.970398l-0.63153076 0.8349457zm3.4568787 -4.570389l-6.382477 -1.8705063l0.66922 -0.8847885l3.7761536 1.172081q0.60849 0.20568085 1.2324524 0.44268036q-0.30142212 -0.40441895 -0.69885254 -1.018631l-2.1889648 -3.400055l0.6503601 -0.8598633l3.5359192 5.6339874l-0.59381104 0.7850952zm4.4227295 -7.1165924q0.04055786 0.77523804 -0.12738037 1.3339691q-0.15847778 0.546257 -0.53549194 1.0447311q-0.62210083 0.8224869 -1.3507385 0.9569626q-0.7286072 0.13447571 -1.3516235 -0.33691406q-0.36135864 -0.27339935 -0.5378723 -0.6616745q-0.18896484 -0.39769745 -0.15603638 -0.80384827q0.020446777 -0.41557312 0.18771362 -0.81803894q0.1043396 -0.2933426 0.4284973 -0.85141754q0.65133667 -1.0942612 0.8444824 -1.7122574q-0.17443848 -0.13199615 -0.21182251 -0.16027832q-0.52334595 -0.39596558 -0.9142456 -0.319458q-0.51919556 0.11659241 -0.99990845 0.7521515q-0.44299316 0.5857086 -0.44796753 1.0326004q-0.017425537 0.43746948 0.40222168 0.9705124l-0.7342224 0.73763275q-0.43850708 -0.5081177 -0.5645447 -1.0149384q-0.12600708 -0.5068207 0.06713867 -1.1248245q0.19314575 -0.61800385 0.67385864 -1.2535553q0.4807129 -0.6355591 0.93185425 -0.9212036q0.45114136 -0.28564453 0.816803 -0.3028717q0.36569214 -0.017227173 0.77111816 0.17197418q0.2401123 0.12288666 0.80081177 0.5471344l1.1214294 0.8485031q1.1712646 0.8862076 1.5204773 1.072052q0.35864258 0.17338562 0.76776123 0.22821808l-0.66922 0.88479614q-0.3559265 -0.07336426 -0.73309326 -0.29995728zm-1.9380493 -1.3488235q-0.16186523 0.60250854 -0.7128601 1.6159286q-0.32110596 0.5799637 -0.38168335 0.8672409q-0.07299805 0.2778473 0.007171631 0.53445435q0.08963013 0.24414062 0.3139038 0.41384125q0.33642578 0.25454712 0.74923706 0.17501068q0.4222107 -0.09199524 0.78982544 -0.57801056q0.36758423 -0.4860077 0.4385376 -1.0201416q0.0803833 -0.5465851 -0.1614685 -1.0038834q-0.18292236 -0.35391998 -0.73117065 -0.7687454l-0.31149292 -0.23569489zm4.708252 -1.0445404l-0.59381104 0.7850952l-6.8531494 -5.1852646l0.6409302 -0.8474045l2.4422302 1.8478394q-0.25509644 -1.0355301 0.3670044 -1.858017q0.34872437 -0.4610901 0.83724976 -0.71845245q0.48550415 -0.2792511 1.019867 -0.28639984q0.5437927 -0.019615173 1.1304016 0.18910217q0.58657837 0.20870972 1.1223755 0.6141052q1.270935 0.9616318 1.4880066 2.1251373q0.21707153 1.1635132 -0.4427185 2.035843q-0.66922 0.8847885 -1.7814026 0.82702637l0.62301636 0.47138977zm-2.5263977 -1.8919449q0.8846741 0.66937256 1.4719238 0.72182465q0.94955444 0.09146118 1.4585266 -0.58148193q0.4147339 -0.54831696 0.24285889 -1.3053513q-0.16244507 -0.76950073 -1.1218872 -1.4954376q-0.9718933 -0.7353668 -1.7251282 -0.697876q-0.75320435 0.037490845 -1.1679382 0.5858154q-0.4147339 0.5483246 -0.23983765 1.3272476q0.171875 0.7570343 1.0814819 1.4452591zm5.949066 -2.6332703l-6.853119 -5.1852646l0.6409302 -0.8474045l6.8531494 5.1852646l-0.6409607 0.8474045zm2.5959778 -6.7476044l0.75946045 -0.79691315q0.60928345 0.77449036 0.60876465 1.6558151q-4.8828125E-4 0.88132477 -0.6508789 1.7411957q-0.8200073 1.0841827 -1.9830017 1.2230988q-1.1535645 0.12645721 -2.3622131 -0.78804016q-1.2460327 -0.9427719 -1.4411926 -2.109314q-0.2076416 -1.175972 0.5652466 -2.1978455q0.75405884 -0.99694824 1.8981934 -1.1109467q1.1535645 -0.12644958 2.3871155 0.8068924q0.07476807 0.05657196 0.2243042 0.16970062l-2.7994385 3.7011719q0.8600769 0.5723877 1.6072388 0.49111938q0.7347107 -0.09069824 1.2059937 -0.7137909q0.34872437 -0.4610901 0.35705566 -0.96422577q0.005279541 -0.5250244 -0.37664795 -1.1079178zm-3.4412537 1.7264404l2.0924988 -2.766533q-0.67315674 -0.4309616 -1.1826172 -0.40496063q-0.7969971 0.043556213 -1.27771 0.6791153q-0.44299316 0.5857086 -0.3583374 1.2767487q0.094055176 0.6785736 0.7261658 1.2156296z" fill-rule="nonzero"></path><path fill="#000000" fill-opacity="0.0" d="m588.5381 158.09448l-74.834656 -100.22047" fill-rule="evenodd"></path><path stroke="#000000" stroke-width="1.0" stroke-linejoin="round" stroke-linecap="butt" d="m584.9482 153.2869l-71.24475 -95.41288" fill-rule="evenodd"></path><path fill="#000000" stroke="#000000" stroke-width="1.0" stroke-linecap="butt" d="m583.62476 154.27513l4.0386353 2.6479797l-1.3916626 -4.624466z" fill-rule="evenodd"></path><path fill="#000000" fill-opacity="0.0" d="m528.0959 101.92966l35.08661 47.685043l-26.393677 19.43306l-35.08664 -47.685036z" fill-rule="evenodd"></path><path fill="#000000" d="m516.8963 121.33257l8.874207 -2.4397812l0.72229004 0.9816513l-4.836731 7.926956l-0.7593384 -1.0319977l1.4993286 -2.3651505l-2.1206055 -2.882019l-2.6661377 0.7794037l-0.7130127 -0.9690628zm4.315979 -0.09263611l1.7224121 2.3408585l1.3847046 -2.1255112q0.61816406 -0.9790268 1.0732422 -1.546936q-0.7687378 0.35256195 -1.598938 0.5951767l-2.581421 0.73641205zm5.1538086 9.113472l0.4979248 0.91400146q-0.9574585 0.49153137 -1.8648682 0.28649902q-0.9074707 -0.2050476 -1.5093384 -1.0230865q-0.7593384 -1.0319824 -0.55548096 -2.1522522q0.22564697 -1.1169434 1.4838867 -2.0433502q0.80529785 -0.59290314 1.6036987 -0.77329254q0.82025146 -0.17707062 1.5204468 0.14176178q0.7094116 0.33141327 1.190979 0.9858475q0.59265137 0.80545044 0.5570679 1.6271591q-0.013671875 0.8250427 -0.670105 1.5411682l-0.7369995 -0.7379761q0.4199829 -0.48384094 0.44934082 -0.9711609q0.041992188 -0.4965973 -0.27282715 -0.9244995q-0.47229004 -0.6418457 -1.2341309 -0.7017975q-0.7493286 -0.0692215 -1.7433472 0.66264343q-1.019165 0.7503967 -1.1850586 1.4740448q-0.16589355 0.7236481 0.2878418 1.340332q0.37042236 0.5034027 0.913147 0.6082916q0.55200195 0.11746216 1.2678223 -0.2543335zm1.4274292 4.207321l-0.6497803 0.6724396q-0.34405518 -0.3093872 -0.5477295 -0.58625793q-0.34265137 -0.46566772 -0.38946533 -0.8192749q-0.034179688 -0.36286926 0.121520996 -0.65216064q0.16497803 -0.27670288 0.9324951 -0.84181213l2.8814087 -2.1214752l-0.4537964 -0.61668396l0.6542969 -0.48173523l0.45373535 0.61668396l1.2456665 -0.91716003l1.1237183 0.47265625l-1.7489014 1.2877045l0.6296997 0.85580444l-0.6542969 0.48173523l-0.6296997 -0.85580444l-2.9317017 2.1585388q-0.36486816 0.2686615 -0.43774414 0.38053894q-0.06365967 0.12445068 -0.052490234 0.27145386q0.011169434 0.14700317 0.15008545 0.3357849q0.11114502 0.15101624 0.30297852 0.35902405zm5.798584 -2.9814758l0.9814453 -0.7225952l0.6296997 0.8557892l-0.9814453 0.7226105l-0.6296997 -0.85580444zm-5.938904 4.3726654l5.0078125 -3.6871185l0.6296997 0.85580444l-5.0078125 3.6871185l-0.6296997 -0.85580444zm3.852417 -0.010818481q1.3966675 -1.0283203 2.628418 -0.75161743q1.0258789 0.23422241 1.7111206 1.1655273q0.7593384 1.0319977 0.5614624 2.1866913q-0.17608643 1.15802 -1.3713989 2.0381165q-0.9688721 0.71333313 -1.7354736 0.8314972q-0.76660156 0.1181488 -1.4978638 -0.21658325q-0.70947266 -0.33140564 -1.190979 -0.98583984q-0.7686157 -1.0445709 -0.58325195 -2.1900177q0.20715332 -1.1421051 1.4779663 -2.077774zm0.63897705 0.8683777q-0.9562378 0.70407104 -1.1287842 1.4714203q-0.16333008 0.77993774 0.29968262 1.409195q0.47229004 0.64186096 1.2559814 0.70513916q0.78375244 0.06326294 1.7651978 -0.6593323q0.9310913 -0.6855469 1.0943604 -1.4654846q0.17254639 -0.76734924 -0.2904663 -1.3966064q-0.4630127 -0.62927246 -1.2559814 -0.7051239q-0.7711792 -0.07254028 -1.7399902 0.64079285zm1.0439453 6.665283l5.0077515 -3.6871185l0.555603 0.7551117l-0.70458984 0.5187988q1.2252808 -0.048416138 1.9938965 0.9961548q0.33337402 0.45307922 0.44763184 0.95106506q0.12347412 0.51057434 -0.0018310547 0.89390564q-0.12536621 0.38331604 -0.4220581 0.7182312q-0.21130371 0.21377563 -0.80267334 0.6491852l-3.0827026 2.2697144l-0.62042236 -0.84321594l3.0449219 -2.2419128q0.5284424 -0.38909912 0.7060547 -0.6750641q0.17755127 -0.28596497 0.14331055 -0.6488342q-0.021606445 -0.3721466 -0.27166748 -0.7119446q-0.39813232 -0.5411682 -1.046814 -0.684494q-0.62677 -0.14001465 -1.5830078 0.5640564l-2.742981 2.019577l-0.62042236 -0.84321594z" fill-rule="nonzero"></path><path fill="#000000" fill-opacity="0.0" d="m563.1837 157.9895l-49.480286 -68.40945" fill-rule="evenodd"></path><path stroke="#000000" stroke-width="1.0" stroke-linejoin="round" stroke-linecap="butt" d="m563.1837 157.9895l-45.96393 -63.54785" fill-rule="evenodd"></path><path fill="#000000" stroke="#000000" stroke-width="1.0" stroke-linecap="butt" d="m518.5581 93.47363l-3.9979248 -2.709053l1.3212891 4.645088z" fill-rule="evenodd"></path><path fill="#000000" fill-opacity="0.0" d="m555.9826 62.605026l52.409485 71.30708l-26.425232 19.433075l-52.409424 -71.30709z" fill-rule="evenodd"></path><path fill="#000000" d="m548.49744 79.99892q1.7244873 -1.2682037 3.3692627 -1.0619049q1.666565 0.20962524 2.7399902 1.6700821q0.7125244 0.9694443 0.81121826 2.079956q0.111328125 1.1012497 -0.4107666 2.105835q-0.5220337 1.0045929 -1.5668335 1.7729187q-1.0447998 0.7683258 -2.1901855 0.95121765q-1.1453857 0.18289948 -2.1470947 -0.28295898q-0.9924927 -0.45326233 -1.6586914 -1.3597565q-0.72180176 -0.9820328 -0.82055664 -2.092537q-0.086120605 -1.1197662 0.42340088 -2.115097q0.53131104 -0.99199677 1.4502563 -1.6677551zm0.6813965 0.9535217q-1.2587891 0.9256897 -1.4858398 2.1206207q-0.21777344 1.2075119 0.5317383 2.2273178q0.75878906 1.0323944 1.9667358 1.1720276q1.22052 0.1303711 2.5673828 -0.8601227q0.8433838 -0.62021637 1.2599487 -1.3726349q0.42578125 -0.73983 0.3585205 -1.5437393q-0.0546875 -0.81316376 -0.5543823 -1.4930344q-0.7125244 -0.96943665 -1.8978882 -1.1838684q-1.1853638 -0.21443176 -2.7462158 0.93343353zm2.1762085 10.005249l-0.5830078 -0.7931824l6.923218 -5.091324l0.62927246 0.8561249l-2.4672241 1.8143692q1.0650635 0.05075836 1.6757812 0.88170624q0.34240723 0.46583557 0.44970703 1.007576q0.12915039 0.54507446 -0.016418457 1.0594025q-0.1362915 0.52692413 -0.50354004 1.0297699q-0.36730957 0.50284576 -0.90856934 0.90089417q-1.2839355 0.94421387 -2.4608154 0.82050323q-1.1768188 -0.12371063 -1.824585 -1.0050201q-0.6569824 -0.893898 -0.28442383 -1.9436722l-0.62939453 0.46285248zm2.5334473 -1.8824997q-0.8937378 0.65724945 -1.1114502 1.2052765q-0.35845947 0.8842468 0.14123535 1.5641098q0.40716553 0.55397034 1.1815796 0.6050949q0.7836914 0.063705444 1.7529907 -0.64907837q0.9818115 -0.7220459 1.1607056 -1.4548492q0.17889404 -0.7327957 -0.22827148 -1.286766q-0.40716553 -0.55397034 -1.2034302 -0.6084213q-0.7744751 -0.051124573 -1.6933594 0.6246338zm2.0933228 5.0379715l0.7366333 0.73838043q-0.44799805 0.44582367 -0.48101807 0.9549713q-0.023742676 0.5217438 0.41119385 1.1134796q0.42565918 0.57914734 0.85583496 0.68950653q0.45196533 0.11369324 0.77923584 -0.12699127q0.28955078 -0.21290588 0.2680664 -0.5850525q-0.016235352 -0.2595749 -0.348938 -1.0816345q-0.44561768 -1.1075516 -0.55029297 -1.59301q-0.08288574 -0.48212433 0.0803833 -0.8931427q0.16333008 -0.41101837 0.5409546 -0.68872833q0.3272705 -0.24067688 0.72784424 -0.3025055q0.40057373 -0.061828613 0.7836914 0.063713074q0.28649902 0.099609375 0.63708496 0.36549377q0.3505249 0.26587677 0.6466675 0.6687622q0.42565918 0.57914734 0.5733032 1.1493988q0.16949463 0.57359314 0.037231445 1.000534q-0.13220215 0.42694092 -0.5549927 0.85424805l-0.723999 -0.7476425q0.34057617 -0.32806396 0.35101318 -0.76242065q0.032226562 -0.431015 -0.33789062 -0.9346237q-0.42565918 -0.57914734 -0.8121338 -0.68283844q-0.37390137 -0.112953186 -0.6382446 0.08144379q-0.16363525 0.12034607 -0.2154541 0.31363678q-0.05517578 0.21513367 0.013977051 0.49396515q0.042175293 0.16293335 0.34124756 0.91278076q0.41448975 1.091629 0.522522 1.5552368q0.10809326 0.4636078 -0.03338623 0.8779602q-0.14147949 0.41435242 -0.58203125 0.7383499q-0.42797852 0.3147354 -0.9906616 0.34064484q-0.54089355 0.02923584 -1.097229 -0.27923584q-0.54382324 -0.3177185 -0.97869873 -0.909462q-0.72180176 -0.9820328 -0.6984253 -1.7944489q0.045288086 -0.80908966 0.73651123 -1.5307693zm6.4334717 8.515778l0.5470581 0.9553604q-0.91589355 0.36323547 -1.760315 0.11141205q-0.84436035 -0.2518158 -1.4829102 -1.1205368q-0.8050537 -1.0953522 -0.60650635 -2.249916q0.2078247 -1.1419754 1.428833 -2.039894q1.2587891 -0.9256973 2.432251 -0.78014374q1.1860962 0.13629913 1.9448853 1.1686935q0.7402954 1.0072174 0.5232544 2.1365967q-0.2078247 1.1419754 -1.4539795 2.0584183q-0.07556152 0.055541992 -0.2265625 0.16662598l-2.748352 -3.7392807q-0.7937622 0.6613159 -0.9289551 1.4007874q-0.12261963 0.73020935 0.3400879 1.3597183q0.3423462 0.46583557 0.82214355 0.61730194q0.5015869 0.15479279 1.1690674 -0.045143127zm-0.67297363 -3.7914429l2.0542603 2.795021q0.60498047 -0.52246857 0.7253418 -1.01828q0.18554688 -0.7764969 -0.28637695 -1.418602q-0.43493652 -0.59173584 -1.1212769 -0.70765686q-0.677063 -0.10332489 -1.3719482 0.34951782zm0.48797607 6.916794l5.0098877 -3.6842728l0.5644531 0.76799774l-0.755249 0.5554199q0.7415161 -0.099220276 1.0809326 0.01965332q0.36132812 0.12220764 0.58343506 0.4243698q0.3145752 0.42806244 0.3741455 1.063118l-1.0058594 0.29361725q-0.042541504 -0.45361328 -0.26464844 -0.75577545q-0.21282959 -0.28957367 -0.555603 -0.38659668q-0.32092285 -0.093696594 -0.6878052 0.04034424q-0.564209 0.18216705 -1.0928955 0.570961l-2.6307983 1.9347l-0.6199951 -0.8435364zm3.3937378 4.6174393l3.6126099 -5.5853806l0.6569824 0.893898l-2.2000732 3.2859116q-0.37060547 0.52469635 -0.7756958 1.0553131q0.47351074 -0.17365265 1.175415 -0.3795166l3.8823853 -1.1289215l0.63848877 0.868721l-6.4071655 1.7831573l-0.5829468 -0.7931824zm5.5581665 6.269562q-0.75445557 -0.1822052 -1.2419434 -0.5025177q-0.47827148 -0.307724 -0.8483887 -0.8113327q-0.6107788 -0.8309555 -0.5317993 -1.567833q0.07891846 -0.73687744 0.708313 -1.1997223q0.36499023 -0.2684555 0.78741455 -0.32695007q0.43499756 -0.06774902 0.81481934 0.07963562q0.39239502 0.13813019 0.7303467 0.4132614q0.25134277 0.18367767 0.69366455 0.65358734q0.862854 0.9364929 1.3999634 1.2979126q0.1762085 -0.12960052 0.21398926 -0.15737152q0.5286865 -0.38879395 0.5668335 -0.7853699q0.036315918 -0.53099823 -0.4356079 -1.1730957q-0.4348755 -0.59174347 -0.8617554 -0.7239456q-0.41418457 -0.14146423 -1.0446777 0.10883331l-0.49743652 -0.91426086q0.6119385 -0.27548218 1.1335449 -0.25177002q0.52160645 0.023712158 1.0587158 0.38513184q0.5371094 0.36141968 1.0090942 1.0035172q0.47192383 0.6421051 0.61694336 1.1560669q0.14508057 0.5139694 0.05731201 0.86945343q-0.087768555 0.35547638 -0.3847046 0.69020844q-0.18621826 0.19514465 -0.75268555 0.61170197l-1.1328735 0.8331299q-1.1832275 0.87015533 -1.4609375 1.1519394q-0.26843262 0.29437256 -0.43762207 0.67095184l-0.65704346 -0.893898q0.17181396 -0.32029724 0.496521 -0.6172638zm1.8452148 -1.4733429q-0.53118896 -0.3269806 -1.3451538 -1.1442337q-0.46417236 -0.47325134 -0.72216797 -0.61322784q-0.24542236 -0.14923096 -0.5142212 -0.14553833q-0.25952148 0.016288757 -0.48608398 0.18291473q-0.33984375 0.24993896 -0.38134766 0.6683655q-0.032287598 0.431015 0.32861328 0.9220352q0.36090088 0.4910202 0.852478 0.7113495q0.5008545 0.23293304 1.0080566 0.13148499q0.3912964 -0.074417114 0.9451294 -0.4817276l0.31469727 -0.23142242zm-0.34179688 4.811653l-0.5829468 -0.79317474l6.923218 -5.0913315l0.6292114 0.8561325l-2.467163 1.8143616q1.0650635 0.05075836 1.6757812 0.88171387q0.34240723 0.46583557 0.44970703 1.007576q0.12908936 0.54507446 -0.016418457 1.0594025q-0.1362915 0.52692413 -0.5036011 1.0297699q-0.36730957 0.50284576 -0.90856934 0.90089417q-1.2839355 0.94421387 -2.4607544 0.82050323q-1.1768188 -0.12371063 -1.824585 -1.0050201q-0.65704346 -0.89390564 -0.28448486 -1.9436722l-0.62939453 0.46284485zm2.5334473 -1.8824921q-0.89367676 0.6572418 -1.1114502 1.2052689q-0.35845947 0.8842468 0.14123535 1.5641174q0.40716553 0.55397034 1.1816406 0.6050873q0.7836914 0.063713074 1.7529297 -0.64907074q0.9818115 -0.7220459 1.1607056 -1.4548492q0.17889404 -0.73280334 -0.22827148 -1.286766q-0.40716553 -0.55397034 -1.2034302 -0.60842896q-0.77441406 -0.051116943 -1.6933594 0.6246414zm0.8267822 6.4543l6.923218 -5.091324l0.6292114 0.8561249l-6.923218 5.0913315l-0.6292114 -0.8561325zm5.725586 4.4130096l0.5469971 0.95536804q-0.91589355 0.36323547 -1.7602539 0.11141968q-0.8444214 -0.25183105 -1.4829102 -1.1205444q-0.8050537 -1.0953445 -0.60650635 -2.2499084q0.2078247 -1.1419754 1.428833 -2.0399017q1.258728 -0.9256973 2.432251 -0.78014374q1.1860962 0.13629913 1.9448853 1.1686935q0.7402954 1.0072174 0.5232544 2.1365967q-0.2078247 1.141983 -1.4539795 2.0584106q-0.07556152 0.055541992 -0.22662354 0.16662598l-2.748291 -3.739273q-0.7937622 0.6613159 -0.9289551 1.4007874q-0.12261963 0.73020935 0.34002686 1.359726q0.34240723 0.46583557 0.82214355 0.6172943q0.50164795 0.15480042 1.1691284 -0.045150757zm-0.67303467 -3.7914276l2.0543213 2.7950134q0.60498047 -0.52246857 0.7253418 -1.01828q0.18554688 -0.7764969 -0.28637695 -1.4185944q-0.43493652 -0.59174347 -1.1212769 -0.7076645q-0.677063 -0.10332489 -1.3720093 0.34952545z" fill-rule="nonzero"></path><path fill="#000000" fill-opacity="0.0" d="m388.5232 5.2467194l107.46457 0l0 32.787403l-107.46457 0z" fill-rule="evenodd"></path><path fill="#000000" d="m398.3982 25.76672l0 -8.59375l3.234375 0q0.984375 0 1.578125 0.265625q0.59375 0.265625 0.921875 0.8125q0.34375 0.53125 0.34375 1.125q0 0.546875 -0.296875 1.03125q-0.296875 0.484375 -0.90625 0.78125q0.78125 0.234375 1.1875 0.796875q0.421875 0.546875 0.421875 1.296875q0 0.59375 -0.25 1.125q-0.25 0.515625 -0.625 0.796875q-0.375 0.28125 -0.953125 0.421875q-0.5625 0.140625 -1.375 0.140625l-3.28125 0zm1.140625 -4.984375l1.859375 0q0.75 0 1.078125 -0.09375q0.4375 -0.125 0.65625 -0.421875q0.21875 -0.3125 0.21875 -0.765625q0 -0.421875 -0.203125 -0.75q-0.203125 -0.328125 -0.59375 -0.4375q-0.375 -0.125 -1.296875 -0.125l-1.71875 0l0 2.59375zm0 3.96875l2.140625 0q0.546875 0 0.765625 -0.046875q0.40625 -0.0625 0.65625 -0.21875q0.265625 -0.171875 0.4375 -0.484375q0.171875 -0.3125 0.171875 -0.71875q0 -0.484375 -0.25 -0.84375q-0.234375 -0.359375 -0.671875 -0.5q-0.4375 -0.140625 -1.265625 -0.140625l-1.984375 0l0 2.953125zm11.035156 -0.984375l1.09375 0.125q-0.25 0.953125 -0.953125 1.484375q-0.703125 0.53125 -1.78125 0.53125q-1.359375 0 -2.171875 -0.84375q-0.796875 -0.84375 -0.796875 -2.359375q0 -1.5625 0.8125 -2.421875q0.8125 -0.875 2.09375 -0.875q1.25 0 2.03125 0.84375q0.796875 0.84375 0.796875 2.390625q0 0.09375 0 0.28125l-4.640625 0q0.0625 1.03125 0.578125 1.578125q0.515625 0.53125 1.296875 0.53125q0.578125 0 0.984375 -0.296875q0.421875 -0.3125 0.65625 -0.96875zm-3.453125 -1.703125l3.46875 0q-0.0625 -0.796875 -0.390625 -1.1875q-0.515625 -0.609375 -1.3125 -0.609375q-0.734375 0 -1.234375 0.484375q-0.484375 0.484375 -0.53125 1.3125zm5.876953 3.703125l0 -8.59375l1.046875 0l0 3.078125q0.734375 -0.84375 1.859375 -0.84375q0.703125 0 1.203125 0.28125q0.515625 0.265625 0.734375 0.75q0.21875 0.46875 0.21875 1.390625l0 3.9375l-1.046875 0l0 -3.9375q0 -0.796875 -0.34375 -1.15625q-0.34375 -0.359375 -0.96875 -0.359375q-0.46875 0 -0.890625 0.25q-0.40625 0.234375 -0.59375 0.65625q-0.171875 0.40625 -0.171875 1.140625l0 3.40625l-1.046875 0zm10.736328 -0.765625q-0.59375 0.5 -1.140625 0.703125q-0.53125 0.203125 -1.15625 0.203125q-1.03125 0 -1.578125 -0.5q-0.546875 -0.5 -0.546875 -1.28125q0 -0.453125 0.203125 -0.828125q0.203125 -0.390625 0.546875 -0.609375q0.34375 -0.234375 0.765625 -0.34375q0.296875 -0.09375 0.9375 -0.171875q1.265625 -0.140625 1.875 -0.359375q0 -0.21875 0 -0.265625q0 -0.65625 -0.296875 -0.921875q-0.40625 -0.34375 -1.203125 -0.34375q-0.734375 0 -1.09375 0.265625q-0.359375 0.25 -0.53125 0.90625l-1.03125 -0.140625q0.140625 -0.65625 0.46875 -1.0625q0.328125 -0.40625 0.9375 -0.625q0.609375 -0.21875 1.40625 -0.21875q0.796875 0 1.296875 0.1875q0.5 0.1875 0.734375 0.46875q0.234375 0.28125 0.328125 0.71875q0.046875 0.265625 0.046875 0.96875l0 1.40625q0 1.46875 0.0625 1.859375q0.078125 0.390625 0.28125 0.75l-1.109375 0q-0.15625 -0.328125 -0.203125 -0.765625zm-0.09375 -2.359375q-0.578125 0.234375 -1.71875 0.40625q-0.65625 0.09375 -0.921875 0.21875q-0.265625 0.109375 -0.421875 0.328125q-0.140625 0.21875 -0.140625 0.5q0 0.421875 0.3125 0.703125q0.328125 0.28125 0.9375 0.28125q0.609375 0 1.078125 -0.265625q0.484375 -0.265625 0.703125 -0.734375q0.171875 -0.359375 0.171875 -1.046875l0 -0.390625zm4.423828 3.125l-2.359375 -6.21875l1.109375 0l1.34375 3.71875q0.203125 0.609375 0.390625 1.25q0.140625 -0.484375 0.390625 -1.171875l1.390625 -3.796875l1.078125 0l-2.359375 6.21875l-0.984375 0zm4.28125 -7.375l0 -1.21875l1.0625 0l0 1.21875l-1.0625 0zm0 7.375l0 -6.21875l1.0625 0l0 6.21875l-1.0625 0zm2.2753906 -3.109375q0 -1.734375 0.953125 -2.5625q0.796875 -0.6875 1.953125 -0.6875q1.28125 0 2.09375 0.84375q0.828125 0.828125 0.828125 2.3125q0 1.203125 -0.359375 1.890625q-0.359375 0.6875 -1.0625 1.078125q-0.6875 0.375 -1.5 0.375q-1.296875 0 -2.109375 -0.828125q-0.796875 -0.84375 -0.796875 -2.421875zm1.078125 0q0 1.1875 0.515625 1.78125q0.53125 0.59375 1.3125 0.59375q0.796875 0 1.3125 -0.59375q0.515625 -0.59375 0.515625 -1.8125q0 -1.15625 -0.53125 -1.75q-0.515625 -0.59375 -1.296875 -0.59375q-0.78125 0 -1.3125 0.59375q-0.515625 0.578125 -0.515625 1.78125zm5.970703 3.109375l0 -6.21875l0.953125 0l0 0.9375q0.359375 -0.65625 0.65625 -0.859375q0.3125 -0.21875 0.6875 -0.21875q0.53125 0 1.078125 0.328125l-0.359375 0.984375q-0.390625 -0.234375 -0.765625 -0.234375q-0.359375 0 -0.640625 0.21875q-0.265625 0.203125 -0.375 0.578125q-0.1875 0.5625 -0.1875 1.21875l0 3.265625l-1.046875 0zm3.7617188 -2.765625l1.0625 -0.09375q0.078125 0.65625 0.359375 1.0625q0.28125 0.40625 0.859375 0.671875q0.59375 0.25 1.328125 0.25q0.640625 0 1.140625 -0.1875q0.5 -0.203125 0.734375 -0.53125q0.25 -0.34375 0.25 -0.734375q0 -0.40625 -0.234375 -0.703125q-0.234375 -0.3125 -0.765625 -0.515625q-0.359375 -0.140625 -1.546875 -0.421875q-1.171875 -0.28125 -1.640625 -0.53125q-0.625 -0.328125 -0.921875 -0.796875q-0.296875 -0.484375 -0.296875 -1.078125q0 -0.640625 0.359375 -1.203125q0.375 -0.578125 1.078125 -0.859375q0.71875 -0.296875 1.578125 -0.296875q0.953125 0 1.6875 0.3125q0.734375 0.296875 1.125 0.90625q0.390625 0.59375 0.421875 1.34375l-1.09375 0.078125q-0.09375 -0.8125 -0.609375 -1.21875q-0.5 -0.421875 -1.484375 -0.421875q-1.03125 0 -1.5 0.375q-0.46875 0.375 -0.46875 0.90625q0 0.46875 0.328125 0.765625q0.328125 0.296875 1.703125 0.609375q1.390625 0.3125 1.90625 0.546875q0.75 0.359375 1.109375 0.890625q0.359375 0.515625 0.359375 1.21875q0 0.6875 -0.390625 1.296875q-0.390625 0.59375 -1.125 0.9375q-0.734375 0.328125 -1.65625 0.328125q-1.171875 0 -1.96875 -0.328125q-0.78125 -0.34375 -1.234375 -1.03125q-0.4375 -0.6875 -0.453125 -1.546875zm12.332031 2.765625l0 -0.921875q-0.734375 1.0625 -1.984375 1.0625q-0.546875 0 -1.03125 -0.203125q-0.46875 -0.21875 -0.703125 -0.53125q-0.234375 -0.328125 -0.328125 -0.796875q-0.0625 -0.296875 -0.0625 -0.984375l0 -3.84375l1.0625 0l0 3.453125q0 0.8125 0.0625 1.109375q0.09375 0.40625 0.40625 0.65625q0.328125 0.234375 0.8125 0.234375q0.46875 0 0.875 -0.234375q0.421875 -0.25 0.59375 -0.671875q0.1875 -0.421875 0.1875 -1.21875l0 -3.328125l1.046875 0l0 6.21875l-0.9375 0zm3.5644531 0l-0.984375 0l0 -8.59375l1.0625 0l0 3.0625q0.671875 -0.828125 1.703125 -0.828125q0.578125 0 1.078125 0.234375q0.515625 0.21875 0.84375 0.640625q0.34375 0.421875 0.53125 1.015625q0.1875 0.59375 0.1875 1.265625q0 1.59375 -0.796875 2.46875q-0.796875 0.875 -1.890625 0.875q-1.109375 0 -1.734375 -0.921875l0 0.78125zm-0.015625 -3.15625q0 1.109375 0.3125 1.609375q0.5 0.8125 1.34375 0.8125q0.6875 0 1.1875 -0.59375q0.515625 -0.59375 0.515625 -1.796875q0 -1.21875 -0.484375 -1.796875q-0.484375 -0.578125 -1.171875 -0.578125q-0.6875 0 -1.203125 0.609375q-0.5 0.59375 -0.5 1.734375zm5.705078 -4.203125l0 -1.234375l1.0625 0l0 1.234375l-1.0625 0zm-1.328125 9.78125l0.1875 -0.90625q0.328125 0.078125 0.5 0.078125q0.328125 0 0.484375 -0.21875q0.15625 -0.203125 0.15625 -1.0625l0 -6.53125l1.0625 0l0 6.5625q0 1.140625 -0.296875 1.59375q-0.390625 0.59375 -1.265625 0.59375q-0.4375 0 -0.828125 -0.109375zm8.259766 -4.421875l1.09375 0.125q-0.25 0.953125 -0.953125 1.484375q-0.703125 0.53125 -1.78125 0.53125q-1.359375 0 -2.171875 -0.84375q-0.796875 -0.84375 -0.796875 -2.359375q0 -1.5625 0.8125 -2.421875q0.8125 -0.875 2.09375 -0.875q1.25 0 2.03125 0.84375q0.796875 0.84375 0.796875 2.390625q0 0.09375 0 0.28125l-4.640625 0q0.0625 1.03125 0.578125 1.578125q0.515625 0.53125 1.296875 0.53125q0.578125 0 0.984375 -0.296875q0.421875 -0.3125 0.65625 -0.96875zm-3.453125 -1.703125l3.46875 0q-0.0625 -0.796875 -0.390625 -1.1875q-0.515625 -0.609375 -1.3125 -0.609375q-0.734375 0 -1.234375 0.484375q-0.484375 0.484375 -0.53125 1.3125zm9.939453 1.421875l1.03125 0.140625q-0.171875 1.0625 -0.875 1.671875q-0.703125 0.609375 -1.71875 0.609375q-1.28125 0 -2.0625 -0.828125q-0.765625 -0.84375 -0.765625 -2.40625q0 -1.0 0.328125 -1.75q0.34375 -0.765625 1.015625 -1.140625q0.6875 -0.375 1.5 -0.375q1.0 0 1.640625 0.515625q0.65625 0.5 0.84375 1.453125l-1.03125 0.15625q-0.140625 -0.625 -0.515625 -0.9375q-0.375 -0.328125 -0.90625 -0.328125q-0.796875 0 -1.296875 0.578125q-0.5 0.5625 -0.5 1.796875q0 1.265625 0.484375 1.828125q0.484375 0.5625 1.25 0.5625q0.625 0 1.03125 -0.375q0.421875 -0.375 0.546875 -1.171875zm4.234375 1.34375l0.15625 0.921875q-0.453125 0.09375 -0.796875 0.09375q-0.578125 0 -0.890625 -0.171875q-0.3125 -0.1875 -0.453125 -0.484375q-0.125 -0.296875 -0.125 -1.25l0 -3.578125l-0.765625 0l0 -0.8125l0.765625 0l0 -1.546875l1.046875 -0.625l0 2.171875l1.0625 0l0 0.8125l-1.0625 0l0 3.640625q0 0.453125 0.046875 0.578125q0.0625 0.125 0.1875 0.203125q0.125 0.078125 0.359375 0.078125q0.1875 0 0.46875 -0.03125z" fill-rule="nonzero"></path></g></svg>

